<svg width="324" height="80" viewBox="0 0 324 80" fill="none" xmlns="http://www.w3.org/2000/svg"><path d="M111.157 68.28h-71.27v3.46h71.27v-3.46ZM5.798 21.556c0 .236-.08.472-.159.63-.08.236-.159.393-.318.55l-.476.472a.808.808 0 0 1-.398.472c-.159.079-.317.236-.476.394-.16.157-.398.236-.557.393l-.476.472a.845.845 0 0 0-.239.55h3.1v1.26h-4.45v-1.023c0-.315.08-.551.159-.787s.238-.472.317-.708a3.43 3.43 0 0 1 .477-.55c.159-.158.397-.315.556-.473.16-.157.398-.236.556-.393.16-.157.318-.236.477-.393.16-.158.239-.236.318-.394.08-.157.159-.314.159-.393 0-.079 0-.236-.08-.315l-.238-.236c-.08-.078-.238-.078-.318-.157-.159 0-.238-.079-.397-.079-.238 0-.477.08-.715.158a1.732 1.732 0 0 0-.636.393l-.715-1.023c.239-.236.556-.393.954-.55.397-.157.794-.157 1.191-.157.239 0 .557 0 .795.078.238.079.556.157.715.315.238.157.397.393.556.63.318.156.318.471.318.864Zm5.086.235c0-.157 0-.314-.08-.393-.079-.078-.158-.236-.238-.314-.08-.08-.159-.158-.318-.158-.08 0-.238-.078-.317-.078-.08 0-.239 0-.318.078-.08 0-.239.079-.318.158a1.06 1.06 0 0 0-.238.314c-.08.079-.08.236-.08.393v2.911c0 .157 0 .315.08.393.079.079.158.236.238.315.08.079.159.157.318.157.08 0 .238.079.318.079.079 0 .238 0 .317-.079.08 0 .239-.078.318-.157.08-.079.16-.157.239-.315.079-.078.079-.236.079-.393v-2.91Zm1.35 3.147c0 .315-.079.63-.238.865a1.847 1.847 0 0 1-.556.55c-.238.158-.477.237-.715.316-.238.078-.556.078-.794.078-.239 0-.557 0-.795-.078-.238-.08-.477-.158-.715-.315a1.847 1.847 0 0 1-.556-.55c-.16-.237-.239-.551-.239-.866v-3.383c0-.314.08-.629.239-.865.159-.236.318-.472.556-.63.238-.156.477-.314.715-.392.238-.08.556-.08.795-.08.238 0 .556.08.794.08.238.078.477.236.715.393.239.157.397.393.556.63.16.235.239.55.239.864v3.383Zm3.736 1.808v-5.428l-.715.63-.715-.944 1.59-1.338h1.191v7.08h-1.35Zm8.977-5.194c0 .236-.08.472-.159.63-.08.235-.159.393-.318.55l-.477.472c-.159.157-.317.315-.476.393-.16.079-.318.236-.477.394-.159.157-.397.236-.556.393l-.477.472a.845.845 0 0 0-.238.55h3.098v1.338h-4.449V25.72c0-.314.08-.55.159-.787.08-.236.238-.472.318-.707.159-.236.317-.394.476-.551.16-.157.398-.315.557-.472.159-.157.397-.236.556-.393.159-.158.318-.236.476-.394.16-.157.239-.236.318-.393.08-.157.16-.315.16-.393 0-.079 0-.236-.08-.315l-.239-.236c-.079-.079-.238-.079-.317-.157-.16 0-.239-.079-.398-.079-.238 0-.476.079-.715.157a1.733 1.733 0 0 0-.635.394l-.715-1.023c.238-.236.556-.393.953-.55.397-.158.794-.158 1.192-.158.238 0 .556 0 .794.079.239.078.556.157.715.314.239.158.398.394.557.63.317.157.397.472.397.865Zm64.121-6.369h-3.496v49.479h3.496v-49.48ZM63.007 42.4H40.363v3.461h22.644V42.4Z" fill="#fff"/><path d="M93.756 42.4h-6.038v3.461h6.038V42.4Zm17.4 0H104.8v3.461h6.356V42.4Zm-38.854-3.777h6.754v-11.25l-1.51-.864H73.89l-1.59.865v11.249Zm10.25 3.461H68.806V25.329l4.132-2.36h5.561l4.053 2.36v16.755ZM72.302 68.28h6.754V53.254h-6.754v15.024Zm10.25 3.46H68.806V49.795h13.746V71.74ZM65.629 15.183h-3.496v49.479h3.496v-49.48ZM48.944 42.322h6.674v-7.945h-6.754v7.945h.08Zm10.17 3.46H45.448V30.917h13.746v14.867h-.08Z" fill="#fff"/><path d="M95.743 61.201h6.754V34.377h-6.754V61.2Zm10.17 3.461H92.168V30.915h13.745v33.747ZM48.944 61.2h6.674v-7.945h-6.754V61.2h.08Zm10.17 3.46H45.448V49.795h13.746V64.66h-.08Z" fill="#fff"/><path d="M91.611 79.057H38.615V25.094h3.496v50.502h49.5v3.46Z" fill="#fff"/><path d="M112.904 79.057H89.067v-3.461h20.341V25.094h3.496v53.963ZM77.467 21.791H73.97v2.99h3.496v-2.99Zm-23.596 7.943h-3.496v2.99h3.496v-2.99Zm.079 18.959h-3.495v2.99h3.496v-2.99Zm46.719-18.959h-3.496v2.99h3.496v-2.99ZM84.777 53.725c-4.926-4.877-12.95-4.877-17.797 0l-2.464-2.438c6.277-6.215 16.527-6.215 22.804 0l-2.543 2.438Zm22.724-51.838H92.405v3.461h15.096v-3.46ZM26.537 46.411c-2.94 0-5.403 2.36-5.403 5.35 0 2.91 2.384 5.348 5.403 5.348 2.94 0 5.403-2.36 5.403-5.349 0-2.99-2.383-5.349-5.403-5.349Zm0 14.08c-4.926 0-8.899-3.932-8.899-8.81 0-4.877 3.973-8.81 8.9-8.81 4.925 0 8.898 3.933 8.898 8.81 0 4.878-3.973 8.81-8.899 8.81Z" fill="#fff"/><path d="M33.689 79.058H24.79V58.763h3.496v16.834h5.403v3.461ZM8.899 65.92c-2.94 0-5.403 2.36-5.403 5.348 0 2.91 2.384 5.35 5.403 5.35 2.94 0 5.403-2.36 5.403-5.35-.08-2.989-2.463-5.349-5.403-5.349Zm0 14.08C3.973 80 0 76.067 0 71.268c0-4.877 3.973-8.81 8.899-8.81 4.926 0 8.899 3.933 8.899 8.81-.08 4.799-4.052 8.732-8.9 8.732Z" fill="#fff"/><path d="M26.616 75.595h-7.15v3.46h7.15v-3.46Zm88.91-47.983H104.8V24.15h7.23v-2.832h3.496v6.293Zm-68.41 0H36.55v-6.293h3.496v2.832h7.071v3.46Zm21.693-10.385H55.3v-6.293h3.496v2.832H68.81v3.46Z" fill="#fff"/><path d="M107.424 16.284h-3.496v-5.507h-7.787v.079h-3.496v-3.54h14.779v8.968Z" fill="#ED1556"/><path d="M96.14 17.07H82.712v-3.462h9.932v-2.753h3.496v6.214Z" fill="#fff"/><path d="m34.085 24.15-1.51-3.147L76.117 0l43.382 21.003-1.51 3.147L76.117 3.855 34.085 24.15Z" fill="#ED1556"/><path d="m41.315 26.902-1.51-3.146L76.117 6.528l35.993 17.228-1.509 3.146-34.484-16.52-34.8 16.52Zm97.015 30.524-.079 2.046c0 .393-.08.786-.08 1.101 0 .315-.079.63-.079.944-.079.315-.159.55-.238.787-.08.236-.159.472-.318.629h3.496v-5.507h-2.702Zm-2.383 5.507.476-.472c.159-.157.239-.393.318-.708.08-.236.159-.63.239-.944.079-.393.079-.865.079-1.337l.159-3.147h5.165v6.608h.635v2.832h-1.192v-1.73h-5.164v1.73h-1.192v-2.832h.477ZM149.534 59c0-.315-.08-.55-.159-.708a.81.81 0 0 0-.398-.472c-.158-.157-.317-.236-.556-.315-.238-.079-.397-.079-.635-.079-.239 0-.398 0-.636.08-.238.078-.397.157-.556.314-.159.157-.239.315-.397.472-.08.236-.159.472-.159.708v2.36c0 .314.079.55.159.708a.806.806 0 0 0 .397.472c.159.157.318.236.556.314.238.079.397.079.636.079.238 0 .397 0 .635-.079.239-.078.398-.157.556-.314.159-.158.239-.315.398-.472.079-.236.159-.472.159-.708V59Zm1.271 2.596c0 .393-.08.786-.238 1.1-.159.316-.398.63-.636.788-.238.236-.556.393-.954.472-.397.078-.715.157-1.191.157-.398 0-.795-.079-1.192-.157-.397-.08-.636-.315-.954-.472-.238-.236-.476-.472-.635-.787a2.49 2.49 0 0 1-.239-1.101v-2.754c0-.393.08-.786.239-1.1.159-.316.397-.551.635-.787.239-.236.557-.394.954-.472.397-.08.715-.158 1.192-.158.397 0 .794.079 1.112.157.397.158.715.315.953.551.239.236.477.472.636.787.159.315.238.708.238 1.101v2.675h.08Zm8.264-2.283-.715 1.494-1.113 2.203h-.953l-1.112-2.046-.795-1.651h-.079v4.798h-1.272v-7.788h1.192l1.51 2.91 1.033 2.046 1.033-2.045 1.43-2.91h1.192v7.787h-1.272v-4.799h-.079Zm8.183-.317c0-.315-.08-.55-.159-.708a.81.81 0 0 0-.398-.472c-.158-.157-.317-.236-.556-.315-.238-.078-.397-.078-.635-.078-.239 0-.398 0-.636.078-.159.079-.397.158-.556.315-.159.157-.239.315-.397.472-.08.236-.159.472-.159.708v2.36c0 .314.079.55.159.708a.806.806 0 0 0 .397.472c.159.157.318.236.556.314.238.079.397.079.636.079.238 0 .397 0 .635-.079.239-.078.398-.157.556-.314.159-.158.239-.315.398-.472.079-.236.159-.472.159-.708v-2.36Zm1.271 2.596c0 .393-.08.786-.238 1.101-.159.315-.398.63-.636.787-.238.236-.556.393-.954.472-.397.078-.715.157-1.191.157-.398 0-.795-.079-1.192-.157-.397-.079-.636-.315-.954-.472-.238-.236-.476-.472-.635-.787a2.49 2.49 0 0 1-.239-1.101v-2.753c0-.394.08-.787.239-1.102.159-.314.397-.55.635-.786.239-.236.557-.394.954-.472.397-.079.715-.158 1.192-.158.397 0 .794.079 1.112.158.397.157.715.314.953.55.239.236.477.472.636.787.159.315.238.708.238 1.101v2.675h.08Zm6.756-3.619c-.239-.157-.477-.315-.795-.393-.318-.08-.556-.158-.874-.158-.159 0-.397 0-.556.079-.159.079-.397.157-.556.315-.159.157-.239.314-.398.471-.079.236-.158.472-.158.708v2.36c0 .315.079.551.158.708a.81.81 0 0 0 .398.472c.159.158.318.236.556.315.159.079.397.079.556.079.318 0 .556-.08.874-.158.318-.078.556-.236.795-.393l.635 1.023c-.238.236-.635.393-1.033.55a3.63 3.63 0 0 1-1.271.236c-.397 0-.715-.078-1.112-.157a2.699 2.699 0 0 1-.954-.472c-.238-.236-.476-.472-.635-.787a2.49 2.49 0 0 1-.239-1.101v-2.91c0-.394.08-.787.239-1.102.159-.315.397-.55.635-.787.239-.236.556-.393.954-.471a4.732 4.732 0 0 1 1.112-.158c.397 0 .874.079 1.271.158.398.157.715.314 1.033.55l-.635 1.023Zm5.561-.548v6.686h-1.271v-6.687h-2.225v-1.1h5.721v1.1h-2.225Zm5.246 2.436h1.828c.397 0 .715-.078.874-.314.238-.236.318-.551.318-.866 0-.393-.08-.63-.318-.865-.239-.236-.556-.315-.874-.315h-1.828v2.36Zm2.066-3.54c.397 0 .715.079 1.033.236.318.158.477.315.715.55.159.237.318.473.397.788.08.314.159.55.159.865 0 .315-.079.55-.159.865-.079.315-.238.55-.476.787-.159.236-.398.393-.715.55-.239.158-.636.236-.954.236h-2.066v3.068h-1.271V56.48h3.337v-.158Zm8.58 2.675c0-.315-.079-.55-.159-.708a.806.806 0 0 0-.397-.472c-.159-.157-.318-.236-.556-.315-.238-.078-.397-.078-.636-.078-.238 0-.397 0-.635.078-.159.079-.398.158-.557.315-.158.157-.238.315-.397.472-.079.236-.159.472-.159.708v2.36c0 .314.08.55.159.708.08.236.239.393.397.472.159.157.318.236.557.314.238.079.397.079.635.079.239 0 .398 0 .636-.079.238-.078.397-.157.556-.314.159-.158.238-.315.397-.472.08-.236.159-.472.159-.708v-2.36Zm1.272 2.596c0 .393-.08.786-.239 1.101-.159.315-.397.63-.635.787-.239.236-.557.393-.954.472-.397.078-.715.157-1.192.157-.397 0-.794-.079-1.192-.157-.397-.079-.635-.315-.953-.472-.238-.236-.477-.472-.636-.787a2.49 2.49 0 0 1-.238-1.101v-2.753c0-.394.079-.787.238-1.102.159-.314.398-.55.636-.786s.556-.394.953-.472c.398-.079.716-.158 1.192-.158.398 0 .795.079 1.113.158.397.157.715.314.953.55.238.236.477.472.636.787.159.315.238.708.238 1.101v2.675h.08Zm7.072-3.069-.476.708-.477.708c-.08.079-.159.236-.318.472l-.477.708c-.159.315-.397.551-.556.866-.238.314-.397.629-.556.865-.159.236-.318.55-.477.708-.159.236-.238.393-.318.472h-1.191v-7.788h1.271v5.585h.079l3.576-5.585h1.192v7.788h-1.272v-5.507Zm6.592-1.098v6.686h-1.272v-6.687h-2.224v-1.1h5.641v1.1h-2.145Zm3.973-1.102h5.323v1.102h-4.052v2.202h3.496v1.101h-3.496v2.203h4.052v1.18h-5.323v-7.788Zm9.534 1.099v2.281c0 .708-.08 1.338-.159 1.81-.08.55-.239.944-.398 1.337-.159.393-.476.708-.794.944-.318.236-.715.393-1.192.55l-.397-1.1c.318-.158.556-.237.715-.473a1.23 1.23 0 0 0 .477-.629c.158-.236.238-.63.238-1.023.079-.393.079-.865.079-1.416v-3.46h5.006v7.787h-1.351v-6.608h-2.224Zm7.309 5.507h1.828c.397 0 .715-.079.953-.315s.318-.472.318-.865-.159-.63-.397-.865c-.239-.236-.557-.315-.954-.315h-1.827v2.36h.079Zm-1.271 1.18v-7.788h1.271v3.068h1.987c.397 0 .715.079.953.157.318.158.556.315.715.473.238.236.397.471.477.786.079.315.159.55.159.865 0 .315-.08.551-.159.866-.08.314-.239.55-.397.786-.159.236-.398.394-.716.551a2.213 2.213 0 0 1-1.032.236h-3.258Zm12.076.001v-3.382h-3.258v3.383h-1.35v-7.788h1.35v3.225h3.258v-3.225h1.351v7.788h-1.351Zm5.325-2.83h2.225l-.477-1.495-.636-1.967h-.079l-.556 1.888-.477 1.574Zm2.622 1.1h-2.94l-.556 1.653h-1.43l2.781-7.788h1.35l2.781 7.788h-1.43l-.556-1.652Zm8.024-4.954h-1.827c-.397 0-.795.08-.954.315-.238.236-.317.55-.317.865 0 .394.079.63.317.787.239.157.557.236.954.236h1.748v-2.203h.079Zm1.272-1.1v7.787h-1.272v-3.225h-1.271c-.159 0-.318 0-.397.078-.159 0-.239.079-.397.158-.08.078-.239.157-.318.314-.08.158-.159.315-.239.551l-.635 2.124h-1.43l.635-2.203c.08-.314.239-.55.318-.786.079-.236.318-.394.556-.551-.477-.157-.794-.393-1.033-.708a2.207 2.207 0 0 1-.318-1.18c0-.315.08-.63.159-.865.08-.315.239-.55.477-.787.159-.236.397-.393.715-.55.318-.158.636-.158 1.033-.158h3.417ZM135.869 77.721v-7.787h1.271v3.225h1.431c.158 0 .238-.079.397-.158a.62.62 0 0 0 .318-.314c.079-.157.159-.315.238-.55l.715-2.203h1.271l-.715 2.28c-.159.394-.238.709-.476.945a1.237 1.237 0 0 1-.636.472c.318.078.556.314.795.55.158.236.317.63.476.944l.795 2.518h-1.43l-.636-2.282c-.079-.236-.159-.393-.238-.55-.08-.158-.239-.236-.318-.315-.159-.079-.239-.157-.397-.157h-1.59v3.382h-1.271Zm12.316-5.114c0-.314-.08-.55-.159-.708-.079-.157-.238-.393-.397-.472-.159-.157-.318-.236-.556-.314-.239-.079-.398-.079-.636-.079s-.397 0-.636.079c-.238.078-.397.157-.556.314-.159.158-.238.315-.397.472-.159.158-.159.472-.159.708v2.36c0 .315.079.55.159.708a.806.806 0 0 0 .397.472c.159.157.318.236.556.315.159.078.398.078.636.078s.397 0 .636-.078c.238-.079.397-.158.556-.315.159-.157.238-.315.397-.472.079-.236.159-.472.159-.708v-2.36Zm1.271 2.517c0 .394-.079.787-.238 1.102-.159.314-.397.63-.636.786-.238.236-.556.394-.953.472-.398.079-.715.158-1.192.158-.397 0-.795-.079-1.192-.158-.397-.078-.636-.314-.953-.472-.239-.236-.477-.472-.636-.786a2.49 2.49 0 0 1-.238-1.102v-2.753c0-.393.079-.786.238-1.101.159-.315.397-.55.636-.787.238-.236.556-.393.953-.472a4.858 4.858 0 0 1 1.192-.157c.397 0 .794.079 1.112.157.398.158.715.315.954.551.238.236.476.472.635.787.159.314.239.708.239 1.1v2.675h.079Zm8.262-2.204-.715 1.495-1.113 2.124h-.953l-1.113-2.045-.794-1.573h-.08v4.798h-1.271v-7.866h1.192l1.51 2.99.953 2.044h.079l.954-2.045 1.51-2.989h1.191v7.866h-1.35v-4.798Zm8.182 4.8v-6.687h-3.337v6.686h-1.271v-7.866h5.879v7.866H165.9Zm5.323-2.832h2.146l-.477-1.495-.636-1.967h-.079l-.556 1.888-.398 1.574Zm2.543 1.1h-2.94l-.556 1.653h-1.351l2.781-7.788h1.351l2.781 7.788h-1.43l-.636-1.652Zm8.186 1.732v-3.383h-3.257v3.382h-1.351v-7.866h1.351v3.304h3.257v-3.304h1.351v7.866h-1.351Zm8.418-5.588-.477.708-.476.708c-.08.079-.159.236-.318.472l-.477.708c-.159.315-.397.55-.556.866-.238.314-.397.629-.556.865-.159.236-.318.55-.477.708-.159.236-.238.393-.318.472h-1.192V69.85h1.272v5.585h.079l3.576-5.585h1.191v7.788h-1.271v-5.507Zm8.027-1.101h-1.748c-.397 0-.795.079-.954.315-.238.236-.317.55-.317.865 0 .393.079.63.317.787.239.157.557.236.954.236h1.748V71.03Zm1.271-1.18v7.788h-1.271v-3.225h-1.271c-.159 0-.318 0-.398.078-.159 0-.238.079-.397.158-.079.078-.238.157-.318.314-.079.157-.159.315-.238.55l-.636 2.125h-1.43l.636-2.203c.079-.315.238-.55.318-.786.079-.236.317-.394.556-.551-.477-.157-.795-.393-1.033-.708a2.197 2.197 0 0 1-.318-1.18c0-.315.079-.63.159-.865.079-.315.238-.551.477-.787.159-.236.397-.393.715-.55.318-.158.635-.158 1.033-.158h3.416Zm-63.881-28.003V19.193h20.817v22.655h-6.992V25.172h-6.754v16.676h-7.071Zm38.46-5.901c1.509 0 2.701-.55 3.655-1.494.953-1.023 1.43-2.36 1.43-3.933s-.477-2.91-1.43-3.855c-.954-1.022-2.146-1.573-3.655-1.573-1.51 0-2.702.55-3.655 1.573-.954 1.023-1.43 2.282-1.43 3.855s.476 2.91 1.43 3.933c.953.944 2.145 1.494 3.655 1.494Zm-8.82-13.766c2.304-2.28 5.244-3.46 8.82-3.46 3.496 0 6.436 1.18 8.74 3.46 2.304 2.282 3.496 5.035 3.496 8.339 0 3.304-1.113 6.057-3.496 8.338-2.304 2.281-5.244 3.461-8.74 3.461-3.496 0-6.436-1.18-8.82-3.46-2.304-2.282-3.496-5.114-3.496-8.34.08-3.303 1.192-6.056 3.496-8.338Zm35.835 6.686c1.43 0 2.384-.865 2.384-2.045s-1.033-2.045-2.384-2.045h-2.542v4.012h2.542v.078Zm.954-9.675c2.622 0 4.687.708 6.277 2.045 1.589 1.416 2.383 3.147 2.383 5.27 0 2.124-.794 3.934-2.383 5.35-1.59 1.416-3.655 2.045-6.277 2.045h-3.496v7.866h-6.992V19.192h10.488Zm20.177 14.477h5.006l-2.622-6.608-2.384 6.608Zm-10.25 8.181 9.455-22.812h6.675l9.455 22.812h-7.548l-1.113-2.91h-8.501l-1.113 2.91h-7.31Zm44.017-5.982V25.17h-4.211c0 1.81-.159 3.697-.477 5.821-.318 2.046-.715 3.698-1.271 4.877h5.959Zm-15.335 10.148V35.868h2.304c1.51-2.595 2.225-6.765 2.225-12.271v-4.405h17.798v16.676h2.86v10.148h-6.594v-4.169h-12.077v4.17h-6.516Zm41.635-10.069c1.51 0 2.702-.55 3.655-1.494.954-1.023 1.431-2.36 1.431-3.933s-.477-2.91-1.431-3.855c-.953-1.022-2.145-1.573-3.655-1.573-1.509 0-2.701.55-3.654 1.573-.954 1.023-1.431 2.282-1.431 3.855s.477 2.91 1.431 3.933c1.032.944 2.224 1.494 3.654 1.494Zm-8.74-13.766c2.305-2.28 5.244-3.46 8.82-3.46 3.496 0 6.436 1.18 8.74 3.46 2.304 2.282 3.496 5.035 3.496 8.339 0 3.304-1.112 6.057-3.496 8.338-2.304 2.281-5.244 3.461-8.74 3.461-3.496 0-6.436-1.18-8.82-3.46-2.304-2.282-3.496-5.114-3.496-8.34 0-3.303 1.113-6.056 3.496-8.338Zm25.746 19.667V19.193h6.992l5.006 8.024 5.005-8.024h6.913v22.655h-6.754V29.105l-3.178 5.428h-3.814l-3.337-5.428v12.743h-6.833Z" fill="#fff"/></svg>