<svg width="40" height="47" viewBox="0 0 40 47" fill="none" xmlns="http://www.w3.org/2000/svg">
<g filter="url(#filter0_ddddd_791_13851)">
<circle cx="20" cy="16" r="15" fill="#98999D"/>
<path d="M24.3636 14.1909V11.756C24.3871 10.5226 23.9411 9.32967 23.1233 8.43834C22.3055 7.54702 21.1825 7.02985 20 7C18.8175 7.02985 17.6945 7.54702 16.8767 8.43834C16.0589 9.32967 15.6129 10.5226 15.6364 11.756V14.1909H14V23.8622C14 24.164 14.1149 24.4534 14.3195 24.6667C14.5241 24.8801 14.8016 25 15.0909 25H24.9091C25.1984 25 25.4759 24.8801 25.6805 24.6667C25.8851 24.4534 26 24.164 26 23.8622V14.1909H24.3636ZM20.5455 20.0107V21.5866H19.4545V19.9595C19.189 19.817 18.9781 19.5841 18.857 19.2994C18.7358 19.0147 18.7116 18.6954 18.7884 18.3943C18.8652 18.0933 19.0384 17.8288 19.2792 17.6445C19.52 17.4603 19.814 17.3675 20.1123 17.3815C20.4107 17.3955 20.6955 17.5155 20.9194 17.7215C21.1434 17.9276 21.2931 18.2073 21.3437 18.5143C21.3942 18.8213 21.3427 19.1371 21.1975 19.4093C21.0523 19.6814 20.8222 19.8937 20.5455 20.0107ZM23.2727 14.1909H16.7273V11.756C16.7038 10.8243 17.0348 9.92073 17.648 9.24276C18.2612 8.5648 19.1068 8.16754 20 8.1378C20.8932 8.16754 21.7388 8.5648 22.352 9.24276C22.9652 9.92073 23.2962 10.8243 23.2727 11.756V14.1909Z" fill="white"/>
</g>
<defs>
<filter id="filter0_ddddd_791_13851" x="0" y="0" width="40" height="47" filterUnits="userSpaceOnUse" color-interpolation-filters="sRGB">
<feFlood flood-opacity="0" result="BackgroundImageFix"/>
<feColorMatrix in="SourceAlpha" type="matrix" values="0 0 0 0 0 0 0 0 0 0 0 0 0 0 0 0 0 0 127 0" result="hardAlpha"/>
<feOffset/>
<feColorMatrix type="matrix" values="0 0 0 0 0 0 0 0 0 0 0 0 0 0 0 0 0 0 0.1 0"/>
<feBlend mode="normal" in2="BackgroundImageFix" result="effect1_dropShadow_791_13851"/>
<feColorMatrix in="SourceAlpha" type="matrix" values="0 0 0 0 0 0 0 0 0 0 0 0 0 0 0 0 0 0 127 0" result="hardAlpha"/>
<feOffset dy="1"/>
<feGaussianBlur stdDeviation="1"/>
<feColorMatrix type="matrix" values="0 0 0 0 0 0 0 0 0 0 0 0 0 0 0 0 0 0 0.1 0"/>
<feBlend mode="normal" in2="effect1_dropShadow_791_13851" result="effect2_dropShadow_791_13851"/>
<feColorMatrix in="SourceAlpha" type="matrix" values="0 0 0 0 0 0 0 0 0 0 0 0 0 0 0 0 0 0 127 0" result="hardAlpha"/>
<feOffset dy="3"/>
<feGaussianBlur stdDeviation="1.5"/>
<feColorMatrix type="matrix" values="0 0 0 0 0 0 0 0 0 0 0 0 0 0 0 0 0 0 0.09 0"/>
<feBlend mode="normal" in2="effect2_dropShadow_791_13851" result="effect3_dropShadow_791_13851"/>
<feColorMatrix in="SourceAlpha" type="matrix" values="0 0 0 0 0 0 0 0 0 0 0 0 0 0 0 0 0 0 127 0" result="hardAlpha"/>
<feOffset dy="6"/>
<feGaussianBlur stdDeviation="2"/>
<feColorMatrix type="matrix" values="0 0 0 0 0 0 0 0 0 0 0 0 0 0 0 0 0 0 0.05 0"/>
<feBlend mode="normal" in2="effect3_dropShadow_791_13851" result="effect4_dropShadow_791_13851"/>
<feColorMatrix in="SourceAlpha" type="matrix" values="0 0 0 0 0 0 0 0 0 0 0 0 0 0 0 0 0 0 127 0" result="hardAlpha"/>
<feOffset dy="11"/>
<feGaussianBlur stdDeviation="2.5"/>
<feColorMatrix type="matrix" values="0 0 0 0 0 0 0 0 0 0 0 0 0 0 0 0 0 0 0.01 0"/>
<feBlend mode="normal" in2="effect4_dropShadow_791_13851" result="effect5_dropShadow_791_13851"/>
<feBlend mode="normal" in="SourceGraphic" in2="effect5_dropShadow_791_13851" result="shape"/>
</filter>
</defs>
</svg>
