<svg width="70" height="700" viewBox="0 0 70 700" fill="none" xmlns="http://www.w3.org/2000/svg">
<circle cx="60" cy="130" r="10" fill="#292929"/>
<circle opacity="0.7" cx="10" cy="130" r="10" fill="#292929"/>
<rect x="10" y="128" width="50" height="4" fill="#98999D"/>
<circle cx="60" cy="90" r="10" fill="#292929"/>
<circle opacity="0.7" cx="10" cy="90" r="10" fill="#292929"/>
<rect x="10" y="88" width="50" height="4" fill="#98999D"/>
<circle cx="60" cy="50" r="10" fill="#292929"/>
<circle opacity="0.7" cx="10" cy="50" r="10" fill="#292929"/>
<rect x="10" y="48" width="50" height="4" fill="#98999D"/>
<circle cx="60" cy="10" r="10" fill="#292929"/>
<circle opacity="0.7" cx="10" cy="10" r="10" fill="#292929"/>
<rect x="10" y="8" width="50" height="4" fill="#98999D"/>
<circle cx="60" cy="170" r="10" fill="#292929"/>
<circle opacity="0.7" cx="10" cy="170" r="10" fill="#292929"/>
<rect x="10" y="168" width="50" height="4" fill="#98999D"/>
<circle cx="60" cy="210" r="10" fill="#292929"/>
<circle opacity="0.7" cx="10" cy="210" r="10" fill="#292929"/>
<rect x="10" y="208" width="50" height="4" fill="#98999D"/>
<circle cx="60" cy="250" r="10" fill="#292929"/>
<circle opacity="0.7" cx="10" cy="250" r="10" fill="#292929"/>
<rect x="10" y="248" width="50" height="4" fill="#98999D"/>
<circle cx="60" cy="290" r="10" fill="#292929"/>
<circle opacity="0.7" cx="10" cy="290" r="10" fill="#292929"/>
<rect x="10" y="288" width="50" height="4" fill="#98999D"/>
<circle cx="60" cy="330" r="10" fill="#292929"/>
<circle opacity="0.7" cx="10" cy="330" r="10" fill="#292929"/>
<rect x="10" y="328" width="50" height="4" fill="#98999D"/>
<circle cx="60" cy="370" r="10" fill="#292929"/>
<circle opacity="0.7" cx="10" cy="370" r="10" fill="#292929"/>
<rect x="10" y="368" width="50" height="4" fill="#98999D"/>
<circle cx="60" cy="410" r="10" fill="#292929"/>
<circle opacity="0.7" cx="10" cy="410" r="10" fill="#292929"/>
<rect x="10" y="408" width="50" height="4" fill="#98999D"/>
<circle cx="60" cy="450" r="10" fill="#292929"/>
<circle opacity="0.7" cx="10" cy="450" r="10" fill="#292929"/>
<rect x="10" y="448" width="50" height="4" fill="#98999D"/>
<circle cx="60" cy="490" r="10" fill="#292929"/>
<circle opacity="0.7" cx="10" cy="490" r="10" fill="#292929"/>
<rect x="10" y="488" width="50" height="4" fill="#98999D"/>
<circle cx="60" cy="530" r="10" fill="#292929"/>
<circle opacity="0.7" cx="10" cy="530" r="10" fill="#292929"/>
<rect x="10" y="528" width="50" height="4" fill="#98999D"/>
<circle cx="60" cy="570" r="10" fill="#292929"/>
<circle opacity="0.7" cx="10" cy="570" r="10" fill="#292929"/>
<rect x="10" y="568" width="50" height="4" fill="#98999D"/>
<circle cx="60" cy="610" r="10" fill="#292929"/>
<circle opacity="0.7" cx="10" cy="610" r="10" fill="#292929"/>
<rect x="10" y="608" width="50" height="4" fill="#98999D"/>
<circle cx="60" cy="650" r="10" fill="#292929"/>
<circle opacity="0.7" cx="10" cy="650" r="10" fill="#292929"/>
<rect x="10" y="648" width="50" height="4" fill="#98999D"/>
<circle cx="60" cy="690" r="10" fill="#292929"/>
<circle opacity="0.7" cx="10" cy="690" r="10" fill="#292929"/>
<rect x="10" y="688" width="50" height="4" fill="#98999D"/>
</svg>
