<svg width="50" height="50" viewBox="0 0 50 50" fill="none" xmlns="http://www.w3.org/2000/svg">
<circle cx="25" cy="25" r="24" stroke="white" stroke-width="2"/>
<path d="M24.7139 24.8419L17.4917 20.8343C17.4071 20.7874 17.3117 20.7635 17.215 20.7647C17.1183 20.766 17.0236 20.7924 16.9402 20.8415C16.8569 20.8905 16.7878 20.9604 16.7398 21.0443C16.6919 21.1282 16.6667 21.2232 16.6667 21.3198V29.297C16.6667 29.3961 16.6932 29.4933 16.7435 29.5787C16.7938 29.6641 16.8661 29.7344 16.9528 29.7825L24.175 33.7891C24.2596 33.836 24.355 33.86 24.4517 33.8587C24.5485 33.8574 24.6432 33.831 24.7265 33.7819C24.8099 33.7329 24.8789 33.663 24.9269 33.5791C24.9749 33.4952 25.0001 33.4003 25 33.3037V25.3264C24.9999 25.2275 24.9733 25.1304 24.923 25.0453C24.8727 24.9601 24.8005 24.8898 24.7139 24.8419Z" fill="white"/>
<path fill-rule="evenodd" clip-rule="evenodd" d="M25 16.4269L17.991 20.3113L24.9996 24.1954L32.0092 20.3114L25 16.4269ZM32.7565 21.5065V29.2754L25.7052 33.1824V25.4135L32.7565 21.5065ZM17.2436 21.507L24.2949 25.4145V33.1824L17.2436 29.2754V21.507ZM16.487 19.5356L24.384 15.1591C24.5723 15.0549 24.7847 15 25 15C25.2154 15 25.4273 15.0547 25.6156 15.1589L33.5131 19.5356C33.7107 19.645 33.8759 19.8054 33.9908 19.9996C34.1057 20.194 34.1664 20.4156 34.1667 20.6412V29.3576C34.1668 29.5835 34.1062 29.8057 33.9913 30.0004C33.8764 30.1952 33.7112 30.3557 33.5131 30.4654L25.616 34.8409C25.4277 34.9451 25.2154 35 25 35C24.7847 35 24.5728 34.9453 24.3845 34.8411L23.8411 34.5401C23.8341 34.5364 23.8272 34.5326 23.8204 34.5288L16.487 30.4654M16.487 19.5356C16.2894 19.645 16.1241 19.8054 16.0093 19.9996C15.8944 20.194 15.8336 20.4155 15.8334 20.6412L15.8334 21.267V29.3579C15.8333 29.5839 15.8939 29.8057 16.0088 30.0004C16.1236 30.195 16.289 30.3558 16.487 30.4654" fill="white"/>
</svg>
