<svg width="10" height="10" viewBox="0 0 10 10" fill="none" xmlns="http://www.w3.org/2000/svg">
<path d="M4.67436 0.881976L4.71837 0.857433L4.7587 0.827222C4.89617 0.724259 5.10224 0.724259 5.23971 0.827222L5.28004 0.857433L5.32405 0.881976L9.18896 3.03722C9.2198 3.06472 9.24841 3.11497 9.24841 3.19131V9.00145V9.02461L9.24984 9.04772C9.2508 9.06334 9.24784 9.10162 9.19245 9.15246C9.13484 9.20535 9.03876 9.25 8.92114 9.25H1.11094C0.994793 9.25 0.895199 9.20614 0.829597 9.14718C0.764408 9.08858 0.75 9.03376 0.75 9.00145V3.19131C0.75 3.14547 0.759723 3.09231 0.831736 3.02479L4.67436 0.881976Z" stroke="white" stroke-width="1.5"/>
</svg>
