<svg width="54" height="66" viewBox="0 0 54 66" fill="none" xmlns="http://www.w3.org/2000/svg">
<g filter="url(#filter0_ddddd_791_15165)">
<circle cx="27" cy="21" r="20" fill="white"/>
<path fill-rule="evenodd" clip-rule="evenodd" d="M21.7612 12.0235C21.2385 12.1035 20.8088 12.3119 20.4295 12.6695C20.0997 12.9804 19.9144 13.2616 19.7691 13.6718C19.6552 13.9933 19.6526 14.0173 19.6325 14.9291L19.6119 15.8586L19.5068 15.9636C19.4086 16.0616 19.3739 16.0701 18.9879 16.0899C18.6274 16.1083 18.5509 16.1247 18.3937 16.2168C18.2766 16.2854 18.1757 16.3862 18.1066 16.5038L18 16.6849V18.5455V20.4061L18.1066 20.5873C18.1757 20.7048 18.2766 20.8057 18.3937 20.8742C18.5509 20.9664 18.6274 20.9827 18.9879 21.0012C19.374 21.0209 19.4086 21.0293 19.5068 21.1275L19.6119 21.2326L19.6311 24.9816C19.6501 28.6771 19.6515 28.7335 19.7307 28.9261C19.9627 29.49 20.4366 29.8766 21.0203 29.9783C21.7156 30.0993 22.4326 29.7059 22.7492 29.0296C22.8568 28.7999 22.8726 28.7208 22.893 28.31C22.9056 28.0561 22.9369 27.8104 22.9626 27.764C23.0813 27.5491 22.8509 27.5606 27 27.5606C31.1491 27.5606 30.9187 27.5491 31.0374 27.764C31.0631 27.8104 31.0945 28.0585 31.1073 28.3154C31.129 28.753 31.1393 28.8004 31.2711 29.067C31.5057 29.5413 31.9082 29.8558 32.4169 29.9622C33.201 30.1262 33.9663 29.6909 34.2814 28.9017C34.3447 28.7431 34.3511 28.4589 34.3689 24.9816L34.3881 21.2326L34.4932 21.1275C34.5914 21.0293 34.626 21.0209 35.0121 21.0012C35.3726 20.9827 35.4491 20.9664 35.6063 20.8742C35.7234 20.8057 35.8243 20.7048 35.8934 20.5873L36 20.4061V18.5455V16.6849L35.8934 16.5038C35.8243 16.3862 35.7234 16.2854 35.6063 16.2168C35.4491 16.1247 35.3726 16.1083 35.0121 16.0899C34.6261 16.0701 34.5914 16.0616 34.4932 15.9636L34.3881 15.8586L34.3669 14.9291C34.3462 14.0199 34.3432 13.9924 34.2303 13.6718C34.1668 13.4915 34.0503 13.2469 33.9714 13.1281C33.6582 12.6564 33.0961 12.2418 32.5458 12.0766C32.3294 12.0116 32.0041 12.007 27.1343 12.0008C24.2846 11.9971 21.8667 12.0073 21.7612 12.0235ZM25.9687 16.1504C26.1937 16.2667 26.194 16.2704 26.194 18.5455C26.194 20.8207 26.1937 20.8243 25.9687 20.9406C25.8672 20.993 25.5803 21.0007 23.7168 21.0007C21.7931 21.0007 21.5704 20.9944 21.473 20.9368C21.4134 20.9017 21.346 20.8318 21.3231 20.7816C21.2653 20.6547 21.265 16.437 21.3227 16.3103C21.424 16.088 21.3755 16.0925 23.7109 16.0914C25.5811 16.0904 25.8672 16.0979 25.9687 16.1504ZM32.527 16.1542C32.5866 16.1893 32.654 16.2592 32.6769 16.3094C32.735 16.4369 32.735 20.6541 32.6769 20.7816C32.654 20.8318 32.5866 20.9017 32.527 20.9368C32.4296 20.9944 32.2069 21.0007 30.2832 21.0007C28.4197 21.0007 28.1328 20.993 28.0313 20.9406C27.8064 20.8243 27.806 20.82 27.806 18.5524C27.806 17.1141 27.8192 16.4476 27.8494 16.361C27.8733 16.2925 27.9466 16.2037 28.0125 16.1636C28.1264 16.0942 28.2367 16.0906 30.2755 16.0905C32.2065 16.0903 32.4296 16.0967 32.527 16.1542ZM24.3245 22.6919C24.506 22.7746 24.5437 22.9061 24.5437 23.4559C24.5437 24.0057 24.506 24.1372 24.3245 24.2199C24.2642 24.2473 23.7682 24.2615 22.8694 24.2615H21.5058L21.3936 24.1493L21.2814 24.0372V23.4559V22.8745L21.3936 22.7624L21.5058 22.6503H22.8694C23.7682 22.6503 24.2642 22.6645 24.3245 22.6919ZM32.6064 22.7624L32.7185 22.8745V23.4559V24.0372L32.6064 24.1493L32.4942 24.2615H31.1306C30.2318 24.2615 29.7358 24.2473 29.6755 24.2199C29.494 24.1372 29.4563 24.0057 29.4563 23.4559C29.4563 22.915 29.4941 22.7767 29.6643 22.6942C29.7131 22.6705 30.278 22.6544 31.1192 22.6529L32.4942 22.6503L32.6064 22.7624Z" fill="#6B0A10"/>
</g>
<defs>
<filter id="filter0_ddddd_791_15165" x="0" y="0" width="54" height="66" filterUnits="userSpaceOnUse" color-interpolation-filters="sRGB">
<feFlood flood-opacity="0" result="BackgroundImageFix"/>
<feColorMatrix in="SourceAlpha" type="matrix" values="0 0 0 0 0 0 0 0 0 0 0 0 0 0 0 0 0 0 127 0" result="hardAlpha"/>
<feOffset/>
<feColorMatrix type="matrix" values="0 0 0 0 0 0 0 0 0 0 0 0 0 0 0 0 0 0 0.1 0"/>
<feBlend mode="normal" in2="BackgroundImageFix" result="effect1_dropShadow_791_15165"/>
<feColorMatrix in="SourceAlpha" type="matrix" values="0 0 0 0 0 0 0 0 0 0 0 0 0 0 0 0 0 0 127 0" result="hardAlpha"/>
<feOffset dy="1"/>
<feGaussianBlur stdDeviation="1"/>
<feColorMatrix type="matrix" values="0 0 0 0 0 0 0 0 0 0 0 0 0 0 0 0 0 0 0.1 0"/>
<feBlend mode="normal" in2="effect1_dropShadow_791_15165" result="effect2_dropShadow_791_15165"/>
<feColorMatrix in="SourceAlpha" type="matrix" values="0 0 0 0 0 0 0 0 0 0 0 0 0 0 0 0 0 0 127 0" result="hardAlpha"/>
<feOffset dy="4"/>
<feGaussianBlur stdDeviation="2"/>
<feColorMatrix type="matrix" values="0 0 0 0 0 0 0 0 0 0 0 0 0 0 0 0 0 0 0.09 0"/>
<feBlend mode="normal" in2="effect2_dropShadow_791_15165" result="effect3_dropShadow_791_15165"/>
<feColorMatrix in="SourceAlpha" type="matrix" values="0 0 0 0 0 0 0 0 0 0 0 0 0 0 0 0 0 0 127 0" result="hardAlpha"/>
<feOffset dy="10"/>
<feGaussianBlur stdDeviation="3"/>
<feColorMatrix type="matrix" values="0 0 0 0 0 0 0 0 0 0 0 0 0 0 0 0 0 0 0.05 0"/>
<feBlend mode="normal" in2="effect3_dropShadow_791_15165" result="effect4_dropShadow_791_15165"/>
<feColorMatrix in="SourceAlpha" type="matrix" values="0 0 0 0 0 0 0 0 0 0 0 0 0 0 0 0 0 0 127 0" result="hardAlpha"/>
<feOffset dy="18"/>
<feGaussianBlur stdDeviation="3.5"/>
<feColorMatrix type="matrix" values="0 0 0 0 0 0 0 0 0 0 0 0 0 0 0 0 0 0 0.01 0"/>
<feBlend mode="normal" in2="effect4_dropShadow_791_15165" result="effect5_dropShadow_791_15165"/>
<feBlend mode="normal" in="SourceGraphic" in2="effect5_dropShadow_791_15165" result="shape"/>
</filter>
</defs>
</svg>
