<svg width="73" height="80" viewBox="0 0 73 80" fill="none" xmlns="http://www.w3.org/2000/svg">
<g clip-path="url(#clip0_950_3939)">
<path d="M73 0H0V80H73V0Z" fill="#344650"/>
<path d="M38.2439 11.7578H25.9961V39.3538H38.2844V11.7578H38.2439ZM35.04 36.2831H29.2V14.8285H35.0805V36.2831H35.04Z" fill="white"/>
<path d="M62.7394 42.3433H10.585V45.3736H62.7394V42.3433Z" fill="white"/>
<path d="M10.585 63.7979H13.7888V60.3635H32.0389V48.4443H10.585V63.7979ZM13.7483 51.4746H28.835V57.2928H13.7483V51.4746Z" fill="white"/>
<path d="M44.5701 20.9295L50.4507 14.8285V39.3538H53.6545V20.9295L59.5351 14.8285V39.3538H62.739V11.7578H58.2373L53.6545 16.5255V11.7578H49.1529L41.3662 19.7982V39.3538H44.5701V20.9295Z" fill="white"/>
<path d="M35.1621 60.3635H47.2477V63.7979H50.5732V60.3635H62.7399V48.4443H35.1621V60.3635ZM50.5732 51.4746H59.536V57.2928H50.5732V51.4746ZM38.3254 51.4746H47.2071V57.2928H38.3254V51.4746Z" fill="white"/>
<path d="M19.6289 39.3538H22.8327V36.2831V11.7578H18.3311L10.585 19.7982V36.2831V39.3538H13.7888H19.6289ZM13.7888 20.9295L19.6694 14.8285V36.2831H13.7888V20.9295Z" fill="white"/>
<path d="M62.7394 42.3433H10.585V45.3736H62.7394V42.3433Z" fill="white"/>
<path d="M10.585 63.7979H13.7888V60.3635H32.0389V48.4443H10.585V63.7979ZM13.7483 51.4746H28.835V57.2928H13.7483V51.4746Z" fill="white"/>
<path d="M35.1621 60.3635H47.2477V63.7979H50.5732V60.3635H62.7399V48.4443H35.1621V60.3635ZM50.5732 51.4746H59.536V57.2928H50.5732V51.4746ZM38.3254 51.4746H47.2071V57.2928H38.3254V51.4746Z" fill="white"/>
<path d="M38.2439 11.7578H25.9961V39.3538H38.2844V11.7578H38.2439ZM35.04 36.2831H29.2V14.8285H35.0805V36.2831H35.04Z" fill="white"/>
<path d="M44.5701 20.9295L50.4507 14.8285V39.3538H53.6545V20.9295L59.5351 14.8285V39.3538H62.739V11.7578H58.2373L53.6545 16.5255V11.7578H49.1529L41.3662 19.7982V39.3538H44.5701V20.9295Z" fill="white"/>
<path d="M19.6289 39.3538H22.8327V36.2831V11.7578H18.3311L10.585 19.7982V36.2831V39.3538H13.7888H19.6289ZM13.7888 20.9295L19.6694 14.8285V36.2831H13.7888V20.9295Z" fill="white"/>
</g>
<defs>
<clipPath id="clip0_950_3939">
<rect width="73" height="80" fill="white"/>
</clipPath>
</defs>
</svg>
