<svg width="80" height="80" viewBox="0 0 80 80" fill="none" xmlns="http://www.w3.org/2000/svg">
<path fill-rule="evenodd" clip-rule="evenodd" d="M37.564 4.77606C32.3475 5.71113 28.0927 9.61753 26.7243 14.7279C26.3928 15.9656 26.3466 16.4315 26.2881 19.1235L26.2227 22.1348H21.4865C18.4807 22.1348 16.6064 22.1886 16.3561 22.2821C15.8827 22.4589 15.236 23.0424 14.983 23.521C14.8817 23.7124 14.7598 24.1485 14.7117 24.4902C14.6638 24.8318 13.6469 35.8894 12.4518 49.0626C10.067 75.3503 10.157 73.7174 11.0414 74.6154C11.9085 75.4961 9.81408 75.4367 39.9756 75.4367C62.8471 75.4367 67.6458 75.4047 68.0192 75.2495C68.6571 74.9844 69.3605 74.2226 69.525 73.6184C69.7198 72.9032 65.3056 24.1604 64.9924 23.5671C64.7177 23.047 64.0849 22.4651 63.595 22.2821C63.3447 22.1886 61.4704 22.1348 58.4646 22.1348H53.7284L53.663 19.1235C53.6045 16.4315 53.5583 15.9656 53.2268 14.7279C51.3938 7.88266 44.5371 3.52603 37.564 4.77606ZM42.1443 9.95105C45.1482 10.7107 47.5848 13.1774 48.2988 16.1816C48.4491 16.8136 48.5133 17.8335 48.5147 19.6081L48.5168 22.1348H39.9756H31.4343L31.4364 19.6081C31.4388 16.7013 31.5924 15.8314 32.3835 14.2433C33.0302 12.945 34.4786 11.4532 35.7912 10.7333C37.6659 9.70517 40.0239 9.41485 42.1443 9.95105ZM26.2779 29.933C26.3216 32.4962 26.3377 32.6291 26.661 33.0952C27.856 34.8181 30.3032 34.6208 31.171 32.7316C31.3891 32.2571 31.4285 31.799 31.4312 29.7147L31.4343 27.2573H39.9756H48.5168L48.5199 29.7147C48.5226 31.799 48.5621 32.2571 48.7801 32.7316C49.6479 34.6208 52.0951 34.8181 53.2901 33.0952C53.6134 32.629 53.6295 32.4964 53.6734 29.9305L53.719 27.2523L57.0316 27.2894L60.3441 27.3265L62.2653 48.4396C63.3221 60.0518 64.1895 69.7241 64.1929 69.9334L64.1992 70.3141H39.9756C26.6526 70.3141 15.748 70.2675 15.7434 70.2103C15.7386 70.1531 16.6051 60.4655 17.6687 48.682L19.6025 27.2577L22.9174 27.2574L26.2321 27.2573L26.2779 29.933Z" fill="white"/>
</svg>
