<svg width="80" height="80" viewBox="0 0 80 80" fill="none" xmlns="http://www.w3.org/2000/svg">
<g clip-path="url(#clip0_809_1595)">
<path fill-rule="evenodd" clip-rule="evenodd" d="M39.3318 0.831886C38.0501 1.2873 37.9455 1.48685 33.4421 12.0629C31.1361 17.4787 29.2334 21.9316 29.2138 21.9585C29.1942 21.9853 28.0861 21.3 26.7509 20.4356C23.322 18.2158 22.8896 18.055 21.4367 18.4604C19.1642 19.0943 15.829 26.3923 14.6567 33.296C14.3251 35.2491 14.3224 38.6273 14.651 40.6051C15.1865 43.8302 16.4794 47.0724 18.2262 49.5721C23.7856 57.5273 35.5869 61.3414 47.3345 58.9797C54.125 57.6144 59.7612 54.0741 63.0365 49.1164C66.1181 44.452 67.2933 38.2476 66.1473 32.6935C65.168 27.9473 63.0538 22.8319 60.4188 18.8326C58.6518 16.1509 57.5215 15.331 55.9413 15.5848C55.6 15.6396 53.8817 16.408 52.1231 17.2922L48.9255 18.8997L46.2897 10.9425C44.8401 6.56611 43.5319 2.74309 43.3829 2.44691C42.6117 0.91466 40.9562 0.254617 39.3318 0.831886ZM42.1147 19.1788C44.0534 25.0622 44.0884 25.1499 44.7727 25.8446C45.5542 26.6382 46.545 26.9914 47.4974 26.8163C47.8074 26.7593 49.7051 25.8877 51.7147 24.8791C53.7244 23.8708 55.3882 23.067 55.4122 23.0932C55.7412 23.4497 57.3466 26.6785 57.9543 28.2054C59.5534 32.223 60.1727 35.085 60.0248 37.7734C59.8111 41.6593 58.425 44.9868 55.9818 47.4798C55.0118 48.4696 53.3832 49.7709 53.2642 49.6514C53.2246 49.6117 53.2684 49.1692 53.3615 48.6682C53.6497 47.1191 53.4624 44.8961 52.9042 43.238C51.6709 39.5746 48.7616 34.9538 44.3472 29.647C42.27 27.1498 41.8009 26.8387 40.2612 26.9373C38.9507 27.021 38.5383 27.3321 36.5225 29.7564C32.1978 34.9575 29.2798 39.6043 28.0565 43.238C27.4983 44.8961 27.311 47.1191 27.5992 48.6682C27.6923 49.1692 27.736 49.6117 27.6963 49.6517C27.5813 49.7671 25.9491 48.4578 24.9688 47.4638C22.5909 45.0526 21.1817 41.7249 20.9394 37.9485C20.8163 36.0291 21.0209 34.3525 21.7114 31.6227C22.2287 29.5775 23.4057 26.2946 23.6216 26.2946C23.6862 26.2946 24.9389 27.0685 26.4051 28.0144C27.8713 28.9603 29.3123 29.8227 29.6071 29.9309C30.7872 30.3638 32.0107 30.0789 32.9096 29.1617C33.4533 28.6069 33.9507 27.5453 36.7942 20.8712C38.5878 16.6614 40.0765 13.2168 40.1027 13.2168C40.1287 13.2168 41.0341 15.8998 42.1147 19.1788ZM41.9084 37.103C44.452 40.5088 46.3831 43.8582 46.843 45.6617C47.2822 47.384 46.6458 49.468 45.2171 50.9855C43.8705 52.416 42.381 53.0656 40.4477 53.0656C38.5887 53.0656 37.0118 52.3579 35.6839 50.9276C34.3082 49.4458 33.6861 47.3541 34.1176 45.6617C34.4043 44.537 35.5387 42.2835 36.8185 40.2955C37.9893 38.4773 40.2986 35.3721 40.4803 35.3721C40.5548 35.3721 41.1974 36.1511 41.9084 37.103ZM17.6618 69.919C17.6618 76.5114 17.6791 76.9593 17.954 77.4964C18.33 78.2308 18.9681 78.8348 19.6861 79.1361C20.191 79.3479 22.5421 79.375 40.4803 79.375C58.4186 79.375 60.7697 79.3479 61.2746 79.1361C62.0296 78.8193 62.661 78.206 63.0085 77.4518C63.2711 76.8818 63.2924 76.3225 63.2955 69.8744L63.2989 62.9124H60.0828H56.8668V67.8358V72.7592H50.2816H43.6964V67.8358V62.9124H40.4803H37.2643V67.8358V72.7592H30.6791H24.0939V67.8358V62.9124H20.8779H17.6618V69.919Z" fill="white"/>
</g>
<defs>
<clipPath id="clip0_809_1595">
<rect width="78.75" height="78.75" fill="white" transform="translate(0.625 0.625)"/>
</clipPath>
</defs>
</svg>
