<svg width="80" height="80" viewBox="0 0 80 80" fill="none" xmlns="http://www.w3.org/2000/svg">
<g clip-path="url(#clip0_809_1616)">
<path d="M74.9047 39.0156C74.9047 58.8375 58.8362 74.9062 39.0148 74.9062C19.1935 74.9062 3.125 58.8375 3.125 39.0156C3.125 19.1937 19.1935 3.125 39.0148 3.125C58.8362 3.125 74.9047 19.1937 74.9047 39.0156Z" stroke="white" stroke-width="5"/>
<path d="M35.8465 19.8769C37.1991 15.916 42.8009 15.916 44.1535 19.8769L46.4787 26.6859C47.4181 29.4368 49.5788 31.5975 52.3297 32.5369L59.1387 34.8621C63.0996 36.2147 63.0996 41.8166 59.1387 43.1691L52.3298 45.4943C49.5788 46.4337 47.4181 48.5944 46.4787 51.3454L44.1535 58.1543C42.8009 62.1152 37.1991 62.1152 35.8465 58.1543L33.5213 51.3454C32.5819 48.5944 30.4212 46.4337 27.6703 45.4943L20.8613 43.1691C16.9004 41.8166 16.9004 36.2147 20.8613 34.8621L27.6702 32.5369C30.4212 31.5975 32.5819 29.4368 33.5213 26.6859L35.8465 19.8769Z" stroke="white" stroke-width="5"/>
</g>
<defs>
<clipPath id="clip0_809_1616">
<rect width="78.75" height="78.75" fill="white" transform="translate(0.625 0.625)"/>
</clipPath>
</defs>
</svg>
