<svg width="80" height="80" viewBox="0 0 80 80" fill="none" xmlns="http://www.w3.org/2000/svg">
<g clip-path="url(#clip0_809_1606)">
<path fill-rule="evenodd" clip-rule="evenodd" d="M36.3812 2.76201C31.7962 3.52708 27.3101 5.51674 23.6628 8.40276C23.1136 8.83731 22.7365 9.01837 22.3801 9.01837C20.6623 9.01837 17.2423 9.98453 15.011 11.1002C9.58239 13.8142 6.40978 18.4982 5.66308 24.9011C5.44265 26.7906 5.55641 30.4537 5.95508 34.3065L6.21984 36.866L5.4425 37.2734C0.226345 40.0074 -0.999845 46.9508 2.97888 51.2243C4.46567 52.8213 5.93199 53.6383 8.10284 54.0795L8.91696 54.2448L9.5062 55.711C12.9659 64.3179 20.0075 71.1956 28.6639 74.4226C34.7254 76.6823 41.7729 77.0435 48.1169 75.4195C53.8319 73.9565 58.8035 71.1008 63.1025 66.8116C66.4263 63.4957 68.7882 59.9472 70.4909 55.711L71.0801 54.2448L71.8943 54.0795C73.9378 53.6642 75.2934 52.9534 76.7282 51.5445C79.461 48.8613 80.15 44.7588 78.4559 41.2577C77.8243 39.9525 75.8748 37.9459 74.6 37.2893C73.8962 36.9267 73.7346 36.7748 73.789 36.5262C74.0433 35.3644 74.3831 30.4787 74.3894 27.8948C74.3994 23.7684 73.9543 21.5787 72.4821 18.5148C70.7654 14.9423 67.3691 11.3221 63.453 8.89062C58.7647 5.97964 53.0559 3.98551 46.5453 2.98437C43.9456 2.58465 38.1982 2.45891 36.3812 2.76201ZM29.0455 28.2477C35.2097 33.383 46.0664 36.3231 60.9768 36.8947C62.8213 36.9654 64.3569 37.0498 64.3894 37.0824C64.4218 37.1149 65.1507 39.5973 66.009 42.5991L67.5697 48.0566L67.2426 49.5857C66.1375 54.7521 63.1147 60.1178 59.2559 63.762C50.6885 71.8527 38.4296 73.7959 27.9152 68.7304C22.2276 65.9902 17.7364 61.5011 14.9646 55.7858C13.9093 53.6098 13.0863 51.2642 12.6868 49.2941L12.4328 48.0417L14.0529 42.3701C14.944 39.2506 15.7261 36.6535 15.7909 36.5987C15.8557 36.5438 16.6708 36.2025 17.602 35.8399C20.8684 34.5686 23.2529 33.0594 25.3831 30.9154C26.1915 30.1016 27.1192 29.0025 27.4445 28.4727C27.7697 27.9431 28.0637 27.5096 28.0978 27.5096C28.1318 27.5096 28.5583 27.8417 29.0455 28.2477ZM25.253 40.5818C24.2345 40.9458 23.4421 41.5719 22.7993 42.5206C22.1435 43.488 21.9397 44.3026 22.0245 45.6156C22.14 47.4011 23.1199 48.8621 24.7349 49.6559C25.4707 50.0176 25.7979 50.0837 26.8377 50.0805C28.4473 50.0754 29.4078 49.6612 30.4452 48.5249C32.199 46.6038 32.199 43.8569 30.4452 41.9358C29.1266 40.4917 27.033 39.9457 25.253 40.5818ZM51.774 40.5056C50.7629 40.841 50.2531 41.1631 49.5856 41.8879C48.7943 42.7473 48.5479 43.2247 48.3173 44.3443C47.8758 46.489 49.0843 48.7791 51.1583 49.7277C52.3269 50.2621 54.0917 50.2313 55.2622 49.6559C56.2193 49.1855 57.0345 48.3757 57.5777 47.3561C57.874 46.7998 57.9302 46.4608 57.9302 45.2304C57.9302 43.5905 57.7018 42.971 56.6793 41.838C55.5622 40.6 53.3229 39.9918 51.774 40.5056ZM30.6425 57.0437C29.8819 57.4189 29.479 58.0906 29.4152 59.0888C29.3484 60.1366 29.5933 60.5821 30.8069 61.6201C33.396 63.8342 37.3819 65.1388 40.8327 64.9012C43.7787 64.6983 46.8591 63.5308 48.9236 61.8346C50.2201 60.7695 50.6196 60.1705 50.6196 59.2919C50.6196 57.9328 49.805 56.968 48.5366 56.825C47.5726 56.7162 47.2709 56.8324 46.1055 57.762C42.456 60.6733 37.7472 60.7553 34.1702 57.9698C33.7161 57.6161 33.162 57.2058 32.9388 57.0578C32.4278 56.7193 31.3139 56.7123 30.6425 57.0437Z" fill="white"/>
</g>
<defs>
<clipPath id="clip0_809_1606">
<rect width="78.75" height="78.75" fill="white" transform="translate(0.625 0.625)"/>
</clipPath>
</defs>
</svg>
