<svg width="80" height="80" viewBox="0 0 80 80" fill="none" xmlns="http://www.w3.org/2000/svg">
<path fill-rule="evenodd" clip-rule="evenodd" d="M61.6079 47.7169C67.1754 44.9332 68.8668 41.9389 68.8668 40C68.8668 38.0611 67.1754 35.0668 61.6079 32.2831C56.3157 29.637 48.6826 27.8676 40 27.8676C31.3174 27.8676 23.6843 29.637 18.3921 32.2831C12.8246 35.0668 11.1332 38.0611 11.1332 40C11.1332 41.9389 12.8246 44.9332 18.3921 47.7169C23.6843 50.363 31.3174 52.1324 40 52.1324C48.6826 52.1324 56.3157 50.363 61.6079 47.7169ZM40 56.7344C58.4843 56.7344 73.4688 49.2421 73.4688 40C73.4688 30.7579 58.4843 23.2656 40 23.2656C21.5157 23.2656 6.53125 30.7579 6.53125 40C6.53125 49.2421 21.5157 56.7344 40 56.7344Z" fill="white"/>
<path fill-rule="evenodd" clip-rule="evenodd" d="M40 52.1324C46.7006 52.1324 52.1324 46.7006 52.1324 40C52.1324 33.2994 46.7006 27.8676 40 27.8676C33.2994 27.8676 27.8676 33.2994 27.8676 40C27.8676 46.7006 33.2994 52.1324 40 52.1324ZM40 56.7344C49.2421 56.7344 56.7344 49.2421 56.7344 40C56.7344 30.7579 49.2421 23.2656 40 23.2656C30.7579 23.2656 23.2656 30.7579 23.2656 40C23.2656 49.2421 30.7579 56.7344 40 56.7344Z" fill="white"/>
<path fill-rule="evenodd" clip-rule="evenodd" d="M39.5596 44.2057C41.6391 44.2057 43.3248 42.5199 43.3248 40.4404C43.3248 38.3609 41.6391 36.6752 39.5596 36.6752C37.4801 36.6752 35.7943 38.3609 35.7943 40.4404C35.7943 42.5199 37.4801 44.2057 39.5596 44.2057ZM39.5596 48.8076C44.1806 48.8076 47.9268 45.0615 47.9268 40.4404C47.9268 35.8194 44.1806 32.0732 39.5596 32.0732C34.9385 32.0732 31.1924 35.8194 31.1924 40.4404C31.1924 45.0615 34.9385 48.8076 39.5596 48.8076Z" fill="white"/>
<path fill-rule="evenodd" clip-rule="evenodd" d="M9.1734 6.53125C10.6327 6.53125 11.8157 7.65509 11.8157 9.04141L11.8157 20.7555C11.8157 22.1418 10.6327 23.2656 9.1734 23.2656C7.71412 23.2656 6.53113 22.1418 6.53113 20.7555L6.53114 9.04141C6.53114 7.65508 7.71412 6.53125 9.1734 6.53125Z" fill="white"/>
<path fill-rule="evenodd" clip-rule="evenodd" d="M23.2656 9.1734C23.2656 10.6327 22.1418 11.8157 20.7555 11.8157L9.04141 11.8157C7.65509 11.8157 6.53125 10.6327 6.53125 9.1734C6.53125 7.71412 7.65509 6.53113 9.04141 6.53113L20.7555 6.53113C22.1418 6.53113 23.2656 7.71412 23.2656 9.1734Z" fill="white"/>
<path fill-rule="evenodd" clip-rule="evenodd" d="M9.1734 73.4688C10.6327 73.4688 11.8157 72.3449 11.8157 70.9586L11.8157 59.2445C11.8157 57.8582 10.6327 56.7344 9.1734 56.7344C7.71412 56.7344 6.53113 57.8582 6.53113 59.2445L6.53114 70.9586C6.53114 72.3449 7.71412 73.4688 9.1734 73.4688Z" fill="white"/>
<path fill-rule="evenodd" clip-rule="evenodd" d="M23.2656 70.8266C23.2656 69.3673 22.1418 68.1843 20.7555 68.1843L9.04141 68.1843C7.65509 68.1843 6.53125 69.3673 6.53125 70.8266C6.53125 72.2859 7.65509 73.4689 9.04141 73.4689L20.7555 73.4689C22.1418 73.4689 23.2656 72.2859 23.2656 70.8266Z" fill="white"/>
<path fill-rule="evenodd" clip-rule="evenodd" d="M70.8266 6.53125C69.3673 6.53125 68.1843 7.65509 68.1843 9.04141L68.1843 20.7555C68.1843 22.1418 69.3673 23.2656 70.8266 23.2656C72.2859 23.2656 73.4689 22.1418 73.4689 20.7555L73.4689 9.04141C73.4689 7.65508 72.2859 6.53125 70.8266 6.53125Z" fill="white"/>
<path fill-rule="evenodd" clip-rule="evenodd" d="M56.7344 9.1734C56.7344 10.6327 57.8582 11.8157 59.2445 11.8157L70.9586 11.8157C72.3449 11.8157 73.4688 10.6327 73.4688 9.1734C73.4688 7.71412 72.3449 6.53113 70.9586 6.53113L59.2445 6.53113C57.8582 6.53113 56.7344 7.71412 56.7344 9.1734Z" fill="white"/>
<path fill-rule="evenodd" clip-rule="evenodd" d="M70.8266 73.4688C69.3673 73.4688 68.1843 72.3449 68.1843 70.9586L68.1843 59.2445C68.1843 57.8582 69.3673 56.7344 70.8266 56.7344C72.2859 56.7344 73.4689 57.8582 73.4689 59.2445L73.4689 70.9586C73.4689 72.3449 72.2859 73.4688 70.8266 73.4688Z" fill="white"/>
<path fill-rule="evenodd" clip-rule="evenodd" d="M56.7344 70.8266C56.7344 69.3673 57.8582 68.1843 59.2445 68.1843L70.9586 68.1843C72.3449 68.1843 73.4688 69.3673 73.4688 70.8266C73.4688 72.2859 72.3449 73.4689 70.9586 73.4689L59.2445 73.4689C57.8582 73.4689 56.7344 72.2859 56.7344 70.8266Z" fill="white"/>
</svg>
