<svg width="80" height="80" viewBox="0 0 80 80" fill="none" xmlns="http://www.w3.org/2000/svg">
<path d="M29.984 6.57812L50.016 6.57812C50.3707 6.57812 50.6582 6.86564 50.6582 7.22031V24.5207C50.6582 28.1891 53.632 31.1629 57.3004 31.1629L72.7797 31.1629C73.1344 31.1629 73.4219 31.4504 73.4219 31.8051V51.8371C73.4219 52.1918 73.1344 52.4793 72.7797 52.4793H57.3004C53.632 52.4793 50.6582 55.4531 50.6582 59.1215V72.7797C50.6582 73.1344 50.3707 73.4219 50.016 73.4219H29.984C29.6293 73.4219 29.3418 73.1344 29.3418 72.7797L29.3418 59.1215C29.3418 55.4531 26.368 52.4793 22.6996 52.4793H7.22031C6.86564 52.4793 6.57813 52.1918 6.57813 51.8371L6.57813 31.8051C6.57813 31.4504 6.86564 31.1629 7.22031 31.1629L22.6996 31.1629C26.368 31.1629 29.3418 28.1891 29.3418 24.5207V7.22031C29.3418 6.86564 29.6293 6.57812 29.984 6.57812Z" stroke="white" stroke-width="6"/>
</svg>
