<svg width="70" height="70" viewBox="0 0 70 70" fill="none" xmlns="http://www.w3.org/2000/svg">
<path fill-rule="evenodd" clip-rule="evenodd" d="M32.0959 2.70162C25.8392 3.31419 20.0564 5.61921 14.9862 9.52154C12.5171 11.4218 9.31067 14.9932 7.45769 17.9065C6.65744 19.1647 5.09965 22.353 4.5416 23.8745C3.91765 25.576 3.25263 28.176 2.92538 30.1935C2.52487 32.6628 2.52487 37.3511 2.92538 39.8204C3.49167 43.3112 4.38748 46.1332 5.92081 49.2574C7.5961 52.6705 9.33805 55.0899 12.1275 57.8779C14.9171 60.6658 17.3379 62.4067 20.753 64.0811C23.879 65.6135 26.7025 66.5088 30.1953 67.0748C32.666 67.4751 37.357 67.4751 39.8278 67.0748C43.3205 66.5088 46.1441 65.6135 49.2701 64.0811C52.6852 62.4067 55.1059 60.6658 57.8955 57.8779C60.685 55.0899 62.427 52.6705 64.1023 49.2574C65.2149 46.9902 65.7746 45.5044 66.3741 43.226C67.1725 40.1917 67.375 38.5284 67.375 35.007C67.375 31.4855 67.1725 29.8222 66.3741 26.788C65.7746 24.5095 65.2149 23.0237 64.1023 20.7566C62.427 17.3434 60.685 14.924 57.8955 12.136C55.1059 9.34813 52.6852 7.60718 49.2701 5.93285C46.1471 4.40179 43.2677 3.48837 39.8911 2.95749C38.0281 2.66463 33.8682 2.52808 32.0959 2.70162ZM39.0219 7.20563C43.898 7.91942 48.5494 9.91713 52.418 12.9589L53.2846 13.6402L44.1801 22.7402C39.1726 27.7452 35.018 31.8402 34.9477 31.8402C34.8773 31.8402 33.2048 30.2255 31.2311 28.2519L27.6425 24.6637L28.457 23.5842C31.7844 19.1751 33.6366 14.0619 33.9504 8.419L34.0378 6.84842L35.8418 6.92632C36.834 6.96914 38.2651 7.09479 39.0219 7.20563ZM29.6882 7.61452C29.6878 8.33756 29.3885 10.7974 29.1778 11.8081C28.8275 13.4885 28.037 15.7715 27.2773 17.2964C26.6878 18.48 24.8892 21.3495 24.6407 21.503C24.4927 21.5944 16.7136 13.7783 16.8052 13.6301C16.8478 13.5613 17.4157 13.1026 18.0674 12.6109C21.0698 10.3457 24.4468 8.71719 28.1041 7.77096C29.7935 7.33382 29.6883 7.34421 29.6882 7.61452ZM17.6298 20.7386L21.6027 24.7107L20.3404 25.661C17.8026 27.5717 14.8497 28.9488 11.8431 29.624C10.6714 29.8871 8.56961 30.1918 7.9203 30.1927C7.2506 30.1936 7.24743 30.1552 7.75186 28.1668C8.71485 24.3707 10.5263 20.6906 12.9421 17.6215C13.3123 17.1511 13.6246 16.7664 13.636 16.7664C13.6475 16.7664 15.4448 18.5539 17.6298 20.7386ZM57.081 17.6215C59.51 20.7073 61.3935 24.5557 62.304 28.2934C62.6308 29.6346 62.9414 31.6358 63.0855 33.3286L63.1637 34.2469L61.0332 34.2495C58.7778 34.252 57.0113 34.4372 55.0369 34.8779C51.3476 35.7012 47.2836 37.6002 44.4248 39.8363C43.9907 40.1759 43.591 40.4538 43.5366 40.4538C43.4822 40.4538 42.2123 39.2281 40.7146 37.73L37.9914 35.0062L47.1158 25.8863C52.1343 20.8704 56.2779 16.7664 56.3241 16.7664C56.3702 16.7664 56.7108 17.1511 57.081 17.6215ZM28.262 31.3646L31.8435 34.9425L22.7498 44.0316C17.7482 49.0306 13.6195 53.1208 13.5748 53.1208C13.5302 53.1208 13.0919 52.5889 12.6009 51.939C9.12119 47.3322 7.23894 42.0876 6.92183 36.1153L6.83602 34.5003H7.73602C9.80471 34.5003 13.2119 33.8652 15.6833 33.0189C18.3126 32.1186 21.7379 30.1968 23.7314 28.5036C24.1845 28.1186 24.5834 27.7999 24.6179 27.7952C24.6522 27.7906 26.292 29.3967 28.262 31.3646ZM39.5274 44.6811C35.7411 49.526 33.7441 55.2363 33.7441 61.2186V63.0966L33.1421 63.0426C28.2728 62.606 24.2103 61.3204 20.4463 59.025C19.2728 58.3095 16.9572 56.6296 16.805 56.3836C16.7624 56.3145 20.8268 52.1608 25.8371 47.1529L34.9468 38.0478L37.689 40.7863L40.4312 43.5248L39.5274 44.6811ZM62.8319 39.0921C62.0535 44.0036 60.0646 48.6021 57.078 52.3961L56.4023 53.2547L51.5687 48.4693C48.9102 45.8373 46.7352 43.6398 46.7352 43.5859C46.7352 43.3448 49.1783 41.7689 50.791 40.9698C54.2128 39.2745 57.0653 38.6021 60.9732 38.5698L62.9172 38.5537L62.8319 39.0921ZM48.4261 51.5173L53.2843 56.3739L52.4179 57.0552C48.5475 60.0984 43.1855 62.3744 38.8096 62.8315L38.0534 62.9105L38.0556 61.2774C38.0618 56.9674 39.3299 52.712 41.6907 49.0791C42.3866 48.0084 43.3848 46.6809 43.5039 46.6677C43.5392 46.6638 45.7541 48.8461 48.4261 51.5173Z" fill="white"/>
</svg>
