<svg width="80" height="80" viewBox="0 0 80 80" fill="none" xmlns="http://www.w3.org/2000/svg">
<g clip-path="url(#clip0_809_1611)">
<path fill-rule="evenodd" clip-rule="evenodd" d="M33.849 3.20972C35.1496 1.89729 36.6023 1.09695 38.382 0.71257C38.7209 0.639392 39.6223 0.605191 40.385 0.636773C44.2241 0.7953 47.4336 3.42433 48.3715 7.17845L48.5801 8.01361L49.8339 8.37457C53.5493 9.44405 59.321 12.6006 60.0644 13.9694C60.8495 15.4151 59.6949 17.2951 58.0372 17.2709C57.3965 17.2615 57.0894 17.1236 55.699 16.2211C53.7781 14.9743 51.4046 13.7975 49.4108 13.1033L47.9462 12.5933L47.4903 13.443C47.2395 13.9104 46.5913 14.74 46.05 15.2868C42.7394 18.6294 37.2565 18.6258 33.9418 15.2786C33.3959 14.7275 32.754 13.9033 32.515 13.4471L32.0807 12.6175L31.3411 12.8372C30.2831 13.1513 27.4428 14.3589 26.4436 14.9193C25.9759 15.1817 24.9436 15.8156 24.1498 16.328C22.9125 17.1268 22.6005 17.2615 21.9657 17.2707C20.6862 17.2895 19.7377 16.3214 19.7389 14.998C19.74 13.8845 20.0685 13.4782 21.9711 12.2371C24.1678 10.8042 26.8701 9.49843 29.3586 8.66728L31.429 7.97586L31.6329 7.15965C31.988 5.73753 32.8281 4.24007 33.849 3.20972ZM43.6389 7.49889C43.2392 6.73969 42.493 5.98526 41.7762 5.61628C41.1121 5.27412 39.5557 5.11421 38.9203 5.32265C38.2088 5.5562 37.6154 5.92795 37.128 6.4459C36.3026 7.32296 36.0767 7.91362 36.0774 9.19355C36.078 10.534 36.4045 11.3109 37.2965 12.0939C38.2514 12.9323 38.7376 13.1161 39.9998 13.1154C41.3127 13.1148 42.0528 12.8124 42.8716 11.9417C43.6968 11.064 43.9227 10.4733 43.9227 9.19355C43.9227 8.36902 43.8415 7.88373 43.6389 7.49889Z" fill="white"/>
<path fill-rule="evenodd" clip-rule="evenodd" d="M8.65568 29.3658C9.90697 25.6117 12.7268 20.6009 13.9601 19.94C15.4129 19.1614 17.2862 20.3153 17.2619 21.9739C17.2526 22.6086 17.118 22.9206 16.3191 24.1577C15.8066 24.9514 15.1725 25.9836 14.9101 26.4511C14.3496 27.4502 13.1419 30.2902 12.8277 31.3479L12.608 32.0874L13.4598 32.5333C13.9283 32.7785 14.7524 33.4199 15.2909 33.9585C18.6095 37.2764 18.6095 42.7345 15.2909 46.0524C14.7524 46.591 13.9283 47.2324 13.4598 47.4776L12.608 47.9235L12.8277 48.663C13.1419 49.7208 14.3496 52.5607 14.9101 53.5598C15.1725 54.0273 15.8066 55.0595 16.3191 55.8533C17.118 57.0904 17.2526 57.4023 17.2619 58.037C17.2807 59.3164 16.3124 60.2647 14.9889 60.2635C13.8752 60.2624 13.4689 59.934 12.2276 58.0317C10.7945 55.8352 9.48849 53.1333 8.65722 50.6451L7.9657 48.575L7.14938 48.3712C4.22445 47.6411 1.93712 45.4735 0.922801 42.4704C0.525733 41.2948 0.525733 38.7161 0.922801 37.5405C1.93712 34.5374 4.22445 32.3698 7.14938 31.6397L7.9657 31.4359L8.65568 29.3658ZM12.8227 38.3108C12.423 37.5516 11.6767 36.7972 10.96 36.4282C10.2959 36.086 8.7395 35.9261 8.10407 36.1346C7.01225 36.4927 6.0876 37.2789 5.54447 38.3108C5.12444 39.1087 5.15156 40.9531 5.59562 41.7918C5.95848 42.477 6.74137 43.2327 7.52919 43.6584C8.27695 44.0625 10.1481 44.029 10.9555 43.5972C11.6824 43.2085 12.4267 42.4524 12.8227 41.7001C13.216 40.9528 13.216 39.0581 12.8227 38.3108Z" fill="white"/>
<path fill-rule="evenodd" clip-rule="evenodd" d="M62.7288 22.4678C62.4621 21.5815 63.1334 20.3188 64.1058 19.8779C64.7035 19.6069 65.7004 19.6953 66.2724 20.07C66.8694 20.4612 68.621 23.1775 69.7396 25.4468C70.2407 26.4636 70.962 28.2271 71.3424 29.3658L72.0339 31.4359L72.8502 31.6397C75.7895 32.3733 78.0576 34.5228 79.0768 37.5405C79.4754 38.7206 79.4742 41.2969 79.0743 42.4704C78.0266 45.5459 75.8621 47.5963 72.8502 48.3663L72.0339 48.575L71.3424 50.6451C70.5111 53.1333 69.2051 55.8352 67.772 58.0317C66.5308 59.934 66.1244 60.2624 65.0107 60.2635C63.7021 60.2647 62.7268 59.3213 62.7268 58.0541C62.7268 57.4302 62.8567 57.1282 63.6665 55.87C65.3258 53.2919 66.4304 51.0218 67.1184 48.7761L67.3811 47.9181L66.5568 47.4864C66.1033 47.2492 65.2813 46.6084 64.7302 46.0626C61.3784 42.7443 61.3784 37.2666 64.7302 33.9483C65.2813 33.4025 66.1033 32.7617 66.5568 32.5245L67.3811 32.0928L67.1184 31.2348C66.4428 29.0295 65.3422 26.7546 63.7217 24.2144C63.2353 23.4518 62.7884 22.6657 62.7288 22.4678ZM74.4551 38.3108C74.0555 37.5516 73.3092 36.7972 72.5925 36.4282C71.9284 36.086 70.372 35.9261 69.7366 36.1346C69.025 36.3681 68.4316 36.7399 67.9443 37.2578C67.1192 38.1346 66.8932 38.7255 66.8932 40.0055C66.8932 41.2852 67.119 41.8759 67.9443 42.7536C68.7634 43.6246 69.5031 43.9269 70.8161 43.9269C72.129 43.9269 72.8687 43.6246 73.6878 42.7536C74.5131 41.8759 74.739 41.2852 74.739 40.0055C74.739 39.1809 74.6578 38.6956 74.4551 38.3108Z" fill="white"/>
<path fill-rule="evenodd" clip-rule="evenodd" d="M36.1943 63.1229C36.8891 62.7879 37.8041 62.4488 38.2279 62.3692C41.1263 61.8246 44.05 62.7047 46.05 64.7242C46.5913 65.2709 47.2373 66.0965 47.4855 66.5588L47.9367 67.3996L49.4134 66.8985C51.3408 66.2446 53.7021 65.0737 55.7158 63.7736C57.1259 62.863 57.4256 62.7292 58.0541 62.7292C59.7023 62.7292 60.8427 64.6083 60.0644 66.0415C59.321 67.4103 53.5493 70.5669 49.8339 71.6363L48.5801 71.9973L48.3666 72.8325C47.5911 75.8647 45.5486 78.025 42.4651 79.0746C41.2913 79.4741 38.7145 79.4753 37.5345 79.077C34.5416 78.0663 32.3605 75.7654 31.6329 72.8512L31.429 72.035L29.3586 71.3436C26.8701 70.5125 24.1678 69.2067 21.9711 67.7738C20.0685 66.5326 19.74 66.1264 19.7389 65.0129C19.7377 63.7044 20.6813 62.7292 21.9486 62.7292C22.5726 62.7292 22.8746 62.8591 24.133 63.6688C26.7115 65.3279 28.9819 66.4324 31.228 67.1202L32.086 67.3829L32.5293 66.5365C33.2155 65.2262 34.7008 63.8426 36.1943 63.1229ZM43.6389 69.1227C43.2392 68.3635 42.493 67.6091 41.7762 67.2401C41.1121 66.8979 39.5557 66.738 38.9203 66.9465C38.2088 67.18 37.6154 67.5518 37.128 68.0697C36.3026 68.9468 36.0767 69.5374 36.0774 70.8174C36.078 72.1578 36.4045 72.9348 37.2965 73.7177C38.2514 74.5561 38.7376 74.7399 39.9998 74.7393C41.3127 74.7386 42.0528 74.4362 42.8716 73.5655C43.6968 72.6878 43.9227 72.0971 43.9227 70.8174C43.9227 69.9928 43.8415 69.5075 43.6389 69.1227Z" fill="white"/>
<path fill-rule="evenodd" clip-rule="evenodd" d="M28.5751 32.2835L28.5066 32.3423C26.99 33.6439 26.1086 35.494 26.1086 37.5236V48.2883C26.1086 52.091 29.2502 55.0411 32.8996 55.0411H46.9665C50.5007 55.0411 53.8238 52.1702 53.6969 48.1905V37.5236C53.6969 35.754 52.9897 33.6224 51.1114 32.1889L44.1446 26.6514C41.6656 24.6503 38.1399 24.6503 35.661 26.6514L28.5751 32.2835ZM48.9068 37.5236V48.2883C48.9674 49.3588 48.0579 50.2509 46.9665 50.2509H32.8996C31.8082 50.2509 30.8987 49.3588 30.8987 48.2883V37.5236C30.8987 36.9288 31.1413 36.3936 31.6263 35.9773L38.6598 30.3867C39.3874 29.792 40.4181 29.792 41.1457 30.3867L48.1792 35.9773C48.6643 36.3341 48.9068 36.9288 48.9068 37.5236Z" fill="white"/>
</g>
<defs>
<clipPath id="clip0_809_1611">
<rect width="78.75" height="78.75" fill="white" transform="translate(0.625 0.625)"/>
</clipPath>
</defs>
</svg>
