<svg width="80" height="79" viewBox="0 0 80 79" fill="none" xmlns="http://www.w3.org/2000/svg">
<path d="M72.9337 61.0463H63.9888V56.5697H66.0217C67.2415 56.5697 68.0547 55.7558 68.0547 54.535V12.4832H72.5272V61.0463H72.9337ZM59.5163 66.7433L58.7031 65.9294C57.8899 65.1155 56.2636 65.1155 55.4504 65.9294L54.6372 66.7433V56.5697H59.1097V66.7433H59.5163ZM40.8132 61.0463C41.6264 61.0463 42.4395 60.6391 42.8461 59.8252C44.0659 57.7905 46.0988 56.5697 48.5384 56.5697H50.9779V61.0463H40.8132ZM5.84646 61.0463L5.84646 12.4832H10.3189L10.3189 54.535C10.3189 55.7558 11.1321 56.5697 12.3519 56.5697H30.2418C32.6814 56.5697 34.7143 57.7905 35.9341 59.8252C36.3407 60.6391 37.1539 61.0463 37.967 61.0463H5.84646ZM14.7914 8.00692H30.6484C34.3077 8.00692 37.1539 10.8554 37.1539 14.5179V54.535C35.1209 52.9072 33.088 52.0935 30.6484 52.0935H14.7914L14.7914 8.00692ZM48.5384 8.00692L64.3954 8.00692V52.0935H48.5384C46.0988 52.0935 43.6593 52.9072 42.0329 54.535V14.5179C41.6263 10.8554 44.8791 8.00692 48.5384 8.00692ZM75.3733 8.00692H68.8678V5.97221C68.8678 4.75138 68.0547 3.9375 66.8349 3.9375L48.945 3.9375C45.2857 3.9375 42.0329 5.56517 40 8.41377C37.967 5.56517 34.7143 3.9375 31.055 3.9375L13.1651 3.9375C11.9453 3.9375 11.1321 4.75138 11.1321 5.97221V8.00692H4.6267C3.40693 8.00692 2.59375 8.82081 2.59375 10.0416L2.59375 63.081C2.59375 64.3018 3.40693 65.1157 4.6267 65.1157H51.3845V71.6267C51.3845 73.6614 53.824 74.4754 55.0438 73.2545L57.8899 70.4059L60.736 73.2545C61.9558 74.4754 64.3954 73.6614 64.3954 71.6267V65.5226H75.3733C76.5931 65.5226 77.4062 64.7087 77.4062 63.4878V10.4485C77.4062 8.82071 76.5931 8.00692 75.3733 8.00692Z" fill="white"/>
</svg>
