<svg width="80" height="80" viewBox="0 0 80 80" fill="none" xmlns="http://www.w3.org/2000/svg">
<path fill-rule="evenodd" clip-rule="evenodd" d="M21.9475 2.79735C19.9913 3.28536 18.1318 4.92924 17.1486 7.03994C16.3718 8.70793 16.1188 9.83678 16.1051 11.6962C16.0936 13.2563 16.0896 13.274 15.7365 13.35C13.8296 13.7604 12.3758 14.985 11.7438 16.7133C11.49 17.4076 11.4531 17.8503 11.4531 20.2006C11.4531 23.4184 11.6083 24.0215 12.7708 25.3232C13.8254 26.504 15.2671 27.1408 16.8858 27.1408C17.2434 27.1408 17.4489 27.2078 17.4471 27.3235C17.4455 27.424 18.4152 38.3219 19.6022 51.5412C21.9805 78.0325 21.7802 76.4628 22.8624 77.0852L23.4206 77.4062L39.8429 77.3678L56.2654 77.3295L56.6684 77.022C57.5941 76.316 57.4153 77.7715 59.7932 51.5806C61.0027 38.2592 61.9934 27.3106 61.9949 27.2504C61.9963 27.1902 62.3798 27.1408 62.8471 27.1408C64.7615 27.1408 66.1286 26.5761 67.2476 25.3232C68.4507 23.9763 68.5899 23.4006 68.5378 19.9904C68.4959 17.2656 68.4767 17.0949 68.1236 16.3287C67.4067 14.7734 65.7334 13.5401 64.048 13.3246L63.2825 13.2268V11.6598C63.2825 8.91015 62.463 6.64121 60.8215 4.84537C59.8973 3.83444 58.522 3.01535 57.3144 2.75659C56.1878 2.51507 22.9248 2.5535 21.9475 2.79735ZM57.3795 7.50194C58.4992 8.42287 59.2276 10.5977 59.0399 12.459L58.9591 13.2604L39.714 13.2604H20.4689L20.3673 12.4296C20.1779 10.8775 20.8198 8.67476 21.7166 7.79928C22.6173 6.92013 21.3669 6.97419 39.8889 7.01408L56.8309 7.05076L57.3795 7.50194ZM64.0162 17.9231C64.3407 18.1919 64.3533 18.2768 64.3533 20.2006C64.3533 22.1245 64.3407 22.2093 64.0162 22.4782C63.6874 22.7507 63.1017 22.7576 40.0092 22.7576C16.9168 22.7576 16.3311 22.7507 16.0023 22.4782C15.6777 22.2093 15.6652 22.1245 15.6652 20.2006C15.6652 18.2768 15.6777 18.1919 16.0023 17.9231C16.3311 17.6506 16.9168 17.6437 40.0092 17.6437C63.1017 17.6437 63.6874 17.6506 64.0162 17.9231ZM57.6583 27.8349C57.6129 28.2166 57.51 29.3179 57.4296 30.2822C57.3492 31.2465 57.2478 32.3149 57.2044 32.6565L57.1253 33.2775H39.7177H22.3099L22.2412 32.9487C22.1719 32.6179 21.7333 27.7995 21.7333 27.3707C21.7333 27.1629 23.4573 27.1408 39.7371 27.1408H57.7409L57.6583 27.8349ZM56.7171 37.8434C56.7221 38.2101 55.1315 55.8613 55.0646 56.1802L54.9958 56.5089H39.6496C24.8378 56.5089 24.3034 56.4995 24.3034 56.2398C24.3034 56.0918 23.95 52.0767 23.5181 47.3173C23.0862 42.5578 22.7328 38.438 22.7328 38.1622V37.6607H39.7237C53.2199 37.6607 56.7151 37.6983 56.7171 37.8434ZM54.1188 66.7001C53.8258 69.8944 53.5832 72.623 53.5797 72.7636C53.5737 73.0053 52.8166 73.0193 39.7301 73.0193H25.887L25.809 72.5444C25.7662 72.2832 25.5371 69.8341 25.3 67.1019C25.063 64.3696 24.8308 61.8546 24.7841 61.5132L24.6993 60.8922H39.6756H54.6517L54.1188 66.7001Z" fill="white"/>
</svg>
