<svg width="777" height="264" viewBox="0 0 777 264" fill="none" xmlns="http://www.w3.org/2000/svg">
<path d="M11.1362 261.5L2.64062 244L94.093 215L170.053 173L345.962 84L374.447 64H391.938L440.912 40L499.882 41.5L537.362 20L549.356 21.5L566.347 2L582.339 6L575.842 16L668.294 33L681.287 50L648.304 73L651.303 96.5L771.74 189L621.318 176L592.833 170L544.358 156.5H492.386L465.4 170L464.9 179L442.911 195L336.467 211.5L225.025 228.5L118.08 244L11.1362 261.5Z" fill="#4A8D45" fill-opacity="0.36" stroke="#4A8D45" stroke-width="3"/>
</svg>
