<svg width="42" height="46" viewBox="0 0 42 46" fill="none" xmlns="http://www.w3.org/2000/svg">
<path fill-rule="evenodd" clip-rule="evenodd" d="M2.66532 10.1977L16.779 1.45279C19.2721 -0.484261 22.7222 -0.484262 25.2153 1.45278L39.2325 10.1379L39.3384 10.2172C41.2189 11.6257 41.9943 13.8214 41.9943 15.7652V38.9342C42.1599 42.8905 38.8847 46 35.1161 46H6.99937C3.16469 46 0 42.8449 0 39.0058V15.7652C0 13.6761 0.868657 11.7677 2.48026 10.3594L2.66532 10.1977Z" fill="#A61C20"/>
<path d="M3.66427 11.3433L3.55982 11.408L3.46729 11.4889C2.17671 12.6166 1.5 14.1155 1.5 15.7652V39.0058C1.5 42.0147 3.99129 44.5 6.99937 44.5H35.1161C38.0916 44.5 40.6389 42.0367 40.4943 38.9676V15.7652C40.4943 14.1882 39.8642 12.4852 38.4392 11.4178L38.3862 11.3781L38.33 11.3433L24.3537 2.68351C22.3776 1.1055 19.6166 1.1055 17.6406 2.68351L3.66427 11.3433Z" stroke="#A61C20" stroke-width="3"/>
<path d="M3.66427 11.3433L3.55982 11.408L3.46729 11.4889C2.17671 12.6166 1.5 14.1155 1.5 15.7652V39.0058C1.5 42.0147 3.99129 44.5 6.99937 44.5H35.1161C38.0916 44.5 40.6389 42.0367 40.4943 38.9676V15.7652C40.4943 14.1882 39.8642 12.4852 38.4392 11.4178L38.3862 11.3781L38.33 11.3433L24.3537 2.68351C22.3776 1.1055 19.6166 1.1055 17.6406 2.68351L3.66427 11.3433Z" stroke="white" stroke-width="3"/>
</svg>
