<svg width="24" height="20" viewBox="0 0 24 20" fill="none" xmlns="http://www.w3.org/2000/svg">
<path d="M9.63408 19.7046L-4.39268e-07 10.0493L9.63409 0.393968C9.72109 0.28005 9.83164 0.1861 9.95823 0.11848C10.0848 0.0508589 10.2245 0.011146 10.3678 0.00202875C10.5112 -0.00708847 10.6548 0.0146035 10.789 0.0656356C10.9231 0.116668 11.0448 0.195848 11.1456 0.297818C11.2464 0.399787 11.3241 0.522164 11.3734 0.656665C11.4226 0.791165 11.4423 0.934647 11.4311 1.0774C11.4199 1.22015 11.3781 1.35884 11.3085 1.48408C11.2389 1.60931 11.1431 1.71817 11.0276 1.80328L3.81955 9.04976L22.9975 9.04976C23.2634 9.04976 23.5184 9.15507 23.7064 9.34251C23.8944 9.52996 24 9.78419 24 10.0493C24 10.3144 23.8944 10.5686 23.7064 10.756C23.5184 10.9435 23.2634 11.0488 22.9975 11.0488L3.81955 11.0488L11.0276 18.2953C11.215 18.4835 11.3198 18.7382 11.3189 19.0035C11.3179 19.2687 11.2113 19.5227 11.0226 19.7096C10.8338 19.8965 10.5783 20.0009 10.3122 20C10.0462 19.9991 9.79146 19.8928 9.60401 19.7046L9.63408 19.7046Z" fill="#3F3F3F"/>
</svg>
