<svg width="64" height="20" viewBox="0 0 64 20" fill="none" xmlns="http://www.w3.org/2000/svg">
<path d="M22.2067 12.2104C23.5413 12.2104 24.6651 12.7017 25.508 13.6841C26.3509 14.6666 26.6319 15.7894 26.2807 17.0526C26.07 17.8947 25.5783 18.5965 24.7354 19.1579C23.9627 19.7193 23.0496 19.9298 22.1365 19.9298C21.2936 19.9298 20.5209 19.7193 19.8185 19.2982C19.1161 18.8772 18.6244 18.3158 18.2732 17.6842C18.0625 17.3333 18.1327 16.9824 18.3434 16.6315C18.6244 16.2807 18.9756 16.1403 19.3971 16.1403C19.8887 16.1403 20.3102 16.3508 20.5209 16.8421C20.8019 17.4035 21.3638 17.7544 22.0662 17.7544H22.1365C22.6282 17.7544 23.1198 17.5438 23.4711 17.1929C23.8223 16.8421 23.9627 16.421 23.8925 15.9298C23.8223 15.5087 23.6115 15.228 23.2603 14.9473C22.9091 14.6666 22.5579 14.5964 22.0662 14.5964C20.8019 14.5964 19.8185 14.1052 19.0459 13.1929C18.2732 12.2806 18.0625 11.228 18.4137 10.1051C18.6244 9.33321 19.1161 8.7718 19.8185 8.28056C20.5209 7.78933 21.2936 7.5788 22.2067 7.5788C23.752 7.5788 24.8759 8.21038 25.5783 9.40338C25.789 9.75426 25.789 10.1753 25.5783 10.5262C25.3676 10.8771 24.9461 11.0876 24.5247 11.0876C24.033 11.0876 23.6818 10.8771 23.4008 10.456C23.1198 10.035 22.7686 9.82444 22.2067 9.82444C21.8555 9.82444 21.5745 9.89462 21.2936 10.1051C21.0126 10.3157 20.8721 10.5262 20.8019 10.8069C20.7316 11.228 20.8019 11.5788 21.0828 11.8596C21.4341 12.0701 21.7853 12.2104 22.2067 12.2104Z" fill="#98999D"/>
<path d="M17.9827 12.6319C17.9827 13.0529 17.8422 13.4038 17.6315 13.7547C17.2101 14.5266 16.5779 14.8775 15.6648 14.8775H10.0455C10.0455 15.6495 10.3264 16.281 10.8884 16.8424C11.4503 17.4039 12.0825 17.6144 12.8551 17.6144H12.9253C13.8385 17.6144 14.6111 17.2635 15.1731 16.4916C15.5243 16.0705 15.9457 15.9302 16.4374 16.1407C16.7886 16.281 17.0696 16.4916 17.1398 16.8424C17.2803 17.1933 17.2101 17.5442 16.9993 17.8249C16.016 19.1583 14.6111 19.86 12.9253 19.86H12.8551C11.4503 19.86 10.3264 19.3688 9.34304 18.3863C8.35967 17.4039 7.86798 16.281 7.86798 14.8775V12.6319C7.86798 11.2283 8.35967 10.1055 9.34304 9.12306C10.3264 8.14059 11.5205 7.64936 12.9253 7.64936H12.9956C14.4004 7.64936 15.5945 8.14059 16.5779 9.12306C17.0696 9.61429 17.4208 10.1757 17.6315 10.7371C17.772 11.088 17.8422 11.4389 17.9125 11.7898C17.9827 12.0705 17.9827 12.2108 17.9827 12.2108C17.9827 12.2108 17.9827 12.281 17.9827 12.6319ZM10.1157 12.6319H15.735C15.735 11.8599 15.454 11.2283 14.8921 10.6669C14.3302 10.1055 13.698 9.82482 12.9253 9.82482H12.8551C12.0825 9.82482 11.4503 10.1055 10.8884 10.6669C10.3264 11.2283 10.1157 11.8599 10.1157 12.6319Z" fill="#98999D"/>
<path d="M41.726 2.80612C42.007 2.80612 42.288 2.94647 42.4987 3.157C42.7094 3.36753 42.8499 3.64823 42.8499 3.92894V18.7361C42.8499 19.0168 42.7094 19.2975 42.4987 19.5782C42.288 19.7888 42.007 19.9291 41.726 19.9291C41.1641 19.9291 40.7427 19.6484 40.6724 19.087C39.8295 19.6484 38.9164 19.9291 37.8628 19.9291H37.7925C36.3877 19.9291 35.1936 19.4379 34.2102 18.4554C33.2268 17.473 32.7352 16.28 32.7352 14.8764V12.5606C32.7352 11.1571 33.2268 9.9641 34.2102 8.98163C35.1936 7.99916 36.3877 7.50793 37.7925 7.50793H37.8628C38.8461 7.50793 39.7593 7.78863 40.6022 8.35004V3.92894C40.6022 3.64823 40.7427 3.36753 40.9534 3.157C41.0939 2.94647 41.3748 2.80612 41.726 2.80612ZM40.6022 12.5606C40.6022 11.7887 40.3212 11.1571 39.7593 10.5957C39.1974 10.0343 38.5652 9.75357 37.7925 9.75357H37.7223C36.9496 9.75357 36.3175 10.0343 35.7555 10.5957C35.1936 11.1571 34.9126 11.7887 34.9126 12.5606V14.8764C34.9126 15.6484 35.1936 16.28 35.7555 16.8414C36.3175 17.4028 36.9496 17.6133 37.7223 17.6133H37.7925C38.5652 17.6133 39.1974 17.3326 39.7593 16.8414C40.3212 16.28 40.6022 15.6484 40.6022 14.8764V12.5606Z" fill="#98999D"/>
<path d="M53.4584 12.6319C53.4584 13.0529 53.3882 13.4038 53.1775 13.7547C52.756 14.5266 52.1239 14.8775 51.2107 14.8775H45.5914C45.5914 15.6495 45.8724 16.281 46.4343 16.8424C46.9962 17.4039 47.6284 17.6144 48.4011 17.6144H48.4713C49.3844 17.6144 50.1571 17.2635 50.719 16.4916C51.0702 16.0705 51.4917 15.9302 51.9834 16.1407C52.3346 16.281 52.6155 16.4916 52.6858 16.8424C52.8263 17.1933 52.756 17.5442 52.5453 17.8249C51.5619 19.1583 50.1571 19.86 48.4713 19.86H48.4011C46.9962 19.86 45.8724 19.3688 44.889 18.3863C43.9056 17.4039 43.4139 16.281 43.4139 14.8775V12.6319C43.4139 11.2283 43.9056 10.1055 44.889 9.12306C45.8724 8.14059 47.0665 7.64936 48.4713 7.64936H48.5415C49.9464 7.64936 51.1405 8.14059 52.1238 9.12306C52.6155 9.61429 52.9667 10.1757 53.1775 10.7371C53.318 11.088 53.3882 11.4389 53.4584 11.7898C53.5287 12.0705 53.5287 12.2108 53.5287 12.2108C53.5287 12.2108 53.4584 12.281 53.4584 12.6319ZM45.5212 12.6319H51.1405C51.1405 11.8599 50.8595 11.2283 50.2976 10.6669C49.8059 10.1055 49.1737 9.82482 48.4011 9.82482H48.3308C47.5582 9.82482 46.926 10.1055 46.3641 10.6669C45.8021 11.2283 45.5212 11.8599 45.5212 12.6319Z" fill="#98999D"/>
<path d="M62.8761 7.5788C63.1571 7.5788 63.4381 7.71915 63.6488 7.92968C63.8595 8.14021 64 8.42091 64 8.70162V18.807C64 19.0877 63.8595 19.3684 63.6488 19.6491C63.4381 19.8596 63.1571 20 62.8761 20C62.3142 20 61.8928 19.7193 61.8225 19.1579C60.9796 19.7193 60.0665 20 59.0129 20H58.9426C57.5378 20 56.3437 19.5088 55.3603 18.5263C54.377 17.5438 53.8853 16.3508 53.8853 14.9473V12.6315C53.8853 11.228 54.377 10.035 55.3603 9.0525C56.3437 8.07003 57.5378 7.5788 58.9426 7.5788H59.0129C59.9962 7.5788 60.9796 7.8595 61.8225 8.42091C61.963 7.8595 62.3142 7.5788 62.8761 7.5788ZM61.7523 12.5613C61.7523 11.7894 61.4713 11.1578 60.9094 10.5964C60.4177 10.1051 59.7855 9.82444 59.0129 9.82444H58.9426C58.17 9.82444 57.5378 10.1051 56.9759 10.6666C56.4139 11.228 56.133 11.8596 56.133 12.6315V14.9473C56.133 15.7192 56.4139 16.3508 56.9759 16.9122C57.5378 17.4737 58.17 17.6842 58.9426 17.6842H59.0129C59.7855 17.6842 60.4177 17.4035 60.9796 16.9122C61.5416 16.3508 61.8225 15.7192 61.8225 14.9473V12.5613H61.7523Z" fill="#98999D"/>
<path d="M30.9795 19.861C31.7521 19.861 32.3843 19.2294 32.3843 18.4575C32.3843 17.6856 31.7521 17.054 30.9795 17.054C30.2068 17.054 29.5746 17.6856 29.5746 18.4575C29.5746 19.2996 30.2068 19.861 30.9795 19.861Z" fill="#98999D"/>
<path d="M31.7545 3.157C31.9652 3.36753 32.1057 3.64823 32.1057 3.92894V14.0343C32.1057 14.315 31.9652 14.5957 31.7545 14.8063C31.5437 15.0168 31.2628 15.1571 30.9818 15.1571C30.7008 15.1571 30.4199 15.0168 30.2092 14.8063C29.9984 14.5957 29.858 14.315 29.858 14.0343V3.99911C29.858 3.71841 29.9984 3.4377 30.2092 3.22717C30.4199 2.94647 30.6306 2.80612 30.9818 2.80612C31.2628 2.80612 31.5437 2.94647 31.7545 3.157Z" fill="#98999D"/>
<path d="M5.41431 2.80705C6.18696 2.80705 6.81913 2.17546 6.81913 1.40353C6.81913 0.631586 6.18696 0 5.41431 0C4.64165 0 4.00948 0.631586 4.00948 1.40353C4.00948 2.17546 4.64165 2.80705 5.41431 2.80705Z" fill="#98999D"/>
<path d="M10.7532 2.59535C10.683 2.31464 10.4723 2.03393 10.1913 1.89358C9.91035 1.75323 9.62938 1.68305 9.27818 1.82341C8.99721 1.89358 8.71625 2.10411 8.57576 2.38482L5.41491 8.41998L2.25405 2.45499C2.11357 2.17429 1.83261 1.96376 1.55164 1.89358C1.20043 1.75323 0.91947 1.75323 0.638505 1.96376C0.35754 2.10411 0.146816 2.31464 0.0765749 2.59535C-0.0639076 2.94623 0.00633363 3.22693 0.146816 3.50764L4.15057 11.227V18.6657C4.15057 19.0166 4.29105 19.2973 4.50177 19.5078C4.7125 19.7184 5.0637 19.8587 5.34467 19.8587C5.69587 19.8587 5.97684 19.7184 6.18756 19.5078C6.39829 19.2973 6.53877 19.0166 6.53877 18.6657V11.227L10.5425 3.50764C10.8235 3.22693 10.8235 2.94623 10.7532 2.59535Z" fill="#98999D"/>
</svg>
