<svg width="123" height="90" viewBox="0 0 123 90" fill="none" xmlns="http://www.w3.org/2000/svg">
<path d="M112.602 40.6976H116.786V34.9321C116.786 33.7875 115.856 32.8125 114.673 32.8125C113.532 32.8125 112.56 33.7451 112.56 34.9321V40.6976H112.602ZM116.66 40.5704H112.729V34.9321C112.729 33.8299 113.616 32.9821 114.673 32.9821C115.772 32.9821 116.617 33.8723 116.617 34.9321V40.5704H116.66Z" fill="white"/>
<path d="M112.855 34.9323C112.855 33.9148 113.659 33.1094 114.673 33.1094C115.687 33.1094 116.49 33.9148 116.49 34.9323V40.4433H112.813V34.9323H112.855ZM114.631 33.4485C114.208 33.4485 113.87 33.6605 113.574 33.9572L114.293 34.5931C114.377 34.5083 114.504 34.4659 114.631 34.4659V33.4485ZM114.25 34.9746H115.138C115.096 34.7627 114.927 34.5931 114.673 34.5931C114.462 34.5931 114.293 34.7627 114.25 34.9746ZM114.8 33.4485V34.4659C114.927 34.4659 115.011 34.5507 115.096 34.5931L115.814 33.9572C115.561 33.6605 115.18 33.4485 114.8 33.4485ZM115.349 40.1042H116.195V38.6204H115.349V40.1042ZM115.349 38.4509H116.195V36.9247H115.349V38.4509ZM115.349 36.7551H116.195V35.1442H115.349V36.7551ZM115.307 34.9746H116.195V34.9323C116.195 34.5931 116.11 34.2964 115.941 34.0844L115.222 34.7203C115.265 34.8051 115.307 34.8899 115.307 34.9746ZM114.208 40.1042H115.138V38.6204H114.208V40.1042ZM114.208 38.4509H115.138V36.9247H114.208V38.4509ZM114.208 36.7551H115.138V35.1442H114.208V36.7551ZM113.194 40.1042H114.039V38.6204H113.194V40.1042ZM113.194 38.4509H114.039V36.9247H113.194V38.4509ZM113.194 36.7551H114.039V35.1442H113.194V36.7551ZM113.194 34.9746H114.081C114.081 34.8899 114.123 34.7627 114.208 34.6779L113.489 34.042C113.32 34.2964 113.194 34.5931 113.194 34.9746ZM117.167 41.0792H112.264V40.8249H117.167V41.0792Z" fill="white"/>
<path d="M106.388 40.6976H110.573V34.9321C110.573 33.7875 109.643 32.8125 108.46 32.8125C107.318 32.8125 106.346 33.7451 106.346 34.9321V40.6976H106.388ZM110.404 40.5704H106.473V34.9321C106.473 33.8299 107.361 32.9821 108.417 32.9821C109.516 32.9821 110.362 33.8723 110.362 34.9321V40.5704H110.404Z" fill="white"/>
<path d="M106.6 34.9323C106.6 33.9148 107.403 33.1094 108.418 33.1094C109.432 33.1094 110.235 33.9148 110.235 34.9323V40.4433H106.558V34.9323H106.6ZM108.375 33.4485C107.953 33.4485 107.614 33.6605 107.319 33.9572L108.037 34.5931C108.122 34.5083 108.248 34.4659 108.375 34.4659V33.4485ZM107.995 34.9746H108.883C108.84 34.7627 108.671 34.5931 108.418 34.5931C108.206 34.5931 108.037 34.7627 107.995 34.9746ZM108.544 33.4485V34.4659C108.671 34.4659 108.756 34.5507 108.84 34.5931L109.559 33.9572C109.305 33.6605 108.967 33.4485 108.544 33.4485ZM109.094 40.1042H109.939V38.6204H109.094V40.1042ZM109.094 38.4509H109.939V36.9247H109.094V38.4509ZM109.094 36.7551H109.939V35.1442H109.094V36.7551ZM109.052 34.9746H109.939V34.9323C109.939 34.5931 109.855 34.2964 109.686 34.0844L108.967 34.7203C109.009 34.8051 109.052 34.8899 109.052 34.9746ZM107.995 40.1042H108.925V38.6204H107.995V40.1042ZM107.995 38.4509H108.925V36.9247H107.995V38.4509ZM107.995 36.7551H108.925V35.1442H107.995V36.7551ZM106.938 40.1042H107.784V38.6204H106.938V40.1042ZM106.938 38.4509H107.784V36.9247H106.938V38.4509ZM106.938 36.7551H107.784V35.1442H106.938V36.7551ZM106.938 34.9746H107.826C107.826 34.8899 107.868 34.7627 107.953 34.6779L107.234 34.042C107.065 34.2964 106.938 34.5931 106.938 34.9746ZM110.911 41.0792H106.008V40.8249H110.911V41.0792Z" fill="white"/>
<path d="M53.807 28.8699C52.0741 28.8699 50.6792 27.4709 50.6792 25.7328C50.6792 23.9947 52.0741 22.5957 53.807 22.5957C55.54 22.5957 56.9349 23.9947 56.9349 25.7328C56.9349 27.4709 55.54 28.8699 53.807 28.8699ZM53.807 22.8077C52.2009 22.8077 50.8483 24.1218 50.8483 25.7752C50.8483 27.3861 52.1586 28.7427 53.807 28.7427C55.4132 28.7427 56.7658 27.4285 56.7658 25.7752C56.7658 24.1218 55.4555 22.8077 53.807 22.8077Z" fill="white"/>
<path d="M53.807 23.0195C52.2853 23.0195 51.0596 24.2489 51.0596 25.7327C51.0596 27.2588 52.2853 28.4882 53.807 28.4882C55.3286 28.4882 56.5122 27.2588 56.5122 25.7327C56.5544 24.2489 55.3286 23.0195 53.807 23.0195ZM56.1317 25.6479H53.9338V23.4435C55.1173 23.4859 56.0472 24.4609 56.1317 25.6479ZM53.7225 23.4435V25.6479H51.5245C51.5668 24.4609 52.4967 23.4859 53.7225 23.4435ZM51.5245 25.8599H53.7225V28.0643C52.4967 28.0219 51.5668 27.0469 51.5245 25.8599ZM53.9338 28.0643V25.8599H56.1317C56.0472 27.0469 55.1173 28.0219 53.9338 28.0643Z" fill="white"/>
<path d="M93.8348 29.0391H88.8472V29.2934H93.8348V29.0391Z" fill="white"/>
<path d="M93.8348 28.9539H88.8472V22.4254H88.8894C89.2276 22.1287 90.2843 21.5352 91.341 21.5352C92.3554 21.5352 93.4544 22.1287 93.8348 22.4254H93.877V28.9539H93.8348ZM88.974 28.8267H93.708V22.5102C93.3698 22.2134 92.3131 21.7047 91.341 21.6623C90.3265 21.6623 89.3121 22.2134 88.974 22.5102V28.8267Z" fill="white"/>
<path d="M93.4967 22.5527C93.2008 22.2984 92.2709 21.832 91.341 21.832C90.3688 21.832 89.439 22.2984 89.1853 22.5527L89.1431 22.5951V28.6573H93.5812V22.5951L93.4967 22.5527ZM93.2431 24.0788H91.4256V22.1712C92.1864 22.2136 92.9472 22.5527 93.2431 22.7647V24.0788ZM91.4256 24.2484H93.2431V26.1985H91.4256V24.2484ZM91.2565 26.1985H89.4812V24.2484H91.2565V26.1985ZM91.2565 22.1712V24.0788H89.4812V22.7647C89.7771 22.5527 90.4956 22.2136 91.2565 22.1712ZM89.4812 26.3681H91.2565V28.3605H89.4812V26.3681ZM91.4256 26.3681H93.2431V28.3605H91.4256V26.3681Z" fill="white"/>
<path d="M35.0823 40.8242H30.1792V41.0786H35.0823V40.8242Z" fill="white"/>
<path d="M35.0823 33.4473H30.1792V33.7016H35.0823V33.4473Z" fill="white"/>
<path d="M34.9977 40.6971H30.2637V33.7871H34.9977V40.6971ZM30.3905 40.57H34.8709V33.9567H30.3905V40.57Z" fill="white"/>
<path d="M30.6021 40.4425H34.7021V34.126H30.6021V40.4425ZM34.3639 36.2032H32.7577V34.4651H34.3639V36.2032ZM32.7155 36.3304H34.3217V38.1109H32.7155V36.3304ZM32.5464 38.1533H30.9402V36.3728H32.5464V38.1533ZM32.5464 36.2032H30.9402V34.4651H32.5464V36.2032ZM30.9402 38.3229H32.5464V40.1458H30.9402V38.3229ZM32.7155 38.3229H34.3217V40.1458H32.7155V38.3229Z" fill="white"/>
<path d="M42.2258 40.8242H37.3228V41.0786H42.2258V40.8242Z" fill="white"/>
<path d="M42.2258 33.4473H37.3228V33.7016H42.2258V33.4473Z" fill="white"/>
<path d="M42.1413 40.6971H37.4072V33.7871H42.1413V40.6971ZM37.534 40.57H42.0144V33.9567H37.534V40.57Z" fill="white"/>
<path d="M37.7451 40.4425H41.8451V34.126H37.7451V40.4425ZM41.4647 36.2032H39.8585V34.4651H41.4647V36.2032ZM39.8585 36.3304H41.4647V38.1109H39.8585V36.3304ZM39.6894 38.1533H38.0833V36.3728H39.6894V38.1533ZM39.6894 36.2032H38.0833V34.4651H39.6894V36.2032ZM38.0833 38.3229H39.6894V40.1458H38.0833V38.3229ZM39.8585 38.3229H41.4647V40.1458H39.8585V38.3229Z" fill="white"/>
<path d="M27.9812 40.8242H23.0781V41.0786H27.9812V40.8242Z" fill="white"/>
<path d="M27.9812 33.4473H23.0781V33.7016H27.9812V33.4473Z" fill="white"/>
<path d="M27.8971 40.6971H23.1631V33.7871H27.8971V40.6971ZM23.2899 40.57H27.7703V33.9567H23.2899V40.57Z" fill="white"/>
<path d="M23.459 40.4425H27.559V34.126H23.459V40.4425ZM27.2208 36.2032H25.6146V34.4651H27.2208V36.2032ZM25.5724 36.3304H27.1786V38.1109H25.5724V36.3304ZM25.4456 38.1533H23.8394V36.3728H25.4456V38.1533ZM25.4456 36.2032H23.8394V34.4651H25.4456V36.2032ZM23.7971 38.3229H25.4033V40.1458H23.7971V38.3229ZM25.5724 38.3229H27.1786V40.1458H25.5724V38.3229Z" fill="white"/>
<path d="M86.5652 40.8242H81.6621V41.0786H86.5652V40.8242Z" fill="white"/>
<path d="M86.5652 33.4473H81.6621V33.7016H86.5652V33.4473Z" fill="white"/>
<path d="M86.5226 40.6971H81.7886V33.7871H86.5226V40.6971ZM81.9154 40.57H86.3958V33.9567H81.9154V40.57Z" fill="white"/>
<path d="M82.0845 40.4425H86.1845V34.126H82.0845V40.4425ZM85.8463 36.2032H84.2401V34.4651H85.8463V36.2032ZM84.1979 36.3304H85.8041V38.1109H84.1979V36.3304ZM84.0288 38.1533H82.4226V36.3728H84.0288V38.1533ZM84.0288 36.2032H82.4226V34.4651H84.0288V36.2032ZM82.4226 38.3229H84.0288V40.1458H82.4226V38.3229ZM84.1979 38.3229H85.8041V40.1458H84.1979V38.3229Z" fill="white"/>
<path d="M94.0042 40.8242H89.1011V41.0786H94.0042V40.8242Z" fill="white"/>
<path d="M94.0042 33.4473H89.1011V33.7016H94.0042V33.4473Z" fill="white"/>
<path d="M93.9196 40.6971H89.1855V33.7871H93.9196V40.6971ZM89.3123 40.57H93.7927V33.9567H89.3123V40.57Z" fill="white"/>
<path d="M89.4814 40.4425H93.5814V34.126H89.4814V40.4425ZM93.2433 36.2032H91.6371V34.4651H93.2433V36.2032ZM91.6371 36.3304H93.2433V38.1109H91.6371V36.3304ZM91.468 38.1533H89.8618V36.3728H91.468V38.1533ZM91.468 36.2032H89.8618V34.4651H91.468V36.2032ZM89.8196 38.3229H91.4258V40.1458H89.8196V38.3229ZM91.6371 38.3229H93.2433V40.1458H91.6371V38.3229Z" fill="white"/>
<path d="M100.936 40.8242H96.0332V41.0786H100.936V40.8242Z" fill="white"/>
<path d="M100.936 33.4473H96.0332V33.7016H100.936V33.4473Z" fill="white"/>
<path d="M100.852 40.6971H96.1177V33.7871H100.852V40.6971ZM96.2445 40.57H100.725V33.9567H96.2445V40.57Z" fill="white"/>
<path d="M96.4556 40.4425H100.556V34.126H96.4556V40.4425ZM100.175 36.2032H98.569V34.4651H100.175V36.2032ZM98.569 36.3304H100.175V38.1109H98.569V36.3304ZM98.3999 38.1533H96.7937V36.3728H98.3999V38.1533ZM98.3999 36.2032H96.7937V34.4651H98.3999V36.2032ZM96.7514 38.3229H98.3576V40.1458H96.7514V38.3229ZM98.569 38.3229H100.175V40.1458H98.569V38.3229Z" fill="white"/>
<path d="M52.4548 40.9092H47.5518V41.1636H52.4548V40.9092Z" fill="white"/>
<path d="M52.4544 33.5332H47.5513V33.7875H52.4544V33.5332Z" fill="white"/>
<path d="M52.3697 40.7811H47.6357V33.8711H52.3697V40.7811ZM47.7625 40.6539H52.2429V34.0406H47.7625V40.6539Z" fill="white"/>
<path d="M47.9746 40.5275H52.0746V34.2109H47.9746V40.5275ZM51.7364 36.2458H50.1303V34.5077H51.7364V36.2458ZM50.088 36.4154H51.6942V38.1959H50.088V36.4154ZM49.9189 38.2383H48.3127V36.4578H49.9189V38.2383ZM49.9189 36.2458H48.3127V34.5077H49.9189V36.2458ZM48.3127 38.3654H49.9189V40.1883H48.3127V38.3654ZM50.088 38.3654H51.6942V40.1883H50.088V38.3654Z" fill="white"/>
<path d="M60.0627 40.9092H55.1597V41.1636H60.0627V40.9092Z" fill="white"/>
<path d="M60.0627 33.5332H55.1597V33.7875H60.0627V33.5332Z" fill="white"/>
<path d="M59.9781 40.7811H55.2441V33.8711H59.9781V40.7811ZM55.3709 40.6539H59.8513V34.0406H55.3709V40.6539Z" fill="white"/>
<path d="M55.5825 40.5275H59.6825V34.2109H55.5825V40.5275ZM59.3021 36.2458H57.6959V34.5077H59.3021V36.2458ZM57.6959 36.4154H59.3021V38.1959H57.6959V36.4154ZM57.5268 38.2383H55.9207V36.4578H57.5268V38.2383ZM57.5268 36.2458H55.9207V34.5077H57.5268V36.2458ZM55.8784 38.3654H57.4846V40.1883H55.8784V38.3654ZM57.6959 38.3654H59.3021V40.1883H57.6959V38.3654Z" fill="white"/>
<path d="M10.6938 40.6976H6.50928V34.9321C6.50928 33.7875 7.43917 32.8125 8.62268 32.8125C9.76392 32.8125 10.7361 33.7451 10.7361 34.9321V40.6976H10.6938ZM6.63608 40.5704H10.567V34.9321C10.567 33.8299 9.67938 32.9821 8.62268 32.9821C7.52371 32.9821 6.67835 33.8723 6.67835 34.9321V40.5704H6.63608Z" fill="white"/>
<path d="M10.44 34.9323C10.44 33.9148 9.63689 33.1094 8.62245 33.1094C7.60802 33.1094 6.80492 33.9148 6.80492 34.9323V40.4433H10.4822V34.9323H10.44ZM8.70698 33.4485C9.12966 33.4485 9.46781 33.6605 9.76368 33.9572L9.04513 34.5931C8.9606 34.5083 8.83378 34.4659 8.70698 34.4659V33.4485ZM9.0874 34.9746H8.19977C8.24204 34.7627 8.41111 34.5931 8.66472 34.5931C8.8338 34.5931 9.04514 34.7627 9.0874 34.9746ZM8.53791 33.4485V34.4659C8.41111 34.4659 8.32658 34.5507 8.24204 34.5931L7.52348 33.9572C7.77709 33.6605 8.11523 33.4485 8.53791 33.4485ZM7.98843 40.1042H7.14307V38.6204H7.98843V40.1042ZM7.98843 38.4509H7.14307V36.9247H7.98843V38.4509ZM7.98843 36.7551H7.14307V35.1442H7.98843V36.7551ZM7.98843 34.9746H7.1008V34.9323C7.1008 34.5931 7.18534 34.2964 7.35441 34.0844L8.07296 34.7203C8.03069 34.8051 8.0307 34.8899 7.98843 34.9746ZM9.0874 40.1042H8.1575V38.6204H9.0874V40.1042ZM9.0874 38.4509H8.1575V36.9247H9.0874V38.4509ZM9.0874 36.7551H8.1575V35.1442H9.0874V36.7551ZM10.1441 40.1042H9.29874V38.6204H10.1441V40.1042ZM10.1441 38.4509H9.29874V36.9247H10.1441V38.4509ZM10.1441 36.7551H9.29874V35.1442H10.1441V36.7551ZM10.1441 34.9746H9.25647C9.25647 34.8899 9.2142 34.7627 9.12966 34.6779L9.84822 34.042C10.0173 34.2964 10.1441 34.5931 10.1441 34.9746ZM6.1709 41.0792H11.074V40.8249H6.1709V41.0792Z" fill="white"/>
<path d="M16.9492 40.6976H12.7646V34.9321C12.7646 33.7875 13.6945 32.8125 14.8781 32.8125C16.0193 32.8125 16.9915 33.7451 16.9915 34.9321V40.6976H16.9492ZM12.8915 40.5704H16.8224V34.9321C16.8224 33.8299 15.9348 32.9821 14.8781 32.9821C13.7791 32.9821 12.9337 33.8723 12.9337 34.9321V40.5704H12.8915Z" fill="white"/>
<path d="M16.6956 34.9323C16.6956 33.9148 15.8925 33.1094 14.8781 33.1094C13.8637 33.1094 13.0606 33.9148 13.0606 34.9323V40.4433H16.7379V34.9323H16.6956ZM14.9204 33.4485C15.343 33.4485 15.6812 33.6605 15.9771 33.9572L15.2585 34.5931C15.174 34.5083 15.0472 34.4659 14.9204 34.4659V33.4485ZM15.343 34.9746H14.4554C14.4977 34.7627 14.6668 34.5931 14.9204 34.5931C15.0894 34.5931 15.2585 34.7627 15.343 34.9746ZM14.7513 33.4485V34.4659C14.6245 34.4659 14.5399 34.5507 14.4554 34.5931L13.7369 33.9572C13.9905 33.6605 14.3709 33.4485 14.7513 33.4485ZM14.2441 40.1042H13.3987V38.6204H14.2441V40.1042ZM14.2441 38.4509H13.3987V36.9247H14.2441V38.4509ZM14.2441 36.7551H13.3987V35.1442H14.2441V36.7551ZM14.2441 34.9746H13.3564V34.9323C13.3564 34.5931 13.441 34.2964 13.61 34.0844L14.3286 34.7203C14.2863 34.8051 14.2441 34.8899 14.2441 34.9746ZM15.343 40.1042H14.4131V38.6204H15.343V40.1042ZM15.343 38.4509H14.4131V36.9247H15.343V38.4509ZM15.343 36.7551H14.4131V35.1442H15.343V36.7551ZM16.3575 40.1042H15.5121V38.6204H16.3575V40.1042ZM16.3575 38.4509H15.5121V36.9247H16.3575V38.4509ZM16.3575 36.7551H15.5121V35.1442H16.3575V36.7551ZM16.3575 34.9746H15.4698C15.4698 34.8899 15.4276 34.7627 15.343 34.6779L16.0616 34.042C16.2729 34.2964 16.3575 34.5931 16.3575 34.9746ZM12.3843 41.0792H17.2874V40.8249H12.3843V41.0792Z" fill="white"/>
<path d="M69.0657 38.7048H65.4307V28.9121H69.0234V38.7048H69.0657ZM65.7688 38.3657H68.6853V29.2512H65.7688V38.3657Z" fill="white"/>
<path d="M68.8547 32.2607H65.6001V32.4727H68.8547V32.2607Z" fill="white"/>
<path d="M68.8547 35.5674H65.6001V35.7793H68.8547V35.5674Z" fill="white"/>
<path d="M67.3335 29.082H67.1216V38.5356H67.3335V29.082Z" fill="white"/>
<path d="M69.7 39.2559H64.7969V39.5102H69.7V39.2559Z" fill="white"/>
<path d="M69.7 28.1064H64.7969V28.3608H69.7V28.1064Z" fill="white"/>
<path d="M69.4039 39.0433H65.1348V28.5723H69.4039V39.0433ZM65.2616 38.9161H69.277V28.7418H65.2616V38.9161Z" fill="white"/>
<path d="M75.5752 38.7048H71.9824V28.9121H75.5752V38.7048ZM72.3206 38.3657H75.2371V29.2512H72.3206V38.3657Z" fill="white"/>
<path d="M75.406 32.2607H72.1514V32.4727H75.406V32.2607Z" fill="white"/>
<path d="M75.406 35.5674H72.1514V35.7793H75.406V35.5674Z" fill="white"/>
<path d="M73.8853 29.082H73.6733V38.5356H73.8853V29.082Z" fill="white"/>
<path d="M76.2517 39.2559H71.3486V39.5102H76.2517V39.2559Z" fill="white"/>
<path d="M76.2517 28.1064H71.3486V28.3608H76.2517V28.1064Z" fill="white"/>
<path d="M75.9136 39.0433H71.6445V28.5723H75.9136V39.0433ZM71.7713 38.9161H75.7868V28.7418H71.7713V38.9161Z" fill="white"/>
<path d="M28.0657 29.5479H23.0781V29.8022H28.0657V29.5479Z" fill="white"/>
<path d="M28.0657 29.4207H23.0781V22.8922H23.1204C23.4586 22.5954 24.5152 22.002 25.5719 22.002C26.5864 22.002 27.6853 22.5954 28.0657 22.8922H28.108V29.4207H28.0657ZM23.2049 29.2935H27.9389V22.977C27.6008 22.6802 26.5441 22.1715 25.5719 22.1291C24.5575 22.1291 23.5431 22.6802 23.2049 22.977V29.2935Z" fill="white"/>
<path d="M27.7276 23.0195C27.4318 22.7651 26.5019 22.2988 25.572 22.2988C24.5998 22.2988 23.6699 22.7651 23.4163 23.0195L23.374 23.0619V29.1241H27.8122V23.0619L27.7276 23.0195ZM27.4317 24.5457H25.6142V22.638C26.375 22.6804 27.1359 23.0195 27.4317 23.2315V24.5457ZM25.6142 24.7152H27.4317V26.6653H25.6142V24.7152ZM25.4452 26.6653H23.6699V24.7152H25.4452V26.6653ZM25.4452 22.6804V24.588H23.6699V23.2739C23.9658 23.0195 24.7266 22.6804 25.4452 22.6804ZM23.6699 26.8349H25.4452V28.8273H23.6699V26.8349ZM25.6142 26.8349H27.4317V28.8273H25.6142V26.8349Z" fill="white"/>
<path d="M35.1668 29.5479H30.1792V29.8022H35.1668V29.5479Z" fill="white"/>
<path d="M35.2093 29.4207H30.2217V22.8922H30.2639C30.6021 22.5954 31.6588 22.002 32.7155 22.002C33.7299 22.002 34.8289 22.5954 35.2093 22.8922H35.2516V29.4207H35.2093ZM30.3062 29.2935H35.0402V22.977C34.7021 22.6802 33.6454 22.1715 32.6732 22.1291C31.6588 22.1291 30.6444 22.6802 30.3062 22.977V29.2935Z" fill="white"/>
<path d="M34.8292 23.0195C34.5333 22.7651 33.6034 22.2988 32.6735 22.2988C31.7014 22.2988 30.7715 22.7651 30.5179 23.0195L30.4756 23.0619V29.1241H34.9137V23.0619L34.8292 23.0195ZM34.5756 24.5457H32.7581V22.638C33.5189 22.6804 34.2797 23.0195 34.5756 23.2315V24.5457ZM32.7581 24.7152H34.5756V26.6653H32.7581V24.7152ZM32.589 26.6653H30.8137V24.7152H32.589V26.6653ZM32.589 22.6804V24.588H30.8137V23.2739C31.1096 23.0195 31.8282 22.6804 32.589 22.6804ZM30.8137 26.8349H32.589V28.8273H30.8137V26.8349ZM32.7581 26.8349H34.5756V28.8273H32.7581V26.8349Z" fill="white"/>
<path d="M42.3104 29.5479H37.3228V29.8022H42.3104V29.5479Z" fill="white"/>
<path d="M42.3104 29.4207H37.3228V22.8922H37.365C37.7032 22.5954 38.7599 22.002 39.8166 22.002C40.831 22.002 41.93 22.5954 42.3104 22.8922H42.3527V29.4207H42.3104ZM37.4496 29.2935H42.1836V22.977C41.8454 22.6802 40.7887 22.1715 39.8166 22.1291C38.8021 22.1291 37.7877 22.6802 37.4496 22.977V29.2935Z" fill="white"/>
<path d="M41.9723 23.0195C41.6764 22.7651 40.7465 22.2988 39.8166 22.2988C38.8444 22.2988 37.9145 22.7651 37.6609 23.0195L37.6187 23.0619V29.1241H42.0568V23.0619L41.9723 23.0195ZM41.7187 24.5457H39.9011V22.638C40.6619 22.6804 41.4228 23.0195 41.7187 23.2315V24.5457ZM39.9011 24.7152H41.7187V26.6653H39.9011V24.7152ZM39.7321 26.6653H37.9568V24.7152H39.7321V26.6653ZM39.7321 22.6804V24.588H37.9568V23.2739C38.2527 23.0195 38.9712 22.6804 39.7321 22.6804ZM37.9568 26.8349H39.7321V28.8273H37.9568V26.8349ZM39.9011 26.8349H41.7187V28.8273H39.9011V26.8349Z" fill="white"/>
<path d="M120.083 26.6651H104.656V18.3137H95.6948L91.4258 13.8625L87.0722 18.3137H77.9V22.7226H63.4866V15.0071H56.132L54.3144 10.5558C54.5258 10.4286 54.6526 10.1743 54.6526 9.87754C54.6526 9.45361 54.3144 9.11447 53.934 9.07208V6.52851H55.3711L55.0753 6.99482H55.3711L55.7093 6.44372L55.3711 5.85022H55.0753L55.3711 6.31654H53.934V3.94254L55.033 3.39143C55.033 3.39143 55.8361 2.92511 55.4979 2.03486C55.4979 2.03486 55.4134 1.7805 55.0753 1.56854L54.9062 1.2294H55.0753C55.0753 1.2294 55.033 0.975038 54.8217 0.890252L54.9907 0.678288H54.6948C54.6948 0.678288 54.6526 0.551115 54.568 0.551115C54.568 0.551115 54.7794 0.551112 54.7794 0.296755C54.7794 0.042398 54.4835 0 54.4835 0V0.381546C54.3567 0.169582 54.1876 0.211964 54.1876 0.211964H53.6381C53.6381 0.635893 53.8495 0.59351 53.8495 0.59351H54.0186V3.09468H53.8918V2.07726C53.8918 2.07726 53.7649 1.27179 53.0041 1.27179C52.2433 1.27179 52.0319 1.95007 52.0319 2.11964V3.98494C52.0319 3.98494 52.4124 3.85776 52.4124 3.51861V2.16204C52.4124 2.16204 52.4546 1.73811 52.8773 1.73811C52.8773 1.73811 52.5814 1.86529 52.5814 2.20443V3.85775C52.5814 3.85775 52.8773 3.73057 52.8773 3.39143V2.58597C52.8773 2.58597 52.9618 2.16204 53.2154 2.16204C53.2154 2.16204 53.0041 2.33161 53.0041 2.54357V3.64579C53.0041 3.64579 53.3 3.51861 53.3 3.17946C53.3 3.17946 53.2577 2.67076 53.4268 2.67076L53.6381 4.49364V6.40132H53.0041L52.7083 5.935H52.4124L52.7083 6.40132H52.5392L52.2433 5.935H51.9474L52.2433 6.40132H52.0742L51.7784 5.935H51.4825L51.8206 6.52851L51.4825 7.07961H51.7784L52.0742 6.61329H52.2433L51.9474 7.07961H52.2433L52.5392 6.61329H52.7083L52.4124 7.07961H52.7083L53.0041 6.61329H53.6381V9.15686C53.2577 9.19925 52.9196 9.53839 52.9196 9.96232C52.9196 10.2591 53.0886 10.5134 53.3 10.6406L51.3134 15.0495H44.001V18.3137H20.5423L18.2175 28.4456H2.53608L0 44.4701H2.91649V79.4442H120.083V44.4701H123L120.083 26.6651ZM102.88 20.0942V29.9294H97.7237V22.9345H100.218L97.4701 20.0942H102.88ZM91.4258 16.406L95.9485 21.1116H95.9062V29.887H86.7763V21.1116L91.4258 16.406ZM79.6753 20.0942H85.2969L82.4649 22.9345H85.001V29.9294H79.7175V20.0942H79.6753ZM63.4866 24.5031H77.9V41.6298H63.4866V24.5031ZM61.7113 16.83V28.7423L56.8928 16.83H61.7113ZM53.8072 14.1168L60.5701 30.7348H46.4103L53.8072 14.1168ZM45.9454 16.83H50.6371L45.9031 27.4282V16.83H45.9454ZM22.1062 20.0942H44.1278V30.7348H19.6969L22.1062 20.0942ZM2.28247 42.6472L4.26906 30.2261H18.0062L17.4567 32.5577H18.6402V42.6472H2.28247ZM118.435 77.5789H4.86082V44.4277H20.4155V32.5577H61.6691V43.4527H79.6753V31.7522H86.7763H95.9062H102.88V44.4701H118.435V77.5789ZM104.698 42.6472V28.488H118.604L121.056 42.6472H104.698Z" fill="white"/>
<path d="M10.6934 87.1175H9.67895V90.0002H9.12945V87.1175H8.07275V86.5664H10.6934V87.1175Z" fill="white"/>
<path d="M14.878 89.0672H13.3986L13.0605 89.9998H12.4688L13.779 86.6084H14.4553L15.7657 89.9998H15.1739L14.878 89.0672ZM14.6667 88.5585L14.1172 87.1171L13.5677 88.5585H14.6667Z" fill="white"/>
<path d="M19.0204 90.0002H18.3864L19.0627 88.7708L17.8369 86.5664H18.4709L19.3586 88.1773L20.2462 86.5664H20.8379L19.0204 90.0002Z" fill="white"/>
<path d="M26.1635 86.5664V90.0002H25.614V88.5165H23.881V90.0002H23.3315V86.5664H23.881V87.9654H25.614V86.5664H26.1635Z" fill="white"/>
<path d="M30.4753 88.2617H28.8691V88.7704H30.4753V88.2617Z" fill="white"/>
<path d="M36.0546 90.0002H35.5051V87.1175H33.7721V90.0002H33.2227V86.5664H33.7721H36.0546V90.0002Z" fill="white"/>
<path d="M40.9151 89.0672H39.4358L39.0976 89.9998H38.5059L39.8162 86.6084H40.4925L41.8028 89.9998H41.211L40.9151 89.0672ZM40.7038 88.5585L40.1543 87.1171L39.6048 88.5585H40.7038Z" fill="white"/>
<path d="M46.9172 87.7104C46.9172 88.3887 46.4523 88.855 45.7337 88.855H44.8884V89.9996H44.3389V86.6081H45.7337C46.4523 86.5657 46.9172 87.0321 46.9172 87.7104ZM46.3678 87.7104C46.3678 87.3712 46.1564 87.1169 45.7337 87.1169H44.9306V88.3039H45.7337C46.1564 88.3039 46.3678 88.0495 46.3678 87.7104Z" fill="white"/>
<path d="M51.4822 90.0002L50.0451 88.3469V90.0002H49.4956V86.5664H50.0451V88.1349L51.3977 86.5664H52.1162L50.6368 88.2197L52.1585 90.0002H51.4822Z" fill="white"/>
<path d="M60.6123 89.0248C60.6123 89.6183 60.1896 89.9998 59.4711 89.9998H57.9917V86.6084H59.4288C60.1051 86.6084 60.4432 86.9052 60.4432 87.4987C60.4432 87.8378 60.3164 88.0498 59.9783 88.2193C60.4432 88.3041 60.6123 88.6009 60.6123 89.0248ZM59.4288 87.1171H58.5834V88.0074H59.4288C59.8092 88.0074 59.9783 87.8378 59.9783 87.5835C59.9783 87.2443 59.8092 87.1171 59.4288 87.1171ZM60.0628 88.9824C60.0628 88.6857 59.936 88.4737 59.4711 88.4737H58.5834V89.4487H59.4711C59.936 89.4487 60.0628 89.2792 60.0628 88.9824Z" fill="white"/>
<path d="M69.4037 86.5664V90.0002H68.8542V88.5165H67.079V90.0002H66.5718V86.5664H67.079V87.9654H68.8542V86.5664H69.4037Z" fill="white"/>
<path d="M74.2648 89.0672H72.7854L72.4472 89.9998H71.8555L73.1658 86.6084H73.8421L75.1524 89.9998H74.5606L74.2648 89.0672ZM74.0534 88.5585L73.5039 87.1171L72.9544 88.5585H74.0534Z" fill="white"/>
<path d="M79.7172 86.5664V89.9578H79.1678V88.686C78.9987 88.7708 78.7028 88.8556 78.3647 88.8556C77.6461 88.8556 77.1812 88.5165 77.1812 87.711V86.5664H77.7306V87.6686C77.7306 88.1773 78.0265 88.3469 78.4492 88.3469C78.7451 88.3469 78.9987 88.3045 79.1678 88.2197V86.5664H79.7172Z" fill="white"/>
<path d="M84.6207 89.0672H83.1413L82.8032 89.9998H82.2114L83.5217 86.6084H84.198L85.5083 89.9998H84.9166L84.6207 89.0672ZM84.4094 88.5585L83.8599 87.1171L83.3104 88.5585H84.4094Z" fill="white"/>
<path d="M90.8762 90.0002H90.3267V87.1175H88.5514V90.0002H88.002V86.5664H88.5514H90.8762V90.0002Z" fill="white"/>
<path d="M95.5677 90.0002L94.1306 88.3469V90.0002H93.5811V86.5664H94.1306V88.1349L95.4831 86.5664H96.2017L94.7223 88.2197L96.244 90.0002H95.5677Z" fill="white"/>
<path d="M101.57 86.5664V90.0002H101.021V88.5589L101.063 87.3719L99.3721 90.0002H98.6958V86.5664H99.2453V88.0078L99.203 89.1948L100.894 86.5664H101.57Z" fill="white"/>
<path d="M107.107 86.5664V90.0002H106.557V88.5165H104.824V90.0002H104.275V86.5664H104.824V87.9654H106.557V86.5664H107.107Z" fill="white"/>
<path d="M113.194 88.2615C113.194 89.279 112.433 89.9996 111.419 89.9996C110.447 89.9996 109.644 89.2366 109.644 88.2615C109.644 87.2865 110.404 86.5234 111.419 86.5234C112.433 86.5234 113.194 87.2865 113.194 88.2615ZM110.235 88.2615C110.235 88.9822 110.743 89.4909 111.461 89.4909C112.137 89.4909 112.645 88.9822 112.645 88.2615C112.645 87.5409 112.137 87.0321 111.461 87.0321C110.743 87.0321 110.235 87.5832 110.235 88.2615Z" fill="white"/>
<path d="M14.4136 45.1484H12.1311H9.72185L7.22803 78.2996H10.1868L10.6095 70.7961H13.526L13.9487 78.2996H16.9074L14.4136 45.1484ZM10.7786 67.1927L11.7507 50.1932H12.3002L13.3146 67.1927H10.7786Z" fill="white"/>
<path d="M91.0029 45.1484H100.64V48.7518H94.3421V59.9859H98.6534V63.4622H94.3421V74.6963H100.64V78.2573H91.0029V45.1484Z" fill="white"/>
<path d="M48.7354 45.1484H58.3725V48.7518H52.0745V59.9859H56.3859V63.4622H52.0745V74.6963H58.3725V78.2573H48.7354V45.1484Z" fill="white"/>
<path d="M20.5845 44.9785H24.0927V59.9856H26.6711V44.9785H30.1371V78.2569H26.6711V63.2922H24.0927V78.2569H20.5845V44.9785Z" fill="white"/>
<path d="M106.558 44.9785H110.024V59.9856H112.602V44.9785H116.11V78.2569H112.602V63.2498H110.024V78.2569H106.558V44.9785Z" fill="white"/>
<path d="M62.3032 44.9785H68.0939C70.63 44.9785 72.0672 46.5047 72.0672 49.133V60.1127C72.0672 62.7835 70.6723 64.2673 68.0939 64.2673H65.6424V78.2569H62.3032V44.9785ZM67.9249 60.8758C68.3898 60.8758 68.6434 60.5791 68.6434 60.028V49.4298C68.6434 49.1754 68.5166 48.5819 67.8826 48.5819H65.6424V60.8758H67.9249Z" fill="white"/>
<path d="M85.7618 59.9433V49.3875C85.7618 46.0385 83.5639 45.2754 81.7041 45.2754H80.0979C77.6464 45.2754 76.167 46.3776 76.167 48.9212V74.6536C76.167 77.1972 77.6464 78.2994 80.0979 78.2994H81.7041C83.5639 78.2994 85.7618 77.5787 85.7618 74.1873V63.7587H82.4227V73.8906C82.4227 74.2721 82.2958 74.696 81.8309 74.696H80.2247C79.9288 74.696 79.7175 74.5265 79.7175 74.2721V49.3451C79.7175 49.0908 79.9288 48.9212 80.2247 48.9212H81.8309C82.2958 48.9212 82.4227 49.3451 82.4227 49.7266V59.9857H85.7618V59.9433Z" fill="white"/>
<path d="M43.2402 78.2575V77.4096H34.7021L34.7444 78.2575H31.8701V74.7813H32.8C34.0681 72.5344 34.6175 70.2028 34.6175 65.4124L35.3784 45.0215H44.6774V74.7813H45.7341V78.2575H43.2402ZM41 74.8236V47.7346H38.6753L37.9145 66.0907C37.9145 70.4996 37.4073 72.7888 36.4351 74.8236H41Z" fill="white"/>
</svg>
