<svg width="512" height="330" viewBox="0 0 512 330" fill="none" xmlns="http://www.w3.org/2000/svg">
<path d="M499.224 110.85H435.102V76.0409H397.803L379.986 57.5578L361.68 76.0409H323.5V94.377H263.587V62.3624H232.896L225.358 43.8793C226.239 43.242 226.827 42.2124 226.827 41.0848C226.827 39.3198 225.505 37.898 223.841 37.7019V27.1612H229.813L228.638 29.1222H229.862L231.281 26.769L229.862 24.3666H228.687L229.862 26.3277H223.89V16.5223L228.54 14.169C228.54 14.169 231.966 12.306 230.4 8.48194C230.4 8.48194 230.057 7.35432 228.687 6.61891L228.002 5.14811H228.687C228.687 5.14811 228.491 4.06952 227.61 3.77536L228.344 2.84385H227.169C227.169 2.84385 227.023 2.40261 226.582 2.25553C226.582 2.25553 227.561 2.30455 227.561 1.12791C227.561 -0.0487353 226.386 0.000290075 226.386 0.000290075V1.52013C225.897 0.637642 225.163 0.735693 225.163 0.735693H222.813C222.813 2.54969 223.743 2.30455 223.743 2.30455H224.379V12.6982H223.792V8.48194C223.792 8.48194 223.254 5.09908 220.121 5.09908C217.037 5.09908 216.107 7.94264 216.107 8.62902V16.3753C216.107 16.3753 217.673 15.885 217.673 14.4142V8.57999C217.673 8.57999 217.869 6.81502 219.631 6.81502C219.631 6.81502 218.31 7.40334 218.31 8.67804V15.5418C218.31 15.5418 219.533 15.0025 219.631 13.5317V10.1979C219.631 10.1979 220.072 8.48194 221.1 8.48194C221.1 8.48194 220.268 9.11928 220.268 10.1488V14.7574C220.268 14.7574 221.589 14.2671 221.589 12.8453C221.589 12.8453 221.393 10.6881 222.128 10.6881L223.009 18.2873V26.2787H220.317L219.142 24.3176H217.918L219.093 26.2787H218.408L217.233 24.3176H216.009L217.184 26.2787H216.45L215.275 24.3176H214.051L215.471 26.7199L214.051 29.0732H215.275L216.45 27.1121H217.184L216.009 29.0732H217.233L218.408 27.1121H219.142L217.967 29.0732H219.191L220.366 27.1121H223.058V37.7019C221.394 37.9471 220.121 39.3689 220.121 41.0848C220.121 42.3105 220.757 43.389 221.736 43.9774L213.513 62.4115H183.018V76.0409H85.4149L75.821 118.106H10.6218L0 184.684H12.1392V330H499.812V184.684H512L499.224 110.85ZM427.613 83.542V124.43H406.076V95.4065H416.404L404.999 83.542H427.613ZM379.888 68.2947L398.782 87.9054H398.587V124.43H360.554V87.9054H360.505L379.888 68.2947ZM330.989 83.542H354.239L342.541 95.4065H353.065V124.43H330.989V83.542ZM263.587 101.878H323.5V173.065H263.587V101.878ZM256.098 69.9126V119.381L235.98 69.9126H256.098ZM223.351 58.6854L251.497 127.813H192.514L223.351 58.6854ZM190.507 69.9126H210.184L190.507 113.988V69.9126ZM91.3866 83.542H183.018V127.813H81.3032L91.3866 83.542ZM8.76176 177.232L16.9851 125.656H74.1078L71.9052 135.363H76.8979V177.232H8.76176ZM43.3683 322.548L44.8857 295.24H57.0738L58.5912 322.548H43.3683ZM45.6688 280.287L49.7805 209.688H52.0321L56.2906 280.287H45.6688ZM98.7778 322.548V246.409H99.6589C100.099 250.92 106.218 307.252 107.882 322.548H98.7778ZM168.676 304.849C168.676 309.899 168.333 311.419 165.935 311.419H156.586V203.707H165.837C168.285 203.707 168.676 205.423 168.676 210.571V304.849ZM285.565 322.548H274.698V266.951H282.971C285.369 266.951 285.565 270.432 285.565 270.481V322.548ZM286.348 250.871C286.348 251.508 286.152 253.322 283.607 253.322H274.698V203.707H283.558C286.25 203.707 286.397 205.668 286.397 206.305V250.871H286.348ZM456.101 322.548V246.409H456.982C457.423 250.92 463.541 307.252 465.254 322.548H456.101ZM492.323 322.548H483.757V188.803H471.03V268.716H470.247C469.758 262.931 468.534 252.636 468.387 251.067L461.583 188.852H443.668V322.597H419.292V311.419H393.055V264.745H411.02V250.282H393.055V203.609H419.292V188.705H379.203V322.499H356.442C358.841 319.9 360.113 316.322 360.113 311.664V270.972C360.113 260.627 346.212 253.812 340.632 251.116C336.716 249.645 335.052 246.115 335.052 243.566V204.393C335.052 203.364 335.933 202.677 337.059 202.677H343.715C345.673 202.677 346.261 204.393 346.261 205.913V245.184H360.162V204.687C360.162 190.715 351.058 187.675 343.324 187.675H336.618C326.437 187.675 320.269 192.186 320.269 202.726V243.419C320.269 253.714 326.437 260.578 332.849 263.029C337.744 264.99 345.331 267.785 345.331 272.737V310.291C345.331 311.37 344.45 312.105 343.079 312.105H336.618C335.59 312.105 334.024 310.929 334.024 308.575V269.256H320.073V308.575C320.073 314.704 321.493 319.312 324.283 322.45H301.081C300.935 310.291 300.788 274.256 300.788 271.021C300.788 265.53 296.774 261.166 293.152 261.166V260.578C297.508 260.578 300.984 253.861 300.984 249.547V204.491C300.984 191.45 291.634 188.607 283.852 188.607H260.895V322.401H243.665V311.223H217.429V264.549H235.393V250.282H217.429V203.609H243.665V188.705H203.576V322.499H177.927C182.626 318.037 182.675 310.585 182.675 305.879V209.296C182.675 202.138 182.626 188.803 166.424 188.803H142.929L142.88 322.548H126.58V188.803H113.854V268.716H113.071C112.581 262.931 111.358 252.636 111.211 251.067L104.407 188.852H86.4918V322.597H70.9751L60.9407 188.852H41.3614L31.327 322.597H19.8241V184.684H84.5338V135.314H256.098V180.566H330.989V131.932H360.554H398.587H427.613V184.733H492.323V322.548ZM435.102 177.232V118.351H492.959L503.14 177.232H435.102ZM466.576 170.81H486.987V169.682H466.576V170.81ZM476.708 137.57C472.499 137.57 469.072 141.001 469.072 145.218V168.162H484.344V145.218C484.344 141.001 480.918 137.57 476.708 137.57ZM477.149 138.991C478.813 139.089 480.33 139.874 481.407 141.1L478.47 143.796C478.128 143.502 477.687 143.257 477.198 143.208V138.991H477.149ZM478.568 145.365H474.848C475.044 144.482 475.778 143.845 476.708 143.845C477.638 143.845 478.372 144.531 478.568 145.365ZM476.415 138.991V143.159C475.925 143.208 475.436 143.404 475.044 143.698L472.058 141.001C473.184 139.825 474.701 139.04 476.415 138.991ZM474.065 166.741H470.492V160.563H474.065V166.741ZM474.065 159.877H470.492V153.503H474.065V159.877ZM474.065 152.817H470.492V146.1H474.065V152.817ZM474.114 145.365H470.492V145.169C470.492 143.796 470.932 142.57 471.667 141.541L474.603 144.188C474.31 144.58 474.163 144.973 474.114 145.365ZM478.666 166.741H474.75V160.563H478.666V166.741ZM478.666 159.877H474.75V153.503H478.666V159.877ZM478.666 152.817H474.75V146.1H478.666V152.817ZM482.925 166.741H479.351V160.563H482.925V166.741ZM482.925 159.877H479.351V153.503H482.925V159.877ZM482.925 152.817H479.351V146.1H482.925V152.817ZM482.925 145.365H479.302C479.254 144.973 479.107 144.58 478.862 144.286L481.799 141.639C482.533 142.668 482.925 143.894 482.925 145.218V145.365ZM485.519 145.218C485.519 140.413 481.603 136.491 476.806 136.491C472.009 136.491 468.093 140.413 468.093 145.218V169.241H485.519V145.218ZM484.932 168.702H468.583V145.218C468.583 140.707 472.254 137.03 476.757 137.03C481.26 137.03 484.932 140.707 484.932 145.218V168.702ZM440.584 170.81H460.996V169.682H440.584V170.81ZM450.717 137.57C446.507 137.57 443.081 141.001 443.081 145.218V168.162H458.353V145.218C458.304 141.001 454.926 137.57 450.717 137.57ZM451.108 138.991C452.772 139.089 454.29 139.874 455.367 141.1L452.43 143.796C452.087 143.502 451.647 143.257 451.157 143.208V138.991H451.108ZM452.577 145.365H448.857C449.052 144.482 449.787 143.845 450.717 143.845C451.647 143.845 452.381 144.531 452.577 145.365ZM450.423 138.991V143.159C449.933 143.208 449.444 143.404 449.052 143.698L446.067 141.001C447.192 139.825 448.71 139.04 450.423 138.991ZM448.073 166.741H444.5V160.563H448.073V166.741ZM448.073 159.877H444.5V153.503H448.073V159.877ZM448.073 152.817H444.5V146.1H448.073V152.817ZM448.073 145.365H444.451V145.169C444.451 143.796 444.892 142.57 445.626 141.541L448.563 144.188C448.318 144.58 448.171 144.973 448.073 145.365ZM452.675 166.741H448.759V160.563H452.675V166.741ZM452.675 159.877H448.759V153.503H452.675V159.877ZM452.675 152.817H448.759V146.1H452.675V152.817ZM456.933 166.741H453.36V160.563H456.933V166.741ZM456.933 159.877H453.36V153.503H456.933V159.877ZM456.933 152.817H453.36V146.1H456.933V152.817ZM456.933 145.365H453.311C453.262 144.973 453.115 144.58 452.87 144.286L455.807 141.639C456.542 142.668 456.933 143.894 456.933 145.218V145.365ZM459.478 145.218C459.478 140.413 455.562 136.491 450.766 136.491C445.969 136.491 442.053 140.413 442.053 145.218V169.241H459.478V145.218ZM458.94 168.702H442.591V145.218C442.591 140.707 446.262 137.03 450.766 137.03C455.269 137.03 458.94 140.707 458.94 145.218V168.702ZM223.302 119.969C230.449 119.969 236.274 114.135 236.274 106.977C236.274 99.819 230.449 93.9848 223.302 93.9848C216.156 93.9848 210.331 99.819 210.331 106.977C210.331 114.135 216.156 119.969 223.302 119.969ZM223.302 94.7202C230.057 94.7202 235.54 100.211 235.54 106.977C235.54 113.743 230.057 119.234 223.302 119.234C216.548 119.234 211.065 113.743 211.065 106.977C211.065 100.211 216.548 94.7202 223.302 94.7202ZM223.302 118.4C229.568 118.4 234.659 113.301 234.659 107.026C234.659 100.75 229.568 95.6517 223.302 95.6517C217.037 95.6517 211.946 100.75 211.946 107.026C211.946 113.301 217.037 118.4 223.302 118.4ZM223.743 97.4166C228.687 97.6618 232.701 101.633 232.896 106.585H223.743V97.4166ZM223.743 107.467H232.896C232.652 112.419 228.687 116.439 223.743 116.635V107.467ZM222.862 116.635C217.918 116.39 213.904 112.419 213.709 107.467H222.862V116.635ZM222.862 97.4166V106.585H213.709C213.953 101.633 217.918 97.6127 222.862 97.4166ZM370.588 93.7886L370.343 93.9848V119.234H388.748V93.9848L388.503 93.7886C387.328 92.8081 383.413 90.847 379.546 90.847H379.497C375.434 90.847 371.665 92.8571 370.588 93.7886ZM379.154 117.861H371.714V109.526H379.154V117.861ZM379.154 108.84H371.714V100.799H379.154V108.84ZM379.154 100.113H371.714V94.6221C372.938 93.6906 375.972 92.3178 379.154 92.2198V100.113ZM379.888 92.2198C383.119 92.3178 386.252 93.8377 387.426 94.6221V100.113H379.888V92.2198ZM379.888 100.799H387.426V108.84H379.888V100.799ZM379.888 109.526H387.426V117.861H379.888V109.526ZM389.972 93.2003L389.874 93.1023C388.405 91.8276 383.853 89.4743 379.546 89.4253H379.497C374.945 89.4253 370.637 91.8766 369.218 93.1023L369.12 93.2003V120.361H389.923V93.2003H389.972ZM389.433 119.822H369.756V93.4945C371.127 92.3669 375.336 90.0626 379.546 90.0626H379.595C383.608 90.0626 387.965 92.3178 389.433 93.4945V119.822ZM389.972 120.802H369.169V121.93H389.972V120.802ZM125.014 170.81H145.426V169.682H125.014V170.81ZM125.357 169.241H145.083V140.609H125.357V169.241ZM144.496 168.702H125.895V141.149H144.496V168.702ZM125.014 140.168H145.426V139.04H125.014V140.168ZM143.712 141.884H126.727V168.162H143.712V141.884ZM134.853 166.741H128.098V159.239H134.853V166.741ZM134.853 158.553H128.098V151.101H134.853V158.553ZM134.853 150.415H128.098V143.257H134.853V150.415ZM142.293 166.741H135.538V159.239H142.293V166.741ZM142.293 158.553H135.538V151.101H142.293V158.553ZM142.293 150.415H135.538V143.257H142.293V150.415ZM155.02 169.241H174.746V140.609H155.02V169.241ZM174.207 168.702H155.607V141.149H174.207V168.702ZM154.677 140.168H175.088V139.04H154.677V140.168ZM173.375 141.884H156.39V168.162H173.375V141.884ZM164.515 166.741H157.761V159.239H164.515V166.741ZM164.515 158.553H157.761V151.101H164.515V158.553ZM164.515 150.415H157.761V143.257H164.515V150.415ZM172.005 166.741H165.25V159.239H172.005V166.741ZM172.005 158.553H165.25V151.101H172.005V158.553ZM172.005 150.415H165.25V143.257H172.005V150.415ZM154.677 170.81H175.088V169.682H154.677V170.81ZM95.3025 170.81H115.714V169.682H95.3025V170.81ZM95.6451 169.241H115.371V140.609H95.6451V169.241ZM114.833 168.702H96.2325V141.149H114.833V168.702ZM95.3025 140.168H115.714V139.04H95.3025V140.168ZM114.001 141.884H97.0157V168.162H114.001V141.884ZM105.19 166.741H98.4352V159.239H105.19V166.741ZM105.19 158.553H98.4352V151.101H105.19V158.553ZM105.19 150.415H98.4352V143.257H105.19V150.415ZM112.63 166.741H105.875V159.239H112.63V166.741ZM112.63 158.553H105.875V151.101H112.63V158.553ZM112.63 150.415H105.875V143.257H112.63V150.415ZM339.31 170.81H359.722V169.682H339.31V170.81ZM339.653 169.241H359.379V140.609H339.653V169.241ZM358.792 168.702H340.191V141.149H358.792V168.702ZM358.008 141.884H341.023V168.162H358.008V141.884ZM349.149 166.741H342.394V159.239H349.149V166.741ZM349.149 158.553H342.394V151.101H349.149V158.553ZM349.149 150.415H342.394V143.257H349.149V150.415ZM356.638 166.741H349.883V159.239H356.638V166.741ZM356.638 158.553H349.883V151.101H356.638V158.553ZM356.638 150.415H349.883V143.257H356.638V150.415ZM339.31 140.168H359.722V139.04H339.31V140.168ZM370.49 169.241H390.216V140.609H370.49V169.241ZM389.678 168.702H371.078V141.149H389.678V168.702ZM370.148 140.168H390.559V139.04H370.148V140.168ZM388.846 141.884H371.861V168.162H388.846V141.884ZM379.986 166.741H373.231V159.239H379.986V166.741ZM379.986 158.553H373.231V151.101H379.986V158.553ZM379.986 150.415H373.231V143.257H379.986V150.415ZM387.475 166.741H380.72V159.239H387.475V166.741ZM387.475 158.553H380.72V151.101H387.475V158.553ZM387.475 150.415H380.72V143.257H387.475V150.415ZM370.148 170.81H390.559V169.682H370.148V170.81ZM399.027 170.81H419.439V169.682H399.027V170.81ZM417.725 141.884H400.74V168.162H417.725V141.884ZM408.866 166.741H402.111V159.239H408.866V166.741ZM408.866 158.553H402.111V151.101H408.866V158.553ZM408.866 150.415H402.111V143.257H408.866V150.415ZM416.306 166.741H409.551V159.239H416.306V166.741ZM416.306 158.553H409.551V151.101H416.306V158.553ZM416.306 150.415H409.551V143.257H416.306V150.415ZM399.37 169.241H419.096V140.609H399.37V169.241ZM418.509 168.702H399.908V141.149H418.509V168.702ZM399.027 140.168H419.439V139.04H399.027V140.168ZM197.311 140.462H217.722V139.335H197.311V140.462ZM197.654 169.535H217.38V140.903H197.654V169.535ZM216.841 168.996H198.241V141.443H216.841V168.996ZM197.311 171.104H217.722V169.976H197.311V171.104ZM216.009 142.178H199.024V168.457H216.009V142.178ZM207.198 167.084H200.444V159.583H207.198V167.084ZM207.198 158.847H200.444V151.395H207.198V158.847ZM207.198 150.709H200.444V143.551H207.198V150.709ZM214.639 167.084H207.884V159.583H214.639V167.084ZM214.639 158.847H207.884V151.395H214.639V158.847ZM214.639 150.709H207.884V143.551H214.639V150.709ZM228.883 140.462H249.294V139.335H228.883V140.462ZM228.883 171.104H249.294V169.976H228.883V171.104ZM247.581 142.178H230.596V168.457H247.581V142.178ZM238.77 167.084H232.015V159.583H238.77V167.084ZM238.77 158.847H232.015V151.395H238.77V158.847ZM238.77 150.709H232.015V143.551H238.77V150.709ZM246.21 167.084H239.455V159.583H246.21V167.084ZM246.21 158.847H239.455V151.395H246.21V158.847ZM246.21 150.709H239.455V143.551H246.21V150.709ZM229.225 169.535H248.951V140.903H229.225V169.535ZM248.413 168.996H229.813V141.443H248.413V168.996ZM24.9637 170.81H45.3751V169.682H24.9637V170.81ZM43.9067 145.218C43.9067 140.413 39.9908 136.491 35.1939 136.491C30.3969 136.491 26.4811 140.413 26.4811 145.218V169.241H43.9067V145.218ZM43.3193 168.702H27.0195V145.218C27.0195 140.707 30.6906 137.03 35.1939 137.03C39.6971 137.03 43.3683 140.707 43.3683 145.218V168.702H43.3193ZM35.2428 137.57C31.0333 137.57 27.6069 141.001 27.6069 145.218V168.162H42.8788V145.218C42.8788 141.001 39.4524 137.57 35.2428 137.57ZM35.5365 138.991C37.2497 139.089 38.7671 139.825 39.844 141.001L36.8581 143.698C36.4665 143.404 36.026 143.208 35.4876 143.159V138.991H35.5365ZM37.1029 145.365H33.3828C33.5786 144.482 34.3128 143.845 35.2428 143.845C36.1728 143.845 36.9071 144.531 37.1029 145.365ZM34.8512 138.991V143.159C34.3618 143.257 33.9212 143.453 33.5786 143.747L30.6417 141.051C31.6696 139.874 33.138 139.138 34.8512 138.991ZM32.5996 166.741H29.0264V160.563H32.5996V166.741ZM32.5996 159.877H29.0264V153.503H32.5996V159.877ZM32.5996 152.817H29.0264V146.1H32.5996V152.817ZM32.6486 145.365H29.0264V145.169C29.0264 143.845 29.4669 142.619 30.1522 141.59L33.0891 144.237C32.8444 144.629 32.6975 144.973 32.6486 145.365ZM37.2008 166.741H33.2849V160.563H37.2008V166.741ZM37.2008 159.877H33.2849V153.503H37.2008V159.877ZM37.2008 152.817H33.2849V146.1H37.2008V152.817ZM41.5082 166.741H37.935V160.563H41.5082V166.741ZM41.5082 159.877H37.935V153.503H41.5082V159.877ZM41.5082 152.817H37.935V146.1H41.5082V152.817ZM41.5082 145.365H37.886C37.8371 144.924 37.6413 144.531 37.3966 144.188L40.3335 141.541C41.0677 142.57 41.5082 143.845 41.5082 145.169V145.365ZM61.2344 137.57C57.0249 137.57 53.5985 141.001 53.5985 145.218V168.162H68.8704V145.218C68.8704 141.001 65.444 137.57 61.2344 137.57ZM61.5281 138.991C63.2413 139.089 64.7587 139.825 65.8356 141.001L62.8497 143.698C62.4581 143.404 62.0176 143.208 61.4792 143.159V138.991H61.5281ZM63.1434 145.365H59.4233C59.6191 144.482 60.3533 143.845 61.2834 143.845C62.1644 143.845 62.9476 144.531 63.1434 145.365ZM60.8428 138.991V143.159C60.3533 143.257 59.9128 143.453 59.5702 143.747L56.6333 141.051C57.6612 139.874 59.1296 139.138 60.8428 138.991ZM58.5912 166.741H55.018V160.563H58.5912V166.741ZM58.5912 159.877H55.018V153.503H58.5912V159.877ZM58.5912 152.817H55.018V146.1H58.5912V152.817ZM58.6402 145.365H55.018V145.169C55.018 143.845 55.4585 142.619 56.1438 141.59L59.0807 144.237C58.8359 144.629 58.6891 144.973 58.6402 145.365ZM63.1923 166.741H59.2765V160.563H63.1923V166.741ZM63.1923 159.877H59.2765V153.503H63.1923V159.877ZM63.1923 152.817H59.2765V146.1H63.1923V152.817ZM67.4998 166.741H63.9266V160.563H67.4998V166.741ZM67.4998 159.877H63.9266V153.503H67.4998V159.877ZM67.4998 152.817H63.9266V146.1H67.4998V152.817ZM67.4998 145.365H63.8776C63.8287 144.924 63.6329 144.531 63.3881 144.188L66.325 141.541C67.0593 142.57 67.4998 143.845 67.4998 145.169V145.365ZM50.9553 170.81H71.3667V169.682H50.9553V170.81ZM69.8983 145.218C69.8983 140.413 65.9824 136.491 61.1855 136.491C56.3885 136.491 52.4727 140.413 52.4727 145.218V169.241H69.8983V145.218ZM69.3598 168.702H53.0111V145.218C53.0111 140.707 56.6822 137.03 61.1855 137.03C65.6887 137.03 69.3598 140.707 69.3598 145.218V168.702ZM286.74 120.263H271.761V160.906H286.74V120.263ZM278.81 159.485H273.181V148.748H278.81V159.485ZM278.81 147.816H273.181V135.118H278.81V147.816ZM278.81 134.187H273.181V121.685H278.81V134.187ZM285.369 159.485H279.74V148.748H285.369V159.485ZM285.369 147.816H279.74V135.118H285.369V147.816ZM285.369 134.187H279.74V121.685H285.369V134.187ZM269.069 164.387H289.481V163.26H269.069V164.387ZM269.069 117.91H289.481V116.782H269.069V117.91ZM270.391 162.328H288.159V118.841H270.391V162.328ZM287.572 161.789H270.929V119.43H287.572V161.789ZM313.955 120.263H298.977V160.906H313.955V120.263ZM305.976 159.485H300.347V148.748H305.976V159.485ZM305.976 147.816H300.347V135.118H305.976V147.816ZM305.976 134.187H300.347V121.685H305.976V134.187ZM312.535 159.485H306.906V148.748H312.535V159.485ZM312.535 147.816H306.906V135.118H312.535V147.816ZM312.535 134.187H306.906V121.685H312.535V134.187ZM296.236 164.387H316.647V163.26H296.236V164.387ZM296.236 117.91H316.647V116.782H296.236V117.91ZM297.557 162.328H315.325V118.841H297.557V162.328ZM314.787 161.789H298.145V119.43H314.787V161.789ZM105.728 91.4354H105.68C101.127 91.4354 96.8199 93.8867 95.4004 95.0633L95.3025 95.1614V122.322H116.106V95.1614L116.008 95.0633C114.539 93.8377 110.036 91.4354 105.728 91.4354ZM115.567 121.783H95.8899V95.4556C97.2604 94.3279 101.47 92.0237 105.68 92.0237H105.728C109.742 92.0237 114.099 94.2789 115.567 95.4556V121.783ZM95.3025 123.891H116.106V122.764H95.3025V123.891ZM96.7709 95.7497L96.5262 95.9458V121.195H114.931V95.9458L114.686 95.7497C113.511 94.7692 109.595 92.8081 105.728 92.8081H105.68C101.568 92.8081 97.8478 94.8182 96.7709 95.7497ZM105.337 119.822H97.8967V111.487H105.337V119.822ZM105.337 110.801H97.8967V102.761H105.337V110.801ZM105.337 102.074H97.8967V96.5832C99.1205 95.6517 102.155 94.2789 105.337 94.1809V102.074ZM106.022 94.2299C109.253 94.3279 112.385 95.8478 113.56 96.6322V102.123H106.022V94.2299ZM106.022 102.81H113.56V110.85H106.022V102.81ZM106.022 111.536H113.56V119.871H106.022V111.536ZM126.434 95.7497L126.189 95.9458V121.195H144.594V95.9458L144.349 95.7497C143.174 94.7692 139.258 92.8081 135.391 92.8081H135.342C131.28 92.8081 127.511 94.8182 126.434 95.7497ZM135 119.822H127.559V111.487H135V119.822ZM135 110.801H127.559V102.761H135V110.801ZM135 102.074H127.559V96.5832C128.783 95.6517 131.818 94.2789 135 94.1809V102.074ZM135.734 94.2299C138.964 94.3279 142.097 95.8478 143.272 96.6322V102.123H135.734V94.2299ZM135.734 102.81H143.272V110.85H135.734V102.81ZM135.734 111.536H143.272V119.871H135.734V111.536ZM135.391 91.4354H135.342C130.79 91.4354 126.483 93.8867 125.063 95.0633L124.965 95.1614V122.322H145.768V95.1614L145.67 95.0633C144.251 93.8377 139.699 91.4354 135.391 91.4354ZM145.279 121.783H125.602V95.4556C126.972 94.3279 131.182 92.0237 135.391 92.0237H135.44C139.454 92.0237 143.81 94.2789 145.279 95.4556V121.783ZM125.014 123.891H145.817V122.764H125.014V123.891ZM165.103 91.4354H165.054C160.502 91.4354 156.194 93.8867 154.775 95.0633L154.677 95.1614V122.322H175.48V95.1614L175.382 95.0633C173.914 93.8377 169.41 91.4354 165.103 91.4354ZM174.941 121.783H155.264V95.4556C156.635 94.3279 160.844 92.0237 165.054 92.0237H165.103C169.117 92.0237 173.473 94.2789 174.941 95.4556V121.783ZM156.145 95.7497L155.901 95.9458V121.195H174.305V95.9458L174.06 95.7497C172.886 94.7692 168.97 92.8081 165.103 92.8081H165.054C160.942 92.8081 157.222 94.8182 156.145 95.7497ZM164.711 119.822H157.271V111.487H164.711V119.822ZM164.711 110.801H157.271V102.761H164.711V110.801ZM164.711 102.074H157.271V96.5832C158.495 95.6517 161.53 94.2789 164.711 94.1809V102.074ZM165.397 94.2299C168.627 94.3279 171.76 95.8478 172.935 96.6322V102.123H165.397V94.2299ZM165.397 102.81H172.935V110.85H165.397V102.81ZM165.397 111.536H172.935V119.871H165.397V111.536ZM154.677 123.891H175.48V122.764H154.677V123.891Z" fill="white"/>
</svg>
