<svg width="324" height="80" viewBox="0 0 324 80" fill="none" xmlns="http://www.w3.org/2000/svg">
<path d="M111.157 68.2793H39.8866V71.7405H111.157V68.2793Z" fill="white"/>
<path d="M5.79808 21.5564C5.79808 21.7924 5.71863 22.0284 5.63917 22.1857C5.55972 22.4217 5.48026 22.579 5.32135 22.7363C5.16244 22.8937 5.00353 23.051 4.84462 23.2083C4.76517 23.4443 4.60626 23.6016 4.44735 23.6803C4.28844 23.759 4.12953 23.9163 3.97062 24.0736C3.81171 24.2309 3.57335 24.3096 3.41444 24.4669C3.25553 24.6243 3.09662 24.7816 2.93771 24.9389C2.7788 25.0962 2.69935 25.3322 2.69935 25.4896H5.79808V26.7482H1.34862V25.7255C1.34862 25.4109 1.42807 25.1749 1.50753 24.9389C1.58698 24.7029 1.74589 24.4669 1.82535 24.2309C1.98426 23.9949 2.14317 23.8376 2.30208 23.6803C2.46099 23.523 2.69935 23.3656 2.85826 23.2083C3.01717 23.051 3.25553 22.9723 3.41444 22.815C3.57335 22.6577 3.73226 22.579 3.89117 22.4217C4.05008 22.2644 4.12953 22.1857 4.20899 22.0284C4.28844 21.871 4.3679 21.7137 4.3679 21.635C4.3679 21.5564 4.3679 21.3991 4.28844 21.3204C4.20899 21.2417 4.12953 21.1631 4.05008 21.0844C3.97062 21.0057 3.81171 21.0057 3.73226 20.9271C3.57335 20.9271 3.4939 20.8484 3.33499 20.8484C3.09662 20.8484 2.85826 20.9271 2.61989 21.0057C2.38153 21.0844 2.14317 21.2417 1.98426 21.3991L1.26917 20.3764C1.50753 20.1404 1.82535 19.9831 2.22262 19.8258C2.61989 19.6685 3.01717 19.6685 3.41444 19.6685C3.65281 19.6685 3.97062 19.6685 4.20899 19.7471C4.44735 19.8258 4.76517 19.9044 4.92408 20.0618C5.16244 20.2191 5.32135 20.4551 5.48026 20.6911C5.79808 20.8484 5.79808 21.1631 5.79808 21.5564Z" fill="white"/>
<path d="M10.884 21.7914C10.884 21.6341 10.884 21.4768 10.8045 21.3981C10.7251 21.3195 10.6456 21.1621 10.5662 21.0835C10.4867 21.0048 10.4073 20.9261 10.2483 20.9261C10.1689 20.9261 10.01 20.8475 9.93053 20.8475C9.85107 20.8475 9.69216 20.8475 9.61271 20.9261C9.53325 20.9261 9.37434 21.0048 9.29489 21.0835C9.21543 21.1621 9.13598 21.2408 9.05653 21.3981C8.97707 21.4768 8.97707 21.6341 8.97707 21.7914V24.702C8.97707 24.8593 8.97707 25.0166 9.05653 25.0953C9.13598 25.174 9.21543 25.3313 9.29489 25.41C9.37434 25.4886 9.4538 25.5673 9.61271 25.5673C9.69216 25.5673 9.85107 25.646 9.93053 25.646C10.01 25.646 10.1689 25.646 10.2483 25.5673C10.3278 25.5673 10.4867 25.4886 10.5662 25.41C10.6456 25.3313 10.7251 25.2526 10.8045 25.0953C10.884 25.0166 10.884 24.8593 10.884 24.702V21.7914ZM12.2347 24.938C12.2347 25.2526 12.1553 25.5673 11.9963 25.8033C11.8374 26.0393 11.6785 26.1966 11.4402 26.3539C11.2018 26.5113 10.9634 26.5899 10.7251 26.6686C10.4867 26.7472 10.1689 26.7472 9.93053 26.7472C9.69216 26.7472 9.37434 26.7472 9.13598 26.6686C8.89762 26.5899 8.65925 26.5113 8.42089 26.3539C8.18253 26.1966 8.02362 26.0393 7.86471 25.8033C7.7058 25.5673 7.62634 25.2526 7.62634 24.938V21.5555C7.62634 21.2408 7.7058 20.9261 7.86471 20.6902C8.02362 20.4542 8.18253 20.2182 8.42089 20.0608C8.65925 19.9035 8.89762 19.7462 9.13598 19.6675C9.37434 19.5889 9.69216 19.5889 9.93053 19.5889C10.1689 19.5889 10.4867 19.6675 10.7251 19.6675C10.9634 19.7462 11.2018 19.9035 11.4402 20.0608C11.6785 20.2182 11.8374 20.4542 11.9963 20.6902C12.1553 20.9261 12.2347 21.2408 12.2347 21.5555V24.938Z" fill="white"/>
<path d="M15.9703 26.7462V21.3184L15.2553 21.9477L14.5402 21.0038L16.1293 19.6665H17.3211V26.7462H15.9703Z" fill="white"/>
<path d="M24.9469 21.552C24.9469 21.788 24.8674 22.024 24.788 22.1813C24.7085 22.4173 24.6291 22.5746 24.4701 22.7319C24.3112 22.8893 24.1523 23.0466 23.9934 23.2039C23.8345 23.3612 23.6756 23.5186 23.5167 23.5972C23.3578 23.6759 23.1989 23.8332 23.04 23.9906C22.8811 24.1479 22.6427 24.2265 22.4838 24.3839C22.3249 24.5412 22.166 24.6985 22.007 24.8559C21.8481 25.0132 21.7687 25.2492 21.7687 25.4065H24.8674V26.7438H20.418V25.7212C20.418 25.4065 20.4974 25.1705 20.5769 24.9345C20.6563 24.6985 20.8152 24.4625 20.8947 24.2265C21.0536 23.9906 21.2125 23.8332 21.3714 23.6759C21.5303 23.5186 21.7687 23.3612 21.9276 23.2039C22.0865 23.0466 22.3249 22.9679 22.4838 22.8106C22.6427 22.6533 22.8016 22.5746 22.9605 22.4173C23.1194 22.26 23.1989 22.1813 23.2783 22.024C23.3578 21.8666 23.4372 21.7093 23.4372 21.6307C23.4372 21.552 23.4372 21.3947 23.3578 21.316C23.2783 21.2373 23.1989 21.1587 23.1194 21.08C23.04 21.0013 22.8811 21.0013 22.8016 20.9227C22.6427 20.9227 22.5632 20.844 22.4043 20.844C22.166 20.844 21.9276 20.9227 21.6892 21.0013C21.4509 21.08 21.2125 21.2373 21.0536 21.3947L20.3385 20.372C20.5769 20.136 20.8947 19.9787 21.292 19.8214C21.6892 19.6641 22.0865 19.6641 22.4838 19.6641C22.7221 19.6641 23.04 19.6641 23.2783 19.7427C23.5167 19.8214 23.8345 19.9001 23.9934 20.0574C24.2318 20.2147 24.3907 20.4507 24.5496 20.6867C24.8674 20.844 24.9469 21.1587 24.9469 21.552Z" fill="white"/>
<path d="M89.0677 15.1826H85.5717V64.662H89.0677V15.1826Z" fill="white"/>
<path d="M63.0072 42.3999H40.3627V45.8611H63.0072V42.3999Z" fill="white"/>
<path d="M93.7563 42.3999H87.7178V45.8611H93.7563V42.3999Z" fill="white"/>
<path d="M111.156 42.3999H104.8V45.8611H111.156V42.3999Z" fill="white"/>
<path d="M72.3019 38.6228H79.0556V27.3739L77.5459 26.5086H73.891L72.3019 27.3739V38.6228ZM82.5516 42.084H68.8059V25.3287L72.9376 22.9688H78.4994L82.5516 25.3287V42.084Z" fill="white"/>
<path d="M72.3019 68.2794H79.0556V53.2546H72.3019V68.2794ZM82.5516 71.7406H68.8059V49.7935H82.5516V71.7406Z" fill="white"/>
<path d="M65.6286 15.1826H62.1326V64.662H65.6286V15.1826Z" fill="white"/>
<path d="M48.944 42.3217H55.6182V34.3767H48.8645V42.3217H48.944ZM59.1142 45.7829H45.448V30.9155H59.1937V45.7829H59.1142Z" fill="white"/>
<path d="M95.7431 61.201H102.497V34.3767H95.7431V61.201ZM105.913 64.6622H92.1676V30.9155H105.913V64.6622Z" fill="white"/>
<path d="M48.944 61.1997H55.6182V53.2546H48.8645V61.1997H48.944ZM59.1142 64.6609H45.448V49.7935H59.1937V64.6609H59.1142Z" fill="white"/>
<path d="M91.611 79.0569H38.6147V25.0938H42.1108V75.5957H91.611V79.0569Z" fill="white"/>
<path d="M112.904 79.0569H89.0674V75.5957H109.408V25.0938H112.904V79.0569Z" fill="white"/>
<path d="M77.4667 21.791H73.9707V24.7802H77.4667V21.791Z" fill="white"/>
<path d="M53.8712 29.7344H50.3752V32.7236H53.8712V29.7344Z" fill="white"/>
<path d="M53.9506 48.6929H50.4546V51.6821H53.9506V48.6929Z" fill="white"/>
<path d="M100.669 29.7344H97.1726V32.7236H100.669V29.7344Z" fill="white"/>
<path d="M84.7774 53.7254C79.8512 48.8482 71.8263 48.8482 66.9796 53.7254L64.5165 51.2868C70.7934 45.0724 81.043 45.0724 87.32 51.2868L84.7774 53.7254Z" fill="white"/>
<path d="M107.501 1.88721H92.405V5.3484H107.501V1.88721Z" fill="white"/>
<path d="M26.5373 46.411C23.5975 46.411 21.1344 48.7709 21.1344 51.7601C21.1344 54.6706 23.5181 57.1092 26.5373 57.1092C29.4772 57.1092 31.9403 54.7493 31.9403 51.7601C31.9403 48.7709 29.5566 46.411 26.5373 46.411ZM26.5373 60.4917C21.6112 60.4917 17.6384 56.5585 17.6384 51.6814C17.6384 46.8043 21.6112 42.8711 26.5373 42.8711C31.4635 42.8711 35.4363 46.8043 35.4363 51.6814C35.4363 56.5585 31.4635 60.4917 26.5373 60.4917Z" fill="white"/>
<path d="M33.689 79.0584H24.79V58.7632H28.286V75.5972H33.689V79.0584Z" fill="white"/>
<path d="M8.89892 65.9192C5.9591 65.9192 3.496 68.2791 3.496 71.2683C3.496 74.1789 5.87964 76.6174 8.89892 76.6174C11.8387 76.6174 14.3018 74.2575 14.3018 71.2683C14.2224 68.2791 11.8387 65.9192 8.89892 65.9192ZM8.89892 80C3.97273 80 0 76.0668 0 71.2683C0 66.3912 3.97273 62.458 8.89892 62.458C13.8251 62.458 17.7978 66.3912 17.7978 71.2683C17.7184 76.0668 13.7457 80 8.89892 80Z" fill="white"/>
<path d="M26.6164 75.5947H19.4655V79.0559H26.6164V75.5947Z" fill="white"/>
<path d="M115.526 27.6119H104.8V24.1507H112.03V21.3188H115.526V27.6119Z" fill="white"/>
<path d="M47.1164 27.6119H36.549V21.3188H40.045V24.1507H47.1164V27.6119Z" fill="white"/>
<path d="M68.8086 17.2267H55.3013V10.9336H58.7973V13.7655H68.8086V17.2267Z" fill="white"/>
<path d="M107.424 16.2836H103.928V10.7771H96.1414V10.8558H92.6454V7.31592H107.424V16.2836Z" fill="#ED1556"/>
<path d="M96.1396 17.0694H82.7118V13.6082H92.6436V10.855H96.1396V17.0694Z" fill="white"/>
<path d="M34.0851 24.1497L32.5754 21.0032L76.1166 0L119.499 21.0032L117.989 24.1497L76.1166 3.85451L34.0851 24.1497Z" fill="#ED1556"/>
<path d="M41.3152 26.9022L39.8055 23.7556L76.1163 6.52832L112.109 23.7556L110.6 26.9022L76.1163 10.3828L41.3152 26.9022Z" fill="white"/>
<path d="M138.33 57.4265L138.251 59.4717C138.251 59.8651 138.171 60.2584 138.171 60.573C138.171 60.8877 138.092 61.2023 138.092 61.517C138.013 61.8316 137.933 62.0676 137.854 62.3036C137.774 62.5396 137.695 62.7756 137.536 62.9329H141.032V57.4265H138.33ZM135.947 62.9329C136.106 62.7756 136.265 62.6183 136.423 62.461C136.582 62.3036 136.662 62.0676 136.741 61.753C136.821 61.517 136.9 61.1237 136.98 60.809C137.059 60.4157 137.059 59.9437 137.059 59.4717L137.218 56.3252H142.383C142.383 57.4265 142.383 58.5278 142.383 59.6291C142.383 60.7304 142.383 61.8316 142.383 62.9329H143.018V65.7648H141.826V64.0342H136.662V65.7648H135.47V62.9329H135.947Z" fill="white"/>
<path d="M149.534 58.9998C149.534 58.6851 149.454 58.4491 149.375 58.2918C149.295 58.0558 149.136 57.8985 148.977 57.8198C148.819 57.6625 148.66 57.5838 148.421 57.5051C148.183 57.4265 148.024 57.4265 147.786 57.4265C147.547 57.4265 147.388 57.4265 147.15 57.5051C146.912 57.5838 146.753 57.6625 146.594 57.8198C146.435 57.9771 146.355 58.1345 146.197 58.2918C146.117 58.5278 146.038 58.7638 146.038 58.9998V61.3597C146.038 61.6743 146.117 61.9103 146.197 62.0676C146.276 62.3036 146.435 62.461 146.594 62.5396C146.753 62.6969 146.912 62.7756 147.15 62.8543C147.388 62.9329 147.547 62.9329 147.786 62.9329C148.024 62.9329 148.183 62.9329 148.421 62.8543C148.66 62.7756 148.819 62.6969 148.977 62.5396C149.136 62.3823 149.216 62.225 149.375 62.0676C149.454 61.8316 149.534 61.5957 149.534 61.3597V58.9998ZM150.805 61.5957C150.805 61.989 150.725 62.3823 150.567 62.6969C150.408 63.0116 150.169 63.3262 149.931 63.4836C149.693 63.7196 149.375 63.8769 148.977 63.9556C148.58 64.0342 148.262 64.1129 147.786 64.1129C147.388 64.1129 146.991 64.0342 146.594 63.9556C146.197 63.8769 145.958 63.6409 145.64 63.4836C145.402 63.2476 145.164 63.0116 145.005 62.6969C144.846 62.3823 144.766 61.989 144.766 61.5957V58.8424C144.766 58.4491 144.846 58.0558 145.005 57.7411C145.164 57.4265 145.402 57.1905 145.64 56.9545C145.879 56.7185 146.197 56.5612 146.594 56.4825C146.991 56.4039 147.309 56.3252 147.786 56.3252C148.183 56.3252 148.58 56.4039 148.898 56.4825C149.295 56.6399 149.613 56.7972 149.851 57.0332C150.09 57.2692 150.328 57.5051 150.487 57.8198C150.646 58.1345 150.725 58.5278 150.725 58.9211V61.5957H150.805Z" fill="white"/>
<path d="M159.069 59.3125L158.354 60.8071L157.241 63.0096H156.288L155.176 60.9644L154.381 59.3125H154.302V64.1109H153.03V56.3232H154.222L155.732 59.2338L156.765 61.279L157.798 59.2338L159.228 56.3232H160.42V64.1109H159.148V59.3125H159.069Z" fill="white"/>
<path d="M167.252 58.9959C167.252 58.6812 167.172 58.4452 167.093 58.2879C167.013 58.0519 166.854 57.8946 166.695 57.8159C166.537 57.6586 166.378 57.5799 166.139 57.5012C165.901 57.4226 165.742 57.4226 165.504 57.4226C165.265 57.4226 165.106 57.4226 164.868 57.5012C164.709 57.5799 164.471 57.6586 164.312 57.8159C164.153 57.9732 164.073 58.1306 163.915 58.2879C163.835 58.5239 163.756 58.7599 163.756 58.9959V61.3558C163.756 61.6704 163.835 61.9064 163.915 62.0637C163.994 62.2997 164.153 62.457 164.312 62.5357C164.471 62.693 164.63 62.7717 164.868 62.8504C165.106 62.929 165.265 62.929 165.504 62.929C165.742 62.929 165.901 62.929 166.139 62.8504C166.378 62.7717 166.537 62.693 166.695 62.5357C166.854 62.3784 166.934 62.2211 167.093 62.0637C167.172 61.8277 167.252 61.5917 167.252 61.3558V58.9959ZM168.523 61.5917C168.523 61.9851 168.443 62.3784 168.285 62.693C168.126 63.0077 167.887 63.3223 167.649 63.4797C167.411 63.7157 167.093 63.873 166.695 63.9517C166.298 64.0303 165.98 64.109 165.504 64.109C165.106 64.109 164.709 64.0303 164.312 63.9517C163.915 63.873 163.676 63.637 163.358 63.4797C163.12 63.2437 162.882 63.0077 162.723 62.693C162.564 62.3784 162.484 61.9851 162.484 61.5917V58.8385C162.484 58.4452 162.564 58.0519 162.723 57.7372C162.882 57.4226 163.12 57.1866 163.358 56.9506C163.597 56.7146 163.915 56.5573 164.312 56.4786C164.709 56.4 165.027 56.3213 165.504 56.3213C165.901 56.3213 166.298 56.4 166.616 56.4786C167.013 56.6359 167.331 56.7933 167.569 57.0293C167.808 57.2653 168.046 57.5012 168.205 57.8159C168.364 58.1306 168.443 58.5239 168.443 58.9172V61.5917H168.523Z" fill="white"/>
<path d="M175.279 57.9728C175.04 57.8155 174.802 57.6581 174.484 57.5795C174.166 57.5008 173.928 57.4221 173.61 57.4221C173.451 57.4221 173.213 57.4221 173.054 57.5008C172.895 57.5795 172.657 57.6581 172.498 57.8155C172.339 57.9728 172.259 58.1301 172.1 58.2874C172.021 58.5234 171.942 58.7594 171.942 58.9954V61.3553C171.942 61.67 172.021 61.906 172.1 62.0633C172.18 62.2993 172.339 62.4566 172.498 62.5353C172.657 62.6926 172.816 62.7713 173.054 62.8499C173.213 62.9286 173.451 62.9286 173.61 62.9286C173.928 62.9286 174.166 62.8499 174.484 62.7713C174.802 62.6926 175.04 62.5353 175.279 62.3779L175.914 63.4006C175.676 63.6366 175.279 63.7939 174.881 63.9512C174.484 64.1085 174.007 64.1872 173.61 64.1872C173.213 64.1872 172.895 64.1085 172.498 64.0299C172.18 63.9512 171.862 63.7939 171.544 63.5579C171.306 63.3219 171.068 63.0859 170.909 62.7713C170.75 62.4566 170.67 62.0633 170.67 61.67V58.7594C170.67 58.3661 170.75 57.9728 170.909 57.6581C171.068 57.3435 171.306 57.1075 171.544 56.8715C171.783 56.6355 172.1 56.4782 172.498 56.3995C172.816 56.3208 173.213 56.2422 173.61 56.2422C174.007 56.2422 174.484 56.3208 174.881 56.3995C175.279 56.5568 175.596 56.7142 175.914 56.9502L175.279 57.9728Z" fill="white"/>
<path d="M180.84 57.4245V64.1109H179.569V57.4245H177.344V56.3232H183.065V57.4245H180.84Z" fill="white"/>
<path d="M186.086 59.8611H187.914C188.311 59.8611 188.629 59.7825 188.788 59.5465C189.026 59.3105 189.106 58.9958 189.106 58.6812C189.106 58.2879 189.026 58.0519 188.788 57.8159C188.549 57.5799 188.232 57.5012 187.914 57.5012H186.086V59.8611ZM188.152 56.3213C188.549 56.3213 188.867 56.4 189.185 56.5573C189.503 56.7146 189.662 56.8719 189.9 57.1079C190.059 57.3439 190.218 57.5799 190.297 57.8946C190.377 58.2092 190.456 58.4452 190.456 58.7599C190.456 59.0745 190.377 59.3105 190.297 59.6252C190.218 59.9398 190.059 60.1758 189.821 60.4118C189.662 60.6478 189.423 60.8051 189.106 60.9624C188.867 61.1198 188.47 61.1984 188.152 61.1984H186.086V64.2663H184.815V56.4786H188.152V56.3213Z" fill="white"/>
<path d="M196.732 58.9959C196.732 58.6812 196.653 58.4452 196.573 58.2879C196.494 58.0519 196.335 57.8946 196.176 57.8159C196.017 57.6586 195.858 57.5799 195.62 57.5012C195.382 57.4226 195.223 57.4226 194.984 57.4226C194.746 57.4226 194.587 57.4226 194.349 57.5012C194.19 57.5799 193.951 57.6586 193.792 57.8159C193.634 57.9732 193.554 58.1306 193.395 58.2879C193.316 58.5239 193.236 58.7599 193.236 58.9959V61.3558C193.236 61.6704 193.316 61.9064 193.395 62.0637C193.475 62.2997 193.634 62.457 193.792 62.5357C193.951 62.693 194.11 62.7717 194.349 62.8504C194.587 62.929 194.746 62.929 194.984 62.929C195.223 62.929 195.382 62.929 195.62 62.8504C195.858 62.7717 196.017 62.693 196.176 62.5357C196.335 62.3784 196.414 62.2211 196.573 62.0637C196.653 61.8277 196.732 61.5917 196.732 61.3558V58.9959ZM198.004 61.5917C198.004 61.9851 197.924 62.3784 197.765 62.693C197.606 63.0077 197.368 63.3223 197.13 63.4797C196.891 63.7157 196.573 63.873 196.176 63.9517C195.779 64.0303 195.461 64.109 194.984 64.109C194.587 64.109 194.19 64.0303 193.792 63.9517C193.395 63.873 193.157 63.637 192.839 63.4797C192.601 63.2437 192.362 63.0077 192.203 62.693C192.044 62.3784 191.965 61.9851 191.965 61.5917V58.8385C191.965 58.4452 192.044 58.0519 192.203 57.7372C192.362 57.4226 192.601 57.1866 192.839 56.9506C193.077 56.7146 193.395 56.5573 193.792 56.4786C194.19 56.4 194.508 56.3213 194.984 56.3213C195.382 56.3213 195.779 56.4 196.097 56.4786C196.494 56.6359 196.812 56.7933 197.05 57.0293C197.288 57.2653 197.527 57.5012 197.686 57.8159C197.845 58.1306 197.924 58.5239 197.924 58.9172V61.5917H198.004Z" fill="white"/>
<path d="M205.076 58.5234C204.917 58.7594 204.759 58.9954 204.6 59.2314C204.441 59.4674 204.282 59.7034 204.123 59.9394C204.043 60.018 203.964 60.1754 203.805 60.4114C203.646 60.6473 203.487 60.8833 203.328 61.1193C203.169 61.434 202.931 61.67 202.772 61.9846C202.534 62.2993 202.375 62.6139 202.216 62.8499C202.057 63.0859 201.898 63.4006 201.739 63.5579C201.58 63.7939 201.501 63.9512 201.421 64.0299H200.23V56.2422H201.501V61.8273H201.58L205.156 56.2422H206.348V64.0299H205.076V58.5234Z" fill="white"/>
<path d="M211.668 57.4245V64.1109H210.396V57.4245H208.172V56.3232H213.813V57.4245H211.668Z" fill="white"/>
<path d="M215.641 56.3232H220.964V57.4245H216.912V59.6271H220.408V60.7284H216.912V62.931H220.964V64.1109H215.641V56.3232Z" fill="white"/>
<path d="M225.175 57.4221V59.7034C225.175 60.4114 225.095 61.0407 225.016 61.5126C224.936 62.0633 224.777 62.4566 224.618 62.8499C224.459 63.2432 224.142 63.5579 223.824 63.7939C223.506 64.0299 223.109 64.1872 222.632 64.3445L222.235 63.2432C222.553 63.0859 222.791 63.0073 222.95 62.7713C223.188 62.6139 223.347 62.3779 223.427 62.142C223.585 61.906 223.665 61.5126 223.665 61.1193C223.744 60.726 223.744 60.254 223.744 59.7034V56.2422H228.75V64.0299H227.399V57.4221H225.175Z" fill="white"/>
<path d="M232.484 62.929H234.312C234.709 62.929 235.027 62.8504 235.265 62.6144C235.503 62.3784 235.583 62.1424 235.583 61.7491C235.583 61.3558 235.424 61.1198 235.186 60.8838C234.947 60.6478 234.629 60.5691 234.232 60.5691H232.405V62.929H232.484ZM231.213 64.109V56.3213H232.484V59.3892H234.471C234.868 59.3892 235.186 59.4678 235.424 59.5465C235.742 59.7038 235.98 59.8612 236.139 60.0185C236.377 60.2545 236.536 60.4905 236.616 60.8051C236.695 61.1198 236.775 61.3558 236.775 61.6704C236.775 61.9851 236.695 62.2211 236.616 62.5357C236.536 62.8504 236.377 63.0864 236.219 63.3223C236.06 63.5583 235.821 63.7157 235.503 63.873C235.186 64.0303 234.868 64.109 234.471 64.109H231.213Z" fill="white"/>
<path d="M243.289 64.1109V60.7284H240.031V64.1109H238.681V56.3232H240.031V59.5484H243.289V56.3232H244.64V64.1109H243.289Z" fill="white"/>
<path d="M248.614 61.2796H250.839L250.362 59.785L249.726 57.8184H249.647L249.091 59.7063L248.614 61.2796ZM251.236 62.3809H248.296L247.74 64.0328H246.31L249.091 56.2451H250.441L253.222 64.0328H251.792L251.236 62.3809Z" fill="white"/>
<path d="M259.26 57.4265H257.433C257.036 57.4265 256.638 57.5052 256.479 57.7411C256.241 57.9771 256.162 58.2918 256.162 58.6064C256.162 58.9998 256.241 59.2357 256.479 59.3931C256.718 59.5504 257.036 59.6291 257.433 59.6291H259.181V57.4265H259.26ZM260.532 56.3252V64.1129H259.26V60.8877H257.989C257.83 60.8877 257.671 60.8877 257.592 60.9663C257.433 60.9663 257.353 61.045 257.195 61.1237C257.115 61.2023 256.956 61.281 256.877 61.4383C256.797 61.5957 256.718 61.753 256.638 61.989L256.003 64.1129H254.573L255.208 61.9103C255.288 61.5957 255.447 61.3597 255.526 61.1237C255.605 60.8877 255.844 60.7304 256.082 60.573C255.605 60.4157 255.288 60.1797 255.049 59.8651C254.811 59.4717 254.731 59.0784 254.731 58.6851C254.731 58.3704 254.811 58.0558 254.89 57.8198C254.97 57.5051 255.129 57.2692 255.367 57.0332C255.526 56.7972 255.764 56.6399 256.082 56.4825C256.4 56.3252 256.718 56.3252 257.115 56.3252H260.532Z" fill="white"/>
<path d="M135.869 77.7213V69.9336H137.14V73.1588H138.173C138.332 73.1588 138.412 73.1588 138.571 73.1588C138.729 73.1588 138.809 73.0801 138.968 73.0015C139.127 72.9228 139.206 72.8441 139.286 72.6868C139.365 72.5295 139.445 72.3722 139.524 72.1362L140.239 69.9336H141.51L140.795 72.2148C140.636 72.6082 140.557 72.9228 140.319 73.1588C140.16 73.3948 139.921 73.5521 139.683 73.6308C140.001 73.7094 140.239 73.9454 140.478 74.1814C140.636 74.4174 140.795 74.8107 140.954 75.1254L141.749 77.6426H140.319L139.683 75.3614C139.604 75.1254 139.524 74.9681 139.445 74.8107C139.365 74.6534 139.206 74.5747 139.127 74.4961C138.968 74.4174 138.888 74.3388 138.73 74.3388C138.571 74.3388 138.412 74.3388 138.253 74.3388H137.14V77.7213H135.869Z" fill="white"/>
<path d="M148.185 72.6072C148.185 72.2926 148.105 72.0566 148.026 71.8993C147.947 71.7419 147.788 71.5059 147.629 71.4273C147.47 71.2699 147.311 71.1913 147.073 71.1126C146.834 71.034 146.675 71.034 146.437 71.034C146.199 71.034 146.04 71.034 145.801 71.1126C145.563 71.1913 145.404 71.2699 145.245 71.4273C145.086 71.5846 145.007 71.7419 144.848 71.8993C144.689 72.0566 144.689 72.3712 144.689 72.6072V74.9671C144.689 75.2818 144.768 75.5178 144.848 75.6751C144.927 75.9111 145.086 76.0684 145.245 76.1471C145.404 76.3044 145.563 76.3831 145.801 76.4617C145.96 76.5404 146.199 76.5404 146.437 76.5404C146.675 76.5404 146.834 76.5404 147.073 76.4617C147.311 76.3831 147.47 76.3044 147.629 76.1471C147.788 75.9898 147.867 75.8324 148.026 75.6751C148.105 75.4391 148.185 75.2031 148.185 74.9671V72.6072ZM149.456 75.1245C149.456 75.5178 149.377 75.9111 149.218 76.2258C149.059 76.5404 148.821 76.8551 148.582 77.0124C148.344 77.2484 148.026 77.4057 147.629 77.4844C147.231 77.563 146.914 77.6417 146.437 77.6417C146.04 77.6417 145.642 77.563 145.245 77.4844C144.848 77.4057 144.609 77.1697 144.292 77.0124C144.053 76.7764 143.815 76.5404 143.656 76.2258C143.497 75.9111 143.418 75.5178 143.418 75.1245V72.3712C143.418 71.9779 143.497 71.5846 143.656 71.2699C143.815 70.9553 144.053 70.7193 144.292 70.4833C144.53 70.2473 144.848 70.09 145.245 70.0113C145.563 69.9327 145.96 69.854 146.437 69.854C146.834 69.854 147.231 69.9327 147.549 70.0113C147.947 70.1687 148.264 70.326 148.503 70.562C148.741 70.798 148.979 71.034 149.138 71.3486C149.297 71.6633 149.377 72.0566 149.377 72.4499V75.1245H149.456Z" fill="white"/>
<path d="M157.718 72.9209L157.003 74.4155L155.89 76.5394H154.937L153.824 74.4942L153.03 72.9209H152.95V77.7194H151.679V69.853H152.871L154.381 72.8422L155.334 74.8875H155.413L156.367 72.8422L157.877 69.853H159.068V77.7194H157.718V72.9209Z" fill="white"/>
<path d="M165.9 77.7194V71.033H162.563V77.7194H161.292V69.853H167.171V77.7194H165.9Z" fill="white"/>
<path d="M171.223 74.8875H173.369L172.892 73.3929L172.256 71.4263H172.177L171.621 73.3142L171.223 74.8875ZM173.766 75.9888H170.826L170.27 77.6407H168.919L171.7 69.853H173.051L175.832 77.6407H174.402L173.766 75.9888Z" fill="white"/>
<path d="M181.952 77.7194V74.3369H178.695V77.7194H177.344V69.853H178.695V73.1569H181.952V69.853H183.303V77.7194H181.952Z" fill="white"/>
<path d="M190.37 72.1323C190.211 72.3683 190.052 72.6043 189.893 72.8403C189.734 73.0763 189.576 73.3123 189.417 73.5483C189.337 73.6269 189.258 73.7843 189.099 74.0202C188.94 74.2562 188.781 74.4922 188.622 74.7282C188.463 75.0429 188.225 75.2789 188.066 75.5935C187.828 75.9082 187.669 76.2228 187.51 76.4588C187.351 76.6948 187.192 77.0095 187.033 77.1668C186.874 77.4028 186.795 77.5601 186.715 77.6388H185.523V69.8511H186.795V75.4362H186.874L190.45 69.8511H191.641V77.6388H190.37V72.1323Z" fill="white"/>
<path d="M198.397 71.031H196.649C196.252 71.031 195.854 71.1097 195.695 71.3457C195.457 71.5817 195.378 71.8963 195.378 72.211C195.378 72.6043 195.457 72.8403 195.695 72.9976C195.934 73.1549 196.252 73.2336 196.649 73.2336H198.397V71.031ZM199.668 69.8511V77.6388H198.397V74.4136H197.126C196.967 74.4136 196.808 74.4136 196.728 74.4922C196.569 74.4922 196.49 74.5709 196.331 74.6496C196.252 74.7282 196.093 74.8069 196.013 74.9642C195.934 75.1215 195.854 75.2789 195.775 75.5149L195.139 77.6388H193.709L194.345 75.4362C194.424 75.1215 194.583 74.8855 194.663 74.6496C194.742 74.4136 194.98 74.2562 195.219 74.0989C194.742 73.9416 194.424 73.7056 194.186 73.3909C193.947 72.9976 193.868 72.6043 193.868 72.211C193.868 71.8963 193.947 71.5817 194.027 71.3457C194.106 71.031 194.265 70.795 194.504 70.559C194.663 70.3231 194.901 70.1657 195.219 70.0084C195.537 69.8511 195.854 69.8511 196.252 69.8511H199.668Z" fill="white"/>
<path d="M135.787 41.8484V19.1934H156.604V41.8484H149.612V25.1718H142.858V41.8484H135.787Z" fill="white"/>
<path d="M174.247 35.9475C175.756 35.9475 176.948 35.3969 177.902 34.4529C178.855 33.4303 179.332 32.093 179.332 30.5197C179.332 28.9465 178.855 27.6092 177.902 26.6652C176.948 25.6426 175.756 25.092 174.247 25.092C172.737 25.092 171.545 25.6426 170.592 26.6652C169.638 27.6879 169.162 28.9465 169.162 30.5197C169.162 32.093 169.638 33.4303 170.592 34.4529C171.545 35.3969 172.737 35.9475 174.247 35.9475ZM165.427 22.1814C167.731 19.9002 170.671 18.7202 174.247 18.7202C177.743 18.7202 180.683 19.9002 182.987 22.1814C185.291 24.4627 186.483 27.2159 186.483 30.5197C186.483 33.8236 185.37 36.5768 182.987 38.8581C180.683 41.1393 177.743 42.3193 174.247 42.3193C170.751 42.3193 167.811 41.1393 165.427 38.8581C163.123 36.5768 161.931 33.7449 161.931 30.5197C162.011 27.2159 163.123 24.4627 165.427 22.1814Z" fill="white"/>
<path d="M201.262 28.8675C202.692 28.8675 203.646 28.0022 203.646 26.8223C203.646 25.6423 202.613 24.777 201.262 24.777H198.72V28.7888H201.262V28.8675ZM202.216 19.1919C204.838 19.1919 206.903 19.8999 208.493 21.2371C210.082 22.6531 210.876 24.3837 210.876 26.5076C210.876 28.6315 210.082 30.4408 208.493 31.8567C206.903 33.2727 204.838 33.902 202.216 33.902H198.72V41.7683H191.728V19.1919H202.216Z" fill="white"/>
<path d="M222.393 33.669H227.399L224.777 27.0613L222.393 33.669ZM212.143 41.85L221.598 19.0376H228.273L237.728 41.85H230.18L229.067 38.9395H220.566L219.453 41.85H212.143Z" fill="white"/>
<path d="M256.16 35.8685V25.1703H251.949C251.949 26.9796 251.79 28.8675 251.472 30.9914C251.154 33.0367 250.757 34.6886 250.201 35.8685H256.16ZM240.825 46.0161V35.8685H243.129C244.639 33.2727 245.354 29.1035 245.354 23.597V19.1919H263.152V35.8685H266.012V46.0161H259.418V41.847H247.341V46.0161H240.825Z" fill="white"/>
<path d="M282.46 35.9475C283.97 35.9475 285.162 35.3969 286.115 34.4529C287.069 33.4303 287.546 32.093 287.546 30.5197C287.546 28.9465 287.069 27.6092 286.115 26.6652C285.162 25.6426 283.97 25.092 282.46 25.092C280.951 25.092 279.759 25.6426 278.806 26.6652C277.852 27.6879 277.375 28.9465 277.375 30.5197C277.375 32.093 277.852 33.4303 278.806 34.4529C279.838 35.3969 281.03 35.9475 282.46 35.9475ZM273.72 22.1814C276.025 19.9002 278.964 18.7202 282.54 18.7202C286.036 18.7202 288.976 19.9002 291.28 22.1814C293.584 24.4627 294.776 27.2159 294.776 30.5197C294.776 33.8236 293.664 36.5768 291.28 38.8581C288.976 41.1393 286.036 42.3193 282.54 42.3193C279.044 42.3193 276.104 41.1393 273.72 38.8581C271.416 36.5768 270.224 33.7449 270.224 30.5197C270.224 27.2159 271.337 24.4627 273.72 22.1814Z" fill="white"/>
<path d="M299.466 41.8484V19.1934H306.458L311.464 27.217L316.469 19.1934H323.382V41.8484H316.628V29.105L313.45 34.5327H309.636L306.299 29.105V41.8484H299.466Z" fill="white"/>
</svg>
