<svg width="60" height="60" viewBox="0 0 60 60" fill="none" xmlns="http://www.w3.org/2000/svg">
<circle cx="30" cy="30" r="30" fill="white"/>
<g clip-path="url(#clip0_1499_20774)">
<path d="M32.88 34.56C31.2309 35.7628 29.2536 36.4328 27.213 36.48H27.2L27.048 36.481C24.664 36.4811 22.3763 35.5404 20.6821 33.8632C18.9878 32.186 18.024 29.9079 18 27.524V27.279C18 24.8178 18.9777 22.4574 20.718 20.7171C22.4584 18.9767 24.8188 17.999 27.28 17.999C29.7412 17.999 32.1016 18.9767 33.842 20.7171C35.5823 22.4574 36.56 24.8178 36.56 27.279C36.5253 29.3371 35.8473 31.3328 34.621 32.986L34.64 32.959L42.08 40.399L40.32 41.999L32.88 34.56ZM20.64 27.28C20.6753 29.053 21.4057 30.7411 22.6739 31.9806C23.942 33.22 25.6464 33.9117 27.4197 33.9064C29.1929 33.9012 30.8932 33.1995 32.154 31.9525C33.4148 30.7055 34.1352 29.0131 34.16 27.24V27.185C34.1612 26.3069 33.9848 25.4376 33.6415 24.6294C33.2981 23.8212 32.7949 23.0908 32.162 22.482L32.16 22.48C31.2217 21.5307 30.0224 20.8817 28.7144 20.6155C27.4064 20.3494 26.0488 20.4781 24.8141 20.9852C23.5794 21.4924 22.5234 22.3551 21.7802 23.4639C21.0369 24.5726 20.6401 25.8772 20.64 27.212V27.284V27.28ZM26.56 31.013V28.08H23.6V26.48H26.56V23.574H28.16V26.48H31.04V28.08H28.16V31.014L26.56 31.013Z" fill="#231F20"/>
</g>
<defs>
<clipPath id="clip0_1499_20774">
<rect width="24" height="24" fill="white" transform="translate(18 18)"/>
</clipPath>
</defs>
</svg>
