<svg width="54" height="66" viewBox="0 0 54 66" fill="none" xmlns="http://www.w3.org/2000/svg">
<g filter="url(#filter0_ddddd_791_15148)">
<circle cx="27" cy="21" r="20" fill="white"/>
<g clip-path="url(#clip0_791_15148)">
<path fill-rule="evenodd" clip-rule="evenodd" d="M25.989 10.5968C24.7081 10.8105 23.4549 11.3664 22.436 12.1726C22.2825 12.294 22.1772 12.3446 22.0776 12.3446C21.5977 12.3446 20.6423 12.6145 20.0189 12.9262C18.5024 13.6844 17.6161 14.993 17.4075 16.7817C17.3459 17.3096 17.3777 18.3329 17.489 19.4092L17.563 20.1243L17.3458 20.2381C15.8886 21.0019 15.5461 22.9416 16.6576 24.1355C17.073 24.5816 17.4826 24.8099 18.089 24.9331L18.3165 24.9793L18.4811 25.3889C19.4476 27.7934 21.4148 29.7148 23.8331 30.6163C25.5265 31.2475 27.4953 31.3485 29.2676 30.8948C30.8641 30.4861 32.253 29.6883 33.454 28.49C34.3826 27.5637 35.0424 26.5724 35.5181 25.3889L35.6827 24.9793L35.9101 24.9331C36.481 24.8171 36.8598 24.6185 37.2606 24.2249C38.024 23.4753 38.2165 22.3293 37.7432 21.3512C37.5668 20.9865 37.0222 20.426 36.666 20.2425C36.4694 20.1412 36.4243 20.0988 36.4395 20.0294C36.5105 19.7048 36.6054 18.3399 36.6072 17.618C36.61 16.4653 36.4856 15.8535 36.0744 14.9976C35.5948 13.9996 34.646 12.9882 33.552 12.3089C32.2422 11.4957 30.6474 10.9386 28.8285 10.6589C28.1023 10.5473 26.4966 10.5121 25.989 10.5968ZM23.9397 17.7166C25.6618 19.1513 28.6947 19.9726 32.8602 20.1323C33.3755 20.152 33.8045 20.1756 33.8135 20.1847C33.8226 20.1938 34.0262 20.8873 34.266 21.7259L34.702 23.2505L34.6106 23.6777C34.3019 25.121 33.4574 26.62 32.3794 27.6381C29.986 29.8983 26.5613 30.4412 23.6239 29.0261C22.035 28.2606 20.7803 27.0065 20.006 25.4098C19.7112 24.8019 19.4812 24.1466 19.3696 23.5963L19.2987 23.2464L19.7513 21.6619C20.0002 20.7905 20.2187 20.0649 20.2368 20.0496C20.2549 20.0343 20.4826 19.9389 20.7428 19.8376C21.6553 19.4825 22.3214 19.0609 22.9165 18.4619C23.1424 18.2345 23.4016 17.9275 23.4924 17.7795C23.5833 17.6315 23.6654 17.5104 23.6749 17.5104C23.6844 17.5104 23.8036 17.6032 23.9397 17.7166ZM22.8802 21.1623C22.5957 21.264 22.3743 21.4389 22.1947 21.704C22.0115 21.9742 21.9546 22.2018 21.9783 22.5686C22.0105 23.0674 22.2843 23.4756 22.7355 23.6973C22.941 23.7984 23.0324 23.8168 23.3229 23.8159C23.7726 23.8145 24.0409 23.6988 24.3307 23.3814C24.8207 22.8447 24.8207 22.0773 24.3307 21.5406C23.9624 21.1372 23.3775 20.9846 22.8802 21.1623ZM30.2893 21.141C30.0068 21.2348 29.8644 21.3247 29.6779 21.5272C29.4568 21.7673 29.388 21.9007 29.3236 22.2135C29.2002 22.8126 29.5378 23.4524 30.1172 23.7174C30.4437 23.8667 30.9367 23.8581 31.2637 23.6973C31.5311 23.5659 31.7589 23.3397 31.9106 23.0548C31.9934 22.8994 32.0091 22.8047 32.0091 22.461C32.0091 22.0029 31.9453 21.8298 31.6596 21.5133C31.3475 21.1674 30.7219 20.9975 30.2893 21.141ZM24.3858 25.7612C24.1734 25.866 24.0608 26.0537 24.043 26.3325C24.0243 26.6253 24.0927 26.7497 24.4318 27.0397C25.1551 27.6583 26.2686 28.0227 27.2326 27.9563C28.0556 27.8996 28.9162 27.5735 29.4929 27.0996C29.8551 26.8021 29.9667 26.6347 29.9667 26.3893C29.9667 26.0096 29.7392 25.7401 29.3848 25.7001C29.1155 25.6697 29.0312 25.7022 28.7057 25.9619C27.6861 26.7752 26.3706 26.7981 25.3714 26.0199C25.2445 25.9211 25.0897 25.8065 25.0273 25.7652C24.8846 25.6706 24.5734 25.6687 24.3858 25.7612Z" fill="#6B0A10"/>
</g>
</g>
<defs>
<filter id="filter0_ddddd_791_15148" x="0" y="0" width="54" height="66" filterUnits="userSpaceOnUse" color-interpolation-filters="sRGB">
<feFlood flood-opacity="0" result="BackgroundImageFix"/>
<feColorMatrix in="SourceAlpha" type="matrix" values="0 0 0 0 0 0 0 0 0 0 0 0 0 0 0 0 0 0 127 0" result="hardAlpha"/>
<feOffset/>
<feColorMatrix type="matrix" values="0 0 0 0 0 0 0 0 0 0 0 0 0 0 0 0 0 0 0.1 0"/>
<feBlend mode="normal" in2="BackgroundImageFix" result="effect1_dropShadow_791_15148"/>
<feColorMatrix in="SourceAlpha" type="matrix" values="0 0 0 0 0 0 0 0 0 0 0 0 0 0 0 0 0 0 127 0" result="hardAlpha"/>
<feOffset dy="1"/>
<feGaussianBlur stdDeviation="1"/>
<feColorMatrix type="matrix" values="0 0 0 0 0 0 0 0 0 0 0 0 0 0 0 0 0 0 0.1 0"/>
<feBlend mode="normal" in2="effect1_dropShadow_791_15148" result="effect2_dropShadow_791_15148"/>
<feColorMatrix in="SourceAlpha" type="matrix" values="0 0 0 0 0 0 0 0 0 0 0 0 0 0 0 0 0 0 127 0" result="hardAlpha"/>
<feOffset dy="4"/>
<feGaussianBlur stdDeviation="2"/>
<feColorMatrix type="matrix" values="0 0 0 0 0 0 0 0 0 0 0 0 0 0 0 0 0 0 0.09 0"/>
<feBlend mode="normal" in2="effect2_dropShadow_791_15148" result="effect3_dropShadow_791_15148"/>
<feColorMatrix in="SourceAlpha" type="matrix" values="0 0 0 0 0 0 0 0 0 0 0 0 0 0 0 0 0 0 127 0" result="hardAlpha"/>
<feOffset dy="10"/>
<feGaussianBlur stdDeviation="3"/>
<feColorMatrix type="matrix" values="0 0 0 0 0 0 0 0 0 0 0 0 0 0 0 0 0 0 0.05 0"/>
<feBlend mode="normal" in2="effect3_dropShadow_791_15148" result="effect4_dropShadow_791_15148"/>
<feColorMatrix in="SourceAlpha" type="matrix" values="0 0 0 0 0 0 0 0 0 0 0 0 0 0 0 0 0 0 127 0" result="hardAlpha"/>
<feOffset dy="18"/>
<feGaussianBlur stdDeviation="3.5"/>
<feColorMatrix type="matrix" values="0 0 0 0 0 0 0 0 0 0 0 0 0 0 0 0 0 0 0.01 0"/>
<feBlend mode="normal" in2="effect4_dropShadow_791_15148" result="effect5_dropShadow_791_15148"/>
<feBlend mode="normal" in="SourceGraphic" in2="effect5_dropShadow_791_15148" result="shape"/>
</filter>
<clipPath id="clip0_791_15148">
<rect width="22" height="22" fill="white" transform="translate(16 10)"/>
</clipPath>
</defs>
</svg>
