<svg width="202" height="50" viewBox="0 0 202 50" fill="none" xmlns="http://www.w3.org/2000/svg">
<path d="M69 43H25V45H69V43Z" fill="white"/>
<path d="M4 14.0667C4 14.2 3.94737 14.3333 3.89474 14.4222C3.84211 14.5556 3.78947 14.6444 3.68421 14.7333C3.57895 14.8222 3.47368 14.9111 3.36842 15C3.31579 15.1333 3.21053 15.2222 3.10526 15.2667C3 15.3111 2.89474 15.4 2.78947 15.4889C2.68421 15.5778 2.52632 15.6222 2.42105 15.7111C2.31579 15.8 2.21053 15.8889 2.10526 15.9778C2 16.0667 1.94737 16.2 1.94737 16.2889H4V17H1.05263V16.4222C1.05263 16.2444 1.10526 16.1111 1.15789 15.9778C1.21053 15.8444 1.31579 15.7111 1.36842 15.5778C1.47368 15.4444 1.57895 15.3556 1.68421 15.2667C1.78947 15.1778 1.94737 15.0889 2.05263 15C2.15789 14.9111 2.31579 14.8667 2.42105 14.7778C2.52632 14.6889 2.63158 14.6444 2.73684 14.5556C2.84211 14.4667 2.89474 14.4222 2.94737 14.3333C3 14.2444 3.05263 14.1556 3.05263 14.1111C3.05263 14.0667 3.05263 13.9778 3 13.9333C2.94737 13.8889 2.89474 13.8444 2.84211 13.8C2.78947 13.7556 2.68421 13.7556 2.63158 13.7111C2.52632 13.7111 2.47368 13.6667 2.36842 13.6667C2.21053 13.6667 2.05263 13.7111 1.89474 13.7556C1.73684 13.8 1.57895 13.8889 1.47368 13.9778L1 13.4C1.15789 13.2667 1.36842 13.1778 1.63158 13.0889C1.89474 13 2.15789 13 2.42105 13C2.57895 13 2.78947 13 2.94737 13.0444C3.10526 13.0889 3.31579 13.1333 3.42105 13.2222C3.57895 13.3111 3.68421 13.4444 3.78947 13.5778C4 13.6667 4 13.8444 4 14.0667Z" fill="white"/>
<path d="M6.41379 14.2308C6.41379 14.1429 6.41379 14.0549 6.37931 14.011C6.34483 13.967 6.31035 13.8791 6.27586 13.8352C6.24138 13.7912 6.2069 13.7473 6.13793 13.7473C6.10345 13.7473 6.03448 13.7033 6 13.7033C5.96552 13.7033 5.89655 13.7033 5.86207 13.7473C5.82759 13.7473 5.75862 13.7912 5.72414 13.8352C5.68966 13.8791 5.65517 13.9231 5.62069 14.011C5.58621 14.0549 5.58621 14.1429 5.58621 14.2308V15.8571C5.58621 15.9451 5.58621 16.033 5.62069 16.0769C5.65517 16.1209 5.68966 16.2088 5.72414 16.2527C5.75862 16.2967 5.7931 16.3407 5.86207 16.3407C5.89655 16.3407 5.96552 16.3846 6 16.3846C6.03448 16.3846 6.10345 16.3846 6.13793 16.3407C6.17241 16.3407 6.24138 16.2967 6.27586 16.2527C6.31035 16.2088 6.34483 16.1648 6.37931 16.0769C6.41379 16.033 6.41379 15.9451 6.41379 15.8571V14.2308ZM7 15.989C7 16.1648 6.96552 16.3407 6.89655 16.4725C6.82759 16.6044 6.75862 16.6923 6.65517 16.7802C6.55172 16.8681 6.44828 16.9121 6.34483 16.956C6.24138 17 6.10345 17 6 17C5.89655 17 5.75862 17 5.65517 16.956C5.55172 16.9121 5.44828 16.8681 5.34483 16.7802C5.24138 16.6923 5.17241 16.6044 5.10345 16.4725C5.03448 16.3407 5 16.1648 5 15.989V14.0989C5 13.9231 5.03448 13.7473 5.10345 13.6154C5.17241 13.4835 5.24138 13.3516 5.34483 13.2637C5.44828 13.1758 5.55172 13.0879 5.65517 13.044C5.75862 13 5.89655 13 6 13C6.10345 13 6.24138 13.044 6.34483 13.044C6.44828 13.0879 6.55172 13.1758 6.65517 13.2637C6.75862 13.3516 6.82759 13.4835 6.89655 13.6154C6.96552 13.7473 7 13.9231 7 14.0989V15.989Z" fill="white"/>
<path d="M10.0286 17V13.9333L9.51429 14.2889L9 13.7556L10.1429 13H11V17H10.0286Z" fill="white"/>
<path d="M16 14.0667C16 14.2 15.931 14.3333 15.8621 14.4222C15.7931 14.5556 15.7241 14.6444 15.5862 14.7333C15.4483 14.8222 15.3103 14.9111 15.1724 15C15.0345 15.0889 14.8966 15.1778 14.7586 15.2222C14.6207 15.2667 14.4828 15.3556 14.3448 15.4444C14.2069 15.5333 14 15.5778 13.8621 15.6667C13.7241 15.7556 13.5862 15.8444 13.4483 15.9333C13.3103 16.0222 13.2414 16.1556 13.2414 16.2444H15.931V17H12.069V16.4222C12.069 16.2444 12.1379 16.1111 12.2069 15.9778C12.2759 15.8444 12.4138 15.7111 12.4828 15.5778C12.6207 15.4444 12.7586 15.3556 12.8966 15.2667C13.0345 15.1778 13.2414 15.0889 13.3793 15C13.5172 14.9111 13.7241 14.8667 13.8621 14.7778C14 14.6889 14.1379 14.6444 14.2759 14.5556C14.4138 14.4667 14.4828 14.4222 14.5517 14.3333C14.6207 14.2444 14.6897 14.1556 14.6897 14.1111C14.6897 14.0667 14.6897 13.9778 14.6207 13.9333C14.5517 13.8889 14.4828 13.8444 14.4138 13.8C14.3448 13.7556 14.2069 13.7556 14.1379 13.7111C14 13.7111 13.931 13.6667 13.7931 13.6667C13.5862 13.6667 13.3793 13.7111 13.1724 13.7556C12.9655 13.8 12.7586 13.8889 12.6207 13.9778L12 13.4C12.2069 13.2667 12.4828 13.1778 12.8276 13.0889C13.1724 13 13.5172 13 13.8621 13C14.069 13 14.3448 13 14.5517 13.0444C14.7586 13.0889 15.0345 13.1333 15.1724 13.2222C15.3793 13.3111 15.5172 13.4444 15.6552 13.5778C15.931 13.6667 16 13.8444 16 14.0667Z" fill="white"/>
<path d="M56 9H54V41H56V9Z" fill="white"/>
<path d="M39 26H25V29H39V26Z" fill="white"/>
<path d="M59 26H55V29H59V26Z" fill="white"/>
<path d="M69 26H66V29H69V26Z" fill="white"/>
<path d="M45.289 24.6461H49.711V16.9959L48.7225 16.4074H46.3295L45.289 16.9959V24.6461ZM52 27H43V15.6049L45.7052 14H49.3468L52 15.6049V27Z" fill="white"/>
<path d="M45.289 42.7921H49.711V33.2079H45.289V42.7921ZM52 45H43V31H52V45Z" fill="white"/>
<path d="M42 9H39V41H42V9Z" fill="white"/>
<path d="M30.289 26.672H34.659V21.328H30.237V26.672H30.289ZM36.948 29H28V19H37V29H36.948Z" fill="white"/>
<path d="M59.6012 38.7436H64.5144V21.2564H59.6012V38.7436ZM67 41H57V19H67V41Z" fill="white"/>
<path d="M30.289 38.672H34.659V33.328H30.237V38.672H30.289ZM36.948 41H28V31H37V41H36.948Z" fill="white"/>
<path d="M58 49H24V16H26.2429V46.8834H58V49Z" fill="white"/>
<path d="M71 49H56V46.8834H68.8V16H71V49Z" fill="white"/>
<path d="M48 13H47V16H48V13Z" fill="white"/>
<path d="M34 18H32V21H34V18Z" fill="white"/>
<path d="M34 31H32V32H34V31Z" fill="white"/>
<path d="M63 18H61V21H63V18Z" fill="white"/>
<path d="M52.5505 34C49.7422 30.5651 45.1672 30.5651 42.4042 34L41 32.2825C44.5784 27.9058 50.4216 27.9058 54 32.2825L52.5505 34Z" fill="white"/>
<path d="M67 1H57V3H67V1Z" fill="white"/>
<path d="M17 29.2098C15.3482 29.2098 13.9643 30.683 13.9643 32.5491C13.9643 34.3661 15.3036 35.8884 17 35.8884C18.6518 35.8884 20.0357 34.4152 20.0357 32.5491C20.0357 30.683 18.6964 29.2098 17 29.2098ZM17 38C14.2321 38 12 35.5446 12 32.5C12 29.4554 14.2321 27 17 27C19.7679 27 22 29.4554 22 32.5C22 35.5446 19.7679 38 17 38Z" fill="white"/>
<path d="M22 49H16V37H18.3571V46.9535H22V49Z" fill="white"/>
<path d="M6 40.3677C4.01786 40.3677 2.35714 41.9821 2.35714 44.0269C2.35714 46.0179 3.96429 47.6861 6 47.6861C7.98214 47.6861 9.64286 46.0717 9.64286 44.0269C9.58929 41.9821 7.98214 40.3677 6 40.3677ZM6 50C2.67857 50 0 47.3094 0 44.0269C0 40.6906 2.67857 38 6 38C9.32143 38 12 40.6906 12 44.0269C11.9464 47.3094 9.26786 50 6 50Z" fill="white"/>
<path d="M17 48H12V49H17V48Z" fill="white"/>
<path d="M72 17H66V14.8H70.0444V13H72V17Z" fill="white"/>
<path d="M29 17H23V13H24.985V14.8H29V17Z" fill="white"/>
<path d="M43 11H34V7H36.3294V8.8H43V11Z" fill="white"/>
<path d="M67 10H64.871V6.31579H60.129V6.36842H58V4H67V10Z" fill="#ED1556"/>
<path d="M60 11H52V8.77215H57.9172V7H60V11Z" fill="white"/>
<path d="M21.9205 15L21 13.0456L47.5485 0L74 13.0456L73.0795 15L47.5485 2.39414L21.9205 15Z" fill="#ED1556"/>
<path d="M25.9396 17L25 14.9923L47.5989 4L70 14.9923L69.0604 17L47.5989 6.45946L25.9396 17Z" fill="white"/>
<path d="M85.8947 35.8167L85.8421 37.3333C85.8421 37.625 85.7895 37.9167 85.7895 38.15C85.7895 38.3833 85.7368 38.6167 85.7368 38.85C85.6842 39.0833 85.6316 39.2583 85.5789 39.4333C85.5263 39.6083 85.4737 39.7833 85.3684 39.9H87.6842V35.8167H85.8947ZM84.3158 39.9C84.4211 39.7833 84.5263 39.6667 84.6316 39.55C84.7368 39.4333 84.7895 39.2583 84.8421 39.025C84.8947 38.85 84.9474 38.5583 85 38.325C85.0526 38.0333 85.0526 37.6833 85.0526 37.3333L85.1579 35H88.5789C88.5789 35.8167 88.5789 36.6333 88.5789 37.45C88.5789 38.2667 88.5789 39.0833 88.5789 39.9H89V42H88.2105V40.7167H84.7895V42H84V39.9H84.3158Z" fill="white"/>
<path d="M93.3684 36.7172C93.3684 36.5152 93.3289 36.3636 93.2895 36.2626C93.25 36.1111 93.1711 36.0101 93.0921 35.9596C93.0132 35.8586 92.9342 35.8081 92.8158 35.7576C92.6974 35.7071 92.6184 35.7071 92.5 35.7071C92.3816 35.7071 92.3026 35.7071 92.1842 35.7576C92.0658 35.8081 91.9868 35.8586 91.9079 35.9596C91.8289 36.0606 91.7895 36.1616 91.7105 36.2626C91.6711 36.4141 91.6316 36.5657 91.6316 36.7172V38.2323C91.6316 38.4343 91.6711 38.5859 91.7105 38.6869C91.75 38.8384 91.8289 38.9394 91.9079 38.9899C91.9868 39.0909 92.0658 39.1414 92.1842 39.1919C92.3026 39.2424 92.3816 39.2424 92.5 39.2424C92.6184 39.2424 92.6974 39.2424 92.8158 39.1919C92.9342 39.1414 93.0132 39.0909 93.0921 38.9899C93.1711 38.8889 93.2105 38.7879 93.2895 38.6869C93.3289 38.5354 93.3684 38.3838 93.3684 38.2323V36.7172ZM94 38.3838C94 38.6364 93.9605 38.8889 93.8816 39.0909C93.8026 39.2929 93.6842 39.4949 93.5658 39.596C93.4474 39.7475 93.2895 39.8485 93.0921 39.899C92.8947 39.9495 92.7368 40 92.5 40C92.3026 40 92.1053 39.9495 91.9079 39.899C91.7105 39.8485 91.5921 39.697 91.4342 39.596C91.3158 39.4444 91.1974 39.2929 91.1184 39.0909C91.0395 38.8889 91 38.6364 91 38.3838V36.6162C91 36.3636 91.0395 36.1111 91.1184 35.9091C91.1974 35.7071 91.3158 35.5556 91.4342 35.404C91.5526 35.2525 91.7105 35.1515 91.9079 35.101C92.1053 35.0505 92.2632 35 92.5 35C92.6974 35 92.8947 35.0505 93.0526 35.101C93.25 35.202 93.4079 35.303 93.5263 35.4545C93.6447 35.6061 93.7632 35.7576 93.8421 35.9596C93.921 36.1616 93.9605 36.4141 93.9605 36.6667V38.3838H94Z" fill="white"/>
<path d="M99.2688 36.9192L98.8817 37.8788L98.2796 39.2929H97.7634L97.1613 37.9798L96.7312 36.9192H96.6882V40H96V35H96.6452L97.4624 36.8687L98.0215 38.1818L98.5806 36.8687L99.3548 35H100V40H99.3118V36.9192H99.2688Z" fill="white"/>
<path d="M105.158 36.7172C105.158 36.5152 105.105 36.3636 105.053 36.2626C105 36.1111 104.895 36.0101 104.789 35.9596C104.684 35.8586 104.579 35.8081 104.421 35.7576C104.263 35.7071 104.158 35.7071 104 35.7071C103.842 35.7071 103.737 35.7071 103.579 35.7576C103.474 35.8081 103.316 35.8586 103.211 35.9596C103.105 36.0606 103.053 36.1616 102.947 36.2626C102.895 36.4141 102.842 36.5657 102.842 36.7172V38.2323C102.842 38.4343 102.895 38.5859 102.947 38.6869C103 38.8384 103.105 38.9394 103.211 38.9899C103.316 39.0909 103.421 39.1414 103.579 39.1919C103.737 39.2424 103.842 39.2424 104 39.2424C104.158 39.2424 104.263 39.2424 104.421 39.1919C104.579 39.1414 104.684 39.0909 104.789 38.9899C104.895 38.8889 104.947 38.7879 105.053 38.6869C105.105 38.5354 105.158 38.3838 105.158 38.2323V36.7172ZM106 38.3838C106 38.6364 105.947 38.8889 105.842 39.0909C105.737 39.2929 105.579 39.4949 105.421 39.596C105.263 39.7475 105.053 39.8485 104.789 39.899C104.526 39.9495 104.316 40 104 40C103.737 40 103.474 39.9495 103.211 39.899C102.947 39.8485 102.789 39.697 102.579 39.596C102.421 39.4444 102.263 39.2929 102.158 39.0909C102.053 38.8889 102 38.6364 102 38.3838V36.6162C102 36.3636 102.053 36.1111 102.158 35.9091C102.263 35.7071 102.421 35.5556 102.579 35.404C102.737 35.2525 102.947 35.1515 103.211 35.101C103.474 35.0505 103.684 35 104 35C104.263 35 104.526 35.0505 104.737 35.101C105 35.202 105.211 35.303 105.368 35.4545C105.526 35.6061 105.684 35.7576 105.789 35.9596C105.895 36.1616 105.947 36.4141 105.947 36.6667V38.3838H106Z" fill="white"/>
<path d="M109.636 36.0891C109.5 35.9901 109.364 35.8911 109.182 35.8416C109 35.7921 108.864 35.7426 108.682 35.7426C108.591 35.7426 108.455 35.7426 108.364 35.7921C108.273 35.8416 108.136 35.8911 108.045 35.9901C107.955 36.0891 107.909 36.1881 107.818 36.2871C107.773 36.4356 107.727 36.5842 107.727 36.7327V38.2178C107.727 38.4158 107.773 38.5644 107.818 38.6634C107.864 38.8119 107.955 38.9109 108.045 38.9604C108.136 39.0594 108.227 39.1089 108.364 39.1584C108.455 39.2079 108.591 39.2079 108.682 39.2079C108.864 39.2079 109 39.1584 109.182 39.1089C109.364 39.0594 109.5 38.9604 109.636 38.8614L110 39.505C109.864 39.6535 109.636 39.7525 109.409 39.8515C109.182 39.9505 108.909 40 108.682 40C108.455 40 108.273 39.9505 108.045 39.901C107.864 39.8515 107.682 39.7525 107.5 39.604C107.364 39.4554 107.227 39.3069 107.136 39.1089C107.045 38.9109 107 38.6634 107 38.4158V36.5842C107 36.3366 107.045 36.0891 107.136 35.8911C107.227 35.6931 107.364 35.5446 107.5 35.396C107.636 35.2475 107.818 35.1485 108.045 35.099C108.227 35.0495 108.455 35 108.682 35C108.909 35 109.182 35.0495 109.409 35.099C109.636 35.198 109.818 35.297 110 35.4455L109.636 36.0891Z" fill="white"/>
<path d="M112.833 35.7071V40H112.167V35.7071H111V35H114V35.7071H112.833Z" fill="white"/>
<path d="M116.676 37.2277H117.648C117.859 37.2277 118.028 37.1782 118.113 37.0297C118.239 36.8812 118.282 36.6832 118.282 36.4851C118.282 36.2376 118.239 36.0891 118.113 35.9406C117.986 35.7921 117.817 35.7426 117.648 35.7426H116.676V37.2277ZM117.775 35C117.986 35 118.155 35.0495 118.324 35.1485C118.493 35.2475 118.577 35.3465 118.704 35.495C118.789 35.6436 118.873 35.7921 118.915 35.9901C118.958 36.1881 119 36.3366 119 36.5347C119 36.7327 118.958 36.8812 118.915 37.0792C118.873 37.2772 118.789 37.4257 118.662 37.5743C118.577 37.7228 118.451 37.8218 118.282 37.9208C118.155 38.0198 117.944 38.0693 117.775 38.0693H116.676V40H116V35.099H117.775V35Z" fill="white"/>
<path d="M123.158 36.7172C123.158 36.5152 123.105 36.3636 123.053 36.2626C123 36.1111 122.895 36.0101 122.789 35.9596C122.684 35.8586 122.579 35.8081 122.421 35.7576C122.263 35.7071 122.158 35.7071 122 35.7071C121.842 35.7071 121.737 35.7071 121.579 35.7576C121.474 35.8081 121.316 35.8586 121.211 35.9596C121.105 36.0606 121.053 36.1616 120.947 36.2626C120.895 36.4141 120.842 36.5657 120.842 36.7172V38.2323C120.842 38.4343 120.895 38.5859 120.947 38.6869C121 38.8384 121.105 38.9394 121.211 38.9899C121.316 39.0909 121.421 39.1414 121.579 39.1919C121.737 39.2424 121.842 39.2424 122 39.2424C122.158 39.2424 122.263 39.2424 122.421 39.1919C122.579 39.1414 122.684 39.0909 122.789 38.9899C122.895 38.8889 122.947 38.7879 123.053 38.6869C123.105 38.5354 123.158 38.3838 123.158 38.2323V36.7172ZM124 38.3838C124 38.6364 123.947 38.8889 123.842 39.0909C123.737 39.2929 123.579 39.4949 123.421 39.596C123.263 39.7475 123.053 39.8485 122.789 39.899C122.526 39.9495 122.316 40 122 40C121.737 40 121.474 39.9495 121.211 39.899C120.947 39.8485 120.789 39.697 120.579 39.596C120.421 39.4444 120.263 39.2929 120.158 39.0909C120.053 38.8889 120 38.6364 120 38.3838V36.6162C120 36.3636 120.053 36.1111 120.158 35.9091C120.263 35.7071 120.421 35.5556 120.579 35.404C120.737 35.2525 120.947 35.1515 121.211 35.101C121.474 35.0505 121.684 35 122 35C122.263 35 122.526 35.0505 122.737 35.101C123 35.202 123.211 35.303 123.368 35.4545C123.526 35.6061 123.684 35.7576 123.789 35.9596C123.895 36.1616 123.947 36.4141 123.947 36.6667V38.3838H124Z" fill="white"/>
<path d="M128.169 36.4646C128.065 36.6162 127.961 36.7677 127.857 36.9192C127.753 37.0707 127.649 37.2222 127.545 37.3737C127.493 37.4242 127.442 37.5253 127.338 37.6768C127.234 37.8283 127.13 37.9798 127.026 38.1313C126.922 38.3333 126.766 38.4848 126.662 38.6869C126.506 38.8889 126.403 39.0909 126.299 39.2424C126.195 39.3939 126.091 39.596 125.987 39.697C125.883 39.8485 125.831 39.9495 125.779 40H125V35H125.831V38.5859H125.883L128.221 35H129V40H128.169V36.4646Z" fill="white"/>
<path d="M132.479 35.7071V40H131.577V35.7071H130V35H134V35.7071H132.479Z" fill="white"/>
<path d="M135 35H138V35.7071H135.716V37.1212H137.687V37.8283H135.716V39.2424H138V40H135V35Z" fill="white"/>
<path d="M140.805 35.7282V37.1359C140.805 37.5728 140.756 37.9612 140.707 38.2524C140.659 38.5922 140.561 38.835 140.463 39.0777C140.366 39.3204 140.171 39.5146 139.976 39.6602C139.78 39.8058 139.537 39.9029 139.244 40L139 39.3204C139.195 39.2233 139.341 39.1748 139.439 39.0291C139.585 38.932 139.683 38.7864 139.732 38.6408C139.829 38.4951 139.878 38.2524 139.878 38.0097C139.927 37.767 139.927 37.4757 139.927 37.1359V35H143V39.8058H142.171V35.7282H140.805Z" fill="white"/>
<path d="M144.914 39.2424H146.229C146.514 39.2424 146.743 39.1919 146.914 39.0404C147.086 38.8889 147.143 38.7374 147.143 38.4848C147.143 38.2323 147.029 38.0808 146.857 37.9293C146.686 37.7778 146.457 37.7273 146.171 37.7273H144.857V39.2424H144.914ZM144 40V35H144.914V36.9697H146.343C146.629 36.9697 146.857 37.0202 147.029 37.0707C147.257 37.1717 147.429 37.2727 147.543 37.3737C147.714 37.5253 147.829 37.6768 147.886 37.8788C147.943 38.0808 148 38.2323 148 38.4343C148 38.6364 147.943 38.7879 147.886 38.9899C147.829 39.1919 147.714 39.3434 147.6 39.4949C147.486 39.6465 147.314 39.7475 147.086 39.8485C146.857 39.9495 146.629 40 146.343 40H144Z" fill="white"/>
<path d="M152.093 40V37.8283H149.907V40H149V35H149.907V37.0707H152.093V35H153V40H152.093Z" fill="white"/>
<path d="M155.333 38.2323H156.621L156.345 37.2727L155.977 36.0101H155.931L155.609 37.2222L155.333 38.2323ZM156.851 38.9394H155.149L154.828 40H154L155.609 35H156.391L158 40H157.172L156.851 38.9394Z" fill="white"/>
<path d="M162.147 35.7071H160.92C160.653 35.7071 160.387 35.7576 160.28 35.9091C160.12 36.0606 160.067 36.2626 160.067 36.4646C160.067 36.7172 160.12 36.8687 160.28 36.9697C160.44 37.0707 160.653 37.1212 160.92 37.1212H162.093V35.7071H162.147ZM163 35V40H162.147V37.9293H161.293C161.187 37.9293 161.08 37.9293 161.027 37.9798C160.92 37.9798 160.867 38.0303 160.76 38.0808C160.707 38.1313 160.6 38.1818 160.547 38.2828C160.493 38.3838 160.44 38.4849 160.387 38.6364L159.96 40H159L159.427 38.5859C159.48 38.3838 159.587 38.2323 159.64 38.0808C159.693 37.9293 159.853 37.8283 160.013 37.7273C159.693 37.6263 159.48 37.4747 159.32 37.2727C159.16 37.0202 159.107 36.7677 159.107 36.5152C159.107 36.3131 159.16 36.1111 159.213 35.9596C159.267 35.7576 159.373 35.6061 159.533 35.4545C159.64 35.303 159.8 35.202 160.013 35.101C160.227 35 160.44 35 160.707 35H163Z" fill="white"/>
<path d="M85 49V43H85.8649V45.4848H86.5676C86.6757 45.4848 86.7297 45.4848 86.8378 45.4848C86.9459 45.4848 87 45.4242 87.1081 45.3636C87.2162 45.303 87.2703 45.2424 87.3243 45.1212C87.3784 45 87.4324 44.8788 87.4865 44.697L87.973 43H88.8378L88.3514 44.7576C88.2432 45.0606 88.1892 45.303 88.027 45.4848C87.9189 45.6667 87.7568 45.7879 87.5946 45.8485C87.8108 45.9091 87.973 46.0909 88.1351 46.2727C88.2432 46.4545 88.3514 46.7576 88.4595 47L89 48.9394H88.027L87.5946 47.1818C87.5405 47 87.4865 46.8788 87.4324 46.7576C87.3784 46.6364 87.2703 46.5758 87.2162 46.5151C87.1081 46.4545 87.0541 46.3939 86.946 46.3939C86.8378 46.3939 86.7297 46.3939 86.6216 46.3939H85.8649V49H85Z" fill="white"/>
<path d="M92.1579 45.1212C92.1579 44.8788 92.1053 44.697 92.0526 44.5758C92 44.4545 91.8947 44.2727 91.7895 44.2121C91.6842 44.0909 91.5789 44.0303 91.4211 43.9697C91.2632 43.9091 91.1579 43.9091 91 43.9091C90.8421 43.9091 90.7368 43.9091 90.5789 43.9697C90.4211 44.0303 90.3158 44.0909 90.2105 44.2121C90.1053 44.3333 90.0526 44.4545 89.9474 44.5758C89.8421 44.697 89.8421 44.9394 89.8421 45.1212V46.9394C89.8421 47.1818 89.8947 47.3636 89.9474 47.4848C90 47.6667 90.1053 47.7879 90.2105 47.8485C90.3158 47.9697 90.4211 48.0303 90.5789 48.0909C90.6842 48.1515 90.8421 48.1515 91 48.1515C91.1579 48.1515 91.2632 48.1515 91.4211 48.0909C91.5789 48.0303 91.6842 47.9697 91.7895 47.8485C91.8947 47.7273 91.9474 47.6061 92.0526 47.4848C92.1053 47.303 92.1579 47.1212 92.1579 46.9394V45.1212ZM93 47.0606C93 47.3636 92.9474 47.6667 92.8421 47.9091C92.7368 48.1515 92.5789 48.3939 92.421 48.5152C92.2632 48.697 92.0526 48.8182 91.7895 48.8788C91.5263 48.9394 91.3158 49 91 49C90.7368 49 90.4737 48.9394 90.2105 48.8788C89.9474 48.8182 89.7895 48.6364 89.579 48.5152C89.4211 48.3333 89.2632 48.1515 89.1579 47.9091C89.0526 47.6667 89 47.3636 89 47.0606V44.9394C89 44.6364 89.0526 44.3333 89.1579 44.0909C89.2632 43.8485 89.4211 43.6667 89.579 43.4848C89.7368 43.303 89.9474 43.1818 90.2105 43.1212C90.4211 43.0606 90.6842 43 91 43C91.2632 43 91.5263 43.0606 91.7368 43.1212C92 43.2424 92.2105 43.3636 92.3684 43.5455C92.5263 43.7273 92.6842 43.9091 92.7895 44.1515C92.8947 44.3939 92.9474 44.697 92.9474 45V47.0606H93Z" fill="white"/>
<path d="M98.2688 45.34L97.8817 46.48L97.2796 48.1H96.7634L96.1613 46.54L95.7312 45.34H95.6882V49H95V43H95.6452L96.4624 45.28L96.9785 46.84H97.0215L97.5376 45.28L98.3548 43H99V49H98.2688V45.34Z" fill="white"/>
<path d="M103.351 49V43.9H101.649V49H101V43H104V49H103.351Z" fill="white"/>
<path d="M107.333 46.8788H108.575L108.299 45.7273L107.931 44.2121H107.885L107.563 45.6667L107.333 46.8788ZM108.805 47.7273H107.103L106.782 49H106L107.609 43H108.391L110 49H109.172L108.805 47.7273Z" fill="white"/>
<path d="M113.32 49V46.42H111.68V49H111V43H111.68V45.52H113.32V43H114V49H113.32Z" fill="white"/>
<path d="M119.377 44.7576C119.299 44.9394 119.221 45.1212 119.143 45.303C119.065 45.4848 118.987 45.6667 118.909 45.8485C118.87 45.9091 118.831 46.0303 118.753 46.2121C118.675 46.3939 118.597 46.5758 118.519 46.7576C118.442 47 118.325 47.1818 118.247 47.4242C118.13 47.6667 118.052 47.9091 117.974 48.0909C117.896 48.2727 117.818 48.5152 117.74 48.6364C117.662 48.8182 117.623 48.9394 117.584 49H117V43H117.623V47.303H117.662L119.416 43H120V49H119.377V44.7576Z" fill="white"/>
<path d="M124.36 43.9091H123.48C123.28 43.9091 123.08 43.9697 123 44.1515C122.88 44.3333 122.84 44.5758 122.84 44.8182C122.84 45.1212 122.88 45.303 123 45.4242C123.12 45.5455 123.28 45.6061 123.48 45.6061H124.36V43.9091ZM125 43V49H124.36V46.5152H123.72C123.64 46.5152 123.56 46.5152 123.52 46.5758C123.44 46.5758 123.4 46.6364 123.32 46.697C123.28 46.7576 123.2 46.8182 123.16 46.9394C123.12 47.0606 123.08 47.1818 123.04 47.3636L122.72 49H122L122.32 47.303C122.36 47.0606 122.44 46.8788 122.48 46.697C122.52 46.5152 122.64 46.3939 122.76 46.2727C122.52 46.1515 122.36 45.9697 122.24 45.7273C122.12 45.4242 122.08 45.1212 122.08 44.8182C122.08 44.5758 122.12 44.3333 122.16 44.1515C122.2 43.9091 122.28 43.7273 122.4 43.5455C122.48 43.3636 122.6 43.2424 122.76 43.1212C122.92 43 123.08 43 123.28 43H125Z" fill="white"/>
<path d="M85 27V12H98V27H93.6336V15.9583H89.416V27H85Z" fill="white"/>
<path d="M109.524 22.95C110.447 22.95 111.175 22.6 111.757 22C112.34 21.35 112.631 20.5 112.631 19.5C112.631 18.5 112.34 17.65 111.757 17.05C111.175 16.4 110.447 16.05 109.524 16.05C108.602 16.05 107.874 16.4 107.291 17.05C106.709 17.7 106.417 18.5 106.417 19.5C106.417 20.5 106.709 21.35 107.291 22C107.874 22.6 108.602 22.95 109.524 22.95ZM104.136 14.2C105.544 12.75 107.34 12 109.524 12C111.66 12 113.456 12.75 114.864 14.2C116.272 15.65 117 17.4 117 19.5C117 21.6 116.32 23.35 114.864 24.8C113.456 26.25 111.66 27 109.524 27C107.388 27 105.592 26.25 104.136 24.8C102.728 23.35 102 21.55 102 19.5C102.049 17.4 102.728 15.65 104.136 14.2Z" fill="white"/>
<path d="M125.975 18.4286C126.871 18.4286 127.469 17.8537 127.469 17.0697C127.469 16.2857 126.822 15.7108 125.975 15.7108H124.382V18.3763H125.975V18.4286ZM126.573 12C128.216 12 129.51 12.4704 130.506 13.3589C131.502 14.2997 132 15.4495 132 16.8606C132 18.2718 131.502 19.4739 130.506 20.4146C129.51 21.3554 128.216 21.7735 126.573 21.7735H124.382V27H120V12H126.573Z" fill="white"/>
<path d="M138.811 21.6207H142.137L140.394 17.2759L138.811 21.6207ZM132 27L138.283 12H142.717L149 27H143.984L143.245 25.0862H137.596L136.857 27H132Z" fill="white"/>
<path d="M160.741 22.5689V15.7889H158.066C158.066 16.9355 157.965 18.132 157.763 19.478C157.562 20.7742 157.309 21.8211 156.956 22.5689H160.741ZM151 29V22.5689H152.464C153.423 20.9238 153.877 18.2815 153.877 14.7918V12H165.183V22.5689H167V29H162.811V26.3578H155.139V29H151Z" fill="white"/>
<path d="M176.476 22.95C177.398 22.95 178.126 22.6 178.709 22C179.291 21.35 179.583 20.5 179.583 19.5C179.583 18.5 179.291 17.65 178.709 17.05C178.126 16.4 177.398 16.05 176.476 16.05C175.553 16.05 174.825 16.4 174.243 17.05C173.66 17.7 173.369 18.5 173.369 19.5C173.369 20.5 173.66 21.35 174.243 22C174.874 22.6 175.602 22.95 176.476 22.95ZM171.136 14.2C172.544 12.75 174.34 12 176.524 12C178.66 12 180.456 12.75 181.864 14.2C183.272 15.65 184 17.4 184 19.5C184 21.6 183.32 23.35 181.864 24.8C180.456 26.25 178.66 27 176.524 27C174.388 27 172.592 26.25 171.136 24.8C169.728 23.35 169 21.55 169 19.5C169 17.4 169.68 15.65 171.136 14.2Z" fill="white"/>
<path d="M187 27V12H191.385L194.525 17.3125L197.664 12H202V27H197.764V18.5625L195.771 22.1563H193.379L191.286 18.5625V27H187Z" fill="white"/>
</svg>
