<svg width="320" height="320" viewBox="0 0 320 320" fill="none" xmlns="http://www.w3.org/2000/svg">
<g clip-path="url(#clip0_577_16116)">
<path d="M320 160C320 248.382 248.382 320 160 320C71.6177 320 0 248.382 0 160C0 71.6177 71.6177 0 160 0C248.382 0 320 71.6177 320 160Z" fill="white"/>
<path d="M87.6471 239.117L87.5 241.617C87.5 242.059 87.5 242.647 87.353 242.941C87.353 243.382 87.353 243.676 87.2059 244.117C87.0589 244.559 87.0588 244.706 86.9118 245C86.7647 245.294 86.6177 245.588 86.4706 245.735H90.7353V238.97H87.6471V239.117ZM84.7059 245.882C84.853 245.735 85.1471 245.588 85.2941 245.294C85.4412 245 85.5883 244.853 85.7353 244.412C85.8824 244.117 85.8824 243.676 86.0294 243.235C86.0294 242.794 86.1765 242.206 86.1765 241.617L86.3236 237.794H92.6471C92.6471 239.117 92.6471 240.588 92.6471 241.912C92.6471 243.235 92.6471 244.559 92.6471 246.029H93.3824V249.559H91.9118V247.5H85.5883V249.559H84.1177V246.029H84.7059V245.882Z" fill="#00557B"/>
<path d="M101.324 241.029C101.324 240.735 101.324 240.441 101.176 240.147C101.029 239.853 100.882 239.706 100.735 239.559C100.588 239.412 100.294 239.265 100.147 239.265C99.8529 239.265 99.7059 239.117 99.4117 239.117C99.1176 239.117 98.8235 239.117 98.6765 239.265C98.3823 239.412 98.2353 239.412 98.0882 239.559C97.9412 239.706 97.7941 240 97.647 240.147C97.5 240.441 97.5 240.735 97.5 241.029V243.97C97.5 244.265 97.5 244.559 97.647 244.853C97.7941 245.147 97.9412 245.294 98.0882 245.441C98.2353 245.588 98.5294 245.735 98.6765 245.735C98.9706 245.882 99.1176 245.882 99.4117 245.882C99.7059 245.882 99.8529 245.882 100.147 245.735C100.441 245.588 100.588 245.588 100.735 245.441C100.882 245.294 101.029 245.147 101.176 244.853C101.324 244.559 101.324 244.265 101.324 243.97V241.029ZM102.794 244.265C102.794 244.706 102.647 245.147 102.5 245.588C102.353 246.029 102.059 246.323 101.765 246.617C101.471 246.912 101.029 247.059 100.588 247.206C100.147 247.353 99.7059 247.353 99.1176 247.353C98.6765 247.353 98.0882 247.353 97.647 247.206C97.2059 247.059 96.7647 246.912 96.4706 246.617C96.1765 246.323 95.8823 246.029 95.7353 245.588C95.5882 245.147 95.4412 244.706 95.4412 244.265V240.882C95.4412 240.441 95.5882 240 95.7353 239.559C95.8823 239.117 96.1765 238.823 96.4706 238.529C96.7647 238.235 97.2059 238.088 97.647 237.941C98.0882 237.794 98.5294 237.794 99.1176 237.794C99.5588 237.794 100.147 237.941 100.588 238.088C101.029 238.235 101.471 238.382 101.765 238.676C102.059 238.97 102.353 239.265 102.5 239.706C102.647 240.147 102.794 240.588 102.794 241.029V244.265Z" fill="#00557B"/>
<path d="M112.941 241.47L112.059 243.235L110.588 245.882H109.412L108.235 243.382L107.206 241.47H107.059V247.353H105.588V237.794H107.059L108.823 241.323L110 243.823H110.147L111.323 241.323L113.088 237.794H114.559V247.353H112.941V241.47Z" fill="#00557B"/>
<path d="M122.794 241.029C122.794 240.735 122.794 240.441 122.647 240.147C122.5 239.853 122.353 239.706 122.206 239.559C122.059 239.412 121.765 239.265 121.618 239.265C121.324 239.265 121.176 239.117 120.882 239.117C120.588 239.117 120.294 239.117 120.147 239.265C119.853 239.412 119.706 239.412 119.559 239.559C119.412 239.706 119.265 240 119.118 240.147C118.971 240.441 118.971 240.735 118.971 241.029V243.97C118.971 244.265 118.971 244.559 119.118 244.853C119.265 245.147 119.412 245.294 119.559 245.441C119.706 245.588 120 245.735 120.147 245.735C120.441 245.882 120.588 245.882 120.882 245.882C121.176 245.882 121.324 245.882 121.618 245.735C121.912 245.588 122.059 245.588 122.206 245.441C122.353 245.294 122.5 245.147 122.647 244.853C122.794 244.559 122.794 244.265 122.794 243.97V241.029ZM124.412 244.265C124.412 244.706 124.265 245.147 124.118 245.588C123.971 246.029 123.676 246.323 123.382 246.617C123.088 246.912 122.647 247.059 122.206 247.206C121.765 247.353 121.324 247.353 120.735 247.353C120.294 247.353 119.706 247.353 119.265 247.206C118.824 247.059 118.382 246.912 118.088 246.617C117.794 246.323 117.5 246.029 117.353 245.588C117.206 245.147 117.059 244.706 117.059 244.265V240.882C117.059 240.441 117.206 240 117.353 239.559C117.5 239.117 117.794 238.823 118.088 238.529C118.382 238.235 118.824 238.088 119.265 237.941C119.706 237.794 120.147 237.794 120.735 237.794C121.176 237.794 121.765 237.941 122.059 238.088C122.5 238.235 122.941 238.382 123.235 238.676C123.529 238.97 123.824 239.265 123.971 239.706C124.118 240.147 124.265 240.588 124.265 241.029V244.265H124.412Z" fill="#00557B"/>
<path d="M132.647 239.706C132.353 239.412 132.059 239.265 131.765 239.265C131.471 239.118 131.029 239.118 130.735 239.118C130.441 239.118 130.294 239.118 130 239.265C129.706 239.412 129.559 239.412 129.412 239.559C129.265 239.706 129.118 239.853 128.971 240.147C128.823 240.441 128.823 240.735 128.823 241.029V243.971C128.823 244.265 128.823 244.559 128.971 244.853C129.118 245.147 129.265 245.294 129.412 245.441C129.559 245.588 129.853 245.735 130 245.735C130.294 245.735 130.441 245.882 130.735 245.882C131.029 245.882 131.471 245.882 131.765 245.735C132.059 245.588 132.5 245.441 132.794 245.147L133.529 246.324C133.235 246.618 132.794 246.765 132.353 246.912C131.912 247.059 131.323 247.206 130.735 247.206C130.294 247.206 129.853 247.206 129.412 247.059C128.971 246.912 128.676 246.765 128.235 246.471C127.941 246.176 127.647 245.882 127.5 245.441C127.353 245 127.206 244.559 127.206 244.118V240.588C127.206 240.147 127.353 239.706 127.5 239.265C127.647 238.824 127.941 238.529 128.235 238.235C128.529 237.941 128.971 237.794 129.412 237.647C129.853 237.5 130.294 237.5 130.735 237.5C131.323 237.5 131.765 237.647 132.206 237.794C132.647 237.941 133.088 238.235 133.529 238.529L132.647 239.706Z" fill="#00557B"/>
<path d="M139.412 239.117V247.353H137.794V239.117H135.147V237.794H142.059V239.117H139.412Z" fill="#00557B"/>
<path d="M145.735 242.206H147.941C148.382 242.206 148.824 242.059 149.118 241.765C149.412 241.47 149.559 241.176 149.559 240.735C149.559 240.294 149.412 239.853 149.118 239.706C148.824 239.412 148.529 239.265 147.941 239.265H145.735V242.206ZM148.235 237.794C148.677 237.794 149.118 237.941 149.412 238.088C149.706 238.235 150 238.529 150.294 238.823C150.588 239.117 150.735 239.412 150.735 239.706C150.882 240 150.882 240.441 150.882 240.735C150.882 241.029 150.882 241.47 150.735 241.765C150.588 242.059 150.441 242.5 150.147 242.647C149.853 242.941 149.559 243.088 149.265 243.382C148.971 243.529 148.529 243.676 148.088 243.676H145.588V247.353H144.118V237.794H148.235Z" fill="#00557B"/>
<path d="M158.676 241.029C158.676 240.735 158.676 240.441 158.529 240.147C158.382 239.853 158.235 239.706 158.088 239.559C157.941 239.412 157.647 239.265 157.5 239.265C157.206 239.265 157.059 239.117 156.765 239.117C156.471 239.117 156.176 239.117 156.029 239.265C155.735 239.412 155.588 239.412 155.441 239.559C155.294 239.706 155.147 240 155 240.147C154.853 240.441 154.853 240.735 154.853 241.029V243.97C154.853 244.265 154.853 244.559 155 244.853C155.147 245.147 155.294 245.294 155.441 245.441C155.588 245.588 155.882 245.735 156.029 245.735C156.324 245.882 156.471 245.882 156.765 245.882C157.059 245.882 157.206 245.882 157.5 245.735C157.794 245.588 157.941 245.588 158.088 245.441C158.235 245.294 158.382 245.147 158.529 244.853C158.676 244.559 158.676 244.265 158.676 243.97V241.029ZM160.294 244.265C160.294 244.706 160.147 245.147 160 245.588C159.853 246.029 159.559 246.323 159.265 246.617C158.971 246.912 158.529 247.059 158.088 247.206C157.647 247.353 157.206 247.353 156.618 247.353C156.176 247.353 155.588 247.353 155.147 247.206C154.706 247.059 154.265 246.912 153.971 246.617C153.676 246.323 153.382 246.029 153.235 245.588C153.088 245.147 152.941 244.706 152.941 244.265V240.882C152.941 240.441 153.088 240 153.235 239.559C153.382 239.117 153.676 238.823 153.971 238.529C154.265 238.235 154.706 238.088 155.147 237.941C155.588 237.794 156.029 237.794 156.618 237.794C157.059 237.794 157.647 237.941 158.088 238.088C158.529 238.235 158.971 238.382 159.265 238.676C159.559 238.97 159.853 239.265 160 239.706C160.147 240.147 160.294 240.588 160.294 241.029V244.265Z" fill="#00557B"/>
<path d="M168.824 240.441C168.676 240.735 168.382 241.029 168.235 241.323C168.088 241.618 167.794 241.912 167.647 242.206C167.647 242.353 167.5 242.5 167.353 242.794C167.206 243.088 167.059 243.382 166.765 243.676C166.618 243.97 166.324 244.412 166.029 244.706C165.735 245.147 165.588 245.441 165.294 245.735C165 246.029 164.853 246.323 164.706 246.618C164.559 246.912 164.412 247.059 164.412 247.206H162.941V237.647H164.559V244.412L168.971 237.647H170.441V247.206H168.824V240.441Z" fill="#00557B"/>
<path d="M176.912 239.117V247.353H175.294V239.117H172.647V237.794H179.559V239.117H176.912Z" fill="#00557B"/>
<path d="M181.765 237.794H188.235V239.117H183.235V241.765H187.5V243.235H183.235V245.882H188.235V247.353H181.765V237.794Z" fill="#00557B"/>
<path d="M193.382 239.118V241.912C193.382 242.794 193.382 243.529 193.235 244.118C193.088 244.706 192.941 245.294 192.794 245.735C192.5 246.176 192.206 246.618 191.912 246.912C191.471 247.206 191.029 247.353 190.441 247.5L190 246.176C190.294 246.029 190.735 245.882 190.882 245.588C191.176 245.441 191.324 245.147 191.471 244.706C191.618 244.412 191.765 243.971 191.765 243.529C191.765 243.088 191.912 242.5 191.912 241.765V237.5H198.088V247.059H196.471V238.971H193.382V239.118Z" fill="#00557B"/>
<path d="M202.206 245.882H204.412C204.853 245.882 205.294 245.735 205.588 245.441C205.882 245.147 206.029 244.853 206.029 244.412C206.029 243.97 205.882 243.676 205.588 243.382C205.294 243.088 204.853 242.941 204.412 242.941H202.206V245.882ZM200.735 247.353V237.794H202.353V241.617H204.853C205.294 241.617 205.735 241.765 206.029 241.912C206.324 242.059 206.618 242.206 206.912 242.5C207.206 242.794 207.353 243.088 207.5 243.382C207.647 243.676 207.647 244.117 207.647 244.412C207.647 244.706 207.647 245.147 207.5 245.441C207.353 245.735 207.206 246.029 207.059 246.323C206.765 246.617 206.471 246.765 206.177 247.059C205.882 247.206 205.441 247.353 204.853 247.353H200.735Z" fill="#00557B"/>
<path d="M215.441 247.353V243.235H211.471V247.353H209.853V237.794H211.471V241.765H215.441V237.794H217.059V247.353H215.441Z" fill="#00557B"/>
<path d="M221.912 243.823H224.559L223.971 242.059L223.235 239.559L222.5 241.912L221.912 243.823ZM225 245.294H221.471L220.735 247.353H219.118L222.5 237.794H224.118L227.5 247.353H225.735L225 245.294Z" fill="#00557B"/>
<path d="M234.853 239.117H232.647C232.059 239.117 231.765 239.265 231.471 239.559C231.176 239.853 231.029 240.147 231.029 240.735C231.029 241.176 231.176 241.47 231.471 241.765C231.765 241.912 232.206 242.059 232.647 242.059H234.853V239.117ZM236.324 237.794V247.353H234.706V243.382H233.235C233.088 243.382 232.941 243.382 232.794 243.382C232.647 243.382 232.5 243.529 232.353 243.529C232.206 243.676 232.059 243.823 231.912 243.97C231.765 244.117 231.765 244.412 231.618 244.706L230.882 247.353H229.118L229.853 244.706C230 244.265 230.147 243.97 230.294 243.676C230.441 243.382 230.588 243.235 230.882 243.088C230.294 242.941 229.853 242.647 229.706 242.206C229.412 241.765 229.265 241.323 229.265 240.735C229.265 240.294 229.265 240 229.412 239.706C229.559 239.412 229.706 239.117 230 238.823C230.294 238.529 230.588 238.382 230.882 238.235C231.176 238.088 231.618 237.941 232.059 237.941H236.324V237.794Z" fill="#00557B"/>
<path d="M121.765 263.97V254.412H123.382V258.382H124.559C124.706 258.382 124.853 258.382 125 258.382C125.147 258.382 125.294 258.235 125.441 258.235C125.588 258.088 125.735 257.941 125.882 257.794C126.029 257.647 126.176 257.353 126.176 257.059L127.059 254.412H128.676L127.794 257.206C127.647 257.647 127.5 258.088 127.206 258.382C126.912 258.676 126.765 258.97 126.471 258.97C126.912 259.118 127.206 259.265 127.353 259.706C127.647 260 127.794 260.441 127.941 260.882L128.823 263.97H127.059L126.176 261.176C126.029 260.882 126.029 260.588 125.882 260.441C125.735 260.294 125.588 260.147 125.441 260C125.294 259.853 125.147 259.853 125 259.853C124.853 259.853 124.706 259.853 124.412 259.853H123.088V264.118H121.765V263.97Z" fill="#00557B"/>
<path d="M136.618 257.794C136.618 257.5 136.618 257.206 136.471 256.912C136.324 256.617 136.176 256.47 136.029 256.323C135.882 256.176 135.588 256.029 135.441 256.029C135.147 256.029 135 255.882 134.706 255.882C134.412 255.882 134.118 255.882 133.971 256.029C133.676 256.176 133.529 256.176 133.382 256.323C133.235 256.47 133.088 256.765 132.941 256.912C132.794 257.206 132.794 257.5 132.794 257.794V260.735C132.794 261.029 132.794 261.323 132.941 261.617C133.088 261.912 133.235 262.059 133.382 262.206C133.529 262.353 133.823 262.5 133.971 262.5C134.265 262.647 134.412 262.647 134.706 262.647C135 262.647 135.147 262.647 135.441 262.5C135.735 262.353 135.882 262.353 136.029 262.206C136.176 262.059 136.324 261.912 136.471 261.617C136.618 261.323 136.618 261.029 136.618 260.735V257.794ZM138.235 260.882C138.235 261.323 138.088 261.765 137.941 262.206C137.794 262.647 137.5 262.941 137.206 263.235C136.912 263.529 136.471 263.676 136.029 263.823C135.588 263.97 135.147 263.97 134.559 263.97C134.118 263.97 133.529 263.97 133.088 263.823C132.647 263.676 132.206 263.529 131.912 263.235C131.618 262.941 131.323 262.647 131.176 262.206C131.029 261.765 130.882 261.323 130.882 260.882V257.5C130.882 257.059 131.029 256.617 131.176 256.176C131.323 255.735 131.618 255.441 131.912 255.147C132.206 254.853 132.647 254.706 133.088 254.559C133.529 254.412 133.971 254.412 134.559 254.412C135 254.412 135.588 254.559 135.882 254.706C136.176 254.853 136.765 255 137.059 255.294C137.353 255.588 137.647 255.882 137.794 256.323C137.941 256.765 138.088 257.206 138.088 257.647V260.882H138.235Z" fill="#00557B"/>
<path d="M148.235 258.235L147.353 260L146.029 262.647H144.853L143.529 260.147L142.647 258.235H142.5V263.97H140.882V254.412H142.5L144.265 258.088L145.441 260.588H145.588L146.618 258.088L148.529 254.412H150V263.97H148.382V258.235H148.235Z" fill="#00557B"/>
<path d="M158.235 263.97V255.882H154.265V263.97H152.647V254.412H159.853V263.97H158.235Z" fill="#00557B"/>
<path d="M164.706 260.588H167.353L166.765 258.823L166.03 256.323L165.294 258.676L164.706 260.588ZM167.794 261.912H164.265L163.53 263.97H161.912L165.294 254.412H166.912L170.294 263.97H168.53L167.794 261.912Z" fill="#00557B"/>
<path d="M177.794 263.97V259.853H173.823V263.97H172.206V254.412H173.823V258.382H177.794V254.412H179.412V263.97H177.794Z" fill="#00557B"/>
<path d="M188.088 257.206C187.941 257.5 187.647 257.794 187.5 258.088C187.353 258.382 187.059 258.676 186.912 258.97C186.912 259.118 186.765 259.265 186.618 259.559C186.471 259.853 186.323 260.147 186.029 260.441C185.882 260.735 185.588 261.176 185.294 261.47C185 261.912 184.853 262.206 184.559 262.5C184.265 262.794 184.118 263.088 183.971 263.382C183.823 263.676 183.676 263.823 183.676 263.97H182.206V254.412H183.823V261.176L188.235 254.412H189.706V263.97H188.088V257.206Z" fill="#00557B"/>
<path d="M197.794 255.882H195.588C195 255.882 194.706 256.029 194.412 256.323C194.118 256.618 193.971 256.912 193.971 257.5C193.971 257.941 194.118 258.235 194.412 258.529C194.706 258.676 195.147 258.823 195.588 258.823H197.794V255.882ZM199.412 254.412V263.97H197.794V260H196.323C196.176 260 196.029 260 195.882 260C195.735 260 195.588 260.147 195.441 260.147C195.294 260.294 195.147 260.441 195 260.588C194.853 260.735 194.853 261.029 194.706 261.323L193.971 263.97H192.206L192.941 261.323C193.088 260.882 193.235 260.588 193.382 260.294C193.529 260 193.676 259.853 193.971 259.706C193.382 259.559 192.941 259.265 192.794 258.823C192.5 258.382 192.353 257.941 192.353 257.353C192.353 256.912 192.353 256.618 192.5 256.323C192.647 256.029 192.794 255.735 193.088 255.441C193.382 255.147 193.676 255 193.971 254.853C194.265 254.706 194.706 254.559 195.147 254.559H199.412V254.412Z" fill="#00557B"/>
<path d="M206.765 158.529H112.5V163.088H206.765V158.529Z" fill="#00557B"/>
<path d="M150.294 48.3824C150.294 48.6765 150.294 48.9706 150.147 49.2648C150 49.5589 149.853 49.853 149.706 50.0001C149.559 50.2942 149.265 50.4412 149.118 50.5883C148.971 50.7354 148.676 51.0295 148.529 51.1765C148.382 51.3236 148.088 51.4706 147.941 51.6177C147.794 51.7648 147.5 51.9118 147.206 52.2059C146.912 52.353 146.765 52.6471 146.618 52.7942C146.471 53.0883 146.324 53.2354 146.324 53.5295H150.441V55.1471H144.559V53.8236C144.559 53.3824 144.559 53.0883 144.706 52.7942C144.853 52.5001 145 52.2059 145.147 51.9118C145.294 51.6177 145.588 51.3236 145.882 51.1765C146.176 51.0295 146.324 50.7354 146.618 50.5883C146.912 50.4412 147.059 50.2942 147.353 50.0001C147.647 49.853 147.794 49.7059 147.941 49.4118C148.088 49.2648 148.235 49.1177 148.382 48.8236C148.529 48.6765 148.529 48.3824 148.529 48.2353C148.529 48.0883 148.529 47.9412 148.382 47.7942C148.382 47.6471 148.235 47.5001 148.088 47.5001C147.941 47.353 147.794 47.353 147.647 47.353C147.5 47.353 147.353 47.353 147.206 47.353C146.912 47.353 146.618 47.353 146.324 47.5001C146.029 47.6471 145.735 47.7942 145.441 48.0883L144.559 46.7648C144.853 46.4706 145.294 46.1765 145.735 46.0295C146.176 45.8824 146.765 45.7354 147.353 45.7354C147.647 45.7354 148.088 45.7354 148.382 45.8824C148.676 46.0295 149.118 46.1765 149.412 46.3236C149.706 46.4706 150 46.7648 150.147 47.2059C150.147 47.5001 150.294 47.7942 150.294 48.3824Z" fill="#00557B"/>
<path d="M156.912 48.5295C156.912 48.3824 156.912 48.0883 156.765 47.9412C156.765 47.7942 156.618 47.6471 156.47 47.5001C156.323 47.353 156.176 47.353 156.029 47.353C155.882 47.353 155.735 47.353 155.588 47.353C155.441 47.353 155.294 47.353 155.147 47.353C155 47.353 154.853 47.5001 154.706 47.5001C154.559 47.6471 154.559 47.7942 154.412 47.9412C154.412 48.0883 154.265 48.2354 154.265 48.5295V52.353C154.265 52.5001 154.265 52.7942 154.412 52.9412C154.559 53.0883 154.559 53.2353 154.706 53.3824C154.853 53.5295 155 53.5295 155.147 53.5295C155.294 53.5295 155.441 53.5295 155.588 53.5295C155.735 53.5295 155.882 53.5295 156.029 53.5295C156.176 53.5295 156.323 53.3824 156.47 53.3824C156.618 53.3824 156.618 53.0883 156.765 52.9412C156.765 52.7942 156.912 52.6471 156.912 52.353V48.5295ZM158.676 52.7942C158.676 53.2354 158.529 53.5295 158.382 53.9706C158.235 54.2648 157.941 54.5589 157.647 54.7059C157.353 54.853 157.059 55.0001 156.618 55.1471C156.323 55.2942 155.882 55.2942 155.588 55.2942C155.294 55.2942 154.853 55.2942 154.559 55.1471C154.265 55.0001 153.823 54.853 153.676 54.7059C153.382 54.5589 153.088 54.2648 152.941 53.9706C152.794 53.6765 152.647 53.2354 152.647 52.7942V48.2353C152.647 47.7942 152.794 47.5001 152.941 47.0589C153.088 46.7648 153.382 46.4706 153.676 46.3236C153.97 46.1765 154.265 46.0295 154.706 45.8824C155 45.7354 155.441 45.7354 155.735 45.7354C156.029 45.7354 156.47 45.7354 156.765 45.8824C157.059 46.0295 157.5 46.1765 157.794 46.3236C158.088 46.4706 158.235 46.7648 158.529 47.0589C158.676 47.353 158.823 47.7942 158.823 48.2353V52.7942H158.676Z" fill="#00557B"/>
<path d="M163.676 55.2942V48.0883L162.794 48.8236L161.765 47.6471L163.823 45.7354H165.441V55.2942H163.676Z" fill="#00557B"/>
<path d="M175.588 48.3824C175.588 48.6765 175.588 48.9706 175.441 49.2648C175.294 49.5589 175.147 49.853 175 50.0001C174.853 50.2942 174.559 50.4412 174.412 50.5883C174.265 50.7354 173.971 51.0295 173.824 51.1765C173.677 51.3236 173.382 51.4706 173.235 51.6177C173.088 51.7648 172.794 51.9118 172.5 52.2059C172.206 52.353 172.059 52.6471 171.912 52.7942C171.765 53.0883 171.618 53.2354 171.618 53.5295H175.735V55.1471H169.853V53.8236C169.853 53.3824 169.853 53.0883 170 52.7942C170.147 52.5001 170.294 52.2059 170.441 51.9118C170.588 51.6177 170.882 51.3236 171.177 51.1765C171.471 50.8824 171.618 50.7354 171.912 50.5883C172.206 50.4412 172.353 50.2942 172.647 50.0001C172.941 49.853 173.088 49.7059 173.235 49.4118C173.382 49.2648 173.529 49.1177 173.677 48.8236C173.824 48.6765 173.824 48.3824 173.824 48.2353C173.824 48.0883 173.824 47.9412 173.677 47.7942C173.677 47.6471 173.53 47.5001 173.382 47.5001C173.235 47.353 173.088 47.353 172.941 47.353C172.794 47.353 172.647 47.353 172.5 47.353C172.206 47.353 171.912 47.353 171.618 47.5001C171.324 47.6471 171.029 47.7942 170.735 48.0883L169.853 46.7648C170.147 46.4706 170.588 46.1765 171.03 46.0295C171.471 45.8824 172.059 45.7354 172.647 45.7354C172.941 45.7354 173.382 45.7354 173.677 45.8824C173.971 46.0295 174.412 46.1765 174.706 46.3236C175 46.4706 175.294 46.7648 175.441 47.2059C175.441 47.5001 175.588 47.7942 175.588 48.3824Z" fill="#00557B"/>
<path d="M177.353 87.647H172.794V153.676H177.353V87.647Z" fill="#00557B"/>
<path d="M143.088 123.824H113.088V128.383H143.088V123.824Z" fill="#00557B"/>
<path d="M183.677 123.824H175.735V128.383H183.677V123.824Z" fill="#00557B"/>
<path d="M206.618 123.824H198.235V128.383H206.618V123.824Z" fill="#00557B"/>
<path d="M155.441 118.971H164.265V103.824L162.206 102.647H157.353L155.294 103.824V118.971H155.441ZM168.824 123.53H150.735V101.177L156.177 98.0884H163.529L168.971 101.324V123.53H168.824Z" fill="#00557B"/>
<path d="M155.441 158.53H164.265V138.383H155.441V158.53ZM168.824 163.088H150.735V133.824H168.824V163.088Z" fill="#00557B"/>
<path d="M146.471 87.647H141.912V153.676H146.471V87.647Z" fill="#00557B"/>
<path d="M124.412 123.823H133.235V113.235H124.412V123.823ZM137.941 128.382H119.853V108.529H137.941V128.382Z" fill="#00557B"/>
<path d="M186.323 148.97H195.147V113.235H186.323V148.97ZM199.853 153.676H181.765V108.529H199.853V153.676Z" fill="#00557B"/>
<path d="M124.412 148.971H133.235V138.383H124.412V148.971ZM137.941 153.677H119.853V133.824H137.941V153.677Z" fill="#00557B"/>
<path d="M180.882 172.941H110.735V100.735H115.441V168.235H180.882V172.941Z" fill="#ED1556"/>
<path d="M208.971 172.941H177.5V168.235H204.412V100.735H208.971V172.941Z" fill="#ED1556"/>
<path d="M162.059 96.4707H157.5V100.441H162.059V96.4707Z" fill="#00557B"/>
<path d="M130.882 106.912H126.323V110.882H130.882V106.912Z" fill="#00557B"/>
<path d="M131.029 132.353H126.47V136.324H131.029V132.353Z" fill="#00557B"/>
<path d="M192.794 106.912H188.235V110.882H192.794V106.912Z" fill="#00557B"/>
<path d="M171.765 138.97C165.294 132.5 154.706 132.5 148.235 138.97L145 135.735C153.235 127.5 166.765 127.5 175.147 135.735L171.765 138.97Z" fill="#ED1556"/>
<path d="M201.912 69.853H181.912V74.4118H201.912V69.853Z" fill="#00557B"/>
<path d="M94.8528 129.264C90.8823 129.264 87.794 132.5 87.794 136.323C87.794 140.294 91.0293 143.382 94.8528 143.382C98.8234 143.382 101.912 140.147 101.912 136.323C101.912 132.5 98.8234 129.264 94.8528 129.264ZM94.8528 148.088C88.3823 148.088 83.0881 142.794 83.0881 136.323C83.0881 129.853 88.3823 124.559 94.8528 124.559C101.323 124.559 106.618 129.853 106.618 136.323C106.618 142.794 101.323 148.088 94.8528 148.088Z" fill="#ED1556"/>
<path d="M104.265 172.941H92.5V145.735H97.2059V168.235H104.265V172.941Z" fill="#ED1556"/>
<path d="M71.4705 155.294C67.4999 155.294 64.4117 158.53 64.4117 162.353C64.4117 166.324 67.647 169.412 71.4705 169.412C75.4411 169.412 78.5293 166.177 78.5293 162.353C78.5293 158.53 75.4411 155.294 71.4705 155.294ZM71.4705 174.118C64.9999 174.118 59.7058 168.824 59.7058 162.353C59.7058 155.882 64.9999 150.588 71.4705 150.588C77.9411 150.588 83.2352 155.882 83.2352 162.353C83.2352 168.971 77.9411 174.118 71.4705 174.118Z" fill="#ED1556"/>
<path d="M94.8529 168.235H85.4412V172.794H94.8529V168.235Z" fill="#ED1556"/>
<path d="M225.588 129.264C221.618 129.264 218.529 132.5 218.529 136.323C218.529 140.294 221.765 143.382 225.588 143.382C229.559 143.382 232.647 140.147 232.647 136.323C232.647 132.5 229.559 129.264 225.588 129.264ZM225.588 148.088C219.118 148.088 213.823 142.794 213.823 136.323C213.823 129.853 219.118 124.559 225.588 124.559C232.059 124.559 237.353 129.853 237.353 136.323C237.353 142.794 232.059 148.088 225.588 148.088Z" fill="#ED1556"/>
<path d="M227.941 172.941H216.177V168.235H223.235V145.735H227.941V172.941Z" fill="#ED1556"/>
<path d="M248.971 155.294C245 155.294 241.912 158.53 241.912 162.353C241.912 166.324 245.147 169.412 248.971 169.412C252.941 169.412 256.029 166.177 256.029 162.353C256.029 158.53 252.794 155.294 248.971 155.294ZM248.971 174.118C242.5 174.118 237.206 168.824 237.206 162.353C237.206 155.882 242.5 150.588 248.971 150.588C255.441 150.588 260.735 155.882 260.735 162.353C260.735 168.971 255.441 174.118 248.971 174.118Z" fill="#ED1556"/>
<path d="M235 168.235H225.588V172.794H235V168.235Z" fill="#ED1556"/>
<path d="M212.5 104.118H198.235V99.5589H207.941V95.7354H212.5V104.118Z" fill="#00557B"/>
<path d="M122.059 104.118H108.088V95.7354H112.647V99.5589H122.059V104.118Z" fill="#00557B"/>
<path d="M150.735 90.294H132.941V81.9116H137.5V85.5881H150.735V90.294Z" fill="#00557B"/>
<path d="M201.765 88.9704H197.206V81.6174H186.912V81.7645H182.206V77.0586H201.765V88.9704Z" fill="#ED1556"/>
<path d="M186.912 90.147H169.118V85.4411H182.206V81.7646H186.912V90.147Z" fill="#00557B"/>
<path d="M104.853 99.5589L102.794 95.2942L160.441 67.353L217.794 95.2942L215.735 99.5589L160.441 72.5001L104.853 99.5589Z" fill="#ED1556"/>
<path d="M114.412 103.235L112.353 99.1175L160.441 76.0293L207.941 99.1175L206.03 103.235L160.294 81.1764L114.412 103.235Z" fill="#00557B"/>
<path d="M45.8823 219.265V191.324H71.1764V219.265H62.647V198.677H54.4117V219.265H45.8823Z" fill="#00557B"/>
<path d="M92.647 212.059C94.4117 212.059 95.8823 211.471 97.0587 210.147C98.2352 208.823 98.8234 207.353 98.8234 205.294C98.8234 203.382 98.2352 201.765 97.0587 200.588C95.8823 199.265 94.4117 198.676 92.647 198.676C90.8823 198.676 89.4117 199.265 88.2352 200.588C87.0587 201.765 86.4705 203.382 86.4705 205.294C86.4705 207.206 87.0587 208.823 88.2352 210.147C89.4117 211.323 90.8823 212.059 92.647 212.059ZM81.9117 195.147C84.7058 192.353 88.3823 190.882 92.647 190.882C96.9117 190.882 100.441 192.353 103.382 195.147C106.176 197.941 107.647 201.323 107.647 205.441C107.647 209.412 106.323 212.941 103.382 215.735C100.588 218.529 97.0587 220 92.647 220C88.2352 220 84.7058 218.529 81.9117 215.735C79.1176 212.941 77.647 209.559 77.647 205.441C77.647 201.323 79.1176 197.941 81.9117 195.147Z" fill="#00557B"/>
<path d="M125.588 203.382C127.353 203.382 128.529 202.353 128.529 200.882C128.529 199.412 127.353 198.382 125.588 198.382H122.5V203.382H125.588ZM126.765 191.323C130 191.323 132.5 192.206 134.412 193.823C136.323 195.588 137.353 197.647 137.353 200.294C137.353 202.941 136.323 205.147 134.412 206.765C132.5 208.529 130 209.265 126.765 209.265H122.5V218.97H113.97V191.176H126.765V191.323Z" fill="#00557B"/>
<path d="M151.176 209.117H157.353L154.118 201.029L151.176 209.117ZM138.823 219.265L150.294 191.176H158.382L169.853 219.265H160.588L159.265 215.735H148.971L147.647 219.265H138.823Z" fill="#00557B"/>
<path d="M192.353 211.912V198.824H187.206C187.206 201.03 187.059 203.383 186.618 205.883C186.324 208.383 185.735 210.441 185 211.912H192.353ZM173.677 224.412V211.912H176.471C178.235 208.677 179.118 203.677 179.118 196.765V191.324H200.882V211.765H204.412V224.265H196.324V219.118H181.618V224.265H173.677V224.412Z" fill="#00557B"/>
<path d="M224.412 212.059C226.176 212.059 227.647 211.471 228.823 210.147C230 208.823 230.588 207.353 230.588 205.294C230.588 203.382 230 201.765 228.823 200.588C227.647 199.265 226.176 198.676 224.412 198.676C222.647 198.676 221.176 199.265 220 200.588C218.823 201.765 218.235 203.382 218.235 205.294C218.235 207.206 218.823 208.823 220 210.147C221.176 211.323 222.647 212.059 224.412 212.059ZM213.676 195.147C216.47 192.353 220.147 190.882 224.412 190.882C228.676 190.882 232.206 192.353 235.147 195.147C237.941 197.941 239.412 201.323 239.412 205.441C239.412 209.412 238.088 212.941 235.147 215.735C232.353 218.529 228.823 220 224.412 220C220.147 220 216.47 218.529 213.676 215.735C210.882 212.941 209.412 209.559 209.412 205.441C209.412 201.323 210.882 197.941 213.676 195.147Z" fill="#00557B"/>
<path d="M245 219.265V191.324H253.529L259.559 201.324L265.735 191.324H274.118V219.265H266.029V203.677L262.059 210.294H257.353L253.382 203.677V219.265H245Z" fill="#00557B"/>
</g>
<defs>
<clipPath id="clip0_577_16116">
<rect width="320" height="320" fill="white"/>
</clipPath>
</defs>
</svg>
