<svg width="1902" height="379" viewBox="0 0 1902 379" fill="none" xmlns="http://www.w3.org/2000/svg">
<path d="M1902 77.9669C1893.87 74.1388 1885.62 70.4018 1877.25 66.7678L1867.7 88.7917C1878.83 93.6251 1889.75 98.6477 1900.45 103.831L1902 100.623V77.9669Z" fill="#231F20"/>
<path d="M1517.54 25.4584C1529.61 24.6687 1541.57 24.1901 1553.42 24.0058L1553.04 0C1540.81 0.190504 1528.45 0.685079 1515.98 1.50086L1517.54 25.4584Z" fill="#231F20"/>
<path d="M-18 233.376C-11.8134 238.086 -5.46599 242.696 1.0354 247.205L14.7088 227.474C5.09172 220.804 -4.14999 213.918 -12.9956 206.826L-18 213.072V233.376Z" fill="#231F20"/>
<path d="M1481.77 28.6868C1470.01 30.0409 1458.14 31.6951 1446.17 33.6642L1442.28 9.97398C1454.63 7.94169 1466.88 6.23383 1479.03 4.83548L1481.77 28.6868Z" fill="#231F20"/>
<path d="M1589.31 24.3431C1601.38 24.7582 1613.33 25.4736 1625.14 26.4705L1627.16 2.5468C1614.95 1.5168 1602.61 0.777579 1590.13 0.348597L1589.31 24.3431Z" fill="#231F20"/>
<path d="M1410.81 40.3528C1399.27 42.8216 1387.63 45.5878 1375.91 48.6643L1369.82 25.4417C1381.9 22.2719 1393.89 19.4203 1405.8 16.8743L1410.81 40.3528Z" fill="#231F20"/>
<path d="M1660.83 30.3739C1672.8 31.9824 1684.62 33.8733 1696.29 36.0257L1700.64 12.4149C1688.59 10.193 1676.39 8.24042 1664.03 6.5791L1660.83 30.3739Z" fill="#231F20"/>
<path d="M1341.4 58.5542C1330.12 62.0616 1318.76 65.8603 1307.32 69.9614L1299.22 47.3615C1310.98 43.1448 1322.67 39.2367 1334.28 35.6265L1341.4 58.5542Z" fill="#231F20"/>
<path d="M1240.49 97.0849C1251.62 92.042 1262.68 87.2916 1273.68 82.8242L1264.66 60.5789C1253.36 65.1669 1242 70.0429 1230.59 75.2159L1240.49 97.0849Z" fill="#231F20"/>
<path d="M1766.23 52.4042C1754.8 49.1559 1743.21 46.1422 1731.45 43.386L1736.92 20.0104C1749.05 22.8537 1761.01 25.9616 1772.79 29.3101L1766.23 52.4042Z" fill="#231F20"/>
<path d="M1176.11 129.22C1186.79 123.4 1197.41 117.854 1207.97 112.576L1197.25 91.0963C1186.42 96.505 1175.55 102.184 1164.63 108.14L1176.11 129.22Z" fill="#231F20"/>
<path d="M1834.4 75.1714C1823.31 70.9121 1812.03 66.8535 1800.56 63.0213L1808.17 40.2498C1819.98 44.1968 1831.59 48.3753 1843 52.7583L1834.4 75.1714Z" fill="#231F20"/>
<path d="M1113.74 166.04C1124.11 159.449 1134.43 153.122 1144.71 147.052L1132.51 126.378C1122 132.583 1111.46 139.046 1100.87 145.776L1113.74 166.04Z" fill="#231F20"/>
<path d="M31.3721 266.838C41.5375 272.978 52.0133 278.895 62.7792 284.581L73.9846 263.35C63.6129 257.872 53.538 252.181 43.7779 246.285L31.3721 266.838Z" fill="#231F20"/>
<path d="M1083.75 185.755C1078.74 189.164 1073.71 192.635 1068.67 196.169C1063.75 199.625 1058.8 203.027 1053.83 206.375L1040.42 186.467C1045.26 183.201 1050.09 179.883 1054.89 176.513C1060.03 172.911 1065.15 169.371 1070.27 165.895L1083.75 185.755Z" fill="#231F20"/>
<path d="M128.129 314.839C116.877 310.295 105.854 305.529 95.079 300.548L105.146 278.754C115.556 283.566 126.217 288.176 137.113 292.576L128.129 314.839Z" fill="#231F20"/>
<path d="M992.959 244.241C1003.31 238.318 1013.59 232.183 1023.8 225.834L1011.12 205.446C1001.17 211.639 991.139 217.623 981.041 223.402L992.959 244.241Z" fill="#231F20"/>
<path d="M161.812 327.539C173.026 331.478 184.437 335.207 196.031 338.72L202.99 315.743C191.723 312.329 180.643 308.707 169.763 304.886L161.812 327.539Z" fill="#231F20"/>
<path d="M961.544 261.467C950.937 267.036 940.266 272.391 929.542 277.536L919.164 255.888C929.63 250.867 940.042 245.641 950.393 240.208L961.544 261.467Z" fill="#231F20"/>
<path d="M230.564 348.409C242.034 351.375 253.659 354.138 265.428 356.691L270.515 333.228C259.051 330.741 247.733 328.051 236.572 325.165L230.564 348.409Z" fill="#231F20"/>
<path d="M896.915 292.473C885.935 297.264 874.906 301.842 863.838 306.211L855.029 283.877C865.836 279.612 876.602 275.143 887.32 270.467L896.915 292.473Z" fill="#231F20"/>
<path d="M336.068 369.243C324.135 367.576 312.313 365.702 300.614 363.625L304.807 339.986C316.213 342.01 327.744 343.838 339.387 345.465L336.068 369.243Z" fill="#231F20"/>
<path d="M796.296 330.161C807.661 326.573 819 322.776 830.305 318.768L822.287 296.138C811.247 300.053 800.173 303.761 789.073 307.266L796.296 330.161Z" fill="#231F20"/>
<path d="M407.321 376.612C395.355 375.799 383.472 374.782 371.682 373.565L374.146 349.683C385.656 350.871 397.259 351.864 408.947 352.658L407.321 376.612Z" fill="#231F20"/>
<path d="M727.331 349.348C738.887 346.556 750.436 343.558 761.967 340.351L755.537 317.22C744.272 320.353 732.989 323.282 721.697 326.01L727.331 349.348Z" fill="#231F20"/>
<path d="M478.951 379C466.936 379.01 454.98 378.816 443.093 378.42L443.892 354.425C455.505 354.811 467.188 355.001 478.93 354.991L478.951 379Z" fill="#231F20"/>
<path d="M657.139 363.798C668.865 361.796 680.599 359.589 692.332 357.174L687.496 333.658C676.029 336.018 664.56 338.175 653.1 340.132L657.139 363.798Z" fill="#231F20"/>
<path d="M550.488 376.519C538.538 377.336 526.625 377.949 514.761 378.361L513.928 354.367C525.525 353.964 537.169 353.365 548.85 352.566L550.488 376.519Z" fill="#231F20"/>
<path d="M586.184 373.473C598.031 372.261 609.905 370.846 621.797 369.225L618.555 345.436C606.93 347.021 595.323 348.404 583.743 349.588L586.184 373.473Z" fill="#231F20"/>
</svg>
