<svg width="254" height="66" viewBox="0 0 254 66" fill="none" xmlns="http://www.w3.org/2000/svg">
<path d="M2 7.78442C2 46.4941 77.2012 73.9135 134.294 40.8489C191.386 7.78442 233.388 37.892 252 57.7844" stroke="#3F3F3F" stroke-width="3" stroke-dasharray="14 14"/>
<g clip-path="url(#clip0_862_13454)">
<rect x="145.442" y="40.0701" width="6.66667" height="10.6667" transform="rotate(150 145.442 40.0701)" fill="#F7941D"/>
<mask id="path-3-outside-1_862_13454" maskUnits="userSpaceOnUse" x="121.354" y="10.8476" width="52.2032" height="43.4186" fill="black">
<rect fill="white" x="121.354" y="10.8476" width="52.2032" height="43.4186"/>
<path fill-rule="evenodd" clip-rule="evenodd" d="M131.908 48.3276C133.151 49.4555 135.381 49.7834 137.449 49.1423C138.093 48.9426 138.263 48.8461 152.597 40.5481L167.094 32.1558L167.464 31.7369C167.957 31.1788 168.497 30.1895 168.662 29.5437C168.838 28.8508 168.836 27.9895 168.657 27.274C168.518 26.7225 168.376 26.4592 165.87 22.1178C163.363 17.7764 163.206 17.5215 162.798 17.1259C162.268 16.6128 161.523 16.1805 160.835 15.9869C160.193 15.8064 159.066 15.7797 158.336 15.9276L157.789 16.0386L143.342 24.3538C132.765 30.4418 128.791 32.7556 128.505 32.9926C126.774 34.4274 125.788 36.8005 126.213 38.51C126.313 38.9127 126.673 39.5692 128.944 43.4924C131.303 47.5681 131.594 48.0421 131.908 48.3276ZM135.087 36.7196C134.574 35.5288 134.135 34.1923 133.875 33.0314C133.773 32.5742 133.693 32.1869 133.699 32.1707C133.706 32.1479 137.401 31.0164 140.965 29.9455L141.272 29.853L144.072 34.7026L146.872 39.5522L146.638 39.7724C143.246 42.9666 141.105 44.958 141.072 44.9509C140.993 44.9343 140.186 44.1616 139.684 43.6224C139.039 42.9284 138.033 41.715 137.532 41.0245C136.847 40.0804 135.558 37.8113 135.087 36.7196ZM144.929 24.3467C144.994 24.3656 146.14 25.7823 146.264 25.9979C146.298 26.0561 145.841 26.3456 144.428 27.1612L142.548 28.247L139.379 28.8757C137.637 29.2214 136.132 29.5174 136.035 29.5334C135.937 29.5496 137.847 28.4048 140.357 26.9436C142.83 25.5033 144.888 24.3348 144.929 24.3467ZM146.996 41.5255L149.082 39.146L150.882 38.1069L152.681 37.0678L152.799 37.3665C152.864 37.5309 153.048 37.9877 153.209 38.3815L153.501 39.0977L149.092 41.6378C146.667 43.0348 144.734 44.1164 144.796 44.0414C144.859 43.9664 145.849 42.8342 146.996 41.5255ZM154.45 37.3412C154.298 36.9781 154.144 36.591 154.109 36.4809L154.045 36.2807L157.27 34.4206L160.495 32.5604L161.653 33.0658C162.289 33.3439 162.836 33.5906 162.867 33.6142C162.899 33.6383 161.164 34.6733 158.875 35.9949L154.825 38.3327L154.776 38.1671C154.749 38.0759 154.602 37.7043 154.45 37.3412ZM150.204 21.2374C152.368 19.9883 154.146 18.981 154.157 18.999C154.167 19.017 154.106 19.635 154.02 20.3724L153.865 21.713L150.78 23.494L147.695 25.275L147.305 24.7885C146.815 24.1793 146.355 23.6089 146.307 23.5519C146.287 23.528 148.041 22.4865 150.204 21.2374ZM156.401 19.9511C156.861 19.1323 157.256 18.4663 157.28 18.4713C157.303 18.4763 158.965 21.3442 160.972 24.8443L164.622 31.2081L162.904 31.1868L161.186 31.1654L158.376 26.3028L155.566 21.44L156.401 19.9511Z"/>
</mask>
<path fill-rule="evenodd" clip-rule="evenodd" d="M131.908 48.3276C133.151 49.4555 135.381 49.7834 137.449 49.1423C138.093 48.9426 138.263 48.8461 152.597 40.5481L167.094 32.1558L167.464 31.7369C167.957 31.1788 168.497 30.1895 168.662 29.5437C168.838 28.8508 168.836 27.9895 168.657 27.274C168.518 26.7225 168.376 26.4592 165.87 22.1178C163.363 17.7764 163.206 17.5215 162.798 17.1259C162.268 16.6128 161.523 16.1805 160.835 15.9869C160.193 15.8064 159.066 15.7797 158.336 15.9276L157.789 16.0386L143.342 24.3538C132.765 30.4418 128.791 32.7556 128.505 32.9926C126.774 34.4274 125.788 36.8005 126.213 38.51C126.313 38.9127 126.673 39.5692 128.944 43.4924C131.303 47.5681 131.594 48.0421 131.908 48.3276ZM135.087 36.7196C134.574 35.5288 134.135 34.1923 133.875 33.0314C133.773 32.5742 133.693 32.1869 133.699 32.1707C133.706 32.1479 137.401 31.0164 140.965 29.9455L141.272 29.853L144.072 34.7026L146.872 39.5522L146.638 39.7724C143.246 42.9666 141.105 44.958 141.072 44.9509C140.993 44.9343 140.186 44.1616 139.684 43.6224C139.039 42.9284 138.033 41.715 137.532 41.0245C136.847 40.0804 135.558 37.8113 135.087 36.7196ZM144.929 24.3467C144.994 24.3656 146.14 25.7823 146.264 25.9979C146.298 26.0561 145.841 26.3456 144.428 27.1612L142.548 28.247L139.379 28.8757C137.637 29.2214 136.132 29.5174 136.035 29.5334C135.937 29.5496 137.847 28.4048 140.357 26.9436C142.83 25.5033 144.888 24.3348 144.929 24.3467ZM146.996 41.5255L149.082 39.146L150.882 38.1069L152.681 37.0678L152.799 37.3665C152.864 37.5309 153.048 37.9877 153.209 38.3815L153.501 39.0977L149.092 41.6378C146.667 43.0348 144.734 44.1164 144.796 44.0414C144.859 43.9664 145.849 42.8342 146.996 41.5255ZM154.45 37.3412C154.298 36.9781 154.144 36.591 154.109 36.4809L154.045 36.2807L157.27 34.4206L160.495 32.5604L161.653 33.0658C162.289 33.3439 162.836 33.5906 162.867 33.6142C162.899 33.6383 161.164 34.6733 158.875 35.9949L154.825 38.3327L154.776 38.1671C154.749 38.0759 154.602 37.7043 154.45 37.3412ZM150.204 21.2374C152.368 19.9883 154.146 18.981 154.157 18.999C154.167 19.017 154.106 19.635 154.02 20.3724L153.865 21.713L150.78 23.494L147.695 25.275L147.305 24.7885C146.815 24.1793 146.355 23.6089 146.307 23.5519C146.287 23.528 148.041 22.4865 150.204 21.2374ZM156.401 19.9511C156.861 19.1323 157.256 18.4663 157.28 18.4713C157.303 18.4763 158.965 21.3442 160.972 24.8443L164.622 31.2081L162.904 31.1868L161.186 31.1654L158.376 26.3028L155.566 21.44L156.401 19.9511Z" fill="white"/>
<path d="M131.908 48.3276L133.253 46.8467L133.252 46.8465L131.908 48.3276ZM137.449 49.1423L138.041 51.0526L138.041 51.0526L137.449 49.1423ZM152.597 40.5481L153.599 42.279L152.597 40.5481ZM167.094 32.1558L168.096 33.8867L168.377 33.7237L168.593 33.4799L167.094 32.1558ZM167.464 31.7369L168.963 33.0611L168.963 33.061L167.464 31.7369ZM168.662 29.5437L170.6 30.0373L170.6 30.0372L168.662 29.5437ZM168.657 27.274L170.597 26.7874L170.597 26.7873L168.657 27.274ZM162.798 17.1259L164.189 15.6893L164.189 15.6892L162.798 17.1259ZM160.835 15.9869L161.376 14.0616L161.376 14.0616L160.835 15.9869ZM158.336 15.9276L157.939 13.9674L157.939 13.9674L158.336 15.9276ZM157.789 16.0386L157.391 14.0784L157.073 14.143L156.791 14.3052L157.789 16.0386ZM143.342 24.3538L142.344 22.6204L142.344 22.6204L143.342 24.3538ZM128.505 32.9926L127.229 31.4527L127.229 31.4528L128.505 32.9926ZM126.213 38.51L124.272 38.9925L124.272 38.9927L126.213 38.51ZM128.944 43.4924L127.213 44.4944L127.213 44.4944L128.944 43.4924ZM135.087 36.7196L133.251 37.5113L133.251 37.5113L135.087 36.7196ZM133.875 33.0314L131.923 33.4681L131.923 33.4682L133.875 33.0314ZM133.699 32.1707L131.798 31.5489L131.796 31.5551L133.699 32.1707ZM140.965 29.9455L141.54 31.8609L141.54 31.8608L140.965 29.9455ZM141.272 29.853L143.004 28.853L142.213 27.4819L140.696 27.9377L141.272 29.853ZM146.872 39.5522L148.243 41.0082L149.395 39.9231L148.604 38.5522L146.872 39.5522ZM146.638 39.7724L148.009 41.2284L148.009 41.2284L146.638 39.7724ZM141.072 44.9509L140.658 46.9077L140.663 46.9087L141.072 44.9509ZM139.684 43.6224L138.22 44.9848L138.22 44.985L139.684 43.6224ZM137.532 41.0245L135.913 42.1994L135.914 42.1996L137.532 41.0245ZM144.929 24.3467L145.488 22.4264L145.484 22.4252L144.929 24.3467ZM142.548 28.247L142.937 30.2087L143.261 30.1444L143.548 29.979L142.548 28.247ZM139.379 28.8757L138.99 26.9139L138.99 26.9139L139.379 28.8757ZM136.035 29.5334L135.71 27.56L135.709 27.5602L136.035 29.5334ZM140.357 26.9436L139.35 25.2153L139.35 25.2153L140.357 26.9436ZM146.996 41.5255L145.492 40.2071L145.492 40.2071L146.996 41.5255ZM149.082 39.146L148.082 37.4139L147.796 37.5791L147.578 37.8276L149.082 39.146ZM152.681 37.0678L154.542 36.334L153.691 34.1757L151.681 35.3357L152.681 37.0678ZM152.799 37.3665L154.66 36.6332L154.66 36.6328L152.799 37.3665ZM153.209 38.3815L151.357 39.1359L151.357 39.1361L153.209 38.3815ZM153.501 39.0977L154.499 40.8307L156.011 39.9595L155.353 38.3432L153.501 39.0977ZM149.092 41.6378L150.09 43.3707L150.09 43.3707L149.092 41.6378ZM144.796 44.0414L146.332 45.3231L146.333 45.322L144.796 44.0414ZM154.109 36.4809L156.013 35.8693L156.013 35.8686L154.109 36.4809ZM154.045 36.2807L153.045 34.5483L151.646 35.3553L152.141 36.893L154.045 36.2807ZM157.27 34.4206L156.27 32.6881L156.27 32.6881L157.27 34.4206ZM160.495 32.5604L161.295 30.7274L160.37 30.3236L159.495 30.8279L160.495 32.5604ZM161.653 33.0658L162.453 31.2329L162.453 31.2329L161.653 33.0658ZM162.867 33.6142L161.662 35.2103L161.665 35.2128L162.867 33.6142ZM154.825 38.3327L152.909 38.9038L153.632 41.3312L155.825 40.0648L154.825 38.3327ZM154.776 38.1671L152.859 38.7376L152.859 38.7382L154.776 38.1671ZM154.02 20.3724L156.007 20.6026L156.007 20.6025L154.02 20.3724ZM153.865 21.713L154.865 23.445L155.736 22.9422L155.851 21.9432L153.865 21.713ZM147.695 25.275L146.136 26.5271L147.21 27.8648L148.695 27.0071L147.695 25.275ZM147.305 24.7885L145.745 26.0405L145.745 26.0406L147.305 24.7885ZM146.307 23.5519L144.781 24.8443L144.782 24.8452L146.307 23.5519ZM156.401 19.9511L154.657 18.9726L154.657 18.9726L156.401 19.9511ZM157.28 18.4713L156.863 20.4275L156.872 20.4294L157.28 18.4713ZM160.972 24.8443L162.707 23.8493L162.707 23.8493L160.972 24.8443ZM164.622 31.2081L164.597 33.208L168.099 33.2514L166.357 30.2131L164.622 31.2081ZM162.904 31.1868L162.879 33.1867L162.879 33.1867L162.904 31.1868ZM161.186 31.1654L159.454 32.1661L160.023 33.1511L161.161 33.1653L161.186 31.1654ZM158.376 26.3028L156.644 27.3034L156.644 27.3034L158.376 26.3028ZM155.566 21.44L153.822 20.4615L153.264 21.4546L153.834 22.4406L155.566 21.44ZM130.564 49.8084C132.484 51.5516 135.522 51.8335 138.041 51.0526L136.857 47.232C135.24 47.7333 133.817 47.3594 133.253 46.8467L130.564 49.8084ZM138.041 51.0526C138.61 50.8761 139.012 50.6795 140.876 49.6216C142.801 48.5297 146.438 46.4248 153.599 42.279L151.595 38.8172C144.423 42.9694 140.807 45.0617 138.902 46.1425C136.938 47.2573 136.932 47.2088 136.857 47.232L138.041 51.0526ZM153.599 42.279L168.096 33.8867L166.092 30.4249L151.595 38.8172L153.599 42.279ZM168.593 33.4799L168.963 33.0611L165.965 30.4128L165.595 30.8317L168.593 33.4799ZM168.963 33.061C169.641 32.2932 170.348 31.0255 170.6 30.0373L166.724 29.0501C166.646 29.3534 166.273 30.0644 165.965 30.4129L168.963 33.061ZM170.6 30.0372C170.861 29.0125 170.854 27.8141 170.597 26.7874L166.717 27.7607C166.818 28.1648 166.815 28.6891 166.723 29.0502L170.6 30.0372ZM170.597 26.7873C170.47 26.2818 170.314 25.912 169.911 25.1661C169.528 24.4573 168.847 23.2746 167.602 21.1178L164.138 23.1178C165.399 25.3024 166.043 26.422 166.392 27.0681C166.721 27.6771 166.705 27.7147 166.717 27.7608L170.597 26.7873ZM167.602 21.1178C166.356 18.9609 165.672 17.7802 165.25 17.094C164.806 16.3719 164.564 16.0519 164.189 15.6893L161.406 18.5625C161.44 18.5956 161.481 18.6008 161.844 19.1904C162.229 19.8159 162.876 20.9332 164.138 23.1178L167.602 21.1178ZM164.189 15.6892C163.429 14.9528 162.394 14.348 161.376 14.0616L160.293 17.9121C160.652 18.013 161.107 18.2727 161.406 18.5626L164.189 15.6892ZM161.376 14.0616C160.395 13.7855 158.943 13.764 157.939 13.9674L158.733 17.8877C159.189 17.7954 159.992 17.8274 160.293 17.9121L161.376 14.0616ZM157.939 13.9674L157.391 14.0784L158.186 17.9987L158.734 17.8877L157.939 13.9674ZM156.791 14.3052L142.344 22.6204L144.34 26.0871L158.786 17.772L156.791 14.3052ZM142.344 22.6204C137.056 25.6644 133.414 27.7671 131.058 29.139C129.881 29.8244 129.019 30.3307 128.431 30.6821C128.138 30.8572 127.905 30.9985 127.731 31.1066C127.614 31.1799 127.39 31.3188 127.229 31.4527L129.781 34.5325C129.691 34.6072 129.654 34.6219 129.85 34.4995C129.99 34.4119 130.197 34.2861 130.482 34.1158C131.05 33.7765 131.896 33.2794 133.071 32.5957C135.417 31.2294 139.051 29.1312 144.34 26.0871L142.344 22.6204ZM127.229 31.4528C126.101 32.3872 125.232 33.6091 124.703 34.8811C124.184 36.1315 123.926 37.6021 124.272 38.9925L128.154 38.0275C128.075 37.7085 128.097 37.1378 128.397 36.4155C128.688 35.7149 129.178 35.0327 129.781 34.5325L127.229 31.4528ZM124.272 38.9927C124.394 39.4839 124.641 39.9676 125.011 40.6423C125.411 41.3722 126.082 42.5398 127.213 44.4944L130.675 42.4904C129.535 40.5219 128.891 39.3996 128.518 38.7197C128.115 37.9847 128.132 37.9388 128.154 38.0274L124.272 38.9927ZM127.213 44.4944C128.387 46.5225 129.065 47.6863 129.488 48.3767C129.89 49.0324 130.171 49.4518 130.564 49.8086L133.252 46.8465C133.331 46.9178 133.31 46.9575 132.898 46.286C132.508 45.6491 131.86 44.538 130.675 42.4904L127.213 44.4944ZM136.924 35.9279C136.456 34.8414 136.057 33.6235 135.827 32.5947L131.923 33.4682C132.213 34.7611 132.693 36.2163 133.251 37.5113L136.924 35.9279ZM135.827 32.5947C135.777 32.3745 135.735 32.1755 135.706 32.0342C135.691 31.9617 135.682 31.9146 135.677 31.8907C135.675 31.8759 135.677 31.8863 135.68 31.9102C135.682 31.9187 135.687 31.9588 135.692 32.0132C135.694 32.0384 135.698 32.0979 135.698 32.1747C135.698 32.2133 135.697 32.2789 135.69 32.36C135.686 32.4017 135.679 32.4576 135.667 32.5231C135.656 32.5862 135.636 32.6782 135.602 32.7863L131.796 31.5551C131.69 31.8826 131.698 32.1643 131.698 32.1719C131.698 32.2511 131.703 32.3138 131.705 32.3428C131.711 32.4049 131.718 32.4554 131.721 32.477C131.728 32.5269 131.736 32.5738 131.742 32.6047C131.754 32.6724 131.77 32.7536 131.787 32.8371C131.822 33.0078 131.87 33.2311 131.923 33.4681L135.827 32.5947ZM135.599 32.7925C135.421 33.3384 135.059 33.6386 135.01 33.6809C134.895 33.7802 134.795 33.8443 134.75 33.8718C134.655 33.9307 134.575 33.968 134.551 33.9794C134.491 34.0079 134.443 34.0263 134.434 34.0297C134.405 34.0408 134.388 34.0467 134.396 34.0439C134.405 34.0407 134.432 34.0317 134.483 34.0151C134.582 33.9832 134.733 33.9354 134.933 33.8729C135.33 33.7486 135.9 33.5728 136.584 33.3635C137.95 32.945 139.761 32.3954 141.54 31.8609L140.389 28.0301C138.604 28.5664 136.786 29.1181 135.412 29.5388C134.726 29.749 134.148 29.9274 133.739 30.0551C133.536 30.1186 133.369 30.1713 133.25 30.2098C133.193 30.2284 133.136 30.2471 133.089 30.2635C133.068 30.2706 133.029 30.2842 132.986 30.301C132.97 30.3072 132.917 30.328 132.852 30.3583C132.826 30.3705 132.745 30.4086 132.649 30.4682C132.604 30.496 132.503 30.5603 132.388 30.6599C132.339 30.7024 131.976 31.0028 131.798 31.5489L135.599 32.7925ZM141.54 31.8608L141.848 31.7683L140.696 27.9377L140.389 28.0302L141.54 31.8608ZM139.54 30.853L142.34 35.7026L145.804 33.7026L143.004 28.853L139.54 30.853ZM142.34 35.7026L145.14 40.5522L148.604 38.5522L145.804 33.7026L142.34 35.7026ZM145.501 38.0962L145.267 38.3164L148.009 41.2284L148.243 41.0082L145.501 38.0962ZM145.267 38.3163C143.572 39.9123 142.192 41.2055 141.233 42.0978C140.753 42.5446 140.382 42.8873 140.131 43.1159C140.004 43.2316 139.916 43.311 139.862 43.3581C139.833 43.3841 139.828 43.3875 139.838 43.3791C139.839 43.3785 139.873 43.3509 139.922 43.3157C139.941 43.3022 140.009 43.2537 140.104 43.2011C140.148 43.1768 140.252 43.1209 140.393 43.0699C140.443 43.0518 140.898 42.8716 141.48 42.9931L140.663 46.9087C141.245 47.0303 141.702 46.85 141.753 46.8315C141.895 46.7801 142 46.7236 142.045 46.6984C142.143 46.6441 142.216 46.5929 142.24 46.5757C142.3 46.5332 142.347 46.4944 142.367 46.4789C142.414 46.4405 142.462 46.3988 142.501 46.3647C142.584 46.2918 142.695 46.1918 142.826 46.0719C143.092 45.8294 143.475 45.4758 143.958 45.0264C144.925 44.1263 146.312 42.8267 148.009 41.2284L145.267 38.3163ZM141.485 42.9941C141.625 43.0237 141.735 43.0629 141.803 43.0898C141.875 43.1181 141.932 43.1458 141.972 43.1661C142.05 43.2057 142.107 43.2418 142.136 43.2605C142.194 43.2982 142.232 43.3279 142.238 43.3324C142.254 43.345 142.249 43.3419 142.214 43.3108C142.149 43.2536 142.047 43.16 141.92 43.0381C141.666 42.7952 141.367 42.4949 141.148 42.2597L138.22 44.985C138.503 45.289 138.859 45.6447 139.153 45.9271C139.3 46.0679 139.447 46.2043 139.571 46.3135C139.63 46.3656 139.705 46.4298 139.782 46.4899C139.819 46.5182 139.882 46.5667 139.961 46.6178C140.001 46.6432 140.067 46.6847 140.152 46.7282C140.214 46.7597 140.401 46.8533 140.658 46.9077L141.485 42.9941ZM141.148 42.2599C140.552 41.6189 139.599 40.4678 139.15 39.8494L135.914 42.1996C136.467 42.9623 137.525 44.2379 138.22 44.9848L141.148 42.2599ZM139.15 39.8496C138.553 39.0271 137.337 36.8867 136.924 35.9278L133.251 37.5113C133.779 38.7359 135.14 41.1338 135.913 42.1994L139.15 39.8496ZM144.371 26.2671C144.225 26.2248 144.112 26.1739 144.042 26.1388C143.967 26.1019 143.908 26.0665 143.866 26.0403C143.786 25.9894 143.726 25.9432 143.694 25.918C143.63 25.8671 143.585 25.8248 143.571 25.8113C143.539 25.78 143.521 25.7608 143.53 25.7701C143.542 25.7828 143.573 25.8177 143.626 25.8805C143.729 26.0011 143.87 26.1719 144.019 26.3559C144.167 26.539 144.314 26.7242 144.428 26.8721C144.485 26.9466 144.529 27.0047 144.558 27.0448C144.565 27.0543 144.57 27.0617 144.574 27.0672C144.578 27.0729 144.58 27.0754 144.58 27.0752C144.58 27.075 144.579 27.0737 144.577 27.0713C144.576 27.069 144.573 27.0651 144.57 27.0598C144.564 27.0513 144.55 27.0293 144.532 26.9979L147.996 24.9979C147.883 24.8022 147.69 24.553 147.597 24.4311C147.459 24.2521 147.292 24.0415 147.13 23.8413C146.969 23.6418 146.803 23.4414 146.669 23.2843C146.604 23.2082 146.534 23.1277 146.471 23.0584C146.441 23.0268 146.393 22.975 146.336 22.9207C146.31 22.8957 146.255 22.8444 146.183 22.7871C146.147 22.7586 146.084 22.7098 146 22.6569C145.939 22.6183 145.753 22.5035 145.488 22.4264L144.371 26.2671ZM144.532 26.9979C144.158 26.3508 144.254 25.7191 144.367 25.3781C144.472 25.0662 144.628 24.8607 144.689 24.784C144.82 24.6198 144.942 24.527 144.942 24.527C144.972 24.5024 144.953 24.5206 144.818 24.6061C144.571 24.7627 144.137 25.0197 143.428 25.4291L145.428 28.8932C146.132 28.4871 146.633 28.1915 146.959 27.9849C147.111 27.8888 147.287 27.7728 147.438 27.652C147.499 27.6039 147.661 27.4726 147.816 27.2783C147.89 27.1864 148.054 26.9679 148.162 26.645C148.279 26.293 148.374 25.6521 147.996 24.9979L144.532 26.9979ZM143.428 25.4291L141.548 26.5149L143.548 29.979L145.428 28.8932L143.428 25.4291ZM142.158 26.2852L138.99 26.9139L139.768 30.8374L142.937 30.2087L142.158 26.2852ZM138.99 26.9139C138.119 27.0866 137.309 27.2469 136.704 27.3658C136.401 27.4253 136.151 27.4743 135.971 27.5093C135.767 27.549 135.697 27.5621 135.71 27.56L136.36 31.5067C136.5 31.4838 138.06 31.1765 139.768 30.8374L138.99 26.9139ZM135.709 27.5602C135.78 27.5484 135.917 27.5295 136.089 27.5343C136.23 27.5383 136.601 27.5607 137.006 27.7865C137.518 28.0718 137.932 28.6048 138.016 29.2871C138.083 29.8268 137.912 30.2324 137.842 30.3826C137.695 30.6935 137.502 30.8878 137.477 30.9132C137.414 30.9786 137.361 31.025 137.337 31.0457C137.285 31.0893 137.246 31.1182 137.238 31.1241C137.23 31.1294 137.225 31.1333 137.222 31.1353C137.22 31.1364 137.219 31.1372 137.219 31.1376C137.218 31.1381 137.218 31.1384 137.218 31.1384C137.217 31.1384 137.218 31.1382 137.218 31.1378C137.219 31.1374 137.22 31.1368 137.221 31.1361C137.223 31.1345 137.226 31.1324 137.231 31.1297C137.239 31.1241 137.25 31.1169 137.264 31.1077C137.293 31.0893 137.33 31.0658 137.376 31.0368C137.565 30.9192 137.86 30.7398 138.246 30.508C139.016 30.0469 140.113 29.4 141.363 28.672L139.35 25.2153C138.091 25.9484 136.979 26.6044 136.19 27.077C135.798 27.3121 135.477 27.5071 135.256 27.6452C135.151 27.7111 135.045 27.7781 134.962 27.8349C134.939 27.8508 134.842 27.916 134.743 28.0003C134.714 28.025 134.657 28.0747 134.592 28.143C134.565 28.1712 134.369 28.3678 134.222 28.6804C134.151 28.8315 133.98 29.2378 134.047 29.7781C134.131 30.461 134.546 30.9944 135.058 31.2801C135.463 31.5061 135.835 31.5288 135.977 31.5327C136.151 31.5376 136.289 31.5186 136.361 31.5066L135.709 27.5602ZM141.363 28.672C142.596 27.9543 143.722 27.3059 144.543 26.8397C144.954 26.6059 145.283 26.4215 145.508 26.2979C145.623 26.235 145.698 26.1944 145.741 26.1726C145.765 26.1598 145.758 26.164 145.734 26.1753C145.727 26.1786 145.678 26.2012 145.609 26.2264C145.579 26.2375 145.497 26.267 145.388 26.293C145.334 26.3058 145.233 26.3276 145.104 26.3389C145.006 26.3475 144.721 26.3682 144.375 26.2683L145.484 22.4252C145.137 22.325 144.851 22.3457 144.752 22.3544C144.622 22.3659 144.52 22.3879 144.464 22.4011C144.352 22.4278 144.265 22.4587 144.23 22.4716C144.151 22.5007 144.088 22.5293 144.063 22.5409C144.003 22.5687 143.945 22.5982 143.904 22.619C143.816 22.6645 143.705 22.7245 143.582 22.7919C143.333 22.9291 142.985 23.1245 142.567 23.3615C141.731 23.8367 140.591 24.4926 139.35 25.2153L141.363 28.672ZM148.5 42.8439L150.586 40.4644L147.578 37.8276L145.492 40.2071L148.5 42.8439ZM150.082 40.878L151.882 39.839L149.882 36.3749L148.082 37.4139L150.082 40.878ZM151.882 39.839L153.681 38.7998L151.681 35.3357L149.882 36.3749L151.882 39.839ZM150.821 37.8016L150.939 38.1003L154.66 36.6328L154.542 36.334L150.821 37.8016ZM150.939 38.0999C151.008 38.276 151.196 38.7422 151.357 39.1359L155.061 37.6271C154.901 37.2331 154.72 36.7859 154.66 36.6332L150.939 38.0999ZM151.357 39.1361L151.648 39.8522L155.353 38.3432L155.061 37.627L151.357 39.1361ZM152.502 37.3647L148.093 39.9048L150.09 43.3707L154.499 40.8307L152.502 37.3647ZM148.093 39.9048C146.885 40.6006 145.804 41.2159 145.034 41.6463C144.648 41.8625 144.349 42.0272 144.155 42.1311C144.053 42.1858 144.002 42.2118 143.988 42.2189C143.961 42.2318 144.025 42.199 144.119 42.1643C144.148 42.1538 144.212 42.1311 144.296 42.1092C144.327 42.101 144.581 42.0294 144.911 42.0484C145.065 42.0573 145.502 42.0968 145.946 42.4094C146.522 42.8146 146.804 43.4572 146.795 44.0741C146.787 44.5516 146.611 44.8918 146.545 45.0108C146.462 45.1617 146.377 45.2691 146.332 45.3231L143.261 42.7598C143.215 42.815 143.129 42.9234 143.045 43.0751C142.979 43.1951 142.802 43.536 142.795 44.0141C142.786 44.6317 143.068 45.2747 143.644 45.6802C144.088 45.9932 144.526 46.0329 144.681 46.0418C145.013 46.0609 145.27 45.9889 145.305 45.9797C145.393 45.9568 145.461 45.9326 145.496 45.92C145.613 45.877 145.714 45.8273 145.739 45.8151C145.828 45.7719 145.936 45.7148 146.045 45.6568C146.271 45.5353 146.596 45.3563 146.988 45.1369C147.776 44.6959 148.873 44.0719 150.09 43.3707L148.093 39.9048ZM146.333 45.322C146.33 45.3252 146.382 45.2647 146.513 45.1147C146.631 44.9787 146.796 44.7902 146.995 44.5625C147.393 44.1073 147.927 43.4978 148.5 42.8439L145.492 40.2071C144.362 41.496 143.344 42.6605 143.26 42.7609L146.333 45.322ZM156.295 36.5681C156.223 36.3979 156.152 36.2223 156.095 36.079C156.066 36.0071 156.043 35.9473 156.026 35.9027C156.005 35.847 156.005 35.8438 156.013 35.8693L152.205 37.0925C152.272 37.3009 152.462 37.7725 152.606 38.1143L156.295 36.5681ZM156.013 35.8686L155.949 35.6684L152.141 36.893L152.205 37.0932L156.013 35.8686ZM155.044 38.0132L158.269 36.153L156.27 32.6881L153.045 34.5483L155.044 38.0132ZM158.269 36.153L161.494 34.2929L159.495 30.8279L156.27 32.6881L158.269 36.153ZM159.695 34.3934L160.852 34.8988L162.453 31.2329L161.295 30.7274L159.695 34.3934ZM160.852 34.8988C161.165 35.0354 161.453 35.1631 161.664 35.2583C161.771 35.3064 161.852 35.3435 161.904 35.3681C161.932 35.381 161.942 35.3862 161.941 35.3857C161.94 35.3853 161.937 35.3836 161.932 35.381C161.927 35.3786 161.918 35.3739 161.906 35.3673C161.895 35.3615 161.872 35.3492 161.844 35.332C161.827 35.3224 161.752 35.2781 161.662 35.2103L164.072 32.018C163.981 31.9488 163.903 31.9026 163.882 31.8906C163.849 31.8711 163.822 31.856 163.805 31.8471C163.772 31.829 163.742 31.814 163.723 31.8048C163.684 31.7852 163.642 31.7651 163.604 31.7472C163.525 31.7103 163.424 31.6639 163.31 31.6125C163.08 31.509 162.777 31.3743 162.453 31.2329L160.852 34.8988ZM161.665 35.2128C161.226 34.8826 160.943 34.3871 160.881 33.8436C160.828 33.3818 160.948 33.0249 161.017 32.8568C161.15 32.5338 161.336 32.3287 161.372 32.2892C161.486 32.1609 161.591 32.0787 161.601 32.0704C161.655 32.0277 161.691 32.0042 161.675 32.0149C161.659 32.0256 161.612 32.0565 161.52 32.1139C161.343 32.2241 161.072 32.3888 160.717 32.6002C160.012 33.0208 159.014 33.6049 157.875 34.2628L159.875 37.7269C161.024 37.0633 162.039 36.4691 162.766 36.0358C163.127 35.8202 163.427 35.6391 163.638 35.5071C163.74 35.4435 163.841 35.3793 163.923 35.3235C163.956 35.301 164.028 35.2515 164.104 35.1904C164.126 35.1728 164.24 35.0833 164.359 34.9496C164.396 34.9073 164.585 34.7 164.718 34.3754C164.787 34.2063 164.908 33.8487 164.855 33.3863C164.792 32.8422 164.509 32.3462 164.069 32.0156L161.665 35.2128ZM157.875 34.2628L153.825 36.6007L155.825 40.0648L159.875 37.7269L157.875 34.2628ZM156.742 37.7616L156.693 37.5959L152.859 38.7382L152.909 38.9038L156.742 37.7616ZM156.693 37.5965C156.628 37.3781 156.43 36.8916 156.295 36.5681L152.606 38.1143C152.677 38.2841 152.746 38.4548 152.8 38.5904C152.827 38.6586 152.848 38.713 152.862 38.7512C152.869 38.7704 152.873 38.7812 152.874 38.785C152.878 38.7944 152.87 38.7737 152.859 38.7376L156.693 37.5965ZM151.204 22.9694C152.283 22.3468 153.263 21.7856 153.973 21.3834C154.329 21.1817 154.613 21.0228 154.805 20.9168C154.903 20.8628 154.967 20.8281 155.002 20.8098C155.023 20.7986 155.015 20.8035 154.991 20.8148C154.986 20.8169 154.933 20.8425 154.859 20.8705C154.836 20.8793 154.722 20.9231 154.57 20.9554C154.508 20.9685 154.308 21.0098 154.05 20.996C153.921 20.9891 152.967 20.9383 152.425 19.999L155.889 17.999C155.346 17.0594 154.391 17.0085 154.263 17.0016C154.003 16.9878 153.803 17.0291 153.74 17.0425C153.585 17.0752 153.469 17.1199 153.442 17.1302C153.36 17.161 153.296 17.1914 153.278 17.2001C153.226 17.2249 153.176 17.2508 153.143 17.2678C153.07 17.306 152.977 17.3569 152.873 17.4142C152.661 17.5311 152.363 17.6987 152.002 17.9027C151.28 18.3119 150.289 18.8789 149.204 19.5053L151.204 22.9694ZM152.425 19.999C152.339 19.851 152.29 19.7213 152.263 19.6418C152.234 19.5571 152.216 19.4851 152.205 19.435C152.183 19.3375 152.173 19.2587 152.169 19.2174C152.16 19.1332 152.158 19.0678 152.158 19.0444C152.157 18.9905 152.159 18.9519 152.159 18.9481C152.16 18.9323 152.16 18.9328 152.158 18.9615C152.154 19.0128 152.146 19.0987 152.134 19.2182C152.111 19.4535 152.075 19.7811 152.033 20.1422L156.007 20.6025C156.05 20.2263 156.088 19.8763 156.115 19.6137C156.127 19.4843 156.138 19.3662 156.146 19.2735C156.149 19.2303 156.153 19.1738 156.155 19.1179C156.156 19.094 156.159 19.0395 156.157 18.9742C156.157 18.9451 156.155 18.8752 156.146 18.7876C156.141 18.7445 156.131 18.6643 156.109 18.5656C156.095 18.5005 156.042 18.2643 155.889 17.999L152.425 19.999ZM152.033 20.1421L151.878 21.4827L155.851 21.9432L156.007 20.6026L152.033 20.1421ZM152.865 19.9809L149.78 21.762L151.78 25.2261L154.865 23.445L152.865 19.9809ZM149.78 21.762L146.695 23.543L148.695 27.0071L151.78 25.2261L149.78 21.762ZM149.255 24.0229L148.864 23.5364L145.745 26.0406L146.136 26.5271L149.255 24.0229ZM148.864 23.5365C148.39 22.9459 147.904 22.3425 147.833 22.2587L144.782 24.8452C144.776 24.8382 144.796 24.8624 144.861 24.943C144.917 25.0121 144.993 25.1063 145.084 25.2187C145.265 25.4432 145.501 25.7369 145.745 26.0405L148.864 23.5365ZM147.834 22.2596C148.33 22.8453 148.348 23.5125 148.274 23.9151C148.208 24.2695 148.062 24.5162 148.002 24.6126C147.872 24.8195 147.734 24.9523 147.704 24.981C147.614 25.0685 147.537 25.1258 147.528 25.1323C147.489 25.162 147.466 25.1768 147.483 25.1652C147.506 25.1499 147.56 25.1156 147.653 25.058C147.834 24.9463 148.108 24.7816 148.458 24.5737C149.155 24.1595 150.127 23.5912 151.204 22.9694L149.204 19.5053C148.117 20.1327 147.131 20.7096 146.415 21.1345C146.059 21.3461 145.763 21.5243 145.553 21.6537C145.451 21.7166 145.354 21.7774 145.277 21.8285C145.244 21.8501 145.183 21.891 145.119 21.9391C145.098 21.9549 145.012 22.0195 144.917 22.1125C144.884 22.1439 144.744 22.279 144.613 22.4875C144.552 22.5848 144.406 22.8323 144.34 23.1873C144.266 23.5905 144.285 24.2582 144.781 24.8443L147.834 22.2596ZM158.145 20.9296C158.37 20.53 158.575 20.1735 158.724 19.9231C158.799 19.7953 158.853 19.7087 158.883 19.6614C158.901 19.633 158.895 19.6432 158.875 19.6718C158.87 19.6786 158.826 19.7393 158.759 19.8142C158.732 19.8439 158.643 19.9434 158.507 20.0495C158.441 20.1008 158.299 20.2056 158.096 20.2966C157.925 20.3733 157.461 20.5547 156.863 20.4275L157.696 16.5152C157.097 16.3878 156.632 16.5694 156.46 16.6466C156.256 16.738 156.113 16.8436 156.046 16.8961C155.907 17.0045 155.813 17.1076 155.782 17.1421C155.707 17.2265 155.652 17.3019 155.633 17.328C155.585 17.3952 155.54 17.463 155.511 17.5091C155.446 17.6109 155.367 17.741 155.284 17.8814C155.114 18.1674 154.892 18.5534 154.657 18.9726L158.145 20.9296ZM156.872 20.4294C156.433 20.338 156.146 20.1209 156.083 20.0739C155.975 19.9932 155.899 19.9188 155.862 19.8821C155.786 19.8058 155.734 19.7404 155.716 19.7181C155.674 19.6649 155.644 19.6219 155.638 19.6128C155.627 19.5967 155.619 19.5848 155.617 19.5805C155.615 19.5778 155.613 19.5757 155.613 19.5745C155.612 19.5733 155.611 19.5726 155.611 19.5726C155.611 19.5725 155.612 19.574 155.614 19.5772C155.616 19.5804 155.619 19.5847 155.622 19.5903C155.629 19.6015 155.638 19.6163 155.649 19.6349C155.695 19.711 155.766 19.8295 155.86 19.9901C156.047 20.3091 156.318 20.7734 156.652 21.3498C157.319 22.5017 158.235 24.091 159.237 25.8393L162.707 23.8493C161.703 22.0975 160.784 20.5028 160.113 19.3444C159.777 18.7657 159.502 18.2933 159.309 17.9639C159.212 17.8002 159.133 17.6665 159.076 17.5712C159.048 17.5254 159.02 17.4782 158.994 17.438C158.984 17.4209 158.961 17.3861 158.935 17.3475C158.925 17.3326 158.892 17.2854 158.847 17.2292C158.829 17.2054 158.775 17.1389 158.699 17.0619C158.662 17.0248 158.585 16.95 158.477 16.8692C158.413 16.8219 158.126 16.6047 157.687 16.5133L156.872 20.4294ZM159.237 25.8393L162.887 32.2031L166.357 30.2131L162.707 23.8493L159.237 25.8393ZM164.647 29.2083L162.929 29.187L162.879 33.1867L164.597 33.208L164.647 29.2083ZM162.929 29.187L161.211 29.1656L161.161 33.1653L162.879 33.1867L162.929 29.187ZM162.917 30.1648L160.107 25.3021L156.644 27.3034L159.454 32.1661L162.917 30.1648ZM160.107 25.3021L157.298 20.4394L153.834 22.4406L156.644 27.3034L160.107 25.3021ZM157.31 22.4185L158.145 20.9296L154.657 18.9726L153.822 20.4615L157.31 22.4185Z" fill="#F7941D" mask="url(#path-3-outside-1_862_13454)"/>
</g>
<defs>
<clipPath id="clip0_862_13454">
<rect width="48" height="48" fill="white" transform="translate(180.179 41.5692) rotate(150)"/>
</clipPath>
</defs>
</svg>
