<svg width="504" height="102" viewBox="0 0 504 102" fill="none" xmlns="http://www.w3.org/2000/svg">
<path d="M2 0C2 77.4194 152.402 132.258 266.588 66.129C380.773 0 464.777 60.2151 502 100" stroke="#3F3F3F" stroke-width="4" stroke-dasharray="14 14"/>
<g clip-path="url(#clip0_577_15941)">
<rect x="305.14" y="57.3776" width="6.66667" height="10.6667" transform="rotate(150 305.14 57.3776)" fill="#F7941D"/>
<mask id="path-3-outside-1_577_15941" maskUnits="userSpaceOnUse" x="281.051" y="28.1552" width="52.2032" height="43.4186" fill="black">
<rect fill="white" x="281.051" y="28.1552" width="52.2032" height="43.4186"/>
<path fill-rule="evenodd" clip-rule="evenodd" d="M291.606 65.6351C292.848 66.763 295.078 67.091 297.146 66.4499C297.79 66.2502 297.961 66.1537 312.294 57.8557L326.791 49.4634L327.161 49.0445C327.654 48.4864 328.194 47.497 328.359 46.8513C328.535 46.1584 328.534 45.297 328.354 44.5816C328.216 44.03 328.073 43.7668 325.567 39.4254C323.06 35.0839 322.904 34.8291 322.495 34.4335C321.965 33.9203 321.22 33.4881 320.532 33.2944C319.89 33.114 318.763 33.0872 318.034 33.2351L317.486 33.3461L303.039 41.6613C292.462 47.7494 288.488 50.0632 288.202 50.3002C286.471 51.7349 285.485 54.1081 285.91 55.8176C286.01 56.2202 286.37 56.8768 288.641 60.8C291.001 64.8757 291.291 65.3496 291.606 65.6351ZM294.785 54.0271C294.271 52.8364 293.832 51.4999 293.572 50.339C293.47 49.8818 293.391 49.4945 293.396 49.4783C293.403 49.4555 297.098 48.3239 300.662 47.253L300.969 47.1606L303.769 52.0102L306.569 56.8598L306.335 57.0799C302.943 60.2742 300.803 62.2655 300.769 62.2585C300.69 62.2419 299.883 61.4691 299.382 60.9299C298.736 60.2359 297.731 59.0226 297.229 58.3321C296.544 57.388 295.255 55.1188 294.785 54.0271ZM304.627 41.6543C304.692 41.6732 305.837 43.0899 305.961 43.3054C305.995 43.3637 305.538 43.6531 304.125 44.4687L302.245 45.5545L299.076 46.1832C297.334 46.529 295.829 46.825 295.732 46.8409C295.634 46.8571 297.545 45.7123 300.054 44.2512C302.528 42.8109 304.585 41.6423 304.627 41.6543ZM306.693 58.8331L308.779 56.4535L310.579 55.4145L312.379 54.3753L312.497 54.6741C312.561 54.8385 312.746 55.2952 312.906 55.6891L313.198 56.4053L308.789 58.9453C306.364 60.3423 304.431 61.424 304.494 61.349C304.556 61.274 305.546 60.1418 306.693 58.8331ZM314.147 54.6488C313.995 54.2857 313.842 53.8985 313.806 53.7885L313.742 53.5883L316.967 51.7281L320.192 49.868L321.35 50.3734C321.987 50.6514 322.533 50.8982 322.565 50.9217C322.597 50.9459 320.861 51.9809 318.572 53.3024L314.523 55.6403L314.473 55.4746C314.446 55.3834 314.3 55.0118 314.147 54.6488ZM309.901 38.5449C312.065 37.2958 313.843 36.2886 313.854 36.3066C313.864 36.3246 313.803 36.9426 313.717 37.6799L313.562 39.0205L310.477 40.8016L307.392 42.5826L307.002 42.0961C306.513 41.4868 306.053 40.9165 306.004 40.8595C305.984 40.8356 307.738 39.794 309.901 38.5449ZM316.098 37.2587C316.558 36.4398 316.953 35.7738 316.977 35.7789C317.001 35.7838 318.662 38.6517 320.67 42.1518L324.319 48.5157L322.601 48.4944L320.883 48.473L318.073 43.6103L315.263 38.7475L316.098 37.2587Z"/>
</mask>
<path fill-rule="evenodd" clip-rule="evenodd" d="M291.606 65.6351C292.848 66.763 295.078 67.091 297.146 66.4499C297.79 66.2502 297.961 66.1537 312.294 57.8557L326.791 49.4634L327.161 49.0445C327.654 48.4864 328.194 47.497 328.359 46.8513C328.535 46.1584 328.534 45.297 328.354 44.5816C328.216 44.03 328.073 43.7668 325.567 39.4254C323.06 35.0839 322.904 34.8291 322.495 34.4335C321.965 33.9203 321.22 33.4881 320.532 33.2944C319.89 33.114 318.763 33.0872 318.034 33.2351L317.486 33.3461L303.039 41.6613C292.462 47.7494 288.488 50.0632 288.202 50.3002C286.471 51.7349 285.485 54.1081 285.91 55.8176C286.01 56.2202 286.37 56.8768 288.641 60.8C291.001 64.8757 291.291 65.3496 291.606 65.6351ZM294.785 54.0271C294.271 52.8364 293.832 51.4999 293.572 50.339C293.47 49.8818 293.391 49.4945 293.396 49.4783C293.403 49.4555 297.098 48.3239 300.662 47.253L300.969 47.1606L303.769 52.0102L306.569 56.8598L306.335 57.0799C302.943 60.2742 300.803 62.2655 300.769 62.2585C300.69 62.2419 299.883 61.4691 299.382 60.9299C298.736 60.2359 297.731 59.0226 297.229 58.3321C296.544 57.388 295.255 55.1188 294.785 54.0271ZM304.627 41.6543C304.692 41.6732 305.837 43.0899 305.961 43.3054C305.995 43.3637 305.538 43.6531 304.125 44.4687L302.245 45.5545L299.076 46.1832C297.334 46.529 295.829 46.825 295.732 46.8409C295.634 46.8571 297.545 45.7123 300.054 44.2512C302.528 42.8109 304.585 41.6423 304.627 41.6543ZM306.693 58.8331L308.779 56.4535L310.579 55.4145L312.379 54.3753L312.497 54.6741C312.561 54.8385 312.746 55.2952 312.906 55.6891L313.198 56.4053L308.789 58.9453C306.364 60.3423 304.431 61.424 304.494 61.349C304.556 61.274 305.546 60.1418 306.693 58.8331ZM314.147 54.6488C313.995 54.2857 313.842 53.8985 313.806 53.7885L313.742 53.5883L316.967 51.7281L320.192 49.868L321.35 50.3734C321.987 50.6514 322.533 50.8982 322.565 50.9217C322.597 50.9459 320.861 51.9809 318.572 53.3024L314.523 55.6403L314.473 55.4746C314.446 55.3834 314.3 55.0118 314.147 54.6488ZM309.901 38.5449C312.065 37.2958 313.843 36.2886 313.854 36.3066C313.864 36.3246 313.803 36.9426 313.717 37.6799L313.562 39.0205L310.477 40.8016L307.392 42.5826L307.002 42.0961C306.513 41.4868 306.053 40.9165 306.004 40.8595C305.984 40.8356 307.738 39.794 309.901 38.5449ZM316.098 37.2587C316.558 36.4398 316.953 35.7738 316.977 35.7789C317.001 35.7838 318.662 38.6517 320.67 42.1518L324.319 48.5157L322.601 48.4944L320.883 48.473L318.073 43.6103L315.263 38.7475L316.098 37.2587Z" fill="white"/>
<path d="M291.606 65.6351L292.95 64.1543L292.95 64.1541L291.606 65.6351ZM297.146 66.4499L297.738 68.3602L297.739 68.3602L297.146 66.4499ZM312.294 57.8557L313.296 59.5865L312.294 57.8557ZM326.791 49.4634L327.793 51.1942L328.075 51.0313L328.29 50.7875L326.791 49.4634ZM327.161 49.0445L328.66 50.3686L328.66 50.3685L327.161 49.0445ZM328.359 46.8513L330.297 47.3449L330.297 47.3448L328.359 46.8513ZM328.354 44.5816L330.294 44.0949L330.294 44.0949L328.354 44.5816ZM322.495 34.4335L323.886 32.9968L323.886 32.9968L322.495 34.4335ZM320.532 33.2944L321.074 31.3692L321.073 31.3691L320.532 33.2944ZM318.034 33.2351L317.636 31.2749L317.636 31.275L318.034 33.2351ZM317.486 33.3461L317.089 31.386L316.77 31.4506L316.488 31.6128L317.486 33.3461ZM303.039 41.6613L302.042 39.9279L302.042 39.9279L303.039 41.6613ZM288.202 50.3002L286.926 48.7603L286.926 48.7603L288.202 50.3002ZM285.91 55.8176L283.969 56.3001L283.969 56.3003L285.91 55.8176ZM288.641 60.8L286.91 61.8019L286.91 61.8019L288.641 60.8ZM294.785 54.0271L292.948 54.8188L292.948 54.8189L294.785 54.0271ZM293.572 50.339L291.621 50.7756L291.621 50.7757L293.572 50.339ZM293.396 49.4783L291.495 48.8564L291.493 48.8626L293.396 49.4783ZM300.662 47.253L301.237 49.1684L301.238 49.1684L300.662 47.253ZM300.969 47.1606L302.701 46.1606L301.91 44.7894L300.394 45.2453L300.969 47.1606ZM306.569 56.8598L307.94 58.3158L309.093 57.2306L308.301 55.8598L306.569 56.8598ZM306.335 57.0799L307.707 58.536L307.707 58.5359L306.335 57.0799ZM300.769 62.2585L300.356 64.2153L300.36 64.2162L300.769 62.2585ZM299.382 60.9299L297.917 62.2924L297.918 62.2925L299.382 60.9299ZM297.229 58.3321L295.611 59.5069L295.611 59.5071L297.229 58.3321ZM304.627 41.6543L305.185 39.7339L305.181 39.7327L304.627 41.6543ZM302.245 45.5545L302.634 47.5163L302.958 47.4519L303.245 47.2866L302.245 45.5545ZM299.076 46.1832L298.687 44.2215L298.687 44.2215L299.076 46.1832ZM295.732 46.8409L295.407 44.8676L295.406 44.8677L295.732 46.8409ZM300.054 44.2512L299.048 42.5228L299.048 42.5229L300.054 44.2512ZM306.693 58.8331L305.189 57.5147L305.189 57.5147L306.693 58.8331ZM308.779 56.4535L307.779 54.7215L307.493 54.8867L307.275 55.1352L308.779 56.4535ZM312.379 54.3753L314.239 53.6416L313.388 51.4832L311.379 52.6433L312.379 54.3753ZM312.497 54.6741L314.357 53.9408L314.357 53.9403L312.497 54.6741ZM312.906 55.6891L311.054 56.4435L311.054 56.4436L312.906 55.6891ZM313.198 56.4053L314.196 58.1382L315.708 57.267L315.05 55.6507L313.198 56.4053ZM308.789 58.9453L309.787 60.6783L309.787 60.6783L308.789 58.9453ZM304.494 61.349L306.029 62.6307L306.03 62.6295L304.494 61.349ZM313.806 53.7885L315.711 53.1768L315.71 53.1762L313.806 53.7885ZM313.742 53.5883L312.743 51.8558L311.343 52.6629L311.838 54.2006L313.742 53.5883ZM316.967 51.7281L315.968 49.9956L315.968 49.9957L316.967 51.7281ZM320.192 49.868L320.992 48.035L320.067 47.6312L319.193 48.1355L320.192 49.868ZM321.35 50.3734L322.15 48.5404L322.15 48.5404L321.35 50.3734ZM322.565 50.9217L321.359 52.5179L321.363 52.5203L322.565 50.9217ZM314.523 55.6403L312.606 56.2114L313.329 58.6387L315.523 57.3723L314.523 55.6403ZM314.473 55.4746L312.557 56.0452L312.557 56.0457L314.473 55.4746ZM313.717 37.6799L315.704 37.9102L315.704 37.9101L313.717 37.6799ZM313.562 39.0205L314.562 40.7526L315.433 40.2497L315.549 39.2508L313.562 39.0205ZM307.392 42.5826L305.833 43.8347L306.907 45.1723L308.392 44.3146L307.392 42.5826ZM307.002 42.0961L305.442 43.3481L305.442 43.3482L307.002 42.0961ZM306.004 40.8595L304.478 42.1519L304.479 42.1527L306.004 40.8595ZM316.098 37.2587L314.354 36.2801L314.354 36.2802L316.098 37.2587ZM316.977 35.7789L316.56 37.7351L316.569 37.737L316.977 35.7789ZM320.67 42.1518L322.405 41.1568L322.405 41.1568L320.67 42.1518ZM324.319 48.5157L324.294 50.5155L327.797 50.5589L326.054 47.5207L324.319 48.5157ZM322.601 48.4944L322.576 50.4942L322.576 50.4942L322.601 48.4944ZM320.883 48.473L319.151 49.4736L319.72 50.4587L320.858 50.4728L320.883 48.473ZM318.073 43.6103L316.341 44.6109L316.341 44.611L318.073 43.6103ZM315.263 38.7475L313.519 37.769L312.962 38.7622L313.531 39.7482L315.263 38.7475ZM290.261 67.1159C292.182 68.8591 295.219 69.1411 297.738 68.3602L296.554 64.5395C294.937 65.0409 293.515 64.6669 292.95 64.1543L290.261 67.1159ZM297.739 68.3602C298.308 68.1837 298.709 67.9871 300.574 66.9292C302.498 65.8373 306.135 63.7324 313.296 59.5865L311.292 56.1248C304.12 60.2769 300.505 62.3693 298.6 63.4501C296.635 64.5649 296.629 64.5164 296.554 64.5396L297.739 68.3602ZM313.296 59.5865L327.793 51.1942L325.789 47.7325L311.292 56.1248L313.296 59.5865ZM328.29 50.7875L328.66 50.3686L325.662 47.7204L325.292 48.1392L328.29 50.7875ZM328.66 50.3685C329.338 49.6008 330.045 48.3331 330.297 47.3449L326.421 46.3576C326.344 46.661 325.97 47.372 325.662 47.7205L328.66 50.3685ZM330.297 47.3448C330.558 46.3201 330.552 45.1217 330.294 44.0949L326.414 45.0683C326.516 45.4723 326.513 45.9967 326.421 46.3577L330.297 47.3448ZM330.294 44.0949C330.167 43.5894 330.011 43.2195 329.608 42.4736C329.225 41.7649 328.544 40.5822 327.299 38.4254L323.835 40.4254C325.096 42.6099 325.74 43.7296 326.089 44.3757C326.418 44.9847 326.403 45.0222 326.414 45.0683L330.294 44.0949ZM327.299 38.4254C326.054 36.2685 325.37 35.0877 324.948 34.4016C324.503 33.6794 324.261 33.3594 323.886 32.9968L321.104 35.8701C321.138 35.9031 321.178 35.9084 321.541 36.4979C321.926 37.1234 322.574 38.2408 323.835 40.4254L327.299 38.4254ZM323.886 32.9968C323.126 32.2603 322.091 31.6556 321.074 31.3692L319.99 35.2197C320.349 35.3206 320.804 35.5803 321.104 35.8701L323.886 32.9968ZM321.073 31.3691C320.092 31.093 318.64 31.0715 317.636 31.2749L318.431 35.1953C318.886 35.103 319.689 35.1349 319.99 35.2197L321.073 31.3691ZM317.636 31.275L317.089 31.386L317.883 35.3063L318.431 35.1953L317.636 31.275ZM316.488 31.6128L302.042 39.9279L304.037 43.3947L318.484 35.0795L316.488 31.6128ZM302.042 39.9279C296.753 42.9719 293.111 45.0746 290.755 46.4465C289.578 47.1319 288.716 47.6382 288.128 47.9896C287.835 48.1647 287.602 48.3061 287.429 48.4142C287.311 48.4875 287.088 48.6264 286.926 48.7603L289.478 51.8401C289.388 51.9147 289.351 51.9294 289.547 51.8071C289.688 51.7195 289.895 51.5936 290.18 51.4234C290.748 51.084 291.594 50.5869 292.768 49.9033C295.115 48.537 298.748 46.4387 304.037 43.3947L302.042 39.9279ZM286.926 48.7603C285.798 49.6948 284.929 50.9166 284.401 52.1886C283.881 53.439 283.624 54.9096 283.969 56.3001L287.851 55.3351C287.772 55.016 287.795 54.4453 288.095 53.7231C288.386 53.0224 288.875 52.3403 289.478 51.84L286.926 48.7603ZM283.969 56.3003C284.092 56.7914 284.338 57.2752 284.708 57.9499C285.108 58.6797 285.779 59.8473 286.91 61.8019L290.372 59.798C289.233 57.8294 288.588 56.7072 288.215 56.0273C287.813 55.2923 287.829 55.2464 287.851 55.3349L283.969 56.3003ZM286.91 61.8019C288.084 63.8301 288.762 64.9938 289.185 65.6842C289.587 66.34 289.868 66.7593 290.262 67.1161L292.95 64.1541C293.028 64.2254 293.007 64.2651 292.595 63.5935C292.205 62.9567 291.557 61.8456 290.372 59.798L286.91 61.8019ZM296.621 53.2354C296.153 52.1489 295.754 50.9311 295.524 49.9022L291.621 50.7757C291.91 52.0686 292.39 53.5238 292.948 54.8188L296.621 53.2354ZM295.524 49.9023C295.475 49.6821 295.432 49.4831 295.403 49.3418C295.388 49.2693 295.379 49.2221 295.375 49.1983C295.372 49.1835 295.374 49.1939 295.378 49.2177C295.379 49.2263 295.385 49.2663 295.389 49.3208C295.391 49.3459 295.396 49.4055 295.396 49.4822C295.396 49.5209 295.394 49.5864 295.387 49.6676C295.383 49.7093 295.376 49.7652 295.365 49.8306C295.353 49.8937 295.334 49.9858 295.299 50.0939L291.493 48.8626C291.387 49.1901 291.396 49.4718 291.396 49.4795C291.396 49.5587 291.4 49.6214 291.403 49.6503C291.408 49.7125 291.415 49.763 291.418 49.7846C291.425 49.8345 291.433 49.8814 291.439 49.9123C291.451 49.9799 291.467 50.0612 291.484 50.1447C291.519 50.3154 291.567 50.5387 291.621 50.7756L295.524 49.9023ZM295.297 50.1001C295.118 50.646 294.756 50.9461 294.707 50.9884C294.593 51.0877 294.492 51.1518 294.447 51.1793C294.352 51.2383 294.273 51.2756 294.249 51.2869C294.188 51.3155 294.14 51.3339 294.131 51.3373C294.103 51.3483 294.085 51.3542 294.093 51.3515C294.102 51.3483 294.129 51.3393 294.18 51.3227C294.279 51.2907 294.43 51.2429 294.63 51.1804C295.028 51.0561 295.597 50.8804 296.281 50.671C297.647 50.2525 299.459 49.703 301.237 49.1684L300.086 45.3376C298.301 45.874 296.483 46.4256 295.11 46.8464C294.423 47.0566 293.845 47.2349 293.436 47.3627C293.233 47.4262 293.066 47.4789 292.948 47.5174C292.89 47.536 292.833 47.5547 292.786 47.5711C292.766 47.5781 292.726 47.5918 292.683 47.6085C292.667 47.6148 292.614 47.6355 292.549 47.6658C292.523 47.6781 292.443 47.7161 292.346 47.7757C292.301 47.8035 292.2 47.8679 292.085 47.9675C292.036 48.01 291.674 48.3103 291.495 48.8564L295.297 50.1001ZM301.238 49.1684L301.545 49.0759L300.394 45.2453L300.086 45.3377L301.238 49.1684ZM299.237 48.1606L302.037 53.0102L305.501 51.0102L302.701 46.1606L299.237 48.1606ZM302.037 53.0102L304.837 57.8598L308.301 55.8598L305.501 51.0102L302.037 53.0102ZM305.198 55.4038L304.964 55.6239L307.707 58.5359L307.94 58.3158L305.198 55.4038ZM304.964 55.6239C303.27 57.2198 301.89 58.5131 300.931 59.4054C300.45 59.8522 300.079 60.1948 299.829 60.4235C299.702 60.5392 299.613 60.6185 299.56 60.6657C299.53 60.6916 299.525 60.6951 299.536 60.6867C299.536 60.6861 299.57 60.6585 299.619 60.6233C299.638 60.6097 299.707 60.5613 299.801 60.5087C299.845 60.4844 299.949 60.4285 300.09 60.3775C300.14 60.3593 300.596 60.1792 301.178 60.3007L300.36 64.2162C300.943 64.3379 301.399 64.1575 301.45 64.139C301.592 64.0876 301.697 64.0311 301.743 64.006C301.841 63.9517 301.913 63.9005 301.937 63.8833C301.997 63.8408 302.045 63.802 302.064 63.7864C302.111 63.7481 302.159 63.7064 302.198 63.6723C302.281 63.5994 302.392 63.4994 302.523 63.3795C302.789 63.1369 303.172 62.7834 303.655 62.334C304.623 61.4338 306.009 60.1343 307.707 58.536L304.964 55.6239ZM301.182 60.3016C301.323 60.3313 301.433 60.3705 301.5 60.3973C301.572 60.4256 301.63 60.4533 301.669 60.4737C301.747 60.5133 301.804 60.5493 301.833 60.5681C301.891 60.6058 301.929 60.6355 301.935 60.64C301.951 60.6526 301.946 60.6494 301.911 60.6183C301.846 60.5612 301.745 60.4675 301.617 60.3457C301.364 60.1027 301.064 59.8025 300.846 59.5673L297.918 62.2925C298.201 62.5965 298.556 62.9523 298.851 63.2347C298.998 63.3754 299.144 63.5118 299.268 63.6211C299.327 63.6732 299.402 63.7373 299.48 63.7975C299.516 63.8257 299.58 63.8742 299.659 63.9254C299.698 63.9508 299.764 63.9922 299.85 64.0357C299.911 64.0673 300.098 64.1609 300.356 64.2153L301.182 60.3016ZM300.846 59.5674C300.249 58.9264 299.297 57.7753 298.848 57.157L295.611 59.5071C296.165 60.2698 297.222 61.5455 297.917 62.2924L300.846 59.5674ZM298.848 57.1572C298.251 56.3346 297.035 54.1942 296.621 53.2354L292.948 54.8189C293.476 56.0434 294.837 58.4414 295.611 59.5069L298.848 57.1572ZM304.068 43.5747C303.922 43.5323 303.81 43.4814 303.739 43.4463C303.665 43.4095 303.605 43.3741 303.564 43.3479C303.483 43.297 303.423 43.2508 303.391 43.2255C303.327 43.1747 303.283 43.1324 303.269 43.1189C303.236 43.0876 303.219 43.0683 303.227 43.0777C303.239 43.0904 303.27 43.1253 303.324 43.188C303.427 43.3086 303.568 43.4794 303.716 43.6634C303.864 43.8466 304.011 44.0318 304.125 44.1796C304.182 44.2542 304.226 44.3123 304.255 44.3524C304.262 44.3619 304.268 44.3693 304.272 44.3748C304.276 44.3804 304.277 44.3829 304.277 44.3827C304.277 44.3825 304.276 44.3812 304.275 44.3789C304.273 44.3766 304.27 44.3727 304.267 44.3674C304.262 44.3589 304.247 44.3368 304.229 44.3054L307.693 42.3054C307.58 42.1097 307.388 41.8605 307.294 41.7387C307.156 41.5597 306.989 41.3491 306.827 41.1488C306.666 40.9493 306.501 40.7489 306.367 40.5919C306.302 40.5158 306.232 40.4352 306.168 40.366C306.139 40.3344 306.09 40.2825 306.033 40.2283C306.007 40.2033 305.953 40.152 305.881 40.0946C305.845 40.0661 305.781 40.0174 305.697 39.9645C305.636 39.9259 305.451 39.8111 305.185 39.7339L304.068 43.5747ZM304.229 44.3054C303.856 43.6584 303.951 43.0266 304.065 42.6856C304.169 42.3738 304.325 42.1683 304.387 42.0915C304.517 41.9273 304.639 41.8346 304.639 41.8345C304.67 41.8099 304.65 41.8282 304.515 41.9137C304.268 42.0702 303.835 42.3272 303.125 42.7367L305.125 46.2008C305.829 45.7946 306.33 45.4991 306.656 45.2924C306.808 45.1963 306.985 45.0803 307.136 44.9596C307.196 44.9114 307.359 44.7802 307.514 44.5858C307.587 44.494 307.751 44.2755 307.859 43.9526C307.976 43.6005 308.071 42.9597 307.693 42.3054L304.229 44.3054ZM303.125 42.7367L301.245 43.8225L303.245 47.2866L305.125 46.2008L303.125 42.7367ZM301.856 43.5928L298.687 44.2215L299.466 48.145L302.634 47.5163L301.856 43.5928ZM298.687 44.2215C297.817 44.3942 297.006 44.5544 296.401 44.6734C296.099 44.7329 295.849 44.7819 295.669 44.8169C295.465 44.8566 295.394 44.8697 295.407 44.8676L296.058 48.8143C296.197 48.7913 297.757 48.484 299.466 48.145L298.687 44.2215ZM295.406 44.8677C295.477 44.8559 295.614 44.837 295.787 44.8419C295.927 44.8458 296.298 44.8683 296.703 45.0941C297.215 45.3794 297.629 45.9124 297.714 46.5946C297.78 47.1344 297.61 47.5399 297.539 47.6901C297.393 48.001 297.199 48.1953 297.174 48.2208C297.112 48.2862 297.058 48.3325 297.034 48.3532C296.983 48.3969 296.943 48.4258 296.935 48.4316C296.928 48.437 296.922 48.4408 296.919 48.4428C296.918 48.4439 296.917 48.4447 296.916 48.4452C296.915 48.4457 296.915 48.4459 296.915 48.446C296.915 48.446 296.915 48.4458 296.916 48.4454C296.916 48.4449 296.917 48.4444 296.918 48.4436C296.921 48.4421 296.924 48.4399 296.928 48.4372C296.936 48.4317 296.947 48.4244 296.962 48.4153C296.99 48.3968 297.027 48.3733 297.074 48.3444C297.262 48.2268 297.557 48.0473 297.944 47.8156C298.713 47.3545 299.81 46.7075 301.06 45.9795L299.048 42.5229C297.789 43.256 296.676 43.912 295.887 44.3845C295.495 44.6196 295.174 44.8146 294.953 44.9528C294.848 45.0186 294.742 45.0857 294.659 45.1425C294.636 45.1583 294.539 45.2236 294.441 45.3079C294.412 45.3325 294.355 45.3823 294.289 45.4505C294.262 45.4788 294.066 45.6754 293.919 45.988C293.848 46.1391 293.677 46.5453 293.744 47.0857C293.828 47.7685 294.243 48.302 294.755 48.5876C295.161 48.8137 295.533 48.8363 295.674 48.8403C295.848 48.8452 295.986 48.8262 296.059 48.8141L295.406 44.8677ZM301.06 45.9796C302.293 45.2619 303.419 44.6134 304.24 44.1473C304.652 43.9135 304.98 43.729 305.205 43.6055C305.32 43.5425 305.396 43.5019 305.438 43.4802C305.463 43.4674 305.456 43.4716 305.431 43.4828C305.424 43.4862 305.375 43.5088 305.306 43.534C305.276 43.5451 305.194 43.5746 305.085 43.6005C305.031 43.6134 304.93 43.6351 304.801 43.6465C304.703 43.6551 304.418 43.6758 304.072 43.5758L305.181 39.7327C304.834 39.6326 304.548 39.6532 304.45 39.662C304.32 39.6734 304.217 39.6954 304.161 39.7087C304.049 39.7354 303.963 39.7662 303.927 39.7792C303.848 39.8082 303.785 39.8369 303.76 39.8485C303.7 39.8763 303.642 39.9057 303.602 39.9266C303.514 39.972 303.403 40.032 303.28 40.0995C303.03 40.2367 302.682 40.4321 302.265 40.669C301.428 41.1442 300.289 41.8002 299.048 42.5228L301.06 45.9796ZM308.197 60.1515L310.283 57.7719L307.275 55.1352L305.189 57.5147L308.197 60.1515ZM309.779 58.1856L311.579 57.1465L309.579 53.6824L307.779 54.7215L309.779 58.1856ZM311.579 57.1465L313.379 56.1074L311.379 52.6433L309.579 53.6824L311.579 57.1465ZM310.518 55.1091L310.636 55.4079L314.357 53.9403L314.239 53.6416L310.518 55.1091ZM310.636 55.4074C310.705 55.5835 310.893 56.0498 311.054 56.4435L314.758 54.9347C314.598 54.5406 314.417 54.0934 314.357 53.9408L310.636 55.4074ZM311.054 56.4436L311.346 57.1598L315.05 55.6507L314.758 54.9346L311.054 56.4436ZM312.199 54.6723L307.79 57.2123L309.787 60.6783L314.196 58.1382L312.199 54.6723ZM307.79 57.2123C306.583 57.9082 305.501 58.5235 304.732 58.9538C304.345 59.1701 304.047 59.3348 303.853 59.4386C303.751 59.4933 303.7 59.5194 303.685 59.5264C303.659 59.5393 303.722 59.5065 303.817 59.4718C303.845 59.4613 303.909 59.4387 303.993 59.4168C304.025 59.4085 304.279 59.3369 304.609 59.356C304.763 59.3649 305.2 59.4043 305.644 59.717C306.219 60.1222 306.501 60.7647 306.492 61.3817C306.485 61.8592 306.309 62.1994 306.243 62.3184C306.159 62.4692 306.074 62.5766 306.029 62.6307L302.958 60.0673C302.912 60.1226 302.826 60.231 302.742 60.3827C302.676 60.5026 302.5 60.8435 302.492 61.3216C302.483 61.9392 302.765 62.5823 303.341 62.9878C303.786 63.3008 304.224 63.3404 304.378 63.3493C304.71 63.3685 304.967 63.2965 305.003 63.2872C305.09 63.2644 305.159 63.2402 305.193 63.2276C305.31 63.1846 305.411 63.1349 305.436 63.1226C305.525 63.0795 305.634 63.0224 305.742 62.9644C305.969 62.8429 306.293 62.6639 306.685 62.4445C307.473 62.0035 308.57 61.3795 309.787 60.6783L307.79 57.2123ZM306.03 62.6295C306.027 62.6328 306.079 62.5723 306.21 62.4223C306.329 62.2863 306.493 62.0977 306.692 61.87C307.09 61.4149 307.624 60.8053 308.197 60.1515L305.189 57.5147C304.059 58.8036 303.041 59.9681 302.957 60.0684L306.03 62.6295ZM315.992 53.8757C315.921 53.7054 315.849 53.5298 315.792 53.3865C315.764 53.3147 315.741 53.2549 315.724 53.2102C315.703 53.1545 315.702 53.1514 315.711 53.1768L311.902 54.4001C311.969 54.6084 312.16 55.0801 312.303 55.4218L315.992 53.8757ZM315.71 53.1762L315.646 52.976L311.838 54.2006L311.902 54.4007L315.71 53.1762ZM314.741 55.3207L317.966 53.4606L315.968 49.9957L312.743 51.8558L314.741 55.3207ZM317.966 53.4606L321.191 51.6004L319.193 48.1355L315.968 49.9956L317.966 53.4606ZM319.392 51.7009L320.55 52.2064L322.15 48.5404L320.992 48.035L319.392 51.7009ZM320.55 52.2064C320.863 52.3429 321.151 52.4707 321.361 52.5659C321.468 52.6139 321.549 52.651 321.601 52.6756C321.629 52.6886 321.639 52.6938 321.638 52.6933C321.637 52.6928 321.634 52.6912 321.629 52.6886C321.624 52.6862 321.615 52.6814 321.603 52.6748C321.592 52.6691 321.57 52.6567 321.541 52.6396C321.524 52.6299 321.449 52.5857 321.359 52.5179L323.77 49.3256C323.678 49.2564 323.6 49.2102 323.58 49.1982C323.547 49.1787 323.519 49.1636 323.503 49.1547C323.469 49.1366 323.439 49.1216 323.421 49.1123C323.381 49.0928 323.339 49.0726 323.301 49.0548C323.222 49.0178 323.121 48.9714 323.007 48.9201C322.778 48.8165 322.474 48.6819 322.15 48.5404L320.55 52.2064ZM321.363 52.5203C320.924 52.1901 320.641 51.6946 320.578 51.1511C320.525 50.6894 320.646 50.3325 320.715 50.1643C320.847 49.8414 321.034 49.6363 321.069 49.5967C321.183 49.4684 321.288 49.3863 321.299 49.3779C321.352 49.3353 321.388 49.3118 321.372 49.3225C321.357 49.3331 321.309 49.364 321.217 49.4215C321.041 49.5317 320.769 49.6964 320.414 49.9078C319.709 50.3283 318.712 50.9125 317.572 51.5704L319.572 55.0345C320.722 54.3708 321.736 53.7767 322.463 53.3433C322.825 53.1278 323.124 52.9466 323.335 52.8147C323.437 52.7511 323.538 52.6868 323.62 52.6311C323.653 52.6086 323.726 52.5591 323.802 52.498C323.824 52.4804 323.937 52.3909 324.056 52.2572C324.094 52.2149 324.282 52.0076 324.415 51.6829C324.484 51.5139 324.605 51.1562 324.552 50.6939C324.489 50.1497 324.206 49.6537 323.766 49.3232L321.363 52.5203ZM317.572 51.5704L313.523 53.9082L315.523 57.3723L319.572 55.0345L317.572 51.5704ZM316.439 55.0692L316.39 54.9035L312.557 56.0457L312.606 56.2114L316.439 55.0692ZM316.39 54.9041C316.325 54.6857 316.128 54.1992 315.992 53.8757L312.303 55.4218C312.374 55.5917 312.443 55.7624 312.497 55.898C312.524 55.9662 312.545 56.0205 312.559 56.0588C312.566 56.078 312.57 56.0888 312.572 56.0926C312.575 56.1019 312.567 56.0812 312.557 56.0452L316.39 54.9041ZM310.901 40.277C311.98 39.6543 312.96 39.0931 313.671 38.6909C314.027 38.4893 314.31 38.3304 314.502 38.2244C314.6 38.1703 314.664 38.1357 314.699 38.1174C314.72 38.1061 314.712 38.111 314.688 38.1224C314.684 38.1244 314.63 38.1501 314.557 38.178C314.533 38.1869 314.42 38.2306 314.267 38.263C314.205 38.2761 314.006 38.3173 313.747 38.3035C313.619 38.2967 312.664 38.2459 312.122 37.3066L315.586 35.3066C315.043 34.367 314.089 34.3161 313.96 34.3092C313.7 34.2954 313.5 34.3367 313.437 34.35C313.283 34.3828 313.166 34.4275 313.139 34.4377C313.058 34.4685 312.994 34.499 312.975 34.5077C312.923 34.5324 312.873 34.5583 312.841 34.5754C312.768 34.6136 312.674 34.6644 312.57 34.7218C312.358 34.8386 312.06 35.0062 311.699 35.2103C310.977 35.6195 309.986 36.1865 308.901 36.8129L310.901 40.277ZM312.122 37.3066C312.036 37.1585 311.987 37.0288 311.96 36.9493C311.931 36.8647 311.913 36.7927 311.902 36.7426C311.88 36.6451 311.871 36.5663 311.866 36.5249C311.857 36.4407 311.856 36.3754 311.855 36.3519C311.854 36.298 311.856 36.2594 311.856 36.2556C311.857 36.2398 311.857 36.2403 311.855 36.2691C311.851 36.3204 311.843 36.4062 311.831 36.5257C311.808 36.761 311.773 37.0887 311.731 37.4498L315.704 37.9101C315.748 37.5339 315.786 37.1838 315.812 36.9213C315.825 36.7919 315.836 36.6738 315.843 36.5811C315.846 36.5378 315.85 36.4814 315.853 36.4254C315.854 36.4016 315.856 36.3471 315.855 36.2818C315.854 36.2527 315.853 36.1827 315.843 36.0951C315.838 36.052 315.828 35.9718 315.807 35.8732C315.792 35.8081 315.739 35.5718 315.586 35.3066L312.122 37.3066ZM311.731 37.4497L311.575 38.7903L315.549 39.2508L315.704 37.9102L311.731 37.4497ZM312.562 37.2885L309.477 39.0695L311.477 42.5336L314.562 40.7526L312.562 37.2885ZM309.477 39.0695L306.392 40.8505L308.392 44.3146L311.477 42.5336L309.477 39.0695ZM308.952 41.3305L308.561 40.844L305.442 43.3482L305.833 43.8347L308.952 41.3305ZM308.561 40.8441C308.087 40.2535 307.601 39.65 307.53 39.5663L304.479 42.1527C304.473 42.1458 304.493 42.17 304.558 42.2505C304.614 42.3197 304.69 42.4139 304.781 42.5263C304.962 42.7507 305.198 43.0444 305.442 43.3481L308.561 40.8441ZM307.531 39.5672C308.027 40.1529 308.045 40.8201 307.971 41.2227C307.905 41.5771 307.76 41.8238 307.699 41.9202C307.57 42.127 307.431 42.2599 307.402 42.2886C307.312 42.3761 307.234 42.4334 307.226 42.4399C307.186 42.4695 307.163 42.4844 307.18 42.4728C307.204 42.4574 307.257 42.4232 307.351 42.3655C307.532 42.2539 307.805 42.0891 308.155 41.8812C308.853 41.4671 309.824 40.8988 310.901 40.277L308.901 36.8129C307.815 37.4402 306.828 38.0172 306.113 38.4421C305.756 38.6537 305.46 38.8319 305.25 38.9613C305.148 39.0242 305.052 39.085 304.974 39.136C304.942 39.1577 304.88 39.1986 304.817 39.2467C304.796 39.2625 304.71 39.3271 304.614 39.42C304.582 39.4514 304.441 39.5865 304.31 39.7951C304.249 39.8923 304.103 40.1398 304.038 40.4948C303.963 40.8981 303.982 41.5658 304.478 42.1519L307.531 39.5672ZM317.843 38.2372C318.067 37.8375 318.272 37.4811 318.421 37.2307C318.497 37.1028 318.55 37.0162 318.58 36.969C318.598 36.9405 318.592 36.9508 318.572 36.9793C318.567 36.9861 318.524 37.0469 318.456 37.1217C318.43 37.1514 318.34 37.251 318.204 37.357C318.138 37.4084 317.996 37.5132 317.794 37.6041C317.622 37.6809 317.158 37.8623 316.56 37.7351L317.393 33.8227C316.795 33.6953 316.329 33.8769 316.157 33.9542C315.953 34.0456 315.81 34.1512 315.743 34.2037C315.604 34.312 315.511 34.4151 315.48 34.4497C315.404 34.5341 315.349 34.6094 315.33 34.6355C315.282 34.7028 315.238 34.7706 315.208 34.8167C315.143 34.9185 315.064 35.0486 314.981 35.1889C314.811 35.475 314.589 35.861 314.354 36.2801L317.843 38.2372ZM316.569 37.737C316.13 37.6455 315.843 37.4285 315.78 37.3814C315.672 37.3008 315.596 37.2263 315.559 37.1896C315.484 37.1134 315.431 37.048 315.413 37.0257C315.371 36.9724 315.342 36.9295 315.335 36.9203C315.324 36.9042 315.317 36.8924 315.314 36.8881C315.312 36.8853 315.311 36.8833 315.31 36.8821C315.309 36.8809 315.309 36.8802 315.309 36.8801C315.309 36.8801 315.31 36.8815 315.312 36.8848C315.314 36.8879 315.316 36.8922 315.32 36.8978C315.327 36.9091 315.335 36.9238 315.347 36.9424C315.393 37.0186 315.463 37.1371 315.557 37.2976C315.745 37.6167 316.015 38.081 316.349 38.6574C317.016 39.8092 317.932 41.3985 318.935 43.1468L322.405 41.1568C321.4 39.405 320.481 37.8103 319.81 36.652C319.475 36.0733 319.199 35.6009 319.006 35.2715C318.91 35.1077 318.831 34.9741 318.773 34.8787C318.746 34.8329 318.717 34.7858 318.692 34.7455C318.681 34.7285 318.659 34.6936 318.632 34.655C318.622 34.6402 318.589 34.5929 318.545 34.5367C318.526 34.513 318.473 34.4464 318.396 34.3694C318.359 34.3323 318.282 34.2576 318.174 34.1767C318.111 34.1295 317.824 33.9123 317.384 33.8208L316.569 37.737ZM318.935 43.1468L322.584 49.5107L326.054 47.5207L322.405 41.1568L318.935 43.1468ZM324.344 46.5158L322.626 46.4945L322.576 50.4942L324.294 50.5155L324.344 46.5158ZM322.626 46.4945L320.908 46.4731L320.858 50.4728L322.576 50.4942L322.626 46.4945ZM322.615 47.4723L319.805 42.6097L316.341 44.611L319.151 49.4736L322.615 47.4723ZM319.805 42.6097L316.995 37.7469L313.531 39.7482L316.341 44.6109L319.805 42.6097ZM317.007 39.726L317.843 38.2372L314.354 36.2802L313.519 37.769L317.007 39.726Z" fill="#F7941D" mask="url(#path-3-outside-1_577_15941)"/>
</g>
<defs>
<clipPath id="clip0_577_15941">
<rect width="48" height="48" fill="white" transform="translate(339.876 58.8768) rotate(150)"/>
</clipPath>
</defs>
</svg>
