<svg width="40" height="40" viewBox="0 0 40 40" fill="none" xmlns="http://www.w3.org/2000/svg">
<circle cx="20" cy="20" r="19.5" stroke="white"/>
<path d="M26.4699 18.4227L20.033 12L13.5961 18.4227C13.5202 18.4807 13.4576 18.5544 13.4125 18.6388C13.3674 18.7232 13.3409 18.8163 13.3348 18.9119C13.3288 19.0074 13.3432 19.1032 13.3773 19.1926C13.4113 19.2821 13.4641 19.3632 13.532 19.4304C13.6 19.4976 13.6816 19.5494 13.7713 19.5822C13.8609 19.6151 13.9566 19.6282 14.0518 19.6207C14.1469 19.6133 14.2394 19.5854 14.3229 19.539C14.4064 19.4926 14.4789 19.4287 14.5357 19.3517L19.3667 14.5464V27.3317C19.3667 27.5089 19.4369 27.6789 19.5618 27.8042C19.6868 27.9296 19.8563 28 20.033 28C20.2097 28 20.3792 27.9296 20.5042 27.8042C20.6292 27.6789 20.6994 27.5089 20.6994 27.3317V14.5464L25.5303 19.3517C25.6558 19.4767 25.8256 19.5465 26.0025 19.5459C26.1793 19.5453 26.3486 19.4742 26.4732 19.3484C26.5978 19.2225 26.6674 19.0522 26.6668 18.8748C26.6662 18.6975 26.5954 18.5276 26.4699 18.4027V18.4227Z" fill="white"/>
</svg>
