<svg width="62" height="66" viewBox="0 0 62 66" fill="none" xmlns="http://www.w3.org/2000/svg">
<path d="M4.49292 16.1399L4.38861 16.2022L4.2957 16.2805C2.46275 17.825 1.5 19.8727 1.5 22.1479V57.0087C1.5 61.1578 5.05315 64.5 9.22124 64.5H52.9584C57.0892 64.5 60.7067 61.1813 60.4911 56.9681V22.1479C60.4911 19.9446 59.5761 17.6337 57.6071 16.2116L57.5542 16.1734L57.4982 16.1399L35.7137 3.12419C32.9366 0.958605 29.0545 0.958604 26.2774 3.12418L4.49292 16.1399Z" fill="#E1810E" stroke="white" stroke-width="3"/>
<path d="M24.3703 22.1357C27.8873 19.9947 30.8677 18.1873 30.9935 18.1195C31.0112 18.11 31.028 18.1006 31.0442 18.0915C31.0892 18.0664 31.1296 18.0438 31.1723 18.0274C31.551 17.8814 32.1062 18.2189 37.588 21.5524C37.8103 21.6876 38.0406 21.8276 38.2794 21.9728C41.8269 24.1297 44.8275 25.9924 44.9472 26.1121C45.263 26.4279 45.3231 26.7395 45.2807 27.8415C45.2421 28.8463 45.1544 29.2564 44.8422 29.8921C44.272 31.0533 42.9873 31.8365 41.6527 31.8365C40.7556 31.8365 40.143 31.6296 39.4375 31.0882L39.0945 30.825L38.7515 31.0882C38.0613 31.6179 37.417 31.8365 36.5466 31.8365C35.6729 31.8365 34.9325 31.5731 34.2459 31.018L34.0031 30.8217L33.6558 31.0911C33.4648 31.2393 33.1405 31.4397 32.935 31.5363L32.5614 31.7121V40.028L36.4976 40.0284C38.957 40.0286 40.5233 40.0543 40.6724 40.0968C41.0122 40.1938 41.3603 40.6117 41.4153 40.9887C41.4717 41.3753 41.288 41.8234 40.981 42.0484L40.7604 42.2101L32.5614 42.2467V50.0581H30.3402V42.2467L22.1412 42.2101L21.9206 42.0484C21.6136 41.8234 21.4299 41.3753 21.4863 40.9887C21.5413 40.6117 21.8894 40.1938 22.2293 40.0968C22.3784 40.0543 23.9446 40.0286 26.404 40.0284L30.3402 40.028V31.7121L29.9666 31.5363C29.7612 31.4397 29.4375 31.2398 29.2474 31.0923L28.9017 30.8242L28.5997 31.0612C27.9328 31.5845 27.2114 31.8345 26.3644 31.8357C25.4858 31.837 24.8433 31.6201 24.1501 31.0882L23.8071 30.825L23.4641 31.0882C22.7586 31.6296 22.146 31.8365 21.2489 31.8365C19.9126 31.8365 18.6298 31.0535 18.0576 29.8886C17.7069 29.1746 17.6391 28.8122 17.6361 27.6356C17.6335 26.5815 17.6373 26.5508 17.8046 26.2928C17.9532 26.0633 18.8151 25.5177 24.3703 22.1357Z" fill="#9B5602"/>
<path d="M19.2452 35.0435C18.6465 35.0435 18.1612 35.5432 18.1612 36.1595V49.2803C18.1612 49.8966 18.6465 50.3962 19.2452 50.3962C19.8438 50.3962 20.3291 49.8966 20.3291 49.2803V46.3382H23.7452V48.9421C23.7452 49.5584 24.2305 50.0581 24.8292 50.0581C25.4278 50.0581 25.9131 49.5584 25.9131 48.9421V45.2223C25.9131 44.606 25.4278 44.1064 24.8292 44.1064H20.3291V36.1595C20.3291 35.5432 19.8438 35.0435 19.2452 35.0435Z" fill="#9B5602"/>
<path d="M44.7672 36.1595C44.7672 35.5432 44.2819 35.0435 43.6833 35.0435C43.0846 35.0435 42.5993 35.5432 42.5993 36.1595V44.1064H38.0993C37.5007 44.1064 37.0154 44.606 37.0154 45.2223V48.9421C37.0154 49.5584 37.5007 50.0581 38.0993 50.0581C38.698 50.0581 39.1833 49.5584 39.1833 48.9421V46.3382H42.5993V49.2803C42.5993 49.8966 43.0846 50.3962 43.6833 50.3962C44.2819 50.3962 44.7672 49.8966 44.7672 49.2803V36.1595Z" fill="#9B5602"/>
<path d="M16 50.5566C16 49.7594 16.6277 49.1132 17.402 49.1132H45.598C46.3723 49.1132 47 49.7594 47 50.5566C47 51.3538 46.3723 52 45.598 52H17.402C16.6277 52 16 51.3538 16 50.5566Z" fill="#9B5602"/>
</svg>
