<svg width="62" height="66" viewBox="0 0 62 66" fill="none" xmlns="http://www.w3.org/2000/svg">
<path d="M4.49292 16.1399L4.38861 16.2022L4.2957 16.2805C2.46275 17.825 1.5 19.8727 1.5 22.1479V57.0087C1.5 61.1578 5.05315 64.5 9.22124 64.5H52.9584C57.0892 64.5 60.7067 61.1813 60.4911 56.9681V22.1479C60.4911 19.9446 59.5761 17.6337 57.6071 16.2116L57.5542 16.1734L57.4982 16.1399L35.7137 3.12419C32.9366 0.958605 29.0545 0.958604 26.2774 3.12418L4.49292 16.1399Z" fill="#4A8D45" stroke="white" stroke-width="3"/>
<path d="M35 42L32.4493 24H29.5507L27 42H29.3188L29.7246 38.6829H32.2754L32.6812 42H35ZM29.9275 36.78L30.971 27.8571L31.029 27.8829L32.0725 36.78H29.9275Z" fill="#245B20"/>
<path d="M23 46.5294H39M17 33.8235C17 29.8921 18.475 26.1217 21.1005 23.3417C23.726 20.5618 27.287 19 31 19C34.713 19 38.274 20.5618 40.8995 23.3417C43.525 26.1217 45 29.8921 45 33.8235C45.0013 36.2103 44.4561 38.5618 43.4112 40.6766C42.3662 42.7914 40.8526 44.6064 39 45.9661L37.916 51.4C37.7725 52.4016 37.2947 53.3155 36.5692 53.976C35.8438 54.6365 34.9188 54.9998 33.962 55H28.038C27.0812 54.9998 26.1562 54.6365 25.4308 53.976C24.7053 53.3155 24.2275 52.4016 24.084 51.4L23 45.9894C21.1468 44.6249 19.6331 42.8056 18.5883 40.687C17.5435 38.5684 16.9985 36.2136 17 33.8235Z" stroke="#245B20" stroke-width="2.5" stroke-linecap="round" stroke-linejoin="round"/>
</svg>
