<svg width="62" height="66" viewBox="0 0 62 66" fill="none" xmlns="http://www.w3.org/2000/svg">
<path d="M4.49292 16.1399L4.38861 16.2022L4.2957 16.2805C2.46275 17.825 1.5 19.8727 1.5 22.1479V57.0087C1.5 61.1578 5.05315 64.5 9.22124 64.5H52.9584C57.0892 64.5 60.7067 61.1813 60.4911 56.9681V22.1479C60.4911 19.9446 59.5761 17.6337 57.6071 16.2116L57.5542 16.1734L57.4982 16.1399L35.7137 3.12419C32.9366 0.958605 29.0545 0.958604 26.2774 3.12418L4.49292 16.1399Z" fill="#696A6C" stroke="white" stroke-width="3"/>
<path d="M49 46.9004C48.8075 47.242 48.4225 47.242 48.0374 47.242C47.0749 47.242 46.1123 47.242 45.1497 47.242C45.1497 47.4128 45.1497 47.4128 45.1497 47.5836C45.1497 48.4377 45.1497 49.2918 45.1497 50.1459C45.1497 50.8292 44.9572 51 44.1872 51H39.5668C38.7968 51 38.6043 50.8292 38.6043 50.1459C38.6043 49.2918 38.6043 48.4377 38.6043 47.5836V47.242H34.369V47.9253C34.369 48.6086 34.369 49.4626 34.369 50.1459C34.369 50.6584 34.1765 51 33.4064 51C31.8663 51 30.3262 51 28.5936 51C28.016 51 27.631 50.8292 27.631 50.1459C27.631 49.2918 27.631 48.4377 27.631 47.5836V47.242H23.3957V47.5836C23.3957 48.4377 23.3957 49.2918 23.3957 50.1459C23.3957 50.6584 23.2032 51 22.4331 51C20.893 51 19.3529 51 17.8128 51C17.2353 51 16.8503 50.8292 16.8503 50.1459C16.8503 49.2918 16.8503 48.4377 16.8503 47.5836V47.242H16.6577C15.6952 47.242 14.9251 47.242 13.9626 47.242C13.1925 47.242 13 47.0711 13 46.3879V43.6548C13 43.1423 13.1925 42.8007 13.9626 42.8007C14.9251 42.8007 15.6952 42.8007 16.6577 42.8007H17.0428V36.822H16.4652C15.6952 36.822 14.7326 36.822 13.9626 36.822C13.385 36.822 13.1925 36.6512 13.1925 36.1387C13.1925 35.2846 13.1925 34.2598 13.1925 33.4057C13.1925 32.8932 13.385 32.5516 14.1551 32.5516C14.9251 32.5516 15.8877 32.5516 16.6577 32.5516H17.0428C17.0428 32.3808 17.0428 32.3807 17.0428 32.2099C17.0428 31.5266 17.0428 30.6726 17.0428 29.9893C17.0428 29.6477 17.2353 29.3061 17.4278 28.9644C18.1978 28.452 18.9679 27.7687 19.5454 27.2562C19.9305 26.9146 20.3155 26.9146 20.7005 27.2562C21.4706 27.9395 22.2406 28.4519 23.0107 29.1352C23.2032 29.306 23.3957 29.6477 23.3957 29.8185C23.3957 30.6726 23.3957 31.5267 23.3957 32.3808C23.3957 32.5516 23.3957 32.7224 23.5882 32.7224C24.9358 32.7224 26.0909 32.7224 27.246 32.7224C27.246 32.7224 27.246 32.7224 27.4385 32.7224V32.3808C27.4385 31.5267 27.4385 30.8434 27.4385 29.9893C27.4385 29.6477 27.631 29.4768 27.8235 29.1352C28.5936 28.6227 29.3636 27.9395 30.1337 27.427C30.7112 27.0854 30.9037 27.0854 31.4813 27.427C32.2513 27.9395 32.8289 28.6227 33.5989 29.1352C33.984 29.4768 34.1765 29.6476 34.1765 30.1601C34.1765 31.0142 34.1765 31.8683 34.1765 32.7224H38.4118V32.3808C38.4118 31.5267 38.4118 30.8434 38.4118 29.9893C38.4118 29.6477 38.6043 29.4768 38.7968 29.1352C39.5668 28.6227 40.3369 27.9395 40.9144 27.427C41.492 27.0854 41.6845 27.0854 42.262 27.427C43.0321 27.9395 43.6096 28.6227 44.3797 29.1352C44.7647 29.4768 44.9572 29.6476 44.9572 30.1601C44.9572 31.0142 44.9572 31.8683 44.9572 32.7224H45.5348C46.3048 32.7224 47.0749 32.7224 47.8449 32.7224C48.2299 32.7224 48.615 32.7224 48.8075 33.064V36.4804C48.615 36.822 48.2299 36.9928 47.8449 36.9928C47.2674 36.9928 46.8823 36.9928 46.3048 36.9928H44.9572V42.9715C45.9198 42.9715 46.8823 42.9715 47.8449 42.9715C48.2299 42.9715 48.615 43.1424 48.8075 43.484V46.9004H49ZM22.2406 49.6335C22.2406 43.1423 22.2406 36.6512 22.2406 30.1601C22.2406 30.1601 22.2406 29.9893 22.0481 29.9893C21.4706 29.4768 20.893 29.1352 20.3155 28.6228C19.7379 29.1352 19.1604 29.4768 18.7754 29.9893C18.5829 30.1601 18.5829 30.3309 18.5829 30.5017C18.5829 36.822 18.5829 43.1424 18.5829 49.4627C18.5829 49.6335 18.5829 49.6334 18.5829 49.8042H22.2406V49.6335ZM41.877 28.6228C41.2995 29.1352 40.7219 29.4768 40.3369 29.9893C40.1444 30.1601 40.1444 30.3309 40.1444 30.5017C40.1444 36.822 40.1444 43.1424 40.1444 49.4627C40.1444 49.6335 40.1444 49.6334 40.1444 49.8042H43.8021V49.4627C43.8021 45.363 43.8021 41.4341 43.8021 37.3345C43.8021 35.1138 43.8021 32.7224 43.8021 30.5017C43.8021 30.3309 43.8021 30.1601 43.6096 30.1601C43.0321 29.4768 42.4546 28.9644 41.877 28.6228ZM33.0214 49.6335C33.0214 49.4627 33.0214 49.4626 33.0214 49.2918C33.0214 42.9715 33.0214 36.4804 33.0214 30.1601C33.0214 29.9892 33.0214 29.9893 33.0214 29.8185C32.4438 29.3061 31.8663 28.7935 31.2888 28.4519C30.7112 28.9643 30.1337 29.3061 29.7487 29.8185C29.5561 29.9893 29.5561 30.1601 29.5561 30.3309C29.5561 36.6513 29.5561 42.9715 29.5561 49.2918C29.5561 49.4626 29.5561 49.4627 29.5561 49.6335H33.0214ZM34.369 42.9715H38.6043V37.1637H34.369V42.9715ZM27.8235 37.1637H23.5882V42.9715H27.8235V37.1637ZM38.6043 44.1672H34.5615V46.0463H38.6043V44.1672ZM27.8235 44.1672H23.7807V46.0463H27.8235V44.1672ZM34.369 35.7972H38.4118V34.089H34.369V35.7972ZM23.5882 35.7972H27.631V34.089H23.5882V35.7972ZM47.6524 44.1672H45.1497V46.0463H47.6524V44.1672ZM17.0428 44.1672H14.5401V46.0463H17.0428V44.1672ZM45.1497 35.7972H47.6524V34.089H45.1497V35.7972ZM17.0428 34.089H14.5401V35.7972H17.0428V34.089Z" fill="#414141"/>
<path d="M21.2781 34.9433C21.2781 35.285 20.893 35.6266 20.508 35.6266C20.123 35.6266 19.738 35.285 19.738 34.9433C19.738 34.6017 20.123 34.26 20.508 34.26C20.893 34.0892 21.2781 34.4309 21.2781 34.9433Z" fill="#414141"/>
<path d="M20.3153 44.338C20.7003 44.338 21.0854 44.6795 21.0854 45.0212C21.0854 45.3628 20.7003 45.7045 20.3153 45.7045C19.9303 45.7045 19.5453 45.3628 19.5453 45.0212C19.5453 44.6795 19.9303 44.338 20.3153 44.338Z" fill="#414141"/>
<path d="M42.6468 34.9433C42.6468 35.285 42.2618 35.6266 41.8767 35.6266C41.4917 35.6266 41.1067 35.285 41.1067 34.9433C41.1067 34.6017 41.4917 34.26 41.8767 34.26C42.2618 34.0892 42.6468 34.4309 42.6468 34.9433Z" fill="#414141"/>
<path d="M42.6468 45.1925C42.6468 45.5341 42.2618 45.8757 41.8767 45.8757C41.4917 45.8757 41.1067 45.5341 41.1067 45.1925C41.1067 44.8508 41.4917 44.5092 41.8767 44.5092C42.2618 44.3383 42.6468 44.68 42.6468 45.1925Z" fill="#414141"/>
<path d="M30.3262 45.1923C30.3262 44.8506 30.7112 44.5089 31.0962 44.5089C31.4813 44.5089 31.8663 44.8506 31.8663 45.1923C31.8663 45.5339 31.4813 45.8755 31.0962 45.8755C30.7112 45.8755 30.3262 45.5339 30.3262 45.1923Z" fill="#414141"/>
<path d="M31.8663 34.9433C31.8663 35.285 31.4813 35.6266 31.0962 35.6266C30.7112 35.6266 30.3262 35.285 30.3262 34.9433C30.3262 34.6017 30.7112 34.26 31.0962 34.26C31.4813 34.0892 31.8663 34.4309 31.8663 34.9433Z" fill="#414141"/>
</svg>
