<svg width="62" height="66" viewBox="0 0 62 66" fill="none" xmlns="http://www.w3.org/2000/svg">
<path d="M4.49292 16.1399L4.38861 16.2022L4.2957 16.2805C2.46275 17.825 1.5 19.8727 1.5 22.1479V57.0087C1.5 61.1578 5.05315 64.5 9.22124 64.5H52.9584C57.0892 64.5 60.7067 61.1813 60.4911 56.9681V22.1479C60.4911 19.9446 59.5761 17.6337 57.6071 16.2116L57.5542 16.1734L57.4982 16.1399L35.7137 3.12419C32.9366 0.958605 29.0545 0.958604 26.2774 3.12418L4.49292 16.1399Z" fill="#3978B8" stroke="white" stroke-width="3"/>
<path fill-rule="evenodd" clip-rule="evenodd" d="M30.5938 19.0996C30.4906 19.155 26.9949 21.3375 22.8254 23.9497C15.9612 28.2501 15.2329 28.7218 15.1222 28.9388C15.0142 29.1505 15 29.3103 15 30.3086C15 31.318 15.0134 31.4652 15.1258 31.6855C15.3162 32.0587 15.6138 32.184 16.31 32.184H16.875V40.6543V49.1246H16.31C15.8671 49.1246 15.6917 49.1518 15.4984 49.2505C15.2211 49.392 15 49.7521 15 50.0623C15 50.3725 15.2211 50.7326 15.4984 50.8742C15.7333 50.994 15.8629 51 18.2162 51H20.6875V43.8712C20.6875 36.995 20.6917 36.7341 20.8061 36.5099C20.8756 36.3735 21.0276 36.2196 21.1739 36.1373L21.4233 35.9972H30.9954C40.4654 35.9972 40.5701 35.9985 40.8141 36.123C40.9729 36.204 41.1057 36.3368 41.1867 36.4957C41.3106 36.7386 41.3125 36.8498 41.3125 43.8712V51H43.7838C46.1371 51 46.2668 50.994 46.5016 50.8742C46.7789 50.7326 47 50.3725 47 50.0623C47 49.7521 46.7789 49.392 46.5016 49.2505C46.3083 49.1518 46.1329 49.1246 45.69 49.1246H45.125V40.6543V32.184H45.69C46.3862 32.184 46.6838 32.0587 46.8742 31.6855C46.9868 31.4646 46.9999 31.3192 46.999 30.2955C46.998 29.227 46.9888 29.1363 46.8584 28.9108C46.7356 28.6986 45.8021 28.0952 39.1214 23.9097C34.9429 21.2919 31.4471 19.115 31.3529 19.072C31.1218 18.9667 30.8209 18.9777 30.5938 19.0996ZM23.9391 30.4345C24.2164 30.576 24.4375 30.9361 24.4375 31.2463C24.4375 31.5565 24.2164 31.9166 23.9391 32.0581C23.7188 32.1706 23.5717 32.184 22.5579 32.184C21.4983 32.184 21.4068 32.1747 21.1739 32.0438C20.5449 31.6903 20.5386 30.8346 21.1621 30.4571C21.3951 30.316 21.4583 30.3092 22.5494 30.3089C23.5721 30.3087 23.7184 30.3219 23.9391 30.4345ZM29.5641 30.4345C29.8414 30.576 30.0625 30.9361 30.0625 31.2463C30.0625 31.5565 29.8414 31.9166 29.5641 32.0581C29.3438 32.1706 29.1967 32.184 28.1829 32.184C27.1233 32.184 27.0318 32.1747 26.7989 32.0438C26.1699 31.6903 26.1636 30.8346 26.7871 30.4571C27.0201 30.316 27.0833 30.3092 28.1744 30.3089C29.1971 30.3087 29.3434 30.3219 29.5641 30.4345ZM35.1891 30.4345C35.4664 30.576 35.6875 30.9361 35.6875 31.2463C35.6875 31.5565 35.4664 31.9166 35.1891 32.0581C34.9688 32.1706 34.8217 32.184 33.8079 32.184C32.7482 32.184 32.6568 32.1747 32.4239 32.0438C31.7949 31.6903 31.7886 30.8346 32.4121 30.4571C32.6451 30.316 32.7083 30.3092 33.7994 30.3089C34.8221 30.3087 34.9684 30.3219 35.1891 30.4345ZM40.8141 30.4345C41.0914 30.576 41.3125 30.9361 41.3125 31.2463C41.3125 31.5565 41.0914 31.9166 40.8141 32.0581C40.5938 32.1706 40.4467 32.184 39.4329 32.184C38.3732 32.184 38.2818 32.1747 38.0489 32.0438C37.4199 31.6903 37.4136 30.8346 38.0371 30.4571C38.2701 30.316 38.3333 30.3092 39.4244 30.3089C40.4471 30.3087 40.5934 30.3219 40.8141 30.4345ZM22.5625 38.8102V39.7479H31H39.4375V38.8102V37.8725H31H22.5625V38.8102ZM22.5625 42.5609V43.4986H31H39.4375V42.5609V41.6232H31H22.5625V42.5609ZM22.5625 46.3116V47.2493H31H39.4375V46.3116V45.3739H31H22.5625V46.3116ZM22.5625 50.0623V51H31H39.4375V50.0623V49.1246H31H22.5625V50.0623Z" fill="#154B82"/>
</svg>
