<svg width="62" height="66" viewBox="0 0 62 66" fill="none" xmlns="http://www.w3.org/2000/svg">
<path d="M4.49292 16.1399L4.38861 16.2022L4.2957 16.2805C2.46275 17.825 1.5 19.8727 1.5 22.1479V57.0087C1.5 61.1578 5.05315 64.5 9.22124 64.5H52.9584C57.0892 64.5 60.7067 61.1813 60.4911 56.9681V22.1479C60.4911 19.9446 59.5761 17.6337 57.6071 16.2116L57.5542 16.1734L57.4982 16.1399L35.7137 3.12419C32.9366 0.958605 29.0545 0.958604 26.2774 3.12418L4.49292 16.1399Z" fill="#575B41" stroke="white" stroke-width="3"/>
<path d="M24 37.6667V39C24 40.3556 24.1462 41.0889 24.376 41.6222C24.8565 42.7778 25.7338 43 26.4231 43C27.7183 43 28.2823 42.2 28.533 41.6222C28.8463 40.9111 28.8672 40.0222 28.8672 39.2444V36.8667C28.8672 36.5333 28.8463 36.1333 28.721 35.6889C28.5538 35.1333 28.2823 34.7111 27.5929 34.4444V34.3778C27.9481 34.2889 28.1569 34.1111 28.345 33.8222C28.7627 33.1778 28.8045 32.2667 28.8045 31.4444V30.2222C28.8045 29.7556 28.7627 28.8889 28.3867 28.2C27.7809 27.0667 26.8409 27 26.3814 27C25.1071 27 24.5849 27.8667 24.376 28.3333C24.188 28.7778 24.0836 29.3778 24.0836 30.4V31.5556H25.504V29.9333C25.504 29.6222 25.504 29.2444 25.6711 28.9778C25.7965 28.8 26.0471 28.6444 26.3187 28.6444C26.6529 28.6444 26.8827 28.8 27.008 29C27.0707 29.1111 27.1752 29.3556 27.1752 29.8667V32.3111C27.1752 33.2889 26.7574 33.5556 26.4231 33.5556H25.6711V35.2H26.4858C26.7574 35.2 26.9872 35.2667 27.1334 35.7111C27.2169 35.9556 27.2378 36.2889 27.2378 36.9333V39.7333C27.2378 40.5333 27.1752 40.7556 27.1334 40.8667C27.0498 41.0889 26.8409 41.3556 26.3814 41.3556C26.068 41.3556 25.7965 41.2222 25.6294 40.8667C25.5249 40.6667 25.4622 40.3333 25.4622 39.4889V37.6667H24Z" fill="#30312C"/>
<path d="M34.8248 42.7778L36.4542 30.1778H36.5169L36.3706 32.2444V42.7778H38V27.2222H35.4933L34.2399 37.2222H34.1982L32.9448 27.2222H30.4381V42.7778H32.0675V32.2444L31.9212 30.1778H31.9839L33.6133 42.7778H34.8248Z" fill="#30312C"/>
<path fill-rule="evenodd" clip-rule="evenodd" d="M34 52.8984L31 57L28 52.8984L30.4804 52.8984L30.4804 47L31.5196 47L31.5196 52.8984L34 52.8984Z" fill="#30312C"/>
<path fill-rule="evenodd" clip-rule="evenodd" d="M34 17.1016L31 13L28 17.1016L30.4804 17.1016L30.4804 23L31.5196 23L31.5196 17.1016L34 17.1016Z" fill="#30312C"/>
</svg>
