<svg width="62" height="66" viewBox="0 0 62 66" fill="none" xmlns="http://www.w3.org/2000/svg">
<path d="M4.49292 16.1399L4.38861 16.2022L4.2957 16.2805C2.46275 17.825 1.5 19.8727 1.5 22.1479V57.0087C1.5 61.1578 5.05315 64.5 9.22124 64.5H52.9584C57.0892 64.5 60.7067 61.1813 60.4911 56.9681V22.1479C60.4911 19.9446 59.5761 17.6337 57.6071 16.2116L57.5542 16.1734L57.4982 16.1399L35.7137 3.12419C32.9366 0.958605 29.0545 0.958604 26.2774 3.12418L4.49292 16.1399Z" fill="#A61C20" stroke="white" stroke-width="3"/>
<path fill-rule="evenodd" clip-rule="evenodd" d="M17.0197 26.9684C17.0383 28.8231 17.0461 28.9542 17.1561 29.2381C17.5781 30.328 18.5019 31.0172 19.6686 31.1126C21.0392 31.2248 22.3462 30.3073 22.6622 29.0112C22.7275 28.7436 22.745 28.2873 22.7456 26.8363L22.7464 25H19.8732H17L17.0197 26.9684ZM24.4417 26.8363C24.4423 28.2873 24.4598 28.7436 24.525 29.0112C24.841 30.3073 26.1481 31.2248 27.5187 31.1126C28.6721 31.0183 29.6157 30.3186 30.0258 29.2539C30.1426 28.9507 30.1487 28.8508 30.1676 26.9684L30.1873 25H27.3141H24.4409L24.4417 26.8363ZM31.8746 26.8927C31.8746 28.48 31.8888 28.8319 31.9627 29.0725C32.3622 30.3736 33.5578 31.2006 34.9116 31.1123C36.1933 31.0287 37.2697 30.128 37.5352 28.9169C37.5923 28.6566 37.6122 28.1099 37.6129 26.7835L37.6138 25H34.7442H31.8746V26.8927ZM39.2544 26.8363C39.255 28.2873 39.2725 28.7436 39.3378 29.0112C39.6538 30.3073 40.9608 31.2248 42.3314 31.1126C43.4981 31.0172 44.4219 30.3279 44.844 29.2381C44.9539 28.9542 44.9617 28.8231 44.9803 26.9684L45 25H42.1268H39.2536L39.2544 26.8363ZM17.008 33.5474C17.0089 35.5029 17.0361 35.7357 17.3296 36.2979C17.6607 36.9321 18.3264 37.4767 19.0256 37.6856C19.5136 37.8313 20.2399 37.8313 20.7279 37.6856C21.4269 37.4768 22.0893 36.9388 22.4148 36.3155C22.7283 35.7151 22.7464 35.5651 22.7464 33.5759C22.7464 32.5793 22.7342 31.7639 22.7192 31.7639C22.7043 31.7639 22.5751 31.8444 22.4322 31.9428C22.0528 32.204 21.5532 32.4334 21.0683 32.5691C20.5083 32.7258 19.3096 32.736 18.7563 32.5888C18.2971 32.4667 17.6673 32.1847 17.3289 31.9496C17.1819 31.8475 17.0493 31.7639 17.0344 31.7639C17.0194 31.7639 17.0075 32.5665 17.008 33.5474ZM24.4409 33.5759C24.4409 35.5331 24.4628 35.7276 24.7472 36.2953C25.0463 36.8922 25.7696 37.4796 26.4593 37.6856C26.9473 37.8313 27.6736 37.8313 28.1616 37.6856C28.8602 37.4769 29.4833 36.9695 29.8438 36.3156C30.1434 35.7721 30.1781 35.4834 30.1792 33.521C30.1797 32.5546 30.1679 31.7639 30.1529 31.7639C30.138 31.7639 30.0054 31.8475 29.8584 31.9496C29.5255 32.1809 28.8902 32.4669 28.4583 32.58C27.9288 32.7187 27.0088 32.7459 26.4622 32.639C25.8856 32.5262 25.296 32.2923 24.8348 31.9933C24.6402 31.8671 24.472 31.7639 24.461 31.7639C24.4499 31.7639 24.4409 32.5793 24.4409 33.5759ZM31.8857 33.7239C31.9023 35.6275 31.9074 35.7115 32.025 35.9914C32.3757 36.8265 33.0848 37.4574 33.9516 37.7055C34.4192 37.8394 35.1738 37.8218 35.6363 37.6664C36.6202 37.3356 37.3179 36.5729 37.5312 35.5951C37.5928 35.3128 37.6121 34.8153 37.6129 33.4946C37.6134 32.5427 37.6012 31.7639 37.5859 31.7639C37.5705 31.7639 37.4168 31.8563 37.2443 31.9691C36.842 32.2322 36.579 32.3569 36.138 32.4938C34.7153 32.9353 33.2533 32.7025 31.9944 31.8341L31.8684 31.7471L31.8857 33.7239ZM39.2536 33.5759C39.2536 35.5439 39.2731 35.7122 39.5683 36.2962C39.8781 36.909 40.5752 37.4774 41.2721 37.6856C41.7601 37.8313 42.4864 37.8313 42.9744 37.6856C43.6736 37.4767 44.3393 36.9321 44.6704 36.2979C44.9639 35.7357 44.9911 35.5029 44.992 33.5474C44.9925 32.5665 44.9806 31.7639 44.9656 31.7639C44.9507 31.7639 44.8182 31.8475 44.6711 31.9496C44.3382 32.1809 43.7029 32.4669 43.2711 32.58C42.7416 32.7187 41.8216 32.7459 41.2749 32.639C40.6983 32.5262 40.1087 32.2923 39.6475 31.9933C39.4529 31.8671 39.2847 31.7639 39.2737 31.7639C39.2626 31.7639 39.2536 32.5793 39.2536 33.5759ZM17.008 40.1773C17.0086 41.5593 17.0265 42.0088 17.0913 42.2748C17.3918 43.5072 18.5575 44.3948 19.8731 44.3929C20.6936 44.3917 21.3152 44.1459 21.8855 43.5969C22.2948 43.203 22.5942 42.6764 22.6909 42.1801C22.7214 42.0235 22.7464 41.1119 22.7464 40.1543V38.4132L22.4807 38.6018C21.2499 39.4752 19.412 39.6417 18.0086 39.0069C17.823 38.9228 17.5216 38.756 17.3391 38.6362L17.0072 38.4182L17.008 40.1773ZM24.4409 40.2073C24.4409 41.6186 24.4579 42.0567 24.5222 42.2955C24.7847 43.2694 25.592 44.0626 26.5797 44.3167C26.9485 44.4116 27.6629 44.4141 28.0211 44.3218C29.0728 44.0507 29.9316 43.1631 30.1213 42.1511C30.1553 41.9695 30.1801 41.1184 30.1801 40.1279V38.4182L29.8482 38.6362C29.0489 39.1609 28.2912 39.3843 27.3105 39.3843C26.3328 39.3843 25.5502 39.1534 24.7599 38.6319L24.4409 38.4214V40.2073ZM31.8752 40.2322C31.8759 42.1853 31.8928 42.3342 32.1784 42.8984C32.3656 43.2683 32.87 43.7881 33.2649 44.018C33.872 44.3714 34.7496 44.4896 35.4525 44.3126C36.2081 44.1223 36.9356 43.5633 37.2728 42.9138C37.5812 42.3198 37.6171 42.0132 37.6009 40.1144L37.5865 38.425L37.2389 38.6588C36.835 38.9307 36.2488 39.1782 35.7187 39.3008C35.2071 39.419 34.312 39.4182 33.7603 39.299C33.2618 39.1912 32.5342 38.8805 32.1415 38.6078L31.8746 38.4224L31.8752 40.2322ZM39.2536 40.2073C39.2536 42.1711 39.272 42.3203 39.5883 42.9275C39.6943 43.1311 39.8988 43.3888 40.1226 43.6008C40.6995 44.1474 41.3182 44.3922 42.1232 44.3922C42.9284 44.3922 43.5475 44.1472 44.1232 43.6008C44.5202 43.2241 44.8242 42.6924 44.9329 42.1847C44.9693 42.0145 44.9928 41.2214 44.9928 40.163V38.4214L44.6738 38.6319C43.8835 39.1534 43.1009 39.3843 42.1232 39.3843C41.1455 39.3843 40.3629 39.1534 39.5726 38.6319L39.2536 38.4214V40.2073ZM17.0072 46.7657C17.0072 47.826 17.0307 48.6199 17.0671 48.7901C17.283 49.7984 18.133 50.6557 19.1741 50.9152C20.6983 51.2951 22.3015 50.3599 22.6622 48.8803C22.7271 48.6142 22.745 48.1647 22.7456 46.7827L22.7464 45.0236L22.4123 45.243C21.6499 45.7436 20.841 45.978 19.8768 45.978C18.9469 45.978 18.0404 45.7209 17.3929 45.2735C17.2559 45.1788 17.1131 45.0834 17.0755 45.0614C17.0214 45.0297 17.0072 45.3841 17.0072 46.7657ZM24.4409 46.8142C24.4409 48.2242 24.458 48.6622 24.5222 48.9009C24.8556 50.138 25.9997 50.9989 27.3105 50.9989C28.5261 50.9989 29.5558 50.2943 30.0125 49.1502C30.1485 48.8093 30.15 48.7874 30.1687 46.9121C30.1842 45.3542 30.1748 45.0262 30.1155 45.0626C30.0759 45.087 29.899 45.1987 29.7224 45.3108C29.0079 45.7648 28.2458 45.9778 27.3342 45.9784C27.0165 45.9786 26.6107 45.9528 26.4323 45.9211C25.9488 45.8352 25.3169 45.5826 24.853 45.2899L24.4409 45.0297V46.8142ZM31.8752 46.8371C31.8759 48.7942 31.8922 48.9365 32.1816 49.5124C32.2677 49.6837 32.4839 49.9583 32.6911 50.1595C33.4269 50.8742 34.41 51.1483 35.4155 50.9191C36.2462 50.7297 36.9336 50.1844 37.3214 49.4072C37.5771 48.8949 37.6118 48.5749 37.6129 46.7254L37.6138 45.0147L37.4908 45.0981C37.0625 45.3886 36.5898 45.626 36.138 45.7777C35.6347 45.9466 35.5918 45.9519 34.7442 45.9522C33.9786 45.9524 33.8187 45.9369 33.461 45.8283C32.977 45.6814 32.6176 45.5131 32.1888 45.2325L31.8746 45.0268L31.8752 46.8371ZM39.2544 46.7815C39.255 48.1645 39.2729 48.6142 39.3378 48.8803C39.6367 50.1063 40.8102 50.9989 42.1232 50.9989C43.4936 50.9989 44.7113 50.0154 44.9368 48.7266C44.9743 48.512 44.9909 47.7537 44.9811 46.7052L44.9655 45.0273L44.6922 45.219C43.2798 46.2093 41.0305 46.2349 39.6435 45.2764C39.5042 45.1801 39.3595 45.0834 39.3219 45.0614C39.2678 45.0297 39.2538 45.3872 39.2544 46.7815Z" fill="#750B0E"/>
</svg>
